<?xml version="1.0" standalone="no"?>
<!DOCTYPE svg PUBLIC "-//W3C//DTD SVG 1.1//EN" "http://www.w3.org/Graphics/SVG/1.1/DTD/svg11.dtd" >
<svg xmlns="http://www.w3.org/2000/svg">
<metadata></metadata>
<defs>
<font id="officeworksboldbold" horiz-adv-x="1265" >
<font-face units-per-em="2048" ascent="1536" descent="-512" />
<missing-glyph horiz-adv-x="632" />
<glyph horiz-adv-x="2048" />
<glyph horiz-adv-x="2048" />
<glyph unicode="&#xd;" horiz-adv-x="0" />
<glyph unicode=" "  horiz-adv-x="632" />
<glyph unicode="&#x09;" horiz-adv-x="632" />
<glyph unicode="&#xa0;" horiz-adv-x="632" />
<glyph unicode="!" horiz-adv-x="681" d="M166 -2v352h344v-352h-344zM166 500v1005h344v-1005h-344z" />
<glyph unicode="&#x22;" horiz-adv-x="948" d="M72 1505h348l-70 -604h-211zM528 1505h349l-70 -604h-211z" />
<glyph unicode="#" d="M59 436l29 226h207l22 157h-206l30 225h209l47 326h232l-47 -326h159l45 326h234l-47 -326h229l-31 -225h-231l-22 -157h229l-31 -226h-231l-47 -346h-230l47 346h-159l-47 -346h-232l47 346h-205zM528 662h158l23 157h-158z" />
<glyph unicode="$" d="M168 455h348q0 -70 36 -108t85 -38q47 0 81 37t34 84q0 61 -42 99t-105.5 67t-138.5 57.5t-138.5 74.5t-105.5 118t-42 186q0 88 29 155.5t75 117t105.5 81t120.5 48.5v215h270v-213q57 -14 108.5 -41t90.5 -72t61.5 -110.5t22.5 -155.5h-315q-2 35 -13 63 q-10 25 -32.5 45.5t-65.5 20.5q-47 0 -79 -31t-32 -84q0 -61 42 -97t106.5 -64.5t138.5 -57.5t138.5 -76t106.5 -118.5t42 -186.5q0 -61 -21.5 -124.5t-61.5 -120t-100.5 -101.5t-136.5 -68v-213h-270v207q-160 31 -251 132.5t-91 271.5z" />
<glyph unicode="%" horiz-adv-x="1757" d="M76 1167q0 76 28.5 142.5t78.5 117t117 79t142 28.5q76 0 142.5 -28.5t117 -79t79 -117t28.5 -142.5t-28.5 -142.5t-79 -116.5t-117 -78.5t-142.5 -28.5t-142.5 28.5t-116.5 78.5t-78.5 117t-28.5 142zM299 1167q0 -59 42 -101t101 -42t101.5 42t42.5 101t-42 101.5 t-102 42.5q-59 0 -101 -42t-42 -102zM440 -2l623 1507h237l-626 -1507h-234zM940 336q0 76 28.5 142.5t79 116.5t117 78.5t142.5 28.5t142.5 -28.5t116.5 -78.5t78.5 -116.5t28.5 -142.5t-28.5 -143.5t-78.5 -117.5t-116.5 -79t-142.5 -29t-142.5 29t-117 79t-79 117.5 t-28.5 143.5zM1163 336q0 -59 42 -101t102 -42q59 0 101 42t42 101t-42 101t-101 42t-101.5 -42t-42.5 -101z" />
<glyph unicode="&#x26;" horiz-adv-x="1552" d="M104 408q0 98 43 173.5t97 129.5q61 61 139 108q-41 39 -72 92q-29 45 -50 109.5t-21 146.5t37.5 150.5t97 116t134 74t148.5 26.5q76 0 146.5 -25.5t126 -74t89.5 -117t34 -154.5t-33 -150.5t-72 -107.5q-47 -53 -104 -88l178 -178l108 246h357q-16 -43 -35 -86 q-16 -37 -32.5 -79t-33.5 -79q-25 -59 -46 -99t-36.5 -66.5t-27.5 -42t-19 -25.5l205 -213l-229 -226l-176 183q-55 -53 -123 -93q-59 -35 -141 -62.5t-187 -27.5q-102 0 -193 36t-160 95.5t-109 139t-40 168.5zM473 442q0 -25 9.5 -50t29.5 -47.5t54 -37t81 -14.5t82 12 t57 29q25 18 43 41l-239 241q-59 -37 -88 -82t-29 -92zM567 1161q0 -33 13.5 -61.5t29.5 -50.5q18 -27 43 -50q25 23 47 50q16 23 32 52t16 64q-1 97 -89 97q-53 0 -72.5 -33t-19.5 -68z" />
<glyph unicode="'" horiz-adv-x="495" d="M72 1505h348l-70 -604h-213z" />
<glyph unicode="(" horiz-adv-x="968" d="M129 467q0 158 32 287t84 233.5t117.5 185t135.5 142.5q161 143 368 219v-354q-102 -59 -182 -158q-35 -41 -66.5 -94.5t-57 -119t-41 -144t-15.5 -170.5t15.5 -170t41 -143.5t57 -118t66.5 -93.5q80 -96 182 -153v-353q-207 82 -368 222q-70 59 -135.5 136t-117.5 173 t-84 214t-32 259z" />
<glyph unicode=")" horiz-adv-x="968" d="M88 -184q100 57 180 153q33 41 66 93.5t59.5 118t42 143t15.5 170.5q0 92 -15.5 170.5t-42 144t-59.5 119t-66 94.5q-80 98 -180 158v354q207 -76 369 -219q70 -61 136 -142t118.5 -185.5t84 -233.5t31.5 -287q0 -141 -31.5 -259t-84 -214t-119 -173t-135.5 -136 q-162 -139 -369 -222v353z" />
<glyph unicode="*" horiz-adv-x="1372" d="M227 1098l74 221l274 -111l-20 297h244l-29 -299l277 113l77 -221l-288 -70l190 -240l-190 -141l-158 266l-170 -266l-189 141l201 228z" />
<glyph unicode="+" horiz-adv-x="1228" d="M109 352v326h346v352h325v-352h346v-326h-346v-352h-325v352h-346z" />
<glyph unicode="," horiz-adv-x="643" d="M143 0v346h353v-428q0 -117 -59.5 -181.5t-149.5 -64.5h-144v181h72q37 0 61.5 16t24.5 47v84h-158z" />
<glyph unicode="-" horiz-adv-x="575" d="M0 422v332h571v-332h-571z" />
<glyph unicode="." horiz-adv-x="643" d="M147 0v346h353v-346h-353z" />
<glyph unicode="/" horiz-adv-x="1214" d="M150 -203l538 1708h375l-539 -1708h-374z" />
<glyph unicode="0" d="M70 543v418q0 162 57 272t142 177t184.5 95.5t183.5 28.5q135 0 238.5 -48t174 -127t107.5 -178.5t37 -201.5v-465q0 -131 -49 -232.5t-127 -170t-174 -104.5t-189 -36q-92 0 -195.5 30t-190.5 96.5t-143 176t-56 269.5zM455 532q0 -109 48 -167t128 -58t129 54.5 t49 170.5v439q0 111 -43 168t-135 57q-53 0 -88 -20.5t-54.5 -53t-26.5 -72.5t-7 -79v-439z" />
<glyph unicode="1" d="M215 1182v323h631v-1507h-385v1184h-246z" />
<glyph unicode="2" d="M96 950q0 102 30 206t94.5 187.5t169 137t255.5 53.5q150 0 249 -48t159.5 -120t85 -152.5t24.5 -144.5q0 -74 -22.5 -144.5t-60.5 -137t-85 -127t-96 -111.5q-115 -123 -262 -227h537v-324h-1063v289q131 70 251.5 169t213 206.5t147.5 210t55 176.5q0 61 -30.5 104 t-116.5 43q-68 0 -102.5 -38t-49.5 -85q-18 -53 -16 -123h-367z" />
<glyph unicode="3" d="M76 442h389q12 -49 31.5 -75.5t42 -40t48 -16.5t52.5 -3t55.5 8.5t53 29t40 53t15.5 79.5t-18.5 77t-48 46t-65.5 22.5t-69 6.5h-145v282h41q16 0 32.5 1t26.5 1q70 0 116 36t46 98q0 61 -18.5 105t-86.5 44q-45 0 -68.5 -20.5t-33.5 -42.5q-12 -27 -16 -62h-379 q0 113 44 199t115.5 144.5t165 89t191.5 30.5t184 -34t149.5 -91t100.5 -131t37 -156q0 -98 -37 -159.5t-82 -96.5q-53 -41 -117 -59q90 -20 160 -66q31 -20 59.5 -46.5t51 -63.5t36 -84t13.5 -105q0 -109 -51.5 -195.5t-131 -148t-179 -95.5t-195.5 -34t-190.5 23.5 t-171 79t-129 145.5t-64.5 225z" />
<glyph unicode="4" d="M35 268v283l676 954h354v-934h168v-303h-168v-270h-369v270h-661zM397 571h324v486z" />
<glyph unicode="5" d="M59 401h387q8 -23 29 -40t46.5 -29.5t53 -18.5t48.5 -6q33 0 69.5 12.5t66 38t49 63.5t19.5 87q0 100 -60 148.5t-146 48.5q-57 0 -95.5 -21.5t-60.5 -46.5q-27 -31 -43 -68l-311 76l133 860h831v-323h-536l-54 -228q18 18 50 33q27 12 69.5 22.5t104.5 10.5 q117 0 210 -46t158.5 -119t100 -163t34.5 -176q0 -88 -32.5 -184t-102 -177t-180.5 -134.5t-264 -53.5q-154 0 -255.5 44t-166 109.5t-99 141.5t-53.5 139z" />
<glyph unicode="6" d="M45 553q0 90 25.5 170t59.5 144.5t66.5 109.5t47.5 67q8 10 25.5 36t41 61t50 74.5t55.5 80.5q66 96 143 209h445l-349 -485q16 8 33 16q14 6 30.5 12.5t31.5 6.5q115 0 202.5 -46t148 -120t91.5 -165t31 -179q0 -127 -45 -232.5t-124 -182.5t-185.5 -119t-229.5 -42 t-230.5 41t-188.5 117t-128 184.5t-47 241.5zM424 518q0 -33 12.5 -69.5t37 -68.5t62 -52.5t91.5 -20.5q53 0 93 18.5t66.5 47t40 65.5t13.5 74t-12.5 74t-39 65.5t-66.5 47t-95 18.5q-49 0 -87 -19.5t-63.5 -48t-39 -64.5t-13.5 -67z" />
<glyph unicode="7" d="M133 1182v323h985v-295l-534 -1212h-422l577 1184h-606z" />
<glyph unicode="8" d="M76 446q0 109 43 180.5t96 116.5q61 53 139 84q-53 23 -94 62q-35 35 -64.5 88t-29.5 133q0 78 31.5 153.5t91 136t145 97.5t191.5 37q121 0 208 -40t143 -102.5t82.5 -136t26.5 -141.5t-27.5 -122t-62.5 -93q-39 -45 -90 -78q76 -25 135 -73q51 -41 93.5 -115t42.5 -187 t-49.5 -201.5t-128 -150t-176 -93.5t-195.5 -32q-96 0 -194.5 34t-177.5 97.5t-129 150.5t-50 195zM461 481q0 -33 12 -64.5t33.5 -56t52.5 -39t70 -14.5q66 0 114 48t48 124q0 74 -47 123t-119 49q-37 0 -67 -14t-51.5 -38t-33.5 -54.5t-12 -63.5zM487 1083q0 -51 35 -95 t101 -44t103.5 39t37.5 104q0 66 -41 101t-96 35q-59 0 -99.5 -44t-40.5 -96z" />
<glyph unicode="9" d="M45 958q0 127 45 232.5t124 182.5t185.5 119t229.5 42t231.5 -41t189 -117t128 -184.5t47.5 -241.5q0 -90 -25.5 -170t-59.5 -144.5t-68 -109.5t-48 -67q-8 -12 -25.5 -38t-41 -59.5t-51 -73.5t-54.5 -81q-66 -96 -141 -209h-445l348 485q-16 -10 -32 -18 q-14 -6 -30.5 -11t-31.5 -5q-117 0 -205 46t-148.5 119.5t-91 163.5t-30.5 180zM430 991q0 -37 12.5 -73.5t38 -65.5t65.5 -47.5t95 -18.5q51 0 89 18.5t63.5 48.5t39 64.5t13.5 67.5t-12.5 70t-37 68.5t-63.5 52t-92 20.5t-93 -18.5t-65.5 -47t-39 -65.5t-13.5 -74z" />
<glyph unicode=":" horiz-adv-x="643" d="M150 0v346h350v-346h-350zM150 788v347h350v-347h-350z" />
<glyph unicode=";" horiz-adv-x="643" d="M150 0v346h352v-428q0 -117 -59.5 -181.5t-149.5 -64.5h-143v181h69q39 0 63.5 16t24.5 47v84h-157zM150 788v347h352v-347h-352z" />
<glyph unicode="&#x3c;" horiz-adv-x="1228" d="M98 362v304l1032 440v-356l-724 -238l724 -233v-357z" />
<glyph unicode="=" horiz-adv-x="1228" d="M104 84v326h1016v-326h-1016zM104 621v325h1016v-325h-1016z" />
<glyph unicode="&#x3e;" horiz-adv-x="1228" d="M94 -78v357l727 233l-727 238v356l1034 -440v-304z" />
<glyph unicode="?" horiz-adv-x="1212" d="M100 1079.5q4 53.5 24.5 113.5t57.5 120.5t98.5 110t148.5 80t206 30.5q137 0 230 -43t150.5 -108.5t82 -146.5t24.5 -155t-28.5 -135t-71.5 -113.5t-92 -98.5t-92 -89t-72 -84t-29 -84h-354q0 68 25.5 125t64.5 107.5t85 95.5t85 88t64.5 84t25.5 84q0 45 -24.5 85 t-94.5 40t-104.5 -39t-34.5 -156h-373q-6 35 -2 88.5zM379 0v346h352v-346h-352z" />
<glyph unicode="@" horiz-adv-x="1531" d="M-2 741q0 135 51 277.5t151.5 257.5t249 188.5t345.5 73.5q131 0 260 -42t231.5 -126t166 -209t63.5 -291q0 -111 -24 -194.5t-60.5 -144t-82.5 -101.5t-90.5 -64.5t-83 -33.5t-59.5 -10q-16 0 -46 5t-61.5 23.5t-58 53t-32.5 92.5q-16 -53 -46 -87t-64 -53.5t-70 -26.5 t-62 -7q-55 0 -110.5 23.5t-99.5 69.5t-71.5 113.5t-27.5 153.5t29.5 168t81.5 146.5t124 103.5t156 39q61 0 101 -23.5t63 -52.5q27 -33 39 -74l20 125h211q-23 -131 -41 -237q-8 -45 -15.5 -90.5t-13.5 -82t-11 -63.5t-5 -35q-2 -16 -3 -32.5t3 -30t15.5 -21.5t35.5 -8 q25 0 54.5 22.5t55 66.5t44 110.5t18.5 154.5q0 86 -32.5 173t-98 156t-164 112t-231.5 43t-242.5 -51.5t-188.5 -136.5t-123 -196.5t-44 -230.5q0 -121 38 -227.5t113.5 -186t186 -125.5t258.5 -46q92 0 171 12t138 29q70 18 129 43l43 -187q-59 -25 -133 -43 q-63 -16 -152.5 -28.5t-195.5 -12.5q-211 0 -362.5 72t-250 184.5t-144.5 249.5t-46 270zM584 690q0 -49 13 -83t34.5 -54.5t48.5 -29.5t51 -9q27 0 59.5 12.5t61.5 43t48.5 82.5t19.5 130q0 164 -136 164q-33 0 -68.5 -17.5t-64 -51t-48 -80.5t-19.5 -107z" />
<glyph unicode="A" horiz-adv-x="1552" d="M25 0l602 1505h303l594 -1505h-412l-74 217h-526l-80 -217h-407zM621 522h315l-156 541z" />
<glyph unicode="B" horiz-adv-x="1325" d="M135 0v1505h543q90 0 178 -19.5t158.5 -65.5t113.5 -121.5t43 -188.5q0 -53 -17 -102.5t-45 -91.5t-61.5 -70.5t-66.5 -38.5q31 -10 77 -30.5t87 -60.5t70.5 -102.5t29.5 -154.5q0 -115 -41 -201t-114.5 -143.5t-178 -86t-229.5 -28.5h-547zM504 338h198q31 0 63 7 t56.5 24.5t40 44t15.5 67.5t-15.5 66.5t-39 40t-53.5 19.5t-58 5h-207v-274zM504 934h137q88 0 125 31.5t37 89.5q0 112 -141 112h-3h-155v-233z" />
<glyph unicode="C" horiz-adv-x="1703" d="M76 756q0 184 70.5 328.5t184 245t254 152.5t281.5 52q156 0 282 -48t221 -131t160.5 -192.5t100.5 -232.5h-401q-20 57 -56 105t-83.5 84t-104.5 56.5t-121 20.5q-66 0 -136.5 -23.5t-129.5 -76t-98 -136t-39 -202.5q0 -121 39 -206t99 -138.5t131 -79t136 -25.5 q129 0 222.5 73t140.5 187h401q-25 -109 -89 -215t-162.5 -191t-227.5 -138.5t-281 -53.5q-154 0 -297 53.5t-253.5 154t-177 246.5t-66.5 331z" />
<glyph unicode="D" horiz-adv-x="1519" d="M119 0v1505h549q123 0 256 -35.5t243.5 -121.5t182 -229.5t71.5 -360.5t-65.5 -362.5t-176 -233.5t-255 -125t-299.5 -37h-506zM504 338h164q74 0 141.5 21.5t117.5 70.5t79.5 128t29.5 194q0 113 -29.5 191.5t-79.5 128.5t-117 72.5t-140 22.5h-166v-829z" />
<glyph unicode="E" horiz-adv-x="1081" d="M137 0v1505h842v-338h-477v-233h463v-338h-463v-258h477v-338h-842z" />
<glyph unicode="F" horiz-adv-x="1036" d="M133 0v1505h828v-338h-461v-256h444v-338h-444v-573h-367z" />
<glyph unicode="G" horiz-adv-x="1748" d="M78 760q0 133 52 270t154.5 250t253 183.5t347.5 70.5q147 0 271 -46t219 -121t162 -171t101 -195h-432q-29 53 -73 97q-41 37 -103.5 67.5t-155.5 30.5q-92 0 -167.5 -33t-130 -90t-84 -138t-29.5 -175q0 -96 28.5 -179t82 -143.5t130 -95.5t173.5 -35q96 0 161.5 26.5 t106.5 63.5t61.5 79t30.5 73h-436v307h878v-31q0 -12 1 -25.5t1 -21.5q0 -152 -51 -296t-151.5 -258.5t-251 -184.5t-348.5 -70q-199 0 -349.5 74t-251 188.5t-150.5 255t-50 273.5z" />
<glyph unicode="H" horiz-adv-x="1544" d="M141 0v1505h381v-569h502v569h379v-1505h-379v598h-502v-598h-381z" />
<glyph unicode="I" horiz-adv-x="661" d="M141 0v1505h383v-1505h-383z" />
<glyph unicode="J" horiz-adv-x="1183" d="M20 485h410q0 -72 24.5 -124t90.5 -52t91.5 42t25.5 118v1036h385v-1001q0 -141 -43 -242.5t-117 -166t-170 -94.5t-203 -30q-37 0 -87 7.5t-104.5 28t-108.5 56t-97 93t-70 138.5t-27 191z" />
<glyph unicode="K" horiz-adv-x="1447" d="M182 0v1505h383v-700l430 700h404l-512 -749l545 -756h-451l-414 672l-2 -672h-383z" />
<glyph unicode="L" horiz-adv-x="997" d="M147 0v1505h385v-1167h449v-338h-834z" />
<glyph unicode="M" horiz-adv-x="1873" d="M141 0v1505h492l305 -1016l301 1016h492v-1505h-353l17 1176l-330 -1176h-256l-324 1176l11 -1176h-355z" />
<glyph unicode="N" horiz-adv-x="1554" d="M143 0v1505h330l594 -975l-23 975h369v-1505h-334l-583 948l14 -948h-367z" />
<glyph unicode="O" horiz-adv-x="1742" d="M72 754q0 162 62.5 304t170 248.5t251.5 168t308 61.5t309.5 -61.5t253 -168t170 -249t62.5 -303.5q0 -162 -62.5 -304.5t-170 -249t-253 -168t-309.5 -61.5t-308 61.5t-251.5 168t-170 249t-62.5 304.5zM451 754q0 -90 32.5 -171t88 -140.5t131 -94.5t161.5 -35t162 35 t132 94.5t89 140.5t33 171q0 92 -33 172t-89 139t-132 94t-162 35t-161.5 -35t-131 -94t-88 -139t-32.5 -172z" />
<glyph unicode="P" horiz-adv-x="1302" d="M139 0v1505h516q299 0 458 -121.5t159 -386.5q0 -147 -50.5 -247.5t-131 -162t-183 -88t-209.5 -26.5h-190v-473h-369zM508 811h172q109 0 166 42t57 138q0 47 -17.5 80t-48 54.5t-70.5 31.5t-85 10h-174v-356z" />
<glyph unicode="Q" horiz-adv-x="1773" d="M78 754q0 162 62.5 304t170 248.5t252 168t307.5 61.5q164 0 309.5 -61.5t253 -168t170 -249t62.5 -303.5q0 -123 -35.5 -235t-101.5 -206q49 -29 104 -39q21 -4 44 -4q34 0 69 9v-306q-54 -7 -102 -7q-89 0 -159 24q-106 37 -190 102q-92 -57 -199.5 -89t-224.5 -32 q-164 0 -308 61.5t-251.5 168t-170 249t-62.5 304.5zM461 821q37 16 93 30.5t122 14.5q94 0 174 -25.5t148.5 -68.5t130 -97t116.5 -112q41 88 41 191q0 92 -32.5 172t-89 139t-132.5 94t-162 35q-78 0 -147.5 -28.5t-123.5 -79t-90 -118t-48 -147.5zM500 559 q51 -111 149.5 -178.5t220.5 -67.5q92 0 174 41q-41 47 -83.5 89t-92 74t-106.5 50.5t-127 18.5q-41 0 -76.5 -9.5t-58.5 -17.5z" />
<glyph unicode="R" horiz-adv-x="1337" d="M137 0v1505h514q186 0 305 -48t187.5 -124t94.5 -167t26 -179t-26 -169t-74 -145.5t-117.5 -106.5t-157.5 -54l414 -512h-441l-356 514v-514h-369zM506 750h172q98 0 157.5 58t59.5 140q0 41 -11.5 80t-39 69.5t-75.5 50t-122 19.5h-141v-417z" />
<glyph unicode="S" horiz-adv-x="1173" d="M51 502h381q0 -70 17.5 -112t43 -63.5t53 -27.5t48.5 -6q72 0 108.5 46t36.5 99q0 61 -49 100.5t-122.5 72t-159.5 67.5t-160 87t-123 130t-49 197q0 68 28.5 144.5t91 143t163 110.5t243.5 44t240.5 -49t158 -121t86 -154t25.5 -147h-379q0 78 -40 113.5t-101 35.5 q-20 0 -44 -8t-43.5 -23.5t-32.5 -37t-13 -47.5q0 -59 49 -98.5t123 -73t160 -70.5t159.5 -91t122.5 -133t49 -196q0 -96 -30.5 -180t-94 -146.5t-164 -99.5t-237.5 -37q-276 0 -410.5 141.5t-134.5 389.5z" />
<glyph unicode="T" horiz-adv-x="1021" d="M20 1167v338h984v-338h-302v-1167h-378v1167h-304z" />
<glyph unicode="U" horiz-adv-x="1429" d="M137 573v932h385v-919q0 -78 13.5 -131.5t39 -86t61.5 -46t81 -13.5t79.5 11.5t59.5 43t38 86t13 140.5v915h385v-917q0 -172 -49 -290t-129 -190.5t-183.5 -104.5t-209.5 -32q-111 0 -215.5 30t-186 99.5t-132 185t-50.5 287.5z" />
<glyph unicode="V" horiz-adv-x="1478" d="M29 1505h395l311 -1091l309 1091h398l-508 -1505h-397z" />
<glyph unicode="W" horiz-adv-x="2009" d="M37 1505h391l201 -1005l227 1005h295l217 -1013l209 1013h387l-397 -1505h-338l-225 1006l-230 -1006h-348z" />
<glyph unicode="X" horiz-adv-x="1554" d="M29 0l526 803l-465 704h436l256 -452l252 452h434l-460 -712l520 -795h-434l-326 553l-309 -553h-430z" />
<glyph unicode="Y" horiz-adv-x="1325" d="M25 1507h417l224 -633l225 633h414l-445 -958v-549h-385v549z" />
<glyph unicode="Z" horiz-adv-x="1021" d="M39 0v254l545 915h-545v338h950v-311l-510 -858h510v-338h-950z" />
<glyph unicode="[" horiz-adv-x="968" d="M213 59q0 317 1 554t1 352q0 127 48 232.5t131 180t192.5 115.5t230.5 41v-354q-51 0 -92 -13.5t-69.5 -46.5t-44 -89t-15.5 -142v-780q0 -72 10 -126.5t35 -91t68 -56t108 -19.5v-353q-100 0 -207.5 34t-195.5 106.5t-144.5 185.5t-56.5 270z" />
<glyph unicode="\" horiz-adv-x="1214" d="M141 1511h375l541 -1716h-377z" />
<glyph unicode="]" horiz-adv-x="968" d="M154 -184q68 0 110.5 19.5t67 56t34 91t9.5 126.5v780q0 86 -15.5 142t-44 89t-69.5 46.5t-92 13.5v354q121 0 230.5 -41t192 -115.5t131 -180t48.5 -232.5q0 -115 1 -351.5t1 -554.5q0 -158 -56.5 -270.5t-144.5 -185t-195.5 -106.5t-207.5 -34v353z" />
<glyph unicode="^" horiz-adv-x="1228" d="M92 762l359 743h327l359 -743h-367l-154 487l-161 -487h-363z" />
<glyph unicode="_" horiz-adv-x="1024" d="M0 -154h1024v-102h-1024v102z" />
<glyph unicode="`" horiz-adv-x="1136" d="M223 1468l103 240l512 -264l-113 -195z" />
<glyph unicode="a" horiz-adv-x="1441" d="M76 567q0 131 45 242t124 190.5t185.5 123.5t228.5 44q86 0 145.5 -28.5t98.5 -63.5q45 -41 76 -92l-6 143h342v-1126h-338v152q-20 -55 -64 -97q-37 -35 -101 -64.5t-169 -29.5q-119 0 -222.5 45t-180 126t-120.5 191.5t-44 243.5zM414 571q0 -59 20.5 -112t57 -93 t87 -63.5t107.5 -23.5q74 0 129 26.5t91 68.5t53.5 92t17.5 97q0 55 -18.5 106.5t-55.5 92.5t-90 65.5t-123 24.5q-66 0 -117 -25.5t-86.5 -66.5t-54 -91.5t-18.5 -97.5z" />
<glyph unicode="b" horiz-adv-x="1419" d="M125 0v1507h342l-6 -493q31 41 76 76q39 29 98 53t145 24q123 0 226.5 -44t178.5 -123.5t118 -190.5t43 -242q0 -133 -41 -243.5t-115 -191.5t-174.5 -126t-218.5 -45q-104 0 -170 27.5t-107 62.5q-47 39 -71 92v-143h-324zM451 563q0 -53 19 -104t54 -91t84.5 -64.5 t110.5 -24.5q68 0 121 23.5t91 63.5t57.5 93t19.5 112q0 47 -16.5 97.5t-50.5 91.5t-83 66.5t-115 25.5q-70 0 -124 -24.5t-92 -65.5t-57 -92.5t-19 -106.5z" />
<glyph unicode="c" horiz-adv-x="1335" d="M66 563q0 123 46 233.5t126.5 192.5t189.5 130t234 48q100 0 194 -27.5t174 -86t139.5 -147.5t90.5 -212h-342q-33 82 -101.5 122t-148.5 40q-61 0 -110.5 -22.5t-83.5 -62.5t-51 -93t-17 -115q0 -61 17 -113.5t51 -92.5t83 -62.5t111 -22.5q78 0 146.5 44t103.5 112h344 q-78 -238 -236 -351.5t-356 -113.5q-125 0 -235.5 48t-192.5 129t-129 190.5t-47 232.5z" />
<glyph unicode="d" horiz-adv-x="1429" d="M78 567q0 131 43 242t117.5 190.5t178 123.5t226.5 44q86 0 145.5 -24.5t100.5 -52.5q45 -35 76 -76l-7 493h342v-1507h-323v143q-25 -53 -72 -92q-41 -35 -107.5 -62.5t-168.5 -27.5q-119 0 -219.5 45t-174 126t-115.5 191.5t-42 243.5zM416 571q0 -59 20.5 -112t57 -93 t91 -63.5t122.5 -23.5q61 0 110 24.5t84 64.5t54.5 91t19.5 104q0 55 -19.5 106.5t-57.5 92.5t-93 65.5t-125 24.5q-66 0 -115 -25.5t-81.5 -66.5t-50 -91.5t-17.5 -97.5z" />
<glyph unicode="e" horiz-adv-x="1323" d="M66 567q0 125 47 233.5t128 190.5t189.5 129t231.5 47t231 -47t189 -129t128 -190.5t47 -233.5q0 -29 -3 -54.5t-7 -49.5h-844q12 -61 46 -109q29 -41 80 -73.5t139 -32.5q47 0 86 16.5t65 36.5q31 23 53 53h349q-39 -86 -95.5 -157.5t-127 -121.5t-155.5 -79t-181 -29 q-123 0 -231.5 47t-189.5 128t-128 190.5t-47 234.5zM408 690h512q-12 53 -46 96q-29 35 -77.5 66t-132.5 31t-133.5 -31t-77.5 -66q-33 -43 -45 -96z" />
<glyph unicode="f" horiz-adv-x="643" d="M14 872v252h123v39q0 199 108.5 285t329.5 86h46v-254q-31 0 -57.5 -3t-46 -17.5t-32 -43t-12.5 -79.5v-13h145v-252h-145q0 -127 1 -278.5t1 -284.5q0 -156 2 -309h-340v872h-123z" />
<glyph unicode="g" horiz-adv-x="1419" d="M74 557q0 164 56 279.5t141 188.5t184.5 106.5t187.5 33.5t148.5 -26.5t97.5 -57.5q43 -37 69 -84v131h338v-1032q0 -160 -52 -272.5t-138 -185t-198.5 -106.5t-233.5 -34q-76 0 -163 12.5t-169 53.5t-148.5 118.5t-99.5 211.5h389q12 -35 38 -56.5t54.5 -34t58.5 -16.5 t48 -4q274 0 274 360q-27 -51 -69 -90q-37 -35 -97.5 -62.5t-146.5 -27.5t-186.5 32t-185.5 102.5t-141 183t-56 276.5zM412 569q0 -66 19.5 -119t55 -90.5t85 -59t110.5 -21.5q59 0 110.5 21.5t88.5 59t57 89t20 110.5t-18 112.5t-53 93.5t-86 62.5t-117 22.5 q-47 0 -95 -19.5t-87 -56.5t-64.5 -89t-25.5 -116z" />
<glyph unicode="h" horiz-adv-x="1294" d="M125 0v1505h336v-512q23 49 63 86q35 33 91.5 60.5t142.5 27.5q84 0 159.5 -25.5t132 -84t89 -151.5t32.5 -228v-678h-337v614q0 49 -8.5 92.5t-28 75t-55 50t-91.5 18.5q-109 0 -149.5 -66.5t-40.5 -179.5v-604h-336z" />
<glyph unicode="i" horiz-adv-x="585" d="M121 0v1124h340v-1124h-340zM121 1253v254h340v-254h-340z" />
<glyph unicode="j" horiz-adv-x="657" d="M10 -160q41 0 74 4t54.5 20.5t32.5 51.5t11 96v1114h336v-1101q0 -231 -90 -336t-297 -105h-121v256zM180 1253v254h340v-254h-340z" />
<glyph unicode="k" horiz-adv-x="1210" d="M135 0v1505h336l2 -813l315 436h402l-447 -495l435 -633h-383l-324 575v-575h-336z" />
<glyph unicode="l" horiz-adv-x="585" d="M119 0v1507h338v-1507h-338z" />
<glyph unicode="m" horiz-adv-x="1984" d="M129 0v1128h315v-139q23 49 66 88q35 35 96.5 62.5t153.5 27.5t153.5 -31.5t100.5 -68.5q45 -45 71 -100q35 55 89 100q45 37 111.5 68.5t158.5 31.5q90 0 166 -29.5t131 -88t86 -145.5t31 -204v-467q0 -121 2 -233h-336v629q0 94 -38 160.5t-134 66.5 q-98 0 -142.5 -58.5t-44.5 -199.5v-598h-338v639q0 98 -45 157.5t-125 59.5q-39 0 -73.5 -11t-60 -40t-41 -77t-15.5 -122v-606h-338z" />
<glyph unicode="n" horiz-adv-x="1294" d="M127 0v1128h315l-2 -149q12 53 49 94q33 35 94.5 64.5t170.5 29.5q213 0 315 -123.5t102 -336.5v-707h-337v657q0 96 -44.5 148.5t-132.5 52.5t-140 -50t-52 -177v-631h-338z" />
<glyph unicode="o" horiz-adv-x="1363" d="M70 565q0 125 48 233.5t130 190.5t192.5 129t237.5 47q125 0 236.5 -47t193.5 -129t130 -190.5t48 -233.5q0 -123 -48 -232.5t-130 -190.5t-193.5 -128t-236.5 -47q-127 0 -237.5 47t-192.5 128t-130 190.5t-48 232.5zM403 565q0 -59 21.5 -112.5t58.5 -92t87.5 -61.5 t107.5 -23t107.5 23t87 61.5t58 92t21.5 112.5q0 61 -21.5 113.5t-58 92.5t-87 62.5t-107.5 22.5t-107.5 -22.5t-87.5 -62.5t-58.5 -92t-21.5 -114z" />
<glyph unicode="p" horiz-adv-x="1427" d="M125 -373v1501h313l-4 -145q37 51 90 92q45 35 109.5 63.5t150.5 28.5q123 0 225.5 -44t178.5 -123.5t118 -190.5t42 -242q0 -133 -41 -243.5t-115 -191.5t-174 -126t-219 -45q-104 0 -170 27.5t-107 62.5q-47 39 -71 92v-516h-326zM453 563q0 -53 19.5 -104t54 -91 t84 -64.5t110.5 -24.5q68 0 121 23.5t91 63.5t57.5 93t19.5 112q0 49 -16.5 98.5t-50.5 90.5t-83 66.5t-112 25.5q-70 0 -125.5 -24.5t-93 -64.5t-57 -92.5t-19.5 -107.5z" />
<glyph unicode="q" horiz-adv-x="1429" d="M78 567q0 131 43 242t117.5 190.5t178 123.5t226.5 44q98 0 161.5 -28.5t104.5 -63.5q45 -41 72 -92l2 145h317v-1503h-325v518q-25 -53 -72 -92q-41 -35 -106.5 -62.5t-169.5 -27.5q-119 0 -219.5 45t-174 126t-114.5 191.5t-41 243.5zM416 571q0 -59 19.5 -112t57 -93 t91 -63.5t121.5 -23.5q61 0 110 24.5t84 64.5t54.5 91t19.5 104q0 55 -19.5 107.5t-57.5 92.5t-92 64.5t-124 24.5q-66 0 -115 -25.5t-82.5 -66.5t-50 -90t-16.5 -99z" />
<glyph unicode="r" horiz-adv-x="743" d="M127 0v1130h313l-2 -147q18 51 56 92q33 35 88 63.5t145 28.5v-340q-37 0 -83 -3t-87 -22.5t-68.5 -61.5t-27.5 -119v-621h-334z" />
<glyph unicode="s" horiz-adv-x="1021" d="M55 336h336q10 -49 42 -77t85 -28q55 0 87 27t32 61q0 45 -42 74t-105.5 52.5t-136 48t-136 62.5t-105.5 94.5t-42 144.5q0 90 37.5 159.5t100 116.5t141.5 71.5t159 24.5q78 0 151.5 -21.5t132 -65.5t98.5 -110.5t50 -158.5h-332q-10 39 -27.5 62.5t-76.5 23.5 q-61 0 -78.5 -27.5t-17.5 -48.5q0 -43 42 -67.5t105 -46t136 -44t136.5 -60.5t105.5 -99.5t42 -157.5q0 -92 -39 -163.5t-103.5 -121t-147.5 -75t-171 -25.5q-86 0 -166 23.5t-142.5 70.5t-102.5 118t-48 163z" />
<glyph unicode="t" horiz-adv-x="718" d="M23 872v256h165v377h338v-377h162v-256h-162v-872h-338v872h-165z" />
<glyph unicode="u" horiz-adv-x="1298" d="M119 432v696h338v-624q0 -123 42 -174t138 -51q98 0 146 63.5t48 155.5v630h338v-1128h-311l-8 141q-14 -51 -51 -90q-33 -35 -90.5 -61.5t-155.5 -26.5t-178 31t-136.5 91t-88 147t-31.5 200z" />
<glyph unicode="v" horiz-adv-x="1212" d="M39 1128l350 -2l215 -718l221 720h351l-408 -1128h-324z" />
<glyph unicode="w" horiz-adv-x="1740" d="M23 1128h346l172 -722l190 722h281l192 -725l172 725h346l-350 -1128h-309l-193 766l-192 -766h-305z" />
<glyph unicode="x" horiz-adv-x="1290" d="M4 0l434 604l-385 524h406l182 -313l182 313h400l-383 -524l440 -604h-414l-225 375l-229 -375h-408z" />
<glyph unicode="y" horiz-adv-x="1175" d="M-4 1128h360l228 -673l219 673h358l-567 -1507h-358l192 447z" />
<glyph unicode="z" horiz-adv-x="909" d="M27 872v258h843v-258l-456 -616h460v-256h-845v231l481 641h-483z" />
<glyph unicode="{" horiz-adv-x="1134" d="M213 299v350q106 0 151.5 38t45.5 116v422q0 135 90 207.5t256 72.5h223v-256h-109q-61 0 -89.5 -33.5t-28.5 -121.5v-402q0 -90 -40 -134t-87 -62q-55 -23 -127 -19q72 -8 127 -31q47 -23 87 -63.5t40 -116.5v-401q0 -72 25.5 -109t92.5 -37h109v-256h-242 q-166 0 -246.5 82t-80.5 215v398q0 63 -47.5 102t-149.5 39z" />
<glyph unicode="|" horiz-adv-x="1136" d="M391 -205v1710h367v-1710h-367z" />
<glyph unicode="}" horiz-adv-x="1134" d="M147 -281h109q68 0 92.5 37t24.5 109v401q0 76 40 117t87 63q55 23 129 31q-74 -4 -129 19q-47 18 -87 62t-40 134v402q0 88 -28 121.5t-89 33.5h-109v256h224q166 0 255 -72.5t89 -207.5v-422q0 -78 46 -116t152 -38v-350q-102 0 -150 -39t-48 -102v-398 q0 -133 -80 -215t-246 -82h-242v256z" />
<glyph unicode="~" horiz-adv-x="1228" d="M129 565q29 55 68 99q35 37 85 67.5t121 30.5q70 0 126.5 -21.5t107.5 -47t99 -47t102 -21.5q37 0 69.5 21.5t57.5 47.5q29 31 55 72l92 -299q-33 -57 -74 -100q-35 -39 -87 -70t-115 -31q-66 0 -117 21.5t-100.5 47t-103.5 47t-122 21.5q-70 0 -104.5 -21.5t-50.5 -47.5 q-18 -31 -21 -70z" />
<glyph unicode="&#xa1;" horiz-adv-x="681" d="M166 -377v1014h348v-1014h-348zM166 788v340h348v-340h-348z" />
<glyph unicode="&#xa2;" d="M143 758q0 90 27 169t75 141t114.5 107.5t148.5 65.5v223h266v-217q162 -35 257 -143.5t118 -249.5h-350q-23 43 -63 62.5t-83 19.5q-20 0 -50 -8t-57.5 -28.5t-47 -53.5t-19.5 -84q0 -49 20.5 -82t49.5 -52.5t57.5 -27.5t46.5 -8q37 0 67 13t71 57h358 q-80 -322 -363 -379v-222h-278v224q-78 20 -144.5 63t-115.5 104.5t-77 138.5t-28 167z" />
<glyph unicode="&#xa3;" d="M35 573v271h102q-16 23 -28 53q-10 27 -19.5 65.5t-9.5 92.5q0 86 40 171t112.5 154.5t172 112.5t216.5 43t215 -40t168.5 -109.5t110.5 -161t40 -191.5h-354q-4 45 -25 82q-16 31 -51 56.5t-98 25.5q-41 0 -72 -16.5t-51.5 -41t-29.5 -54t-9 -56.5q0 -51 10 -86t25 -57 q14 -27 35 -43h317v-271h-158q18 -18 33 -41q12 -18 23.5 -42.5t11.5 -53.5t-15.5 -52.5t-31.5 -41.5q-23 -23 -47 -41h98q55 0 88 16.5t50.5 38t22.5 45t5 37.5q0 16 -2 27.5t-6 21.5l-6 19h327q4 -14 10 -33q4 -16 8.5 -38.5t4.5 -51.5q0 -55 -22.5 -121.5t-79 -125 t-151.5 -97.5t-241 -39h-680v301h148q57 0 100 25.5t43 85.5q0 29 -13.5 58.5t-29.5 51.5q-20 27 -43 51h-264z" />
<glyph unicode="&#xa4;" />
<glyph unicode="&#xa5;" d="M16 1505h408l221 -497l225 497h402l-242 -448h201v-285h-350l-50 -88v-70h400v-282h-400l-2 -332h-378v332h-398v282h398v64l-54 100h-340v279h195z" />
<glyph unicode="&#xa6;" horiz-adv-x="1136" d="M387 -203v688h373v-688h-373zM387 827v678h373v-678h-373z" />
<glyph unicode="&#xa7;" horiz-adv-x="1372" d="M86 578q0 78 29.5 139t66.5 102q41 49 97 86q-18 29 -33 66q-12 33 -22.5 81t-6.5 113q4 78 41 145.5t100.5 117t150.5 78t193 28.5q111 0 201 -36t154.5 -94t100.5 -134t36 -156h-332q-20 66 -66 92.5t-112 26.5q-43 0 -69.5 -9.5t-43 -24.5t-22.5 -34.5t-6 -40.5 q0 -41 33.5 -68.5t119.5 -66.5t195.5 -86t208.5 -98q100 -51 145 -136t41 -169q-2 -49 -11 -88t-28.5 -76t-52.5 -75t-82 -83q29 -35 51 -80q20 -39 37 -91t17 -116q0 -84 -32 -163.5t-95.5 -142t-159.5 -100.5t-223 -38t-230.5 39t-178.5 104.5t-117 153.5t-44 184h334 q6 -51 31 -88q23 -33 67.5 -59.5t130.5 -26.5q35 0 68 8.5t59.5 24.5t42 41t15.5 59q0 53 -43 86t-103 62q-29 12 -86 37.5t-122.5 56.5t-132 61.5t-113.5 55.5q-96 51 -147.5 133t-51.5 199zM393 635q0 -59 33 -84t76 -45q10 -6 32.5 -16.5t53 -24.5t66.5 -30.5t73 -33.5 q84 -37 184 -84q20 12 37 33q14 16 26.5 40t12.5 52q0 70 -102 119q-27 10 -93.5 41t-138.5 64q-82 36 -180 79q-23 -10 -41 -26q-16 -14 -27.5 -34.5t-11.5 -49.5z" />
<glyph unicode="&#xa8;" horiz-adv-x="1136" d="M168 1311v307h319v-307h-319zM645 1311v307h320v-307h-320z" />
<glyph unicode="&#xa9;" horiz-adv-x="1638" d="M39 752q0 139 54 278t155.5 252t246 182.5t326.5 69.5q186 0 330.5 -72.5t243 -186.5t149.5 -253t51 -270t-52 -269.5t-151.5 -252t-243.5 -186.5t-331 -73q-186 0 -330.5 70t-244 182.5t-151.5 250.5t-52 278zM205 752q0 -111 41 -222.5t118.5 -200.5t192.5 -145.5 t260 -56.5q147 0 261 58.5t192 148.5t119 201.5t41 216.5q0 104 -40 215.5t-118 202t-191.5 148.5t-259.5 58q-143 0 -257.5 -56t-194.5 -145.5t-122 -200.5t-42 -222zM393 758q0 119 40 205t102.5 141t139.5 81.5t150 26.5q74 0 143.5 -27.5t124 -72.5t87 -103.5 t32.5 -121.5h-213q-6 37 -28 67q-18 27 -52 48.5t-92 21.5q-57 0 -98 -23.5t-67.5 -62.5t-39 -86t-12.5 -96q0 -47 11.5 -94.5t37 -85t66.5 -61t102 -23.5q59 0 95 26.5t55 61.5q23 39 29 90h215q-16 -102 -66 -183q-20 -35 -50 -67.5t-71 -58t-94 -41t-121 -15.5 q-135 0 -219 54.5t-130 128t-61.5 149.5t-15.5 121z" />
<glyph unicode="&#xaa;" horiz-adv-x="788" d="M41 1223q0 80 25.5 138t67.5 96t93.5 57.5t102.5 19.5q47 0 74.5 -15.5t44.5 -31.5q18 -20 26 -45l2 71h203v-581h-203v72q-10 -27 -31 -48q-16 -16 -45.5 -30.5t-74.5 -14.5q-47 0 -97.5 19.5t-91.5 57.5t-68.5 96.5t-27.5 138.5zM242 1223q0 -51 34.5 -86t83.5 -35 q47 0 83 30t36 91q0 55 -33.5 87.5t-85.5 32.5q-53 0 -85.5 -34.5t-32.5 -85.5z" />
<glyph unicode="&#xab;" horiz-adv-x="864" d="M104 471v225l265 269v-285l-117 -92l117 -96v-283zM498 471v225l264 269v-285l-115 -92l115 -96v-283z" />
<glyph unicode="&#xac;" horiz-adv-x="1228" d="M78 580v325h1067v-235v-90v-361h-334v361h-733z" />
<glyph unicode="&#xad;" horiz-adv-x="575" d="M0 422v332h571v-332h-571z" />
<glyph unicode="&#xae;" horiz-adv-x="1638" d="M41 752q0 139 54.5 278t155.5 252t245.5 182.5t326.5 69.5q186 0 330.5 -72.5t243 -186.5t149.5 -253t51 -270t-52 -269.5t-151.5 -252t-243.5 -186.5t-331 -73q-186 0 -330.5 70t-244 182.5t-151.5 250.5t-52 278zM207 752q0 -111 41 -222.5t118.5 -200.5t192.5 -145.5 t260 -56.5q147 0 261 58.5t192 148.5t119 201.5t41 216.5q0 104 -40 215.5t-118 202t-191.5 148.5t-259.5 58q-143 0 -257.5 -56t-194.5 -145.5t-122 -200.5t-42 -222zM487 328v866h340q111 0 178.5 -26.5t104.5 -64.5t49 -80t12 -73q0 -63 -24.5 -104t-52.5 -64 q-35 -29 -78 -43q35 -10 63 -30q25 -16 45.5 -47t24.5 -76q8 -90 7 -148.5t11 -109.5h-209q0 14 -2 34q-2 31 -6 95q-4 117 -36.5 159.5t-104.5 42.5h-78q-16 0 -29 3v-334h-215zM702 801h127q18 0 41 5t41.5 17.5t30.5 35t12 59.5q0 72 -30.5 99t-75.5 27h-146v-243z" />
<glyph unicode="&#xaf;" horiz-adv-x="1136" d="M190 1339v256h754v-256h-754z" />
<glyph unicode="&#xb0;" horiz-adv-x="819" d="M121 1161q0 59 22.5 111.5t60.5 90.5t90 60.5t112 22.5q59 0 111 -22.5t91 -60.5t61.5 -90.5t22.5 -111.5t-22.5 -111.5t-61.5 -91t-91 -61.5t-111 -23t-111.5 23t-90.5 61.5t-60.5 91t-22.5 111.5zM279 1161q0 -53 36.5 -90t90.5 -37q53 0 89.5 37t36.5 90t-36.5 89 t-89.5 36t-90 -36t-37 -89z" />
<glyph unicode="&#xb1;" horiz-adv-x="1228" d="M104 162h1016v-326h-1016v326zM104 528v326h347v276h325v-276h344v-326h-344v-264h-325v264h-347z" />
<glyph unicode="&#xb2;" horiz-adv-x="833" d="M63 1167q0 86 29 152.5t78 112t115.5 69t142.5 23.5t137.5 -22.5t105.5 -59.5t68.5 -85t24.5 -100q0 -94 -51 -173.5t-113 -139.5q-72 -70 -162 -127h330v-215h-700v191q115 68 206 139q39 31 76 65.5t65.5 71.5t47 76t18.5 76q0 27 -13 56.5t-58 29.5t-71 -36t-26 -104 h-250z" />
<glyph unicode="&#xb3;" horiz-adv-x="833" d="M49 881h262q6 -23 19 -39q10 -16 29.5 -27.5t54.5 -11.5q39 0 67.5 18.5t28.5 59.5t-25.5 64.5t-72.5 23.5h-125v182h30q14 0 28.5 1t29.5 1q47 0 71.5 24.5t24.5 59.5t-18.5 51.5t-46.5 16.5q-29 0 -51.5 -12.5t-22.5 -59.5h-256q0 70 27.5 124t74.5 91t108.5 56.5 t127.5 19.5t122 -20.5t98 -54.5t65.5 -80t23.5 -95q0 -55 -21.5 -91t-46.5 -59q-31 -25 -67 -39q53 -10 94 -36q35 -23 64.5 -65t29.5 -114t-35.5 -125t-91 -88.5t-119 -54t-118.5 -18.5t-117 12t-114 45t-88 91.5t-44 148.5z" />
<glyph unicode="&#xb4;" horiz-adv-x="1136" d="M289 1450l510 274l106 -239l-499 -221z" />
<glyph unicode="&#xb6;" horiz-adv-x="1435" d="M-18 1085q0 139 47 222.5t118.5 127.5t159.5 57t172 13h86t110.5 -1t125 -1h129.5h313v-237h-110v-1477h-263v1477h-196v-1477h-260v918q-121 2 -217 41q-41 16 -80 43.5t-69 67.5t-48 96.5t-18 129.5z" />
<glyph unicode="&#xb7;" horiz-adv-x="643" d="M143 344v361h361v-361h-361z" />
<glyph unicode="&#xb8;" horiz-adv-x="1136" d="M330 -311h155q4 -16 13 -27q8 -10 20 -18.5t35 -8.5q43 0 58.5 29t15.5 49q0 18 -14.5 44t-55.5 26q-16 0 -28.5 -5t-20.5 -9q-8 -6 -16 -13l-123 66l86 178h163l-59 -109q8 0 16 3q20 4 33 4q68 0 120 -48.5t52 -136.5t-62.5 -150.5t-164.5 -62.5q-78 0 -123 30t-68 64 q-27 41 -32 95z" />
<glyph unicode="&#xb9;" horiz-adv-x="833" d="M147 1290v215h404v-903h-250v688h-154z" />
<glyph unicode="&#xba;" horiz-adv-x="788" d="M80 1219q0 66 24.5 123t66.5 99t99.5 66.5t122.5 24.5q63 0 120.5 -24.5t100.5 -66.5t68 -99.5t25 -122.5q0 -66 -25 -122.5t-68 -99.5t-100 -67.5t-121 -24.5q-66 0 -123 24.5t-99 67.5t-66.5 99.5t-24.5 122.5zM274 1223q0 -49 33 -84t80 -35t81 35t34 84 q0 51 -34 85.5t-81 34.5t-80 -34.5t-33 -85.5z" />
<glyph unicode="&#xbb;" horiz-adv-x="864" d="M100 209v283l115 96l-115 92v285l265 -269v-225zM494 209v283l116 96l-116 92v285l264 -269v-225z" />
<glyph unicode="&#xbc;" horiz-adv-x="1843" d="M115 1290v215h401v-903h-250v688h-151zM395 0l631 1505h272l-632 -1505h-271zM956 156v188l437 559h239v-555h107v-192h-107v-156h-250v156h-426zM1225 348h161v238z" />
<glyph unicode="&#xbd;" horiz-adv-x="1884" d="M109 1290v215h403v-903h-250v688h-153zM385 0l631 1505h272l-633 -1505h-270zM1075 557q0 86 29 152.5t78 111.5t115.5 68.5t142.5 23.5t137 -22.5t105 -59t69 -85t25 -99.5q0 -94 -51.5 -174t-112.5 -139q-72 -70 -162 -127h330v-215h-701v190q115 68 207 140 q39 31 76 65.5t65.5 71.5t47 75.5t18.5 75.5q0 27 -13.5 56.5t-58.5 29.5t-70.5 -35.5t-25.5 -103.5h-250z" />
<glyph unicode="&#xbe;" horiz-adv-x="2048" d="M88 881h262q6 -23 19 -39q10 -16 29.5 -27.5t54.5 -11.5q39 0 68.5 18.5t29.5 59.5t-26.5 64.5t-73.5 23.5h-125v182h30q14 0 28.5 1t29.5 1q47 0 71.5 24.5t24.5 59.5t-18.5 51.5t-47.5 16.5t-51 -12.5t-22 -59.5h-256q0 70 27.5 124t74.5 91t108.5 56.5t127.5 19.5 t122 -20.5t98 -54.5t65.5 -80t23.5 -95q0 -55 -21.5 -91t-46.5 -59q-29 -25 -65 -39q51 -10 92 -36q35 -23 64.5 -65t29.5 -114t-36 -125t-90 -88.5t-118.5 -54t-119.5 -18.5t-117 12t-114 45t-88 91.5t-44 148.5zM616 0l631 1505h275l-633 -1505h-273zM1180 156v188 l434 559h241v-555h105v-192h-105v-156h-251v156h-424zM1448 348h160v238z" />
<glyph unicode="&#xbf;" horiz-adv-x="1212" d="M88 25q0 84 28.5 149.5t71.5 119.5t93.5 98t93.5 86t71.5 83t28.5 88h354q0 -68 -25.5 -124t-64.5 -105t-85 -92t-85 -85t-64.5 -85t-25.5 -90q0 -51 25.5 -89t91.5 -38q63 0 101 43t38 153h373q0 -109 -30.5 -208t-96.5 -173.5t-166 -119t-240 -44.5q-139 0 -232 48.5 t-150.5 117t-81 142t-23.5 125.5zM481 788v340h348v-340h-348z" />
<glyph unicode="&#xc0;" horiz-adv-x="1552" d="M25 0l602 1505h303l594 -1505h-412l-74 217h-526l-80 -217h-407zM469 1855l103 240l512 -264l-113 -195zM621 522h315l-156 541z" />
<glyph unicode="&#xc1;" horiz-adv-x="1552" d="M25 0l602 1505h303l594 -1505h-412l-74 217h-526l-80 -217h-407zM467 1837l510 274l106 -239l-499 -221zM621 522h315l-156 541z" />
<glyph unicode="&#xc2;" horiz-adv-x="1552" d="M25 0l602 1505h303l594 -1505h-412l-74 217h-526l-80 -217h-407zM358 1690l314 337h219l301 -337h-315l-101 143l-98 -143h-320zM621 522h315l-156 541z" />
<glyph unicode="&#xc3;" horiz-adv-x="1552" d="M25 0l602 1505h303l594 -1505h-412l-74 217h-526l-80 -217h-407zM363 1905q31 18 67 34q31 14 71 25.5t87 11.5q45 0 87 -8t83 -17.5t81 -17.5t79 -8t69.5 8t53.5 19q25 12 45 28l102 -192q-29 -23 -61 -39q-29 -14 -67 -25.5t-83 -11.5t-93 8t-93 18.5t-86 18.5t-72 8 q-33 0 -62.5 -9t-52.5 -19q-27 -12 -51 -29zM621 522h315l-156 541z" />
<glyph unicode="&#xc4;" horiz-adv-x="1552" d="M25 0l602 1505h303l594 -1505h-412l-74 217h-526l-80 -217h-407zM377 1698v307h319v-307h-319zM621 522h315l-156 541zM854 1698v307h320v-307h-320z" />
<glyph unicode="&#xc5;" horiz-adv-x="1552" d="M25 0l602 1505h303l594 -1505h-412l-74 217h-526l-80 -217h-407zM524 1862q0 51 19.5 97t54.5 81t80 54t98 19q51 0 97 -19t81 -54t54.5 -81t19.5 -97q0 -53 -19.5 -98.5t-54.5 -80t-81 -54t-97 -19.5q-53 0 -98 19.5t-80 54t-54.5 79.5t-19.5 99zM621 522h315l-156 541z M688 1862q0 -37 26.5 -63t61.5 -26q37 0 62.5 26t25.5 63q0 35 -25.5 61.5t-62.5 26.5q-35 0 -61.5 -27t-26.5 -61z" />
<glyph unicode="&#xc6;" horiz-adv-x="1996" d="M-23 0l1047 1505h870v-338h-477v-233h463v-338h-463v-258h477v-338h-841v252h-447l-162 -252h-467zM764 549h289v420z" />
<glyph unicode="&#xc7;" horiz-adv-x="1703" d="M76 756q0 184 70.5 328.5t184 245t254 152.5t281.5 52q156 0 282 -48t221 -131t160.5 -192.5t100.5 -232.5h-401q-20 57 -56 105t-83.5 84t-104.5 56.5t-121 20.5q-66 0 -136.5 -23.5t-129.5 -76t-98 -136t-39 -202.5q0 -121 39 -206t99 -138.5t131 -79t136 -25.5 q129 0 222.5 73t140.5 187h401q-25 -109 -89 -215t-162.5 -191t-227.5 -138.5t-281 -53.5q-154 0 -297 53.5t-253.5 154t-177 246.5t-66.5 331zM627 -311h155q4 -16 13 -27q8 -10 20 -18.5t35 -8.5q43 0 58.5 29t15.5 49q0 18 -14.5 44t-55.5 26q-16 0 -28.5 -5t-20.5 -9 q-8 -6 -16 -13l-123 66l86 178h163l-59 -109q8 0 16 3q20 4 33 4q68 0 120 -48.5t52 -136.5t-62.5 -150.5t-164.5 -62.5q-78 0 -123 30t-68 64q-27 41 -32 95z" />
<glyph unicode="&#xc8;" horiz-adv-x="1081" d="M137 0v1505h842v-338h-477v-233h463v-338h-463v-258h477v-338h-842zM233 1855l103 240l512 -264l-113 -195z" />
<glyph unicode="&#xc9;" horiz-adv-x="1081" d="M137 0v1505h842v-338h-477v-233h463v-338h-463v-258h477v-338h-842zM236 1837l510 274l106 -239l-499 -221z" />
<glyph unicode="&#xca;" horiz-adv-x="1081" d="M127 1690l314 337h219l301 -337h-315l-101 143l-98 -143h-320zM137 0v1505h842v-338h-477v-233h463v-338h-463v-258h477v-338h-842z" />
<glyph unicode="&#xcb;" horiz-adv-x="1081" d="M137 0v1505h842v-338h-477v-233h463v-338h-463v-258h477v-338h-842zM145 1698v307h319v-307h-319zM622 1698v307h320v-307h-320z" />
<glyph unicode="&#xcc;" horiz-adv-x="661" d="M26 1855l103 240l512 -264l-113 -195zM141 0v1505h383v-1505h-383z" />
<glyph unicode="&#xcd;" horiz-adv-x="661" d="M25 1837l510 274l106 -239l-499 -221zM141 0v1505h383v-1505h-383z" />
<glyph unicode="&#xce;" horiz-adv-x="661" d="M-84 1690l314 337h219l301 -337h-315l-101 143l-98 -143h-320zM141 0v1505h383v-1505h-383z" />
<glyph unicode="&#xcf;" horiz-adv-x="661" d="M-65 1698v307h319v-307h-319zM141 0v1505h383v-1505h-383zM412 1698v307h320v-307h-320z" />
<glyph unicode="&#xd0;" horiz-adv-x="1519" d="M4 602v338h135v565h551q123 0 256 -35.5t242.5 -121.5t181.5 -229.5t72 -360.5t-65.5 -362.5t-176 -233.5t-254 -125t-299.5 -37h-508v602h-135zM524 338h166q74 0 140.5 21.5t116.5 70.5t80 128t30 194q0 113 -29 191.5t-79 128.5t-116.5 72.5t-142.5 22.5h-166v-227 h250v-338h-250v-264z" />
<glyph unicode="&#xd1;" horiz-adv-x="1554" d="M143 0v1505h330l594 -975l-23 975h369v-1505h-334l-583 948l14 -948h-367zM365 1905q31 18 67 34q31 14 71 25.5t87 11.5q45 0 87 -8t83 -17.5t81 -17.5t79 -8t69.5 8t53.5 19q25 12 45 28l102 -192q-29 -23 -61 -39q-29 -14 -67 -25.5t-83 -11.5t-93 8t-93 18.5 t-86 18.5t-72 8q-33 0 -62.5 -9t-52.5 -19q-27 -12 -51 -29z" />
<glyph unicode="&#xd2;" horiz-adv-x="1742" d="M72 754q0 162 62.5 304t170 248.5t251.5 168t308 61.5t309.5 -61.5t253 -168t170 -249t62.5 -303.5q0 -162 -62.5 -304.5t-170 -249t-253 -168t-309.5 -61.5t-308 61.5t-251.5 168t-170 249t-62.5 304.5zM451 754q0 -90 32.5 -171t88 -140.5t131 -94.5t161.5 -35t162 35 t132 94.5t89 140.5t33 171q0 92 -33 172t-89 139t-132 94t-162 35t-161.5 -35t-131 -94t-88 -139t-32.5 -172zM563 1855l103 240l512 -264l-113 -195z" />
<glyph unicode="&#xd3;" horiz-adv-x="1742" d="M72 754q0 162 62.5 304t170 248.5t251.5 168t308 61.5t309.5 -61.5t253 -168t170 -249t62.5 -303.5q0 -162 -62.5 -304.5t-170 -249t-253 -168t-309.5 -61.5t-308 61.5t-251.5 168t-170 249t-62.5 304.5zM451 754q0 -90 32.5 -171t88 -140.5t131 -94.5t161.5 -35t162 35 t132 94.5t89 140.5t33 171q0 92 -33 172t-89 139t-132 94t-162 35t-161.5 -35t-131 -94t-88 -139t-32.5 -172zM563 1837l510 274l106 -239l-499 -221z" />
<glyph unicode="&#xd4;" horiz-adv-x="1742" d="M72 754q0 162 62.5 304t170 248.5t251.5 168t308 61.5t309.5 -61.5t253 -168t170 -249t62.5 -303.5q0 -162 -62.5 -304.5t-170 -249t-253 -168t-309.5 -61.5t-308 61.5t-251.5 168t-170 249t-62.5 304.5zM451 754q0 -90 32.5 -171t88 -140.5t131 -94.5t161.5 -35t162 35 t132 94.5t89 140.5t33 171q0 92 -33 172t-89 139t-132 94t-162 35t-161.5 -35t-131 -94t-88 -139t-32.5 -172zM454 1690l314 337h219l301 -337h-315l-101 143l-98 -143h-320z" />
<glyph unicode="&#xd5;" horiz-adv-x="1742" d="M72 754q0 162 62.5 304t170 248.5t251.5 168t308 61.5t309.5 -61.5t253 -168t170 -249t62.5 -303.5q0 -162 -62.5 -304.5t-170 -249t-253 -168t-309.5 -61.5t-308 61.5t-251.5 168t-170 249t-62.5 304.5zM451 754q0 -90 32.5 -171t88 -140.5t131 -94.5t161.5 -35t162 35 t132 94.5t89 140.5t33 171q0 92 -33 172t-89 139t-132 94t-162 35t-161.5 -35t-131 -94t-88 -139t-32.5 -172zM459 1905q31 18 67 34q31 14 71 25.5t87 11.5q45 0 87 -8t83 -17.5t81 -17.5t79 -8t69.5 8t53.5 19q25 12 45 28l102 -192q-29 -23 -61 -39q-29 -14 -67 -25.5 t-83 -11.5t-93 8t-93 18.5t-86 18.5t-72 8q-33 0 -62.5 -9t-52.5 -19q-27 -12 -51 -29z" />
<glyph unicode="&#xd6;" horiz-adv-x="1742" d="M72 754q0 162 62.5 304t170 248.5t251.5 168t308 61.5t309.5 -61.5t253 -168t170 -249t62.5 -303.5q0 -162 -62.5 -304.5t-170 -249t-253 -168t-309.5 -61.5t-308 61.5t-251.5 168t-170 249t-62.5 304.5zM451 754q0 -90 32.5 -171t88 -140.5t131 -94.5t161.5 -35t162 35 t132 94.5t89 140.5t33 171q0 92 -33 172t-89 139t-132 94t-162 35t-161.5 -35t-131 -94t-88 -139t-32.5 -172zM473 1698v307h319v-307h-319zM950 1698v307h320v-307h-320z" />
<glyph unicode="&#xd7;" horiz-adv-x="1228" d="M117 229l266 265l-266 264l231 231l264 -264l267 266l231 -233l-266 -264l262 -265l-229 -229l-263 262l-266 -262z" />
<glyph unicode="&#xd8;" horiz-adv-x="1742" d="M74 754q0 162 62.5 304t170 248.5t253 168t308.5 61.5q98 0 189.5 -22.5t173.5 -63.5l131 174l201 -143l-131 -176q106 -106 167.5 -248t61.5 -303q0 -162 -62.5 -304.5t-170 -249t-252 -168t-308.5 -61.5q-199 0 -368 88l-127 -172l-197 150l125 168 q-104 106 -165.5 247.5t-61.5 301.5zM453 754q0 -70 19.5 -133.5t53.5 -116.5l492 659q-68 31 -150 31q-86 0 -161.5 -35t-132 -94t-89 -139t-32.5 -172zM713 344q73 -31 155 -31q86 0 162 35t131.5 94.5t88 139.5t32.5 172q0 72 -19.5 135t-54.5 117z" />
<glyph unicode="&#xd9;" horiz-adv-x="1429" d="M137 573v932h385v-919q0 -78 13.5 -131.5t39 -86t61.5 -46t81 -13.5t79.5 11.5t59.5 43t38 86t13 140.5v915h385v-917q0 -172 -49 -290t-129 -190.5t-183.5 -104.5t-209.5 -32q-111 0 -215.5 30t-186 99.5t-132 185t-50.5 287.5zM407 1855l103 240l512 -264l-113 -195z " />
<glyph unicode="&#xda;" horiz-adv-x="1429" d="M137 573v932h385v-919q0 -78 13.5 -131.5t39 -86t61.5 -46t81 -13.5t79.5 11.5t59.5 43t38 86t13 140.5v915h385v-917q0 -172 -49 -290t-129 -190.5t-183.5 -104.5t-209.5 -32q-111 0 -215.5 30t-186 99.5t-132 185t-50.5 287.5zM406 1837l510 274l106 -239l-499 -221z " />
<glyph unicode="&#xdb;" horiz-adv-x="1429" d="M137 573v932h385v-919q0 -78 13.5 -131.5t39 -86t61.5 -46t81 -13.5t79.5 11.5t59.5 43t38 86t13 140.5v915h385v-917q0 -172 -49 -290t-129 -190.5t-183.5 -104.5t-209.5 -32q-111 0 -215.5 30t-186 99.5t-132 185t-50.5 287.5zM297 1690l314 337h219l301 -337h-315 l-101 143l-98 -143h-320z" />
<glyph unicode="&#xdc;" horiz-adv-x="1429" d="M137 573v932h385v-919q0 -78 13.5 -131.5t39 -86t61.5 -46t81 -13.5t79.5 11.5t59.5 43t38 86t13 140.5v915h385v-917q0 -172 -49 -290t-129 -190.5t-183.5 -104.5t-209.5 -32q-111 0 -215.5 30t-186 99.5t-132 185t-50.5 287.5zM315 1698v307h319v-307h-319zM792 1698 v307h320v-307h-320z" />
<glyph unicode="&#xdd;" horiz-adv-x="1325" d="M25 1507h417l224 -633l225 633h414l-445 -958v-549h-385v549zM355 1837l510 274l106 -239l-499 -221z" />
<glyph unicode="&#xde;" horiz-adv-x="1302" d="M133 0v1505h369v-196h49q23 0 48.5 1t51.5 1q141 0 255 -30t195 -92.5t124 -158.5t43 -229t-43 -230.5t-116 -163t-167 -97t-197 -31.5q-35 0 -76.5 -1.5t-78.5 -1.5h-88v-276h-369zM502 614h157q131 0 185.5 43t54.5 138q0 47 -18.5 79.5t-48 54t-67.5 32t-77 10.5h-131 q-31 0 -55 2v-359z" />
<glyph unicode="&#xdf;" horiz-adv-x="1421" d="M117 0v965q0 145 51 254.5t133 183.5t185.5 110.5t205.5 36.5t190.5 -34.5t153 -93t100 -135.5t35.5 -163t-27.5 -137t-60.5 -80q-37 -33 -86 -47q96 -18 172 -67q33 -20 64 -49t55.5 -69t38.5 -91.5t14 -114.5q0 -129 -50 -223t-128 -155.5t-170 -91.5t-176 -30 q-86 0 -152.5 28t-113.5 62q-55 39 -96 91v-144zM455 424h188q8 -41 31 -74q18 -29 52 -50t93 -21q57 0 93 18t56.5 46t28 59.5t7.5 58.5t-9.5 59.5t-34 61t-66.5 49t-106 20.5h-196v254h70q96 0 134 47t38 107q0 31 -9.5 60.5t-31 54t-56.5 40t-84 15.5q-100 0 -149 -73 t-49 -191v-541z" />
<glyph unicode="&#xe0;" horiz-adv-x="1441" d="M76 567q0 131 45 242t124 190.5t185.5 123.5t228.5 44q86 0 145.5 -28.5t98.5 -63.5q45 -41 76 -92l-6 143h342v-1126h-338v152q-20 -55 -64 -97q-37 -35 -101 -64.5t-169 -29.5q-119 0 -222.5 45t-180 126t-120.5 191.5t-44 243.5zM413 1468l103 240l512 -264l-113 -195 zM414 571q0 -59 20.5 -112t57 -93t87 -63.5t107.5 -23.5q74 0 129 26.5t91 68.5t53.5 92t17.5 97q0 55 -18.5 106.5t-55.5 92.5t-90 65.5t-123 24.5q-66 0 -117 -25.5t-86.5 -66.5t-54 -91.5t-18.5 -97.5z" />
<glyph unicode="&#xe1;" horiz-adv-x="1441" d="M76 567q0 131 45 242t124 190.5t185.5 123.5t228.5 44q86 0 145.5 -28.5t98.5 -63.5q45 -41 76 -92l-6 143h342v-1126h-338v152q-20 -55 -64 -97q-37 -35 -101 -64.5t-169 -29.5q-119 0 -222.5 45t-180 126t-120.5 191.5t-44 243.5zM412 1450l510 274l106 -239l-499 -221 zM414 571q0 -59 20.5 -112t57 -93t87 -63.5t107.5 -23.5q74 0 129 26.5t91 68.5t53.5 92t17.5 97q0 55 -18.5 106.5t-55.5 92.5t-90 65.5t-123 24.5q-66 0 -117 -25.5t-86.5 -66.5t-54 -91.5t-18.5 -97.5z" />
<glyph unicode="&#xe2;" horiz-adv-x="1441" d="M76 567q0 131 45 242t124 190.5t185.5 123.5t228.5 44q86 0 145.5 -28.5t98.5 -63.5q45 -41 76 -92l-6 143h342v-1126h-338v152q-20 -55 -64 -97q-37 -35 -101 -64.5t-169 -29.5q-119 0 -222.5 45t-180 126t-120.5 191.5t-44 243.5zM303 1303l314 337h219l301 -337h-315 l-101 143l-98 -143h-320zM414 571q0 -59 20.5 -112t57 -93t87 -63.5t107.5 -23.5q74 0 129 26.5t91 68.5t53.5 92t17.5 97q0 55 -18.5 106.5t-55.5 92.5t-90 65.5t-123 24.5q-66 0 -117 -25.5t-86.5 -66.5t-54 -91.5t-18.5 -97.5z" />
<glyph unicode="&#xe3;" horiz-adv-x="1441" d="M76 567q0 131 45 242t124 190.5t185.5 123.5t228.5 44q86 0 145.5 -28.5t98.5 -63.5q45 -41 76 -92l-6 143h342v-1126h-338v152q-20 -55 -64 -97q-37 -35 -101 -64.5t-169 -29.5q-119 0 -222.5 45t-180 126t-120.5 191.5t-44 243.5zM307 1518q31 18 67 34q31 14 71 25.5 t87 11.5q45 0 87 -8t83 -17.5t81 -17.5t79 -8t69.5 8t53.5 19q25 12 45 28l102 -192q-29 -23 -61 -39q-29 -14 -67 -25.5t-83 -11.5t-93 8t-93 18.5t-86 18.5t-72 8q-33 0 -62.5 -9t-52.5 -19q-27 -12 -51 -29zM414 571q0 -59 20.5 -112t57 -93t87 -63.5t107.5 -23.5 q74 0 129 26.5t91 68.5t53.5 92t17.5 97q0 55 -18.5 106.5t-55.5 92.5t-90 65.5t-123 24.5q-66 0 -117 -25.5t-86.5 -66.5t-54 -91.5t-18.5 -97.5z" />
<glyph unicode="&#xe4;" horiz-adv-x="1441" d="M76 567q0 131 45 242t124 190.5t185.5 123.5t228.5 44q86 0 145.5 -28.5t98.5 -63.5q45 -41 76 -92l-6 143h342v-1126h-338v152q-20 -55 -64 -97q-37 -35 -101 -64.5t-169 -29.5q-119 0 -222.5 45t-180 126t-120.5 191.5t-44 243.5zM322 1311v307h319v-307h-319zM414 571 q0 -59 20.5 -112t57 -93t87 -63.5t107.5 -23.5q74 0 129 26.5t91 68.5t53.5 92t17.5 97q0 55 -18.5 106.5t-55.5 92.5t-90 65.5t-123 24.5q-66 0 -117 -25.5t-86.5 -66.5t-54 -91.5t-18.5 -97.5zM799 1311v307h320v-307h-320z" />
<glyph unicode="&#xe5;" horiz-adv-x="1441" d="M76 567q0 131 45 242t124 190.5t185.5 123.5t228.5 44q86 0 145.5 -28.5t98.5 -63.5q45 -41 76 -92l-6 143h342v-1126h-338v152q-20 -55 -64 -97q-37 -35 -101 -64.5t-169 -29.5q-119 0 -222.5 45t-180 126t-120.5 191.5t-44 243.5zM414 571q0 -59 20.5 -112t57 -93 t87 -63.5t107.5 -23.5q74 0 129 26.5t91 68.5t53.5 92t17.5 97q0 55 -18.5 106.5t-55.5 92.5t-90 65.5t-123 24.5q-66 0 -117 -25.5t-86.5 -66.5t-54 -91.5t-18.5 -97.5zM469 1475q0 51 19.5 97t54.5 81t80 54t98 19q51 0 97 -19t81 -54t54.5 -81t19.5 -97 q0 -53 -19.5 -98.5t-54.5 -80t-81 -54t-97 -19.5q-53 0 -98 19.5t-80 54t-54.5 79.5t-19.5 99zM633 1475q0 -37 26.5 -63t61.5 -26q37 0 62.5 26t25.5 63q0 35 -25.5 61.5t-62.5 26.5q-35 0 -61.5 -27t-26.5 -61z" />
<glyph unicode="&#xe6;" horiz-adv-x="2234" d="M74 567q0 131 45 242t124 190.5t185.5 123.5t228.5 44q86 0 145.5 -28.5t98.5 -63.5q45 -41 76 -92l-6 143h321v-98q63 63 139 99t162 36q133 0 239.5 -47t181.5 -129t115 -190.5t40 -233.5q0 -59 -8 -106h-846q12 -59 45 -107q29 -41 80 -73.5t139 -32.5q47 0 86 16 t66 37q31 23 55 53h346q-37 -86 -93.5 -157.5t-127 -122t-156.5 -79t-182 -28.5q-72 0 -144.5 35t-136.5 98v-96h-317v152q-20 -55 -64 -97q-37 -35 -101.5 -64.5t-168.5 -29.5q-119 0 -222.5 45t-180 126t-120.5 191.5t-44 243.5zM412 569q0 -59 20.5 -111t57 -92t87 -63.5 t107.5 -23.5q74 0 129 26.5t91 68.5t53.5 92t17.5 97q0 55 -18.5 106.5t-55.5 92.5t-90 65.5t-123 24.5q-66 0 -117 -25.5t-86.5 -66.5t-54 -91.5t-18.5 -99.5zM1319 686h514q-12 53 -45 96q-29 35 -79 66t-134 31t-133 -31t-78 -66q-33 -43 -45 -96z" />
<glyph unicode="&#xe7;" horiz-adv-x="1335" d="M66 563q0 123 46 233.5t126.5 192.5t189.5 130t234 48q100 0 194 -27.5t174 -86t139.5 -147.5t90.5 -212h-342q-33 82 -101.5 122t-148.5 40q-61 0 -110.5 -22.5t-83.5 -62.5t-51 -93t-17 -115q0 -61 17 -113.5t51 -92.5t83 -62.5t111 -22.5q78 0 146.5 44t103.5 112h344 q-78 -238 -236 -351.5t-356 -113.5q-125 0 -235.5 48t-192.5 129t-129 190.5t-47 232.5zM443 -311h155q4 -16 13 -27q8 -10 20 -18.5t35 -8.5q43 0 58.5 29t15.5 49q0 18 -14.5 44t-55.5 26q-16 0 -28.5 -5t-20.5 -9q-8 -6 -16 -13l-123 66l86 178h163l-59 -109q8 0 16 3 q20 4 33 4q68 0 120 -48.5t52 -136.5t-62.5 -150.5t-164.5 -62.5q-78 0 -123 30t-68 64q-27 41 -32 95z" />
<glyph unicode="&#xe8;" horiz-adv-x="1323" d="M66 567q0 125 47 233.5t128 190.5t189.5 129t231.5 47t231 -47t189 -129t128 -190.5t47 -233.5q0 -29 -3 -54.5t-7 -49.5h-844q12 -61 46 -109q29 -41 80 -73.5t139 -32.5q47 0 86 16.5t65 36.5q31 23 53 53h349q-39 -86 -95.5 -157.5t-127 -121.5t-155.5 -79t-181 -29 q-123 0 -231.5 47t-189.5 128t-128 190.5t-47 234.5zM354 1468l103 240l512 -264l-113 -195zM408 690h512q-12 53 -46 96q-29 35 -77.5 66t-132.5 31t-133.5 -31t-77.5 -66q-33 -43 -45 -96z" />
<glyph unicode="&#xe9;" horiz-adv-x="1323" d="M66 567q0 125 47 233.5t128 190.5t189.5 129t231.5 47t231 -47t189 -129t128 -190.5t47 -233.5q0 -29 -3 -54.5t-7 -49.5h-844q12 -61 46 -109q29 -41 80 -73.5t139 -32.5q47 0 86 16.5t65 36.5q31 23 53 53h349q-39 -86 -95.5 -157.5t-127 -121.5t-155.5 -79t-181 -29 q-123 0 -231.5 47t-189.5 128t-128 190.5t-47 234.5zM352 1450l510 274l106 -239l-499 -221zM408 690h512q-12 53 -46 96q-29 35 -77.5 66t-132.5 31t-133.5 -31t-77.5 -66q-33 -43 -45 -96z" />
<glyph unicode="&#xea;" horiz-adv-x="1323" d="M66 567q0 125 47 233.5t128 190.5t189.5 129t231.5 47t231 -47t189 -129t128 -190.5t47 -233.5q0 -29 -3 -54.5t-7 -49.5h-844q12 -61 46 -109q29 -41 80 -73.5t139 -32.5q47 0 86 16.5t65 36.5q31 23 53 53h349q-39 -86 -95.5 -157.5t-127 -121.5t-155.5 -79t-181 -29 q-123 0 -231.5 47t-189.5 128t-128 190.5t-47 234.5zM243 1303l314 337h219l301 -337h-315l-101 143l-98 -143h-320zM408 690h512q-12 53 -46 96q-29 35 -77.5 66t-132.5 31t-133.5 -31t-77.5 -66q-33 -43 -45 -96z" />
<glyph unicode="&#xeb;" horiz-adv-x="1323" d="M66 567q0 125 47 233.5t128 190.5t189.5 129t231.5 47t231 -47t189 -129t128 -190.5t47 -233.5q0 -29 -3 -54.5t-7 -49.5h-844q12 -61 46 -109q29 -41 80 -73.5t139 -32.5q47 0 86 16.5t65 36.5q31 23 53 53h349q-39 -86 -95.5 -157.5t-127 -121.5t-155.5 -79t-181 -29 q-123 0 -231.5 47t-189.5 128t-128 190.5t-47 234.5zM262 1311v307h319v-307h-319zM408 690h512q-12 53 -46 96q-29 35 -77.5 66t-132.5 31t-133.5 -31t-77.5 -66q-33 -43 -45 -96zM739 1311v307h320v-307h-320z" />
<glyph unicode="&#xec;" horiz-adv-x="585" d="M-13 1468l103 240l512 -264l-113 -195zM125 0v1128h338v-1128h-338z" />
<glyph unicode="&#xed;" horiz-adv-x="585" d="M-12 1450l510 274l106 -239l-499 -221zM125 0v1128h338v-1128h-338z" />
<glyph unicode="&#xee;" horiz-adv-x="585" d="M-121 1303l314 337h219l301 -337h-315l-101 143l-98 -143h-320zM125 0v1128h338v-1128h-338z" />
<glyph unicode="&#xef;" horiz-adv-x="585" d="M-102 1311v307h319v-307h-319zM125 0v1128h338v-1128h-338zM375 1311v307h320v-307h-320z" />
<glyph unicode="&#xf0;" horiz-adv-x="1363" d="M72 561q0 166 58 277.5t143 178t178.5 95.5t162.5 29q53 0 103.5 -20.5t89.5 -43.5q45 -29 86 -63q-29 45 -66 86q-31 35 -73.5 73.5t-94.5 65.5l-305 -92l-190 123l285 88l-181 67l305 113l205 -80l262 80l170 -131l-245 -74q90 -68 161 -170q61 -88 112.5 -223 t51.5 -326q0 -127 -30.5 -223t-80 -168.5t-114 -122t-132 -79t-134 -43t-119.5 -13.5t-118.5 13.5t-133.5 43t-132.5 75.5t-113.5 112.5t-79.5 154t-30.5 197.5zM410 567q0 -66 22.5 -118t61 -89.5t88 -58t102.5 -20.5t101.5 18t85 52t58 84t21.5 112q0 61 -14 117.5 t-46 98.5t-81 66.5t-119 24.5q-123 0 -201.5 -79t-78.5 -208z" />
<glyph unicode="&#xf1;" horiz-adv-x="1294" d="M127 0v1128h315l-2 -149q12 53 49 94q33 35 94.5 64.5t170.5 29.5q213 0 315 -123.5t102 -336.5v-707h-337v657q0 96 -44.5 148.5t-132.5 52.5t-140 -50t-52 -177v-631h-338zM234 1518q31 18 67 34q31 14 71 25.5t87 11.5q45 0 87 -8t83 -17.5t81 -17.5t79 -8t69.5 8 t53.5 19q25 12 45 28l102 -192q-29 -23 -61 -39q-29 -14 -67 -25.5t-83 -11.5t-93 8t-93 18.5t-86 18.5t-72 8q-33 0 -62.5 -9t-52.5 -19q-27 -12 -51 -29z" />
<glyph unicode="&#xf2;" horiz-adv-x="1363" d="M70 565q0 125 48 233.5t130 190.5t192.5 129t237.5 47q125 0 236.5 -47t193.5 -129t130 -190.5t48 -233.5q0 -123 -48 -232.5t-130 -190.5t-193.5 -128t-236.5 -47q-127 0 -237.5 47t-192.5 128t-130 190.5t-48 232.5zM375 1468l103 240l512 -264l-113 -195zM403 565 q0 -59 21.5 -112.5t58.5 -92t87.5 -61.5t107.5 -23t107.5 23t87 61.5t58 92t21.5 112.5q0 61 -21.5 113.5t-58 92.5t-87 62.5t-107.5 22.5t-107.5 -22.5t-87.5 -62.5t-58.5 -92t-21.5 -114z" />
<glyph unicode="&#xf3;" horiz-adv-x="1363" d="M70 565q0 125 48 233.5t130 190.5t192.5 129t237.5 47q125 0 236.5 -47t193.5 -129t130 -190.5t48 -233.5q0 -123 -48 -232.5t-130 -190.5t-193.5 -128t-236.5 -47q-127 0 -237.5 47t-192.5 128t-130 190.5t-48 232.5zM373 1450l510 274l106 -239l-499 -221zM403 565 q0 -59 21.5 -112.5t58.5 -92t87.5 -61.5t107.5 -23t107.5 23t87 61.5t58 92t21.5 112.5q0 61 -21.5 113.5t-58 92.5t-87 62.5t-107.5 22.5t-107.5 -22.5t-87.5 -62.5t-58.5 -92t-21.5 -114z" />
<glyph unicode="&#xf4;" horiz-adv-x="1363" d="M70 565q0 125 48 233.5t130 190.5t192.5 129t237.5 47q125 0 236.5 -47t193.5 -129t130 -190.5t48 -233.5q0 -123 -48 -232.5t-130 -190.5t-193.5 -128t-236.5 -47q-127 0 -237.5 47t-192.5 128t-130 190.5t-48 232.5zM264 1303l314 337h219l301 -337h-315l-101 143 l-98 -143h-320zM403 565q0 -59 21.5 -112.5t58.5 -92t87.5 -61.5t107.5 -23t107.5 23t87 61.5t58 92t21.5 112.5q0 61 -21.5 113.5t-58 92.5t-87 62.5t-107.5 22.5t-107.5 -22.5t-87.5 -62.5t-58.5 -92t-21.5 -114z" />
<glyph unicode="&#xf5;" horiz-adv-x="1363" d="M70 565q0 125 48 233.5t130 190.5t192.5 129t237.5 47q125 0 236.5 -47t193.5 -129t130 -190.5t48 -233.5q0 -123 -48 -232.5t-130 -190.5t-193.5 -128t-236.5 -47q-127 0 -237.5 47t-192.5 128t-130 190.5t-48 232.5zM268 1518q31 18 67 34q31 14 71 25.5t87 11.5 q45 0 87 -8t83 -17.5t81 -17.5t79 -8t69.5 8t53.5 19q25 12 45 28l102 -192q-29 -23 -61 -39q-29 -14 -67 -25.5t-83 -11.5t-93 8t-93 18.5t-86 18.5t-72 8q-33 0 -62.5 -9t-52.5 -19q-27 -12 -51 -29zM403 565q0 -59 21.5 -112.5t58.5 -92t87.5 -61.5t107.5 -23t107.5 23 t87 61.5t58 92t21.5 112.5q0 61 -21.5 113.5t-58 92.5t-87 62.5t-107.5 22.5t-107.5 -22.5t-87.5 -62.5t-58.5 -92t-21.5 -114z" />
<glyph unicode="&#xf6;" horiz-adv-x="1363" d="M70 565q0 125 48 233.5t130 190.5t192.5 129t237.5 47q125 0 236.5 -47t193.5 -129t130 -190.5t48 -233.5q0 -123 -48 -232.5t-130 -190.5t-193.5 -128t-236.5 -47q-127 0 -237.5 47t-192.5 128t-130 190.5t-48 232.5zM283 1311v307h319v-307h-319zM403 565 q0 -59 21.5 -112.5t58.5 -92t87.5 -61.5t107.5 -23t107.5 23t87 61.5t58 92t21.5 112.5q0 61 -21.5 113.5t-58 92.5t-87 62.5t-107.5 22.5t-107.5 -22.5t-87.5 -62.5t-58.5 -92t-21.5 -114zM760 1311v307h320v-307h-320z" />
<glyph unicode="&#xf7;" horiz-adv-x="1228" d="M102 352v326h1016v-326h-1016zM449 -117v326h319v-326h-319zM449 819v326h319v-326h-319z" />
<glyph unicode="&#xf8;" horiz-adv-x="1363" d="M74 565q0 125 48 233.5t130 189.5t192.5 128t237.5 47q135 0 254 -53l129 172l201 -141l-131 -176q72 -80 113.5 -181.5t41.5 -218.5q0 -125 -48 -234.5t-130 -190.5t-193.5 -128t-236.5 -47q-68 0 -130.5 14.5t-119.5 38.5l-133 -178l-197 148l129 174 q-74 80 -115.5 183.5t-41.5 219.5zM408 565q0 -68 28 -129l305 412q-29 6 -59 6q-57 0 -107.5 -22.5t-87 -61.5t-58 -92.5t-21.5 -112.5zM627 281q26 -7 55 -7q57 0 107.5 22.5t87 62.5t58 93.5t21.5 112.5q0 63 -26 123z" />
<glyph unicode="&#xf9;" horiz-adv-x="1298" d="M119 432v696h338v-624q0 -123 42 -174t138 -51q98 0 146 63.5t48 155.5v630h338v-1128h-311l-8 141q-14 -51 -51 -90q-33 -35 -90.5 -61.5t-155.5 -26.5t-178 31t-136.5 91t-88 147t-31.5 200zM342 1468l103 240l512 -264l-113 -195z" />
<glyph unicode="&#xfa;" horiz-adv-x="1298" d="M119 432v696h338v-624q0 -123 42 -174t138 -51q98 0 146 63.5t48 155.5v630h338v-1128h-311l-8 141q-14 -51 -51 -90q-33 -35 -90.5 -61.5t-155.5 -26.5t-178 31t-136.5 91t-88 147t-31.5 200zM340 1450l510 274l106 -239l-499 -221z" />
<glyph unicode="&#xfb;" horiz-adv-x="1298" d="M119 432v696h338v-624q0 -123 42 -174t138 -51q98 0 146 63.5t48 155.5v630h338v-1128h-311l-8 141q-14 -51 -51 -90q-33 -35 -90.5 -61.5t-155.5 -26.5t-178 31t-136.5 91t-88 147t-31.5 200zM231 1303l314 337h219l301 -337h-315l-101 143l-98 -143h-320z" />
<glyph unicode="&#xfc;" horiz-adv-x="1298" d="M119 432v696h338v-624q0 -123 42 -174t138 -51q98 0 146 63.5t48 155.5v630h338v-1128h-311l-8 141q-14 -51 -51 -90q-33 -35 -90.5 -61.5t-155.5 -26.5t-178 31t-136.5 91t-88 147t-31.5 200zM250 1311v307h319v-307h-319zM727 1311v307h320v-307h-320z" />
<glyph unicode="&#xfd;" horiz-adv-x="1175" d="M-4 1128h360l228 -673l219 673h358l-567 -1507h-358l192 447zM283 1450l510 274l106 -239l-499 -221z" />
<glyph unicode="&#xfe;" horiz-adv-x="1423" d="M121 -377v1878h313l-6 -522q37 51 90 92q45 35 109.5 63.5t150.5 28.5q123 0 226.5 -44t178 -124t117.5 -190.5t43 -241.5q0 -133 -40.5 -243.5t-114.5 -191.5t-174.5 -126t-218.5 -45q-104 0 -170 27.5t-107 62.5q-47 39 -72 92v-516h-325zM449 559q0 -53 19 -104.5 t54 -91t84.5 -64.5t110.5 -25q68 0 121 24t91 63.5t57.5 93t19.5 112.5q0 49 -16.5 98.5t-50.5 90.5t-83 66.5t-115 25.5q-70 0 -124 -24.5t-92 -64.5t-57 -92.5t-19 -107.5z" />
<glyph unicode="&#xff;" horiz-adv-x="1175" d="M-4 1128h360l228 -673l219 673h358l-567 -1507h-358l192 447zM188 1311v307h319v-307h-319zM665 1311v307h320v-307h-320z" />
<glyph unicode="&#x152;" horiz-adv-x="2222" d="M72 750q0 162 62.5 304t170 248.5t252.5 168t309 61.5q115 0 218.5 -29.5t195.5 -85.5v84h842v-336h-477v-235h462v-338h-462v-258h477v-338h-842v88q-92 -55 -195.5 -86t-218.5 -31q-164 0 -309 61.5t-252.5 168t-170 249t-62.5 304.5zM451 750q0 -90 32.5 -171 t89 -140.5t132 -94.5t161.5 -35t161 35t131 94.5t89 140t33 171.5q0 92 -33 171.5t-89 139t-131 94.5t-161 35t-161.5 -35t-132 -94.5t-89 -139t-32.5 -171.5z" />
<glyph unicode="&#x153;" horiz-adv-x="2203" d="M74 565q0 125 47 233.5t130 190.5t192.5 129t236.5 47q133 0 246.5 -51t197.5 -137q74 86 178.5 135t231.5 49q123 0 231.5 -47t189.5 -129t128 -190.5t47 -233.5q0 -29 -2 -54t-6 -50h-844v-6q2 -12 13.5 -47t41 -71t78.5 -63.5t129 -27.5q47 0 86 16t66 37q31 23 55 53 h346q-37 -86 -93 -157.5t-127 -122t-157 -79t-182 -28.5q-129 0 -234.5 51t-179.5 140q-84 -86 -196.5 -135.5t-243.5 -49.5q-127 0 -236.5 47t-192.5 128t-130 190.5t-47 232.5zM408 565q0 -59 21.5 -112.5t58 -92t87 -61.5t105.5 -23q57 0 107.5 23t87 61.5t58 92 t21.5 112.5q0 61 -21.5 113.5t-58 92.5t-87 62.5t-107.5 22.5q-55 0 -105.5 -22.5t-87 -62.5t-58 -92t-21.5 -114zM1280 684h514q-12 53 -45 96q-29 35 -78 66t-133 31q-86 0 -135 -31t-78 -66q-33 -43 -45 -96z" />
<glyph unicode="&#x178;" horiz-adv-x="1325" d="M25 1507h417l224 -633l225 633h414l-445 -958v-549h-385v549zM264 1698v307h319v-307h-319zM741 1698v307h320v-307h-320z" />
<glyph unicode="&#x2c6;" horiz-adv-x="1136" d="M145 1303l314 337h219l301 -337h-315l-101 143l-98 -143h-320z" />
<glyph unicode="&#x2dc;" horiz-adv-x="1136" d="M164 1518q31 18 67 34q31 14 71 25.5t87 11.5q45 0 87 -8t83 -17.5t81 -17.5t79 -8t69.5 8t53.5 19q25 12 45 28l102 -192q-29 -23 -61 -39q-29 -14 -67 -25.5t-83 -11.5t-93 8t-93 18.5t-86 18.5t-72 8q-33 0 -62.5 -9t-52.5 -19q-27 -12 -51 -29z" />
<glyph unicode="&#x2000;" horiz-adv-x="1056" />
<glyph unicode="&#x2001;" horiz-adv-x="2113" />
<glyph unicode="&#x2002;" horiz-adv-x="1056" />
<glyph unicode="&#x2003;" horiz-adv-x="2113" />
<glyph unicode="&#x2004;" horiz-adv-x="704" />
<glyph unicode="&#x2005;" horiz-adv-x="528" />
<glyph unicode="&#x2006;" horiz-adv-x="352" />
<glyph unicode="&#x2007;" horiz-adv-x="352" />
<glyph unicode="&#x2008;" horiz-adv-x="264" />
<glyph unicode="&#x2009;" horiz-adv-x="422" />
<glyph unicode="&#x200a;" horiz-adv-x="117" />
<glyph unicode="&#x2010;" horiz-adv-x="575" d="M0 422v332h571v-332h-571z" />
<glyph unicode="&#x2011;" horiz-adv-x="575" d="M0 422v332h571v-332h-571z" />
<glyph unicode="&#x2012;" horiz-adv-x="575" d="M0 422v332h571v-332h-571z" />
<glyph unicode="&#x2013;" horiz-adv-x="1024" d="M74 422v332h866v-332h-866z" />
<glyph unicode="&#x2014;" horiz-adv-x="2048" d="M78 420v332h1892v-332h-1892z" />
<glyph unicode="&#x2018;" horiz-adv-x="643" d="M145 831v429q0 47 15.5 92t43 78.5t65.5 54t83 20.5h146v-180h-72q-37 0 -62.5 -16.5t-25.5 -46.5v-84h160v-347h-353z" />
<glyph unicode="&#x2019;" horiz-adv-x="643" d="M145 831v183h72q37 0 61.5 16.5t24.5 46.5v82h-158v346h353v-426q0 -47 -16.5 -92t-44 -80t-65.5 -55.5t-83 -20.5h-144z" />
<glyph unicode="&#x201a;" horiz-adv-x="643" d="M145 0v346h353v-428q0 -111 -59.5 -178.5t-149.5 -67.5h-139v181h67q37 0 61.5 16t24.5 47v84h-158z" />
<glyph unicode="&#x201c;" horiz-adv-x="1136" d="M147 831v429q0 47 16.5 92t44.5 78.5t65.5 54t82.5 20.5h144v-180h-70q-39 0 -63.5 -16.5t-24.5 -46.5v-84h158v-347h-353zM627 831v429q0 47 16 92t44 78.5t66 54t83 20.5h143v-180h-70q-39 0 -63.5 -16.5t-24.5 -46.5v-84h158v-347h-352z" />
<glyph unicode="&#x201d;" horiz-adv-x="1136" d="M147 831v183h70q37 0 62.5 16.5t25.5 46.5v82h-158v346h351v-426q0 -47 -15.5 -92t-43 -80t-65.5 -55.5t-83 -20.5h-144zM635 831v183h70q39 0 63.5 16.5t24.5 46.5v82h-158v346h350v-426q0 -47 -15.5 -92t-43 -80t-65.5 -55.5t-83 -20.5h-143z" />
<glyph unicode="&#x201e;" horiz-adv-x="1136" d="M137 0v346h352v-428q0 -111 -59 -178.5t-149 -67.5h-140v181h66q39 0 63.5 16t24.5 47v84h-158zM637 0v346h352v-428q0 -111 -59.5 -178.5t-147.5 -67.5h-141v181h68q37 0 62.5 16t25.5 47v84h-160z" />
<glyph unicode="&#x2022;" horiz-adv-x="1513" d="M432 768q0 66 25.5 124t68.5 101t101.5 68.5t124.5 25.5t124 -25.5t101 -68.5t68.5 -101t25.5 -124t-25.5 -124t-68.5 -101t-101.5 -68.5t-123.5 -25.5q-66 0 -124.5 25.5t-101.5 68.5t-68.5 101t-25.5 124z" />
<glyph unicode="&#x2026;" horiz-adv-x="2048" d="M176 0v360h361v-360h-361zM848 0v360h360v-360h-360zM1520 0v360h360v-360h-360z" />
<glyph unicode="&#x202f;" horiz-adv-x="422" />
<glyph unicode="&#x2039;" horiz-adv-x="454" d="M100 471v225l265 269v-285l-117 -92l117 -96v-283z" />
<glyph unicode="&#x203a;" horiz-adv-x="454" d="M94 209v283l117 96l-117 92v285l264 -269v-225z" />
<glyph unicode="&#x205f;" horiz-adv-x="528" />
<glyph unicode="&#x20ac;" d="M-18 537l67 161h92v121h-159l65 154h94v4q0 141 44 246.5t118 175t173 103.5t212 34q104 0 183 -20.5t137.5 -54.5t98.5 -78t67 -89q61 -106 71 -239h-385q-4 39 -22 71q-16 27 -48 49.5t-90 22.5q-57 0 -91 -17.5t-52 -48t-24.5 -72.5t-6.5 -91l502 -2l-61 -148h-441 v-121h396l-68 -161h-328q0 -49 6.5 -90t24.5 -72t52 -48.5t91 -17.5t89 21.5t49 48.5q18 31 22 72h385q-10 -135 -71 -240q-27 -45 -67 -88t-98.5 -77t-137 -54.5t-183.5 -20.5q-113 0 -212 35t-174 104.5t-118 176t-43 250.5h-159z" />
<glyph unicode="&#x2122;" horiz-adv-x="2027" d="M55 1290v215h625v-215h-184v-688h-256v688h-185zM797 602v903h319l184 -583l183 583h317v-903h-237l4 649l-187 -649h-159l-197 645l12 -645h-239z" />
<glyph unicode="&#xe000;" horiz-adv-x="1126" d="M0 0v1126h1126v-1126h-1126z" />
<glyph unicode="&#xfb01;" horiz-adv-x="1230" d="M16 872v252h123v39q0 199 109.5 285t329.5 86h45v-254q-31 0 -56.5 -3t-46 -17.5t-32 -43t-11.5 -79.5v-13h293h340v-1124h-340v872h-293v-278.5t2 -284.5q0 -156 2 -309h-342v872h-123zM770 1253v254h340v-254h-340z" />
<glyph unicode="&#xfb02;" horiz-adv-x="1230" d="M14 872v252h123v39q0 199 108.5 285t329.5 86h46v-254q-31 0 -57.5 -3t-46 -17.5t-32 -43t-12.5 -79.5v-13h291v383h338v-1507h-338v872h-291q0 -127 1 -278.5t1 -284.5q0 -156 2 -309h-340v872h-123z" />
</font>
</defs>
</svg>
