<?xml version="1.0" standalone="no"?>
<!DOCTYPE svg PUBLIC "-//W3C//DTD SVG 1.1//EN" "http://www.w3.org/Graphics/SVG/1.1/DTD/svg11.dtd" >
<svg xmlns="http://www.w3.org/2000/svg">
<metadata></metadata>
<defs>
<font id="officeworksmediummedium" horiz-adv-x="1136" >
<font-face units-per-em="2048" ascent="1536" descent="-512" />
<missing-glyph horiz-adv-x="567" />
<glyph horiz-adv-x="2048" />
<glyph horiz-adv-x="2048" />
<glyph unicode="&#xd;" horiz-adv-x="0" />
<glyph unicode=" "  horiz-adv-x="567" />
<glyph unicode="&#x09;" horiz-adv-x="567" />
<glyph unicode="&#xa0;" horiz-adv-x="567" />
<glyph unicode="!" horiz-adv-x="567" d="M178 -2v254h213v-254h-213zM178 375v1130h213v-1130h-213z" />
<glyph unicode="&#x22;" horiz-adv-x="665" d="M43 1505h225l-41 -602h-143zM399 1505h224l-41 -602h-142z" />
<glyph unicode="#" d="M66 414l4 170h206l33 254h-182l4 170h203l57 415h182l-57 -415h203l55 415h182l-57 -415h168l-4 -170h-189l-34 -254h166l-5 -170h-186l-57 -416h-180l57 416h-203l-59 -416h-178l57 416h-186zM457 584h202l35 254h-202z" />
<glyph unicode="$" d="M145 479h201q0 -117 64.5 -183.5t156.5 -66.5q90 0 154.5 55.5t64.5 176.5q0 84 -44 128t-111.5 72.5t-144 53t-144.5 67.5t-112 118t-44 202q0 66 22.5 122t61.5 101t89.5 76t105.5 45v227h188v-221q57 -12 112.5 -40t97.5 -74t67.5 -110.5t25.5 -148.5h-198 q2 55 -19 99q-16 37 -55 68.5t-117 31.5q-41 0 -73.5 -16.5t-57 -43t-38 -59.5t-13.5 -65q0 -74 44 -114t111.5 -68.5t144.5 -54.5t144.5 -72t111.5 -121.5t44 -202.5q0 -84 -24.5 -152.5t-69.5 -121t-105.5 -86t-132.5 -46.5v-225h-188v229q-68 14 -126 50t-101 90.5 t-68 124t-25 155.5z" />
<glyph unicode="%" horiz-adv-x="1714" d="M111 1165q0 76 28.5 143.5t77.5 118t114.5 79t141.5 28.5t142.5 -28.5t115.5 -79t78 -118t29 -143.5q0 -78 -29 -144.5t-78 -117.5t-115.5 -79.5t-142.5 -28.5t-141.5 28.5t-114.5 79.5t-77.5 117.5t-28.5 144.5zM285 1165q0 -39 14 -73.5t40 -60t60.5 -41t73.5 -15.5 t74 15.5t60.5 41t41 60t15.5 73.5t-15.5 74t-41 60.5t-60.5 40t-74 14.5t-73.5 -14.5t-60.5 -40t-40 -60.5t-14 -74zM344 -2l866 1507h133l-860 -1507h-139zM864 336q0 76 29 143.5t78 118.5t114.5 80t141.5 29t142.5 -29t115.5 -80t77.5 -118.5t28.5 -143.5 q0 -78 -28.5 -144.5t-77.5 -117.5t-115.5 -80t-142.5 -29t-141.5 29t-114.5 80t-78 117.5t-29 144.5zM1038 336q0 -39 15.5 -74t41 -60.5t59.5 -40t73 -14.5t73.5 14.5t60 40t41 60.5t15.5 74t-15.5 73.5t-41 60.5t-60 40t-73.5 14t-73 -14t-59.5 -40t-41 -60.5t-15.5 -73.5 z" />
<glyph unicode="&#x26;" horiz-adv-x="1400" d="M66 420q0 152 78.5 258t209.5 172q-43 33 -70.5 70.5t-44 77.5t-23.5 79t-7 72q0 76 25.5 145.5t74.5 122.5t120 85t161 32q63 0 129.5 -25.5t121 -75t89.5 -121t35 -161.5q0 -92 -40 -159.5t-87 -112.5q-55 -53 -125 -91l198 -196l156 313h238l-236 -477l305 -311 l-145 -148l-266 267q-45 -76 -111 -134q-55 -51 -136 -92t-190 -41t-194.5 42t-145 107.5t-90 145.5t-30.5 156zM285 420q0 -49 18.5 -94t50 -79t75.5 -54.5t97 -20.5q72 0 126.5 33t90.5 74q43 47 74 108l-317 313q-61 -16 -109 -53q-41 -31 -73.5 -85t-32.5 -142z M430 1149q0 -45 19.5 -84t44.5 -68q27 -35 63 -63q53 20 94 51q35 27 64.5 69t29.5 103q0 86 -45.5 130t-111.5 44q-59 0 -108.5 -48t-49.5 -134z" />
<glyph unicode="'" horiz-adv-x="446" d="M115 1505h223l-41 -602h-141z" />
<glyph unicode="(" horiz-adv-x="833" d="M113 514q0 133 25.5 248t67.5 212t96 177t112 141q131 146 301 244v-264q-109 -74 -193 -185q-37 -47 -70.5 -106t-60 -130t-43 -155t-16.5 -180t16.5 -181t44 -158t63.5 -133t72 -110q86 -113 199 -194v-264q-172 102 -307 252q-57 63 -112.5 144t-98.5 179.5t-69.5 214 t-26.5 248.5z" />
<glyph unicode=")" horiz-adv-x="833" d="M100 -260q111 82 197 194q37 49 73 109.5t63.5 133.5t45 158t17.5 181t-16.5 180t-44 155t-61.5 130t-71 106q-84 111 -190 185v264q168 -98 301 -244q55 -61 109.5 -141t97.5 -177t68.5 -212t25.5 -248t-26.5 -248.5t-70 -214t-98.5 -179.5t-112 -144 q-135 -150 -308 -252v264z" />
<glyph unicode="*" horiz-adv-x="1173" d="M199 1171l45 134l276 -93l-2 293h144l-7 -293l277 93l45 -134l-281 -88l176 -233l-114 -84l-168 258l-170 -258l-117 84l178 233z" />
<glyph unicode="+" horiz-adv-x="1228" d="M98 410v211h404v409h213v-409h403v-211h-403v-410h-213v410h-404z" />
<glyph unicode="," horiz-adv-x="567" d="M178 -133q14 4 27.5 11t25 20.5t18.5 38t7 63.5h-76v246h211v-246q0 -102 -60.5 -172t-152.5 -86v125z" />
<glyph unicode="-" horiz-adv-x="573" d="M4 481v213h569v-213h-569z" />
<glyph unicode="." horiz-adv-x="567" d="M182 0v246h209v-246h-209z" />
<glyph unicode="/" horiz-adv-x="1021" d="M82 -203l586 1706h231l-586 -1706h-231z" />
<glyph unicode="0" d="M84 451v598q0 102 39 191t105.5 154.5t155.5 103.5t191 38q119 0 209 -46t151.5 -118t92.5 -160t31 -174v-587q0 -86 -35 -172t-98.5 -155t-154.5 -112t-202 -43t-200.5 42t-153 110.5t-97.5 154.5t-34 175zM295 483q0 -49 12 -104t44 -103.5t86.5 -80t137.5 -31.5 q127 0 200 82t73 217v561q0 57 -14.5 113.5t-47 101.5t-85 73.5t-128.5 28.5q-43 0 -92 -14t-91 -51t-68.5 -98.5t-26.5 -155.5v-539z" />
<glyph unicode="1" d="M301 1313v192h436v-1505h-211v1313h-225z" />
<glyph unicode="2" d="M78 993q0 117 31.5 215.5t94 171t152.5 113.5t207 41t204 -46t144.5 -117t86 -157t28.5 -165q0 -80 -23.5 -147.5t-57.5 -122t-71.5 -96.5t-66.5 -69q-14 -14 -40 -39.5t-57.5 -58.5t-68.5 -68.5t-74 -72.5q-84 -84 -184 -182h649v-193h-946v176q133 135 246 250 q49 49 97 98t90 92t75 77t51 52q33 35 64.5 69t54 71t37 79t14.5 91t-17.5 100t-50 92t-81 67.5t-109.5 26.5q-55 0 -96 -15t-70 -39.5t-47 -55.5t-31 -64q-26 -78 -24 -174h-211z" />
<glyph unicode="3" d="M47 444h213q0 -47 15.5 -96t49 -90t87 -67.5t129.5 -26.5q57 0 106 21.5t86 59.5t57.5 89t20.5 108q0 45 -16.5 97.5t-58.5 93.5t-110.5 64.5t-172.5 15.5v211q135 -14 213.5 37t78.5 172q0 59 -21.5 99t-52 64.5t-65.5 34.5t-61 10q-27 0 -61.5 -10t-66.5 -34.5 t-53.5 -66t-21.5 -102.5h-211q0 72 29.5 145t84 131t132.5 94t174 36t172 -36t128 -94t79.5 -134t27.5 -154t-20 -131t-48 -88t-58.5 -53.5t-49.5 -24.5q23 -2 64 -23.5t80 -65.5t67.5 -113.5t28.5 -165.5q0 -113 -38 -202t-103.5 -150.5t-154.5 -94.5t-191 -33t-191.5 39 t-155 103.5t-103.5 150.5t-38 180z" />
<glyph unicode="4" d="M29 242v204l688 1059h211v-1071h164v-192h-164v-242h-211v242h-688zM268 434h449v740z" />
<glyph unicode="5" d="M55 457h211q8 -61 34 -114.5t64.5 -93.5t91 -62.5t113.5 -22.5t115.5 24.5t96.5 67.5t65.5 103.5t23.5 134.5t-18 138t-55 111.5t-92.5 75t-126.5 27.5q-72 0 -121 -18.5t-82 -45t-49.5 -55.5t-24.5 -49l-178 43l127 784h688v-192h-514l-72 -375q27 29 62 51 q29 18 70.5 34.5t93.5 16.5q106 0 198 -37.5t160 -106.5t106.5 -167t38.5 -219t-42 -220.5t-113.5 -170t-164.5 -109.5t-194 -39q-102 0 -188 33t-153.5 95.5t-111.5 152.5t-59 205z" />
<glyph unicode="6" d="M55 485q0 82 20.5 152t45.5 123q29 61 65 110l406 635h252l-346 -520q18 8 41 16q18 6 41.5 12.5t46.5 6.5q72 0 153.5 -29.5t152.5 -92t118 -159t47 -227.5q0 -133 -48.5 -233.5t-123 -170t-167.5 -104.5t-181 -35t-181.5 34t-169 99.5t-124 161.5t-48.5 221zM266 504 q0 -86 30 -150.5t76 -106.5t101 -62.5t105 -20.5q55 0 110 23.5t99 66.5t72 103.5t28 131.5q0 72 -25.5 133.5t-67.5 107.5t-97.5 71.5t-114.5 25.5q-47 0 -102.5 -18t-102.5 -57t-79 -100.5t-32 -147.5z" />
<glyph unicode="7" d="M147 1311v194h877v-194l-547 -1313h-235l567 1313h-662z" />
<glyph unicode="8" d="M86 442q0 104 32 177t72 120q47 53 107 90q-41 29 -72 70q-27 35 -48 90t-21 129t28.5 147.5t83 134t130 97.5t167.5 37q82 0 156 -35t129 -93t88 -133t33 -153t-22.5 -133t-51.5 -90q-33 -41 -74 -68q59 -35 107 -88q41 -47 74.5 -118.5t33.5 -173.5t-38.5 -189.5 t-104.5 -152t-153 -100.5t-181 -36q-96 0 -182 39t-151.5 103.5t-103.5 150.5t-38 178zM293 432q0 -78 30.5 -129t73.5 -82t88 -44t74 -13q49 0 97.5 17.5t86 51t62 84t24.5 113.5t-24.5 115.5t-63.5 89.5t-87 56.5t-93 19.5q-41 0 -87 -14.5t-87 -47.5t-67.5 -86 t-26.5 -131zM362 1133q0 -43 16.5 -81t44.5 -66t63.5 -44t74.5 -16t76 15t65.5 43t45 68t16.5 89t-18.5 86t-48 62.5t-65.5 37.5t-69 12q-88 0 -144.5 -60t-56.5 -146z" />
<glyph unicode="9" d="M43 991q0 131 48 232.5t123 171t167 104.5t182 35q88 0 181.5 -34t169 -99.5t123.5 -161.5t48 -221q0 -82 -20.5 -151.5t-44.5 -123.5q-29 -61 -66 -110l-405 -635h-250l344 520q-18 -10 -41 -18q-18 -6 -41.5 -11.5t-46.5 -5.5q-72 0 -153.5 30t-152.5 92.5t-118 157.5 t-47 228zM256 1014q0 -72 25.5 -133.5t67.5 -107.5t96.5 -71.5t113.5 -25.5q47 0 102.5 18.5t102.5 57.5t78.5 100t31.5 147t-30.5 150.5t-76.5 106.5t-100.5 62.5t-103.5 20.5q-55 0 -110.5 -23.5t-98.5 -66.5t-70.5 -103.5t-27.5 -131.5z" />
<glyph unicode=":" horiz-adv-x="567" d="M182 0v246h209v-246h-209zM182 885v245h209v-245h-209z" />
<glyph unicode=";" horiz-adv-x="567" d="M176 -133q14 4 27.5 11t25 20.5t18.5 38t7 63.5h-76v246h211v-246q0 -102 -60.5 -172t-152.5 -86v125zM178 885v245h211v-245h-211z" />
<glyph unicode="&#x3c;" horiz-adv-x="1228" d="M102 428v174l1035 445v-209l-791 -324l791 -324v-206z" />
<glyph unicode="=" horiz-adv-x="1228" d="M96 186v213h1026v-213h-1026zM96 631v211h1026v-211h-1026z" />
<glyph unicode="&#x3e;" horiz-adv-x="1228" d="M96 -16v206l791 324l-791 324v209l1034 -445v-174z" />
<glyph unicode="?" horiz-adv-x="1060" d="M63 1077q0 72 29 153t85 148.5t142 111.5t201 44q98 0 180 -40t142.5 -104.5t93.5 -145.5t33 -165q0 -90 -24.5 -149.5t-61.5 -106.5t-80 -86t-83 -87t-69.5 -111.5t-38.5 -155.5h-211q6 113 36 192.5t70 138t84 101.5t81 82t61.5 79t24.5 95q0 59 -22.5 106.5t-57.5 79 t-77 48t-83 16.5t-84 -16.5t-77.5 -47t-57.5 -75.5t-23 -105h-213zM401 0v246h211v-246h-211z" />
<glyph unicode="@" horiz-adv-x="1556" d="M27 733q0 199 73.5 348.5t189.5 250t255 150.5t268 50q147 0 277.5 -46t227.5 -132t153.5 -210t56.5 -282q0 -145 -41 -248.5t-100.5 -170t-127 -97.5t-118.5 -31q-66 0 -113 36t-57 110q-35 -72 -112 -107t-177 -35q-49 0 -103.5 18.5t-99.5 63.5t-73.5 119t-28.5 185 q0 98 36 179t91 138t122.5 89t133.5 32t113 -14.5t77.5 -38t49 -52t24.5 -57.5q6 35 10 59.5t8 40.5q4 20 7 33h149q-29 -152 -51 -276q-10 -53 -18.5 -105.5t-15.5 -95.5t-11 -74t-4 -39q0 -37 18.5 -45t32.5 -8q53 0 93 32t67.5 86t42 123.5t14.5 147.5q0 76 -25.5 166 t-89 168t-169 130t-267.5 52t-280.5 -57t-195.5 -148.5t-114 -203t-37 -217.5q0 -109 33 -219.5t109 -199.5t199.5 -146.5t306.5 -57.5q115 0 203.5 19.5t152.5 41.5q74 27 129 62l80 -125q-70 -43 -158 -78q-76 -29 -179 -52.5t-228 -23.5q-160 0 -305.5 48.5t-258 144.5 t-179 238.5t-66.5 330.5zM537 686q0 -61 17 -103t44 -68t58.5 -37t58.5 -11q82 0 134 36t82 88t41 109.5t11 100.5q0 78 -47 134t-154 56q-53 0 -98 -24.5t-78 -66.5t-51 -97t-18 -117z" />
<glyph unicode="A" horiz-adv-x="1400" d="M33 0l573 1505h197l571 -1505h-233l-164 449h-547l-164 -449h-233zM498 647h413l-204 598z" />
<glyph unicode="B" horiz-adv-x="1187" d="M156 0v1505h366q113 0 204 -27.5t155.5 -82t99.5 -131t35 -174.5q0 -70 -24.5 -123.5t-53.5 -87.5q-35 -43 -76 -74q68 -29 121 -80q47 -43 85 -112.5t38 -174.5q0 -209 -142.5 -323.5t-406.5 -114.5h-401zM375 201h270q104 0 172 67.5t68 169.5q0 100 -68.5 170 t-191.5 70h-250v-477zM375 879h178q121 0 181.5 55t60.5 137q0 78 -26 124t-64.5 70.5t-82.5 32t-81 7.5h-166v-426z" />
<glyph unicode="C" horiz-adv-x="1601" d="M76 752q0 162 61.5 304t168 248.5t248.5 168t304 61.5q111 0 214.5 -29.5t192.5 -84t160.5 -130.5t120.5 -168h-258q-78 98 -189.5 154.5t-240.5 56.5q-117 0 -218 -46t-176 -124t-119 -184.5t-44 -224.5q0 -121 44 -226.5t119 -184.5t176 -125t218 -46q123 0 230.5 52.5 t183.5 142.5h266q-51 -90 -123 -163t-159 -125t-188 -81t-210 -29q-162 0 -304 61.5t-248.5 168t-168 249t-61.5 304.5z" />
<glyph unicode="D" horiz-adv-x="1499" d="M137 0v1505h512q150 0 285 -51t237.5 -148.5t163 -237.5t60.5 -318q0 -190 -61.5 -332t-167 -235t-244 -138t-291.5 -45h-494zM356 201h279q125 0 224 41t170 113.5t109 173t38 221.5q0 119 -40 220t-111 176t-170 117t-216 42h-283v-1104z" />
<glyph unicode="E" horiz-adv-x="1064" d="M129 0v1505h815v-200h-596v-445h584v-201h-584v-458h596v-201h-815z" />
<glyph unicode="F" horiz-adv-x="987" d="M141 0v1505h756v-200h-537v-457h525v-201h-525v-647h-219z" />
<glyph unicode="G" horiz-adv-x="1701" d="M80 752q0 162 61.5 304t167 248.5t247.5 168t304 61.5q113 0 215.5 -29.5t191.5 -84t161.5 -130.5t121.5 -168h-258q-78 98 -189.5 154.5t-242.5 56.5q-115 0 -216 -46t-177 -124t-120 -184.5t-44 -224.5q0 -121 44 -226.5t120 -184.5t177 -125t216 -46q74 0 135.5 15.5 t111.5 42t89 60.5t70 68q70 82 112 189h-702v203h954q0 -141 -54 -280.5t-154.5 -251.5t-243 -180.5t-318.5 -68.5q-162 0 -304 61.5t-247.5 168t-167 249t-61.5 304.5z" />
<glyph unicode="H" horiz-adv-x="1372" d="M156 0v1505h219v-649h618v649h221v-1505h-221v655h-618v-655h-219z" />
<glyph unicode="I" horiz-adv-x="526" d="M154 0v1505h221v-1505h-221z" />
<glyph unicode="J" horiz-adv-x="997" d="M0 301h227q23 -59 64 -94t127 -35t139 58.5t53 199.5v1075h221v-1079q0 -137 -44 -225t-107.5 -139.5t-135 -71t-128.5 -19.5t-121 16.5t-121 55.5t-104 102.5t-70 155.5z" />
<glyph unicode="K" horiz-adv-x="1265" d="M182 0v1505h219v-1505h-219zM408 760l569 745h270l-588 -745l588 -760h-270z" />
<glyph unicode="L" horiz-adv-x="909" d="M164 0v1505h219v-1304h522v-201h-741z" />
<glyph unicode="M" horiz-adv-x="1912" d="M154 0v1505h346l452 -1169l453 1169h346v-1505h-219l4 1313l-518 -1313h-131l-514 1307v-1307h-219z" />
<glyph unicode="N" horiz-adv-x="1511" d="M156 0v1505h241l742 -1165l-6 1165h221v-1505h-230l-747 1192v-1192h-221z" />
<glyph unicode="O" horiz-adv-x="1732" d="M82 752q0 162 61.5 304t168 248.5t248.5 168t304 61.5t304.5 -61.5t248 -168t167 -248.5t61.5 -304t-61.5 -304.5t-167 -249t-248 -168t-304.5 -61.5t-304 61.5t-248.5 168t-168 249t-61.5 304.5zM300 848q-8 -46 -8 -92q0 -68 17 -138q29 -117 97.5 -209t161.5 -149 q94 -58 206 -78q47 -9 94 -8q65 0 131 16q115 27 205 95.5t148 164.5t76 208q8 46 7 92q0 68 -16 137q-29 117 -97.5 209t-161.5 150q-94 56 -206 76q-47 8 -94 9q-66 0 -133 -16q-115 -29 -205 -96.5t-146.5 -162.5t-75.5 -208z" />
<glyph unicode="P" horiz-adv-x="1144" d="M133 0v1505h434q113 0 210 -27.5t169 -85t113 -142.5t41 -199q0 -115 -40 -201t-111.5 -143.5t-169 -85t-212.5 -27.5h-215v-594h-219zM352 797h183q176 0 260 65.5t84 188.5t-79 188.5t-263 65.5h-185v-508z" />
<glyph unicode="Q" horiz-adv-x="1714" d="M76 752q0 162 61.5 304t167 248.5t246.5 168t303 61.5q160 0 301 -61.5t246.5 -168t167 -249t61.5 -303.5q0 -147 -50 -277.5t-138 -234.5q53 -29 107.5 -47.5t113.5 -18.5v-203q-115 0 -207 37t-174 90q-92 -59 -200.5 -94t-227.5 -35q-162 0 -303 61.5t-246.5 168 t-167 249t-61.5 304.5zM292 848q-7 -44 -7 -89q0 -70 18 -141l6 -24q33 14 108 31.5t191 17.5q113 0 206 -25.5t173 -67.5t148.5 -93t134.5 -101q94 104 132 244q20 72 20 147q0 69 -17 140q-29 117 -96.5 209t-160.5 149.5t-204 76.5q-47 9 -94 9q-65 0 -131 -16 q-115 -29 -205 -96.5t-146.5 -162.5t-75.5 -208zM406 399q49 -66 115.5 -113.5t142 -76.5t158.5 -34q17 -1 33 -1q67 0 134 16q29 6 56.5 16.5t54.5 22.5q-55 41 -111.5 80t-119 69t-132 47t-149.5 17q-68 0 -112 -13t-70 -30z" />
<glyph unicode="R" horiz-adv-x="1216" d="M133 0v1505h420q281 0 432.5 -111.5t151.5 -369.5q0 -86 -19.5 -151.5t-50.5 -113.5t-70 -82t-79 -54q-96 -51 -218 -58l426 -565h-274l-500 696v-696h-219zM352 729h193q182 0 277.5 77t95.5 218q0 70 -26 122t-69 88t-99 53.5t-118 17.5h-254v-576z" />
<glyph unicode="S" horiz-adv-x="1021" d="M37 449h219q0 -66 19.5 -117t52 -86t78 -54.5t94.5 -19.5q51 0 95 15.5t77 47t51 79.5t18 114q0 70 -28.5 114t-74.5 72.5t-105.5 50t-122 44t-122 52.5t-105.5 78t-74.5 119.5t-28.5 178.5q0 90 37 162.5t97 125t135 81t151 28.5t152.5 -24.5t139 -77t101.5 -131 t39 -189.5h-221v10q0 55 -21 101q-18 41 -61 75.5t-129 34.5q-43 0 -80 -18.5t-63.5 -47t-42 -65.5t-15.5 -74q0 -82 49 -126t123 -75.5t160 -61t159.5 -80t123 -134.5t49.5 -223q0 -106 -36 -191t-98.5 -143.5t-147.5 -90.5t-181 -32t-180 33t-147.5 95.5t-99.5 150.5 t-36 199z" />
<glyph unicode="T" horiz-adv-x="833" d="M14 1305v200h799v-200h-289v-1305h-221v1305h-289z" />
<glyph unicode="U" horiz-adv-x="1316" d="M152 487v1018h221v-1011q0 -86 23.5 -147.5t63.5 -100.5t91 -56.5t106 -17.5t106.5 18.5t91.5 58.5t63.5 100.5t23.5 144.5v1011h219v-1018q0 -115 -40 -210t-107.5 -162.5t-159.5 -105.5t-197 -38q-104 0 -196 34t-161 99.5t-108.5 161.5t-39.5 221z" />
<glyph unicode="V" horiz-adv-x="1400" d="M29 1505h235l438 -1134l437 1134h231l-600 -1505h-139z" />
<glyph unicode="W" horiz-adv-x="1855" d="M37 1505h229l283 -1132l295 1132h160l290 -1124l289 1124h225l-413 -1505h-201l-272 1079l-271 -1079h-200z" />
<glyph unicode="X" horiz-adv-x="1327" d="M27 0l501 756l-501 749h266l369 -571l372 571h264l-505 -749l501 -756h-262l-370 578l-375 -578h-260z" />
<glyph unicode="Y" horiz-adv-x="1214" d="M33 1505h246l327 -710l326 710h244l-459 -962v-543h-221v543z" />
<glyph unicode="Z" horiz-adv-x="946" d="M8 0v201l654 1104h-623v200h868v-200l-649 -1104h680v-201h-930z" />
<glyph unicode="[" horiz-adv-x="833" d="M260 74v876q0 86 25.5 176.5t78 170t130.5 143t182 96.5v-246q-37 -16 -72 -41.5t-63.5 -67.5t-46 -104.5t-17.5 -148.5v-824q0 -90 16.5 -150t43 -103.5t62.5 -72t77 -50.5v-250q-63 35 -136 78t-135.5 108.5t-103.5 163.5t-41 246z" />
<glyph unicode="\" horiz-adv-x="1021" d="M121 1511h233l586 -1714h-231z" />
<glyph unicode="]" horiz-adv-x="833" d="M160 -272q39 23 74.5 51t62.5 71.5t43 103.5t16 150v824q0 86 -17 148.5t-45 104.5t-62.5 67.5t-71.5 41.5v246q104 -33 181 -96.5t129 -143t77.5 -170t25.5 -176.5v-876q0 -147 -40.5 -245.5t-102 -164t-134.5 -108.5t-136 -78v250z" />
<glyph unicode="^" horiz-adv-x="1228" d="M139 721l379 784h193l381 -784h-213l-265 590l-264 -590h-211z" />
<glyph unicode="_" horiz-adv-x="1024" d="M4 -154h1018v-102h-1018v102z" />
<glyph unicode="`" d="M256 1505l90 164l457 -262l-86 -154z" />
<glyph unicode="a" horiz-adv-x="1419" d="M78 567q0 131 49 241t131 186.5t187.5 119.5t218.5 43t190.5 -32.5t124.5 -73.5q55 -47 88 -107l-6 182h211v-1126h-207v207q-31 -66 -84 -119q-47 -45 -124 -82t-195 -37q-117 0 -223.5 44t-186.5 123t-127 188.5t-47 242.5zM287 573q0 -84 29.5 -157.5t79.5 -129 t120 -88t150 -32.5q104 0 180 37t125 95t73.5 128.5t24.5 136.5q0 76 -25.5 148.5t-75.5 130t-125 91.5t-171 34q-90 0 -162 -36t-121 -93.5t-75.5 -127t-26.5 -137.5z" />
<glyph unicode="b" horiz-adv-x="1409" d="M141 0v1503h211v-538q70 92 170.5 144t229.5 52q119 0 224 -47t184 -127t124 -188.5t45 -231.5t-45 -231.5t-124 -188t-184.5 -127t-223.5 -47.5q-129 0 -229.5 52.5t-170.5 144.5v-170h-211zM352 567q0 -82 27 -155.5t76 -129t119.5 -87t160.5 -31.5q82 0 151.5 31.5 t121 87t80 129t28.5 155.5t-28.5 154t-80 125t-121 85t-151.5 32q-88 0 -158.5 -32t-120.5 -85t-77 -125t-27 -154z" />
<glyph unicode="c" horiz-adv-x="1284" d="M76 565q0 123 46 231.5t125 188.5t185.5 127t226.5 47q96 0 184.5 -30.5t160 -84t126 -127t82.5 -161.5h-237q-43 96 -126 153.5t-190 57.5q-84 0 -151.5 -32t-115.5 -86t-74.5 -128t-26.5 -156q0 -84 26.5 -157.5t75.5 -128t117 -86t149 -31.5q106 0 188.5 57.5 t127.5 151.5h237q-31 -88 -85 -162t-125.5 -127t-158.5 -83t-184 -30q-121 0 -227 47t-185 128t-125 189.5t-46 231.5z" />
<glyph unicode="d" horiz-adv-x="1406" d="M82 567q0 123 46 231.5t126 188.5t187.5 127t228.5 47t217 -46t168 -124v512h209v-1503h-191l-2 164q-70 -88 -171 -139.5t-230 -51.5q-121 0 -228.5 47.5t-187.5 127t-126 188t-46 231.5zM295 567q0 -82 29.5 -155.5t82 -129t124 -87t155.5 -31.5q90 0 163 34.5t123 91 t76.5 129.5t26.5 148q0 82 -27.5 154t-77.5 125t-123 85t-161 32q-84 0 -155.5 -32t-124 -85t-82 -125t-29.5 -154z" />
<glyph unicode="e" horiz-adv-x="1314" d="M82 565q0 123 45 231.5t124 188.5t183.5 127t222.5 47q119 0 224.5 -47t183.5 -127t123 -188.5t45 -231.5q0 -49 -6 -94h-934q14 -68 47 -124t81 -97t109.5 -64.5t135.5 -23.5q104 0 186 52t129 140h215q-31 -84 -84 -154.5t-123.5 -121.5t-154.5 -80t-177 -29 q-119 0 -223 47t-183 128t-124 189.5t-45 231.5zM289 635h735q-10 70 -41 131t-78 105t-108.5 70t-130.5 26q-78 0 -141.5 -26t-113 -70t-81 -105t-41.5 -131z" />
<glyph unicode="f" horiz-adv-x="567" d="M43 934v190h104v39q0 86 27 150.5t76 106.5t116.5 63.5t149.5 21.5h37v-194q-43 0 -80 -5.5t-63.5 -22.5t-41 -52t-14.5 -94v-13h197v-190h-197v-594q0 -168 2 -340h-209v934h-104z" />
<glyph unicode="g" horiz-adv-x="1427" d="M80 567q0 123 46 231.5t126 188.5t186.5 127t229.5 47q135 0 236.5 -46t172.5 -126v135h211v-927q0 -147 -37 -266t-112.5 -203t-191.5 -129t-273 -45q-80 0 -145.5 15t-119 39.5t-95.5 56.5t-72 67q-74 78 -115 178h231q29 -45 74 -80q39 -31 100.5 -55.5t153.5 -24.5 q125 0 200 37t116.5 95.5t56 129t18.5 138.5q-72 -82 -175 -129.5t-234 -47.5q-123 0 -229.5 47.5t-186.5 127t-126 188t-46 231.5zM293 567q0 -82 28.5 -155.5t81 -129t124 -87t155.5 -31.5q92 0 164 34.5t123 91t77.5 129.5t26.5 148q0 82 -27.5 154t-77.5 125t-123 85 t-163 32q-84 0 -155.5 -32t-124 -85t-81 -125t-28.5 -154z" />
<glyph unicode="h" horiz-adv-x="1273" d="M137 0v1505h209v-526q14 25 41 55.5t66 57t92 45t125 18.5q98 0 184 -30.5t148.5 -91t99.5 -149.5t37 -206v-678h-209v629q0 74 -15.5 134t-49.5 105t-86 70t-126 25q-61 0 -116.5 -18.5t-97.5 -60.5t-67.5 -110.5t-25.5 -169.5v-604h-209z" />
<glyph unicode="i" horiz-adv-x="487" d="M141 0v1118h209v-1118h-209zM141 1260v247h209v-247h-209z" />
<glyph unicode="j" horiz-adv-x="509" d="M31 -223q31 4 56.5 12t42.5 29.5t27.5 59.5t10.5 99v1141h209v-1220q0 -70 -30 -130.5t-79 -106.5t-111.5 -74.5t-125.5 -30.5v221zM168 1260v247h209v-247h-209z" />
<glyph unicode="k" horiz-adv-x="1118" d="M162 0v1505h209v-1505h-209zM377 584l401 542h250l-410 -530l476 -596h-265z" />
<glyph unicode="l" horiz-adv-x="487" d="M141 0v1505h211v-1505h-211z" />
<glyph unicode="m" horiz-adv-x="1988" d="M145 0v1128h197v-127q12 18 35.5 45t62.5 51.5t95.5 42t134.5 17.5q86 0 148.5 -23.5t103.5 -54t64.5 -62.5t33.5 -48q8 16 31.5 48t66.5 62.5t110 54t163 23.5q86 0 168.5 -24.5t147.5 -83t104.5 -155.5t39.5 -245v-649h-211v662q0 55 -14 109t-46 97t-82 70t-124 27 q-147 0 -208.5 -87t-61.5 -233v-645h-211v672q0 47 -11.5 99t-41 95t-78.5 71t-125 28q-152 0 -215.5 -87t-63.5 -229v-41v-608h-213z" />
<glyph unicode="n" horiz-adv-x="1277" d="M139 0v1128h195v-131q18 25 47 53.5t70 52t97 39t128 15.5q86 0 168 -24.5t146.5 -83t104.5 -155.5t40 -245v-649h-211v662q0 55 -14.5 109t-45 97t-82 70t-125.5 27q-147 0 -227 -87t-80 -233v-645h-211z" />
<glyph unicode="o" horiz-adv-x="1382" d="M80 563q0 123 48 230.5t130 188.5t192.5 127t237.5 46q125 0 236.5 -46t193.5 -127t130 -188.5t48 -230.5t-48 -230.5t-130 -187t-193.5 -126t-236.5 -46.5q-127 0 -237.5 46.5t-192.5 126t-130 187t-48 230.5zM291 563q0 -82 31.5 -154.5t85 -127t126 -86t154.5 -31.5 t153.5 31.5t126 86t85 127t30.5 154.5t-30.5 156t-85 127t-126 85t-153.5 32t-154.5 -32t-126 -85t-85 -127t-31.5 -156z" />
<glyph unicode="p" horiz-adv-x="1404" d="M141 -377l2 1503h195v-178q70 98 174.5 155.5t239.5 57.5q119 0 223 -47t183 -127t124 -188.5t45 -231.5t-45 -231.5t-124 -188t-183.5 -127t-222.5 -47.5q-129 0 -230.5 52.5t-171.5 144.5v-547h-209zM350 567q0 -82 26.5 -155.5t76 -129t120 -87t160.5 -31.5 q82 0 152.5 31.5t122 87t80 129t28.5 155.5t-28.5 154t-80 125t-122 85t-152.5 32q-88 0 -158.5 -32t-121 -85t-77 -125t-26.5 -154z" />
<glyph unicode="q" horiz-adv-x="1406" d="M80 567q0 123 45 231.5t124 188.5t183.5 127t224.5 47q129 0 234.5 -52t177.5 -142v159h197v-1503h-209v545q-72 -90 -173.5 -142.5t-226.5 -52.5q-121 0 -225 47.5t-183 127t-124 188t-45 231.5zM293 567q0 -82 28.5 -155.5t80 -129t121 -87t153.5 -31.5 q88 0 160.5 33.5t124 91t80 133.5t28.5 158t-28.5 152.5t-81 121.5t-125 80t-158.5 29q-84 0 -153.5 -32t-121 -85t-80 -125t-28.5 -154z" />
<glyph unicode="r" horiz-adv-x="655" d="M139 0v1126h199v-125q20 43 57 78q33 29 88.5 53.5t145.5 24.5v-217q-86 -8 -140.5 -30.5t-85 -67.5t-42 -115t-11.5 -172v-555h-211z" />
<glyph unicode="s" horiz-adv-x="868" d="M43 371h213q0 -102 52 -154.5t138 -52.5q84 0 124 50t40 105q0 61 -37.5 96.5t-95 58t-125 44t-125 58t-95.5 96t-38 159.5q0 80 34 140.5t86 101.5t115 62.5t120 21.5q78 0 142 -28.5t109 -74.5t70 -105.5t25 -121.5h-211q0 49 -37 93.5t-109 44.5t-102.5 -39t-30.5 -82 q0 -53 38 -83t95.5 -51.5t125 -45t124.5 -62.5t95 -102.5t38 -167.5q0 -74 -25.5 -139.5t-73.5 -114.5t-119 -78t-161 -29t-163.5 30t-126 82t-81 126t-28.5 162z" />
<glyph unicode="t" horiz-adv-x="567" d="M10 934v192h154v379h211v-379h186v-192h-186v-934h-211v934h-154z" />
<glyph unicode="u" horiz-adv-x="1277" d="M137 487v639h213v-610q0 -80 14.5 -145.5t46 -111.5t86 -70.5t134.5 -24.5t135 28.5t91 76.5t52.5 114t16.5 139v604h211v-1126h-193v170q-18 -57 -59 -100q-35 -37 -101.5 -68t-175.5 -31q-217 0 -344 130t-127 386z" />
<glyph unicode="v" horiz-adv-x="1099" d="M31 1126h227l295 -831l293 831h225l-442 -1126h-152z" />
<glyph unicode="w" horiz-adv-x="1628" d="M29 1126h225l250 -753l239 753h138l235 -751l252 751h225l-417 -1126h-117l-244 797l-250 -797h-114z" />
<glyph unicode="x" horiz-adv-x="1060" d="M8 0l391 578l-376 548h256l245 -385l248 385h258l-368 -548l393 -578h-250l-279 422l-272 -422h-246z" />
<glyph unicode="y" horiz-adv-x="1175" d="M23 1126h229l332 -893l340 893h227l-623 -1503h-221l166 400z" />
<glyph unicode="z" horiz-adv-x="833" d="M10 0v164l541 770h-488v192h719v-192l-510 -741h553v-193h-815z" />
<glyph unicode="{" horiz-adv-x="681" d="M31 469v176q39 0 72.5 13.5t59 36t40 53t14.5 65.5v432q0 51 21.5 98.5t59.5 83t89 57t109 21.5h127v-159h-84q-49 0 -80 -33t-31 -117v-412q0 -41 -15.5 -80.5t-44 -71.5t-69.5 -51.5t-92 -19.5q51 0 92 -19.5t69.5 -53t44 -77.5t15.5 -96v-421q0 -66 32 -101t79 -35h84 v-161h-127q-57 0 -108.5 19t-89.5 55t-59.5 86t-21.5 114v416q0 33 -10 64.5t-32.5 58t-58.5 43t-85 16.5z" />
<glyph unicode="|" d="M457 -207v1712h215v-1712h-215z" />
<glyph unicode="}" horiz-adv-x="681" d="M53 -242h84q47 0 79 35t32 101v421q0 51 15.5 95.5t44 78t69.5 53t92 19.5q-51 0 -92 19.5t-69.5 51.5t-44 71.5t-15.5 80.5v412q0 84 -31 117t-80 33h-84v159h127q57 0 108.5 -21.5t89.5 -57t59.5 -83t21.5 -98.5v-432q0 -35 14 -65.5t40 -53t59.5 -36t72.5 -13.5v-176 q-49 0 -85 -16.5t-58.5 -43t-32.5 -58.5t-10 -64v-416q0 -63 -21.5 -113.5t-59.5 -86.5t-89 -55t-109 -19h-127v161z" />
<glyph unicode="~" horiz-adv-x="1228" d="M143 506q29 49 66 88q33 33 81 60.5t113 27.5q63 0 121 -21.5t110 -48t102 -48t100 -21.5q39 0 72.5 22.5t58.5 50.5q29 33 53 74l74 -168q-33 -51 -74 -88q-35 -33 -83 -59.5t-103 -26.5q-66 0 -116 21.5t-99.5 47t-102.5 47t-123 21.5q-47 0 -78.5 -22.5t-54.5 -50.5 q-25 -33 -43 -72z" />
<glyph unicode="&#xa1;" horiz-adv-x="567" d="M174 -377v1131h211v-1131h-211zM174 881v247h211v-247h-211z" />
<glyph unicode="&#xa2;" d="M84 825q0 88 30.5 169t85 144.5t129 107.5t160.5 61v198h197v-200q131 -27 230.5 -113t140.5 -209h-238q-37 55 -97 89t-134 34q-66 0 -120 -22.5t-93 -60.5t-59.5 -90t-20.5 -112q0 -59 21.5 -111.5t59.5 -90t92 -60t120 -22.5q72 0 129 29.5t94 82.5h240 q-45 -117 -141.5 -197.5t-223.5 -107.5v-209h-197v207q-86 16 -160.5 60t-129 108.5t-85 144.5t-30.5 170z" />
<glyph unicode="&#xa3;" d="M25 666v192h81q-14 16 -24 43q-10 23 -16.5 60.5t-6.5 95.5q0 98 38 184t104.5 151.5t158 103.5t199.5 38q76 0 137.5 -18.5t110.5 -47t87 -65.5t64 -76q63 -90 95 -205h-230q-14 59 -49 109q-29 41 -82 75.5t-139 34.5q-57 0 -108.5 -20.5t-90.5 -59t-61.5 -94 t-22.5 -125.5q0 -49 11.5 -83.5t25.5 -57.5q16 -27 39 -43h447v-192h-285q31 -31 53 -72q20 -37 36.5 -91t16.5 -132q0 -16 -5 -46t-9 -59q-6 -35 -12 -73q162 -14 239.5 51t77.5 194q0 16 -5 36l-9 36q-6 19 -12 37h227q2 -10 6 -27q2 -14 4 -33.5t2 -46.5 q0 -201 -124 -320.5t-371 -119.5h-531v193h268q12 18 21 45q8 23 15 55.5t7 77.5q0 78 -23.5 135t-51.5 92q-33 41 -74 68h-229z" />
<glyph unicode="&#xa4;" />
<glyph unicode="&#xa5;" d="M8 1505h232l333 -612l334 612h232l-283 -516h242v-176h-338l-82 -149v-80h420v-176h-420v-408h-211v408h-418v176h418v80l-82 149h-336v176h240z" />
<glyph unicode="&#xa6;" d="M455 -203v682h229v-682h-229zM455 821v684h229v-684h-229z" />
<glyph unicode="&#xa7;" horiz-adv-x="1173" d="M90 651q0 84 42 167t147 149q-41 57 -59.5 105t-18.5 108q0 68 25.5 131t73.5 113.5t117.5 80t155.5 29.5t158 -19.5t126 -64.5t91 -119t56 -182h-211q0 31 -11.5 63.5t-34 59t-60.5 44t-89 17.5q-102 0 -144 -52t-42 -116q0 -61 36.5 -93t106.5 -66q33 -18 83 -44 t103.5 -54.5t104.5 -56.5t86 -46q70 -41 116 -105.5t46 -183.5q0 -74 -29 -129t-64 -92q-41 -43 -92 -74q33 -27 60 -65q23 -35 42 -87.5t19 -125.5q0 -74 -29.5 -145.5t-86 -127t-138.5 -89.5t-186 -34t-186 37t-140.5 97.5t-89.5 140.5t-31 166h211q0 -41 14.5 -83t44 -77 t74.5 -56.5t109 -21.5q63 0 106 19.5t69 49t37 65.5t11 69q0 66 -40 109.5t-107 78.5q-35 18 -91.5 48t-119 63t-120.5 64.5t-97 52.5q-78 41 -116 119.5t-38 162.5zM301 670q0 -51 22.5 -91t82.5 -71q31 -14 72.5 -35.5t90.5 -46.5t101.5 -51.5t99.5 -52.5q59 35 86 88 t27 98q0 47 -21.5 82t-73.5 61q-27 14 -89 46t-128 67q-77 39 -165 84q-47 -20 -76 -73.5t-29 -104.5z" />
<glyph unicode="&#xa8;" d="M303 1294v248h207v-248h-207zM623 1294v248h206v-248h-206z" />
<glyph unicode="&#xa9;" horiz-adv-x="1638" d="M37 752q0 162 61.5 303t167 246.5t246.5 167t301 61.5q162 0 303 -61.5t246.5 -167t167 -247t61.5 -302.5q0 -160 -61.5 -301.5t-167 -247t-246.5 -167t-303 -61.5q-160 0 -301 61.5t-246.5 167t-167 247t-61.5 301.5zM203 752q0 -129 48 -244t131 -200t193.5 -134 t237.5 -49t238.5 49t194.5 134t131 200t48 244t-48 243.5t-131 200.5t-194.5 135t-238.5 49t-237.5 -49t-193.5 -135t-131 -200.5t-48 -243.5zM389 754q0 121 40 209t102.5 144t140.5 84t155 28q70 0 137.5 -24t122 -66t90 -98t42.5 -122h-154q-8 25 -23.5 53.5t-43 53 t-69.5 41t-102 16.5q-66 0 -118 -25.5t-88.5 -68.5t-57 -101.5t-20.5 -123.5q0 -66 17.5 -124.5t53 -101.5t89 -68.5t124.5 -25.5q55 0 97.5 15.5t72 40t47 53t21.5 57.5h154q-10 -68 -44 -124t-85.5 -97t-119 -64.5t-143.5 -23.5q-78 0 -155.5 26.5t-141 83t-102.5 144.5 t-39 209z" />
<glyph unicode="&#xaa;" horiz-adv-x="788" d="M31 1212q2 84 35.5 144.5t83 100.5t106.5 58.5t109 18.5q51 0 84.5 -16.5t56.5 -36.5q25 -23 39 -51v88h164v-627h-164v92q-14 -33 -37 -55q-23 -20 -57.5 -37t-90.5 -17q-55 0 -114.5 20.5t-108.5 62.5t-78.5 105.5t-27.5 149.5zM193 1202q0 -43 16 -75.5t41.5 -54 t55.5 -33t56 -11.5q27 0 59 9.5t59.5 29.5t47 54t19.5 83q0 43 -15.5 76t-42 55.5t-59.5 34.5t-65 12q-68 0 -120 -45t-52 -135z" />
<glyph unicode="&#xab;" horiz-adv-x="757" d="M66 479v211l278 277v-230l-162 -151l162 -150v-229zM406 479v211l278 277v-230l-162 -151l162 -150v-229z" />
<glyph unicode="&#xac;" horiz-adv-x="1228" d="M104 631v211h1026v-623h-210v412h-816z" />
<glyph unicode="&#xad;" horiz-adv-x="573" d="M4 481v213h569v-213h-569z" />
<glyph unicode="&#xae;" horiz-adv-x="1638" d="M39 752q0 162 61.5 303t167 246.5t246.5 167t303 61.5t303.5 -61.5t247 -167t166.5 -247t61 -302.5q0 -160 -61 -301.5t-166.5 -247t-247 -167t-303.5 -61.5t-303 61.5t-246.5 167t-167 247t-61.5 301.5zM205 752q0 -129 48 -244t131 -200t194.5 -134t238.5 -49t237.5 49 t193.5 134t131 200t48 244t-48 243.5t-131 200.5t-193.5 135t-237.5 49t-238.5 -49t-194.5 -135t-131 -200.5t-48 -243.5zM485 301v889h394q49 0 101 -11.5t95 -39t71 -74.5t28 -117q0 -72 -32 -116t-69 -66q-43 -29 -98 -39q49 -2 86 -22q33 -16 61.5 -55.5t32.5 -112.5 q0 -18 1 -54.5t4 -73t9.5 -67.5t16.5 -41h-154q-10 18 -17 57t-7 76q0 76 -13.5 120t-39 66.5t-64.5 29.5t-92 7h-162v-356h-152zM637 799h197q98 0 142 40t44 87q0 49 -31 83.5t-117 34.5h-235v-245z" />
<glyph unicode="&#xaf;" d="M209 1341v152h723v-152h-723z" />
<glyph unicode="&#xb0;" horiz-adv-x="819" d="M123 1155q0 59 22.5 112.5t62.5 92.5t92 61.5t114 22.5q59 0 112.5 -22.5t93 -61.5t62.5 -92.5t23 -112.5t-23 -112.5t-62.5 -92.5t-93 -61.5t-112.5 -22.5q-61 0 -113.5 22.5t-92.5 61.5t-62.5 92.5t-22.5 112.5zM244 1155q0 -72 49 -121t121 -49q70 0 120 49t50 121 t-50.5 121t-119.5 49q-72 0 -121 -49t-49 -121z" />
<glyph unicode="&#xb1;" horiz-adv-x="1228" d="M96 -106v212h1026v-212h-1026zM102 569v211h404v328h211v-328h405v-211h-405v-321h-211v321h-404z" />
<glyph unicode="&#xb2;" horiz-adv-x="718" d="M55 1188q0 74 22.5 136t61.5 107.5t93.5 70t117.5 24.5q72 0 128.5 -26.5t94 -70t58 -96.5t20.5 -104t-19.5 -95t-41.5 -79q-27 -39 -60 -72l-239 -225h362v-156h-592v127l363 367q16 16 31 39q12 18 22 41.5t10 52.5q0 59 -32.5 101t-98.5 42q-63 0 -100 -40t-37 -144 h-164z" />
<glyph unicode="&#xb3;" horiz-adv-x="718" d="M35 879h164q0 -57 40 -99.5t105 -42.5q66 0 102.5 42t36.5 95q0 55 -38.5 98.5t-108.5 43.5h-53v153h51q47 0 77.5 24t30.5 83q0 31 -10 49t-25.5 28.5t-33 14.5t-29.5 4q-47 0 -68.5 -29.5t-27.5 -72.5h-162q0 47 17.5 93t51 82t81 58.5t108.5 22.5q51 0 98 -19.5 t83 -54.5t57.5 -83t21.5 -105q0 -45 -14.5 -77t-30.5 -52q-20 -25 -43 -41q35 -16 64 -45q25 -25 45 -67t20 -108t-28.5 -119t-72.5 -91.5t-99.5 -60t-108.5 -21.5t-107.5 20.5t-97.5 58t-69.5 93t-26.5 125.5z" />
<glyph unicode="&#xb4;" d="M330 1393l456 264l91 -166l-461 -250z" />
<glyph unicode="&#xb6;" horiz-adv-x="1306" d="M2 1055q0 80 24.5 147.5t80 116.5t144.5 76.5t220 27.5h438q98 0 178 2v-1810h-213v1653h-215v-1653h-210v1077q-100 0 -182.5 26.5t-140.5 74t-91 115t-33 147.5z" />
<glyph unicode="&#xb7;" horiz-adv-x="567" d="M188 406v221h187v-221h-187z" />
<glyph unicode="&#xb8;" d="M371 -334h106q6 -18 17 -33q10 -12 26.5 -21t40.5 -9q49 0 67.5 26.5t18.5 57.5t-23.5 55.5t-62.5 24.5q-20 0 -32.5 -5.5t-20.5 -9.5q-8 -8 -16 -14l-70 63l65 199h107l-43 -139h12q6 0 12.5 1t16.5 1q68 0 117 -47t49 -123q0 -39 -15.5 -74t-42 -61.5t-63.5 -43 t-78 -16.5q-66 0 -103.5 25.5t-56.5 58.5q-23 37 -28 84z" />
<glyph unicode="&#xb9;" horiz-adv-x="718" d="M223 1352v153h269v-903h-162v750h-107z" />
<glyph unicode="&#xba;" horiz-adv-x="788" d="M55 1204q0 68 27 128.5t73 105.5t106.5 70.5t129.5 25.5q70 0 131.5 -25.5t106.5 -70.5t71.5 -105.5t26.5 -128.5t-26.5 -128t-71.5 -105t-106.5 -71t-131.5 -26t-130 26t-106 71t-73 105t-27 128zM217 1206q0 -74 52.5 -126t125.5 -52q74 0 126 52.5t52 125.5 q0 74 -52 126t-126 52t-126 -52t-52 -126z" />
<glyph unicode="&#xbb;" horiz-adv-x="757" d="M72 207v229l164 150l-164 151v230l278 -277v-211zM406 207v229l161 150l-161 151v230l278 -277v-211z" />
<glyph unicode="&#xbc;" horiz-adv-x="1433" d="M53 1352v153h269v-903h-162v750h-107zM258 0l692 1509h150l-692 -1509h-150zM733 139v142l422 622h139v-624h99v-140h-99v-139h-143v139h-418zM895 279h256v407z" />
<glyph unicode="&#xbd;" horiz-adv-x="1462" d="M49 1352v153h268v-903h-161v750h-107zM205 0l692 1509h150l-693 -1509h-149zM827 586q0 74 21.5 136t61.5 106t93 70t119 26q72 0 127.5 -28t94 -71t58 -95t19.5 -103q0 -53 -19.5 -96.5t-41.5 -77.5q-27 -39 -60 -72l-239 -227h362v-154h-589v125l362 369q16 14 31 36 q10 16 20 42t10 55q0 57 -32.5 99t-96.5 42q-66 0 -102.5 -39t-36.5 -143h-162z" />
<glyph unicode="&#xbe;" horiz-adv-x="1599" d="M27 879h163q0 -57 40 -99.5t106 -42.5t102.5 42t36.5 95q0 55 -39 98.5t-106 43.5h-54v153h52q45 0 75.5 24t30.5 83q0 31 -10 49t-25.5 28.5t-32 14.5t-30.5 4q-47 0 -68.5 -29.5t-25.5 -72.5h-164q0 47 17.5 93t51 82t82 58.5t107.5 22.5q51 0 99 -19.5t84 -54.5 t57.5 -83t21.5 -105q0 -45 -14.5 -77t-30.5 -52q-20 -25 -45 -41q37 -16 65 -45q25 -25 45.5 -67t20.5 -108t-28.5 -119t-72.5 -91.5t-99.5 -60t-108.5 -21.5q-55 0 -109.5 20.5t-97.5 58t-69.5 93t-26.5 125.5zM422 0l692 1509h148l-693 -1509h-147zM901 139v142l424 622 h139v-624h97v-140h-97v-139h-143v139h-420zM1063 279h258v407z" />
<glyph unicode="&#xbf;" horiz-adv-x="1060" d="M86 53q0 88 24.5 148.5t61.5 107.5t80 86t83 86t69.5 110.5t37.5 156.5h211q-8 -113 -36.5 -193t-68.5 -137.5t-84 -100.5t-81 -81.5t-61.5 -78.5t-24.5 -96q0 -59 22.5 -106t57.5 -79t77 -48t83 -16t84 16t78.5 47t58 76t22.5 104h211q0 -72 -28.5 -152.5t-85 -148 t-142 -111.5t-200.5 -44q-98 0 -180.5 39.5t-141.5 104t-93 145.5t-34 165zM442 887v246h211v-246h-211z" />
<glyph unicode="&#xc0;" horiz-adv-x="1400" d="M33 0l573 1505h197l571 -1505h-233l-164 449h-547l-164 -449h-233zM426 1892l90 164l457 -262l-86 -154zM498 647h413l-204 598z" />
<glyph unicode="&#xc1;" horiz-adv-x="1400" d="M33 0l573 1505h197l571 -1505h-233l-164 449h-547l-164 -449h-233zM426 1780l456 264l91 -166l-461 -250zM498 647h413l-204 598z" />
<glyph unicode="&#xc2;" horiz-adv-x="1400" d="M33 0l573 1505h197l571 -1505h-233l-164 449h-547l-164 -449h-233zM315 1673l277 275h215l278 -275h-241l-140 156l-147 -156h-242zM498 647h413l-204 598z" />
<glyph unicode="&#xc3;" horiz-adv-x="1400" d="M33 0l573 1505h197l571 -1505h-233l-164 449h-547l-164 -449h-233zM311 1821q29 20 65 39q31 16 72 28t88 12t84 -8t70 -19t64.5 -19.5t68.5 -8.5t69.5 9.5t57.5 19.5q29 12 51 29l88 -127q-39 -27 -78 -48q-35 -18 -76.5 -32.5t-82.5 -14.5t-81 8.5t-77 18.5t-70 18.5 t-59 8.5q-27 0 -54.5 -7.5t-50.5 -15.5q-27 -10 -53 -22zM498 647h413l-204 598z" />
<glyph unicode="&#xc4;" horiz-adv-x="1400" d="M33 0l573 1505h197l571 -1505h-233l-164 449h-547l-164 -449h-233zM436 1681v248h207v-248h-207zM498 647h413l-204 598zM756 1681v248h206v-248h-206z" />
<glyph unicode="&#xc5;" horiz-adv-x="1400" d="M33 0l573 1505h197l571 -1505h-233l-164 449h-547l-164 -449h-233zM479 1853q0 45 17.5 86t48 71t70.5 47.5t85 17.5t86 -17.5t71 -47.5t47 -71t17 -86t-17 -85t-47 -70.5t-71 -48t-86 -17.5t-85 17.5t-70.5 48t-48 70.5t-17.5 85zM498 647h413l-204 598zM590 1853 q0 -45 32.5 -77.5t77.5 -32.5q47 0 79 32.5t32 77.5q0 47 -32 79t-79 32q-45 0 -77.5 -32t-32.5 -79z" />
<glyph unicode="&#xc6;" horiz-adv-x="1904" d="M12 -4l1012 1505l55 4v-4h693v-201h-508v-444h495v-201h-495v-456h508v-203h-730v420h-495l-275 -420h-260zM688 612h354v582z" />
<glyph unicode="&#xc7;" horiz-adv-x="1601" d="M76 752q0 162 61.5 304t168 248.5t248.5 168t304 61.5q111 0 214.5 -29.5t192.5 -84t160.5 -130.5t120.5 -168h-258q-78 98 -189.5 154.5t-240.5 56.5q-117 0 -218 -46t-176 -124t-119 -184.5t-44 -224.5q0 -121 44 -226.5t119 -184.5t176 -125t218 -46q123 0 230.5 52.5 t183.5 142.5h266q-51 -90 -123 -163t-159 -125t-188 -81t-210 -29q-162 0 -304 61.5t-248.5 168t-168 249t-61.5 304.5zM607 -334h106q6 -18 17 -33q10 -12 26.5 -21t40.5 -9q49 0 67.5 26.5t18.5 57.5t-23.5 55.5t-62.5 24.5q-20 0 -32.5 -5.5t-20.5 -9.5q-8 -8 -16 -14 l-70 63l65 199h107l-43 -139h12q6 0 12.5 1t16.5 1q68 0 117 -47t49 -123q0 -39 -15.5 -74t-42 -61.5t-63.5 -43t-78 -16.5q-66 0 -103.5 25.5t-56.5 58.5q-23 37 -28 84z" />
<glyph unicode="&#xc8;" horiz-adv-x="1064" d="M129 0v1505h815v-200h-596v-445h584v-201h-584v-458h596v-201h-815zM258 1892l90 164l457 -262l-86 -154z" />
<glyph unicode="&#xc9;" horiz-adv-x="1064" d="M129 0v1505h815v-200h-596v-445h584v-201h-584v-458h596v-201h-815zM262 1780l456 264l91 -166l-461 -250z" />
<glyph unicode="&#xca;" horiz-adv-x="1064" d="M129 0v1505h815v-200h-596v-445h584v-201h-584v-458h596v-201h-815zM149 1673l277 275h215l278 -275h-241l-140 156l-147 -156h-242z" />
<glyph unicode="&#xcb;" horiz-adv-x="1064" d="M129 0v1505h815v-200h-596v-445h584v-201h-584v-458h596v-201h-815zM272 1681v248h207v-248h-207zM592 1681v248h206v-248h-206z" />
<glyph unicode="&#xcc;" horiz-adv-x="526" d="M-8 1892l90 164l457 -262l-86 -154zM154 0v1505h221v-1505h-221z" />
<glyph unicode="&#xcd;" horiz-adv-x="526" d="M-8 1780l456 264l91 -166l-461 -250zM154 0v1505h221v-1505h-221z" />
<glyph unicode="&#xce;" horiz-adv-x="526" d="M-119 1673l277 275h215l278 -275h-241l-140 156l-147 -156h-242zM154 0v1505h221v-1505h-221z" />
<glyph unicode="&#xcf;" horiz-adv-x="526" d="M2 1681v248h207v-248h-207zM154 0v1505h221v-1505h-221zM322 1681v248h206v-248h-206z" />
<glyph unicode="&#xd0;" horiz-adv-x="1499" d="M0 655v201h137v649h514q150 0 285 -51t236.5 -148.5t162 -237.5t60.5 -318q0 -190 -61.5 -332t-166 -235t-243 -138t-291.5 -45h-496v655h-137zM358 201h279q125 0 224.5 41t169 113.5t107.5 173t38 221.5q0 119 -40 220t-111 176t-169 117t-215 42h-283v-449h381v-201 h-381v-454z" />
<glyph unicode="&#xd1;" horiz-adv-x="1511" d="M156 0v1505h241l742 -1165l-6 1165h221v-1505h-230l-747 1192v-1192h-221zM367 1821q29 20 65 39q31 16 72 28t88 12t84 -8t70 -19t64.5 -19.5t68.5 -8.5t69.5 9.5t57.5 19.5q29 12 51 29l88 -127q-39 -27 -78 -48q-35 -18 -76.5 -32.5t-82.5 -14.5t-81 8.5t-77 18.5 t-70 18.5t-59 8.5q-27 0 -54.5 -7.5t-50.5 -15.5q-27 -10 -53 -22z" />
<glyph unicode="&#xd2;" horiz-adv-x="1732" d="M82 752q0 162 61.5 304t168 248.5t248.5 168t304 61.5t304.5 -61.5t248 -168t167 -248.5t61.5 -304t-61.5 -304.5t-167 -249t-248 -168t-304.5 -61.5t-304 61.5t-248.5 168t-168 249t-61.5 304.5zM300 848q-19 -113 9 -230q29 -117 97.5 -209t162 -149t205 -77.5 t225.5 7.5q115 27 205 95.5t147.5 164t76 208t-8.5 229.5q-29 117 -97.5 209t-161.5 149.5t-205.5 77t-227.5 -7.5q-115 -29 -205 -96.5t-146.5 -162.5t-75.5 -208zM592 1892l90 164l457 -262l-86 -154z" />
<glyph unicode="&#xd3;" horiz-adv-x="1732" d="M82 752q0 162 61.5 304t168 248.5t248.5 168t304 61.5t304.5 -61.5t248 -168t167 -248.5t61.5 -304t-61.5 -304.5t-167 -249t-248 -168t-304.5 -61.5t-304 61.5t-248.5 168t-168 249t-61.5 304.5zM300 848q-19 -113 9 -230q29 -117 97.5 -209t162 -149t205 -77.5 t225.5 7.5q115 27 205 95.5t147.5 164t76 208t-8.5 229.5q-29 117 -97.5 209t-161.5 149.5t-205.5 77t-227.5 -7.5q-115 -29 -205 -96.5t-146.5 -162.5t-75.5 -208zM592 1780l456 264l91 -166l-461 -250z" />
<glyph unicode="&#xd4;" horiz-adv-x="1732" d="M82 752q0 162 61.5 304t168 248.5t248.5 168t304 61.5t304.5 -61.5t248 -168t167 -248.5t61.5 -304t-61.5 -304.5t-167 -249t-248 -168t-304.5 -61.5t-304 61.5t-248.5 168t-168 249t-61.5 304.5zM300 848q-19 -113 9 -230q29 -117 97.5 -209t162 -149t205 -77.5 t225.5 7.5q115 27 205 95.5t147.5 164t76 208t-8.5 229.5q-29 117 -97.5 209t-161.5 149.5t-205.5 77t-227.5 -7.5q-115 -29 -205 -96.5t-146.5 -162.5t-75.5 -208zM481 1673l277 275h215l278 -275h-241l-140 156l-147 -156h-242z" />
<glyph unicode="&#xd5;" horiz-adv-x="1732" d="M82 752q0 162 61.5 304t168 248.5t248.5 168t304 61.5t304.5 -61.5t248 -168t167 -248.5t61.5 -304t-61.5 -304.5t-167 -249t-248 -168t-304.5 -61.5t-304 61.5t-248.5 168t-168 249t-61.5 304.5zM300 848q-19 -113 9 -230q29 -117 97.5 -209t162 -149t205 -77.5 t225.5 7.5q115 27 205 95.5t147.5 164t76 208t-8.5 229.5q-29 117 -97.5 209t-161.5 149.5t-205.5 77t-227.5 -7.5q-115 -29 -205 -96.5t-146.5 -162.5t-75.5 -208zM477 1821q29 20 65 39q31 16 72 28t88 12t84 -8t70 -19t64.5 -19.5t68.5 -8.5t69.5 9.5t57.5 19.5 q29 12 51 29l88 -127q-39 -27 -78 -48q-35 -18 -76.5 -32.5t-82.5 -14.5t-81 8.5t-77 18.5t-70 18.5t-59 8.5q-27 0 -54.5 -7.5t-50.5 -15.5q-27 -10 -53 -22z" />
<glyph unicode="&#xd6;" horiz-adv-x="1732" d="M82 752q0 162 61.5 304t168 248.5t248.5 168t304 61.5t304.5 -61.5t248 -168t167 -248.5t61.5 -304t-61.5 -304.5t-167 -249t-248 -168t-304.5 -61.5t-304 61.5t-248.5 168t-168 249t-61.5 304.5zM300 848q-19 -113 9 -230q29 -117 97.5 -209t162 -149t205 -77.5 t225.5 7.5q115 27 205 95.5t147.5 164t76 208t-8.5 229.5q-29 117 -97.5 209t-161.5 149.5t-205.5 77t-227.5 -7.5q-115 -29 -205 -96.5t-146.5 -162.5t-75.5 -208zM602 1681v248h207v-248h-207zM922 1681v248h206v-248h-206z" />
<glyph unicode="&#xd7;" horiz-adv-x="1228" d="M129 174l344 340l-344 340l145 147l340 -344l340 344l148 -147l-346 -340l346 -340l-148 -145l-340 346l-340 -346z" />
<glyph unicode="&#xd8;" horiz-adv-x="1732" d="M80 750q0 162 61.5 303t168 247.5t248.5 168t304 61.5q111 0 211.5 -27.5t188.5 -81.5l141 193l153 -98l-149 -207q111 -106 173 -250t62 -309q0 -162 -61 -304.5t-167.5 -249t-248 -168t-303.5 -61.5q-102 0 -194.5 23.5t-175.5 68.5l-144 -196l-153 98l149 203 q-123 109 -193.5 259t-70.5 327zM296.5 845.5q-18.5 -112.5 10.5 -229.5q20 -86 61.5 -156.5t98.5 -125.5l672 919q-92 53 -197.5 69.5t-216.5 -9.5q-115 -29 -205 -97.5t-147.5 -163t-76 -207zM616 229q86 -41 183.5 -53.5t197.5 10.5q115 29 205 97.5t147.5 164t76 208 t-10.5 229.5q-16 74 -51 137t-82 117z" />
<glyph unicode="&#xd9;" horiz-adv-x="1316" d="M152 487v1018h221v-1011q0 -86 23.5 -147.5t63.5 -100.5t91 -56.5t106 -17.5t106.5 18.5t91.5 58.5t63.5 100.5t23.5 144.5v1011h219v-1018q0 -115 -40 -210t-107.5 -162.5t-159.5 -105.5t-197 -38q-104 0 -196 34t-161 99.5t-108.5 161.5t-39.5 221zM385 1892l90 164 l457 -262l-86 -154z" />
<glyph unicode="&#xda;" horiz-adv-x="1316" d="M152 487v1018h221v-1011q0 -86 23.5 -147.5t63.5 -100.5t91 -56.5t106 -17.5t106.5 18.5t91.5 58.5t63.5 100.5t23.5 144.5v1011h219v-1018q0 -115 -40 -210t-107.5 -162.5t-159.5 -105.5t-197 -38q-104 0 -196 34t-161 99.5t-108.5 161.5t-39.5 221zM385 1780l456 264 l91 -166l-461 -250z" />
<glyph unicode="&#xdb;" horiz-adv-x="1316" d="M152 487v1018h221v-1011q0 -86 23.5 -147.5t63.5 -100.5t91 -56.5t106 -17.5t106.5 18.5t91.5 58.5t63.5 100.5t23.5 144.5v1011h219v-1018q0 -115 -40 -210t-107.5 -162.5t-159.5 -105.5t-197 -38q-104 0 -196 34t-161 99.5t-108.5 161.5t-39.5 221zM272 1673l277 275 h215l278 -275h-241l-140 156l-147 -156h-242z" />
<glyph unicode="&#xdc;" horiz-adv-x="1316" d="M152 487v1018h221v-1011q0 -86 23.5 -147.5t63.5 -100.5t91 -56.5t106 -17.5t106.5 18.5t91.5 58.5t63.5 100.5t23.5 144.5v1011h219v-1018q0 -115 -40 -210t-107.5 -162.5t-159.5 -105.5t-197 -38q-104 0 -196 34t-161 99.5t-108.5 161.5t-39.5 221zM395 1681v248h207 v-248h-207zM715 1681v248h206v-248h-206z" />
<glyph unicode="&#xdd;" horiz-adv-x="1214" d="M33 1505h246l327 -710l326 710h244l-459 -962v-543h-221v543zM334 1780l456 264l91 -166l-461 -250z" />
<glyph unicode="&#xde;" horiz-adv-x="1144" d="M133 0v1505h219v-301q41 2 93 3t130 1q113 0 206 -33.5t160 -94t102.5 -143.5t35.5 -183t-35.5 -184.5t-102.5 -144.5t-160 -94t-208 -34h-221v-297h-219zM352 498h197q147 0 229 69.5t82 186.5t-83 185.5t-228 68.5h-197v-510z" />
<glyph unicode="&#xdf;" horiz-adv-x="1310" d="M135 -4v993q0 117 29 216.5t84 172t138 112.5t192 40q106 0 190 -39t141.5 -101.5t87 -142.5t29.5 -162q0 -68 -24.5 -114.5t-53.5 -77.5q-35 -37 -76 -59q98 -10 177 -58q33 -20 64.5 -50t56 -72t40 -97t15.5 -129q0 -70 -28 -149.5t-84 -148.5t-141 -114t-202 -45 q-72 0 -128 13.5t-99 36t-74 51t-53 59.5q-53 70 -72 162v-297h-209zM346 391h172q0 -37 19.5 -77t52.5 -73.5t78 -56t98 -22.5q51 0 97 20.5t79 56t52.5 83t19.5 100.5q0 106 -79 179t-233 73h-151v186q39 0 85 10.5t86 37t66.5 72.5t26.5 118q0 63 -20.5 108t-54 74 t-75.5 43t-83 14q-43 0 -85 -9t-76 -42t-54.5 -94.5t-20.5 -167.5v-633z" />
<glyph unicode="&#xe0;" horiz-adv-x="1419" d="M78 567q0 131 49 241t131 186.5t187.5 119.5t218.5 43t190.5 -32.5t124.5 -73.5q55 -47 88 -107l-6 182h211v-1126h-207v207q-31 -66 -84 -119q-47 -45 -124 -82t-195 -37q-117 0 -223.5 44t-186.5 123t-127 188.5t-47 242.5zM287 573q0 -84 29.5 -157.5t79.5 -129 t120 -88t150 -32.5q104 0 180 37t125 95t73.5 128.5t24.5 136.5q0 76 -25.5 148.5t-75.5 130t-125 91.5t-171 34q-90 0 -162 -36t-121 -93.5t-75.5 -127t-26.5 -137.5zM547 1505l90 164l457 -262l-86 -154z" />
<glyph unicode="&#xe1;" horiz-adv-x="1419" d="M78 567q0 131 49 241t131 186.5t187.5 119.5t218.5 43t190.5 -32.5t124.5 -73.5q55 -47 88 -107l-6 182h211v-1126h-207v207q-31 -66 -84 -119q-47 -45 -124 -82t-195 -37q-117 0 -223.5 44t-186.5 123t-127 188.5t-47 242.5zM287 573q0 -84 29.5 -157.5t79.5 -129 t120 -88t150 -32.5q104 0 180 37t125 95t73.5 128.5t24.5 136.5q0 76 -25.5 148.5t-75.5 130t-125 91.5t-171 34q-90 0 -162 -36t-121 -93.5t-75.5 -127t-26.5 -137.5zM541 1393l456 264l91 -166l-461 -250z" />
<glyph unicode="&#xe2;" horiz-adv-x="1419" d="M78 567q0 131 49 241t131 186.5t187.5 119.5t218.5 43t190.5 -32.5t124.5 -73.5q55 -47 88 -107l-6 182h211v-1126h-207v207q-31 -66 -84 -119q-47 -45 -124 -82t-195 -37q-117 0 -223.5 44t-186.5 123t-127 188.5t-47 242.5zM287 573q0 -84 29.5 -157.5t79.5 -129 t120 -88t150 -32.5q104 0 180 37t125 95t73.5 128.5t24.5 136.5q0 76 -25.5 148.5t-75.5 130t-125 91.5t-171 34q-90 0 -162 -36t-121 -93.5t-75.5 -127t-26.5 -137.5zM307 1286l277 275h215l278 -275h-241l-140 156l-147 -156h-242z" />
<glyph unicode="&#xe3;" horiz-adv-x="1419" d="M78 567q0 131 49 241t131 186.5t187.5 119.5t218.5 43t190.5 -32.5t124.5 -73.5q55 -47 88 -107l-6 182h211v-1126h-207v207q-31 -66 -84 -119q-47 -45 -124 -82t-195 -37q-117 0 -223.5 44t-186.5 123t-127 188.5t-47 242.5zM287 573q0 -84 29.5 -157.5t79.5 -129 t120 -88t150 -32.5q104 0 180 37t125 95t73.5 128.5t24.5 136.5q0 76 -25.5 148.5t-75.5 130t-125 91.5t-171 34q-90 0 -162 -36t-121 -93.5t-75.5 -127t-26.5 -137.5zM346 1434q29 20 65 39q31 16 72 28t88 12t84 -8t70 -19t64.5 -19.5t68.5 -8.5t69.5 9.5t57.5 19.5 q29 12 51 29l88 -127q-39 -27 -78 -48q-35 -18 -76.5 -32.5t-82.5 -14.5t-81 8.5t-77 18.5t-70 18.5t-59 8.5q-27 0 -54.5 -7.5t-50.5 -15.5q-27 -10 -53 -22z" />
<glyph unicode="&#xe4;" horiz-adv-x="1419" d="M78 567q0 131 49 241t131 186.5t187.5 119.5t218.5 43t190.5 -32.5t124.5 -73.5q55 -47 88 -107l-6 182h211v-1126h-207v207q-31 -66 -84 -119q-47 -45 -124 -82t-195 -37q-117 0 -223.5 44t-186.5 123t-127 188.5t-47 242.5zM287 573q0 -84 29.5 -157.5t79.5 -129 t120 -88t150 -32.5q104 0 180 37t125 95t73.5 128.5t24.5 136.5q0 76 -25.5 148.5t-75.5 130t-125 91.5t-171 34q-90 0 -162 -36t-121 -93.5t-75.5 -127t-26.5 -137.5zM465 1294v248h207v-248h-207zM785 1294v248h206v-248h-206z" />
<glyph unicode="&#xe5;" horiz-adv-x="1419" d="M78 567q0 131 49 241t131 186.5t187.5 119.5t218.5 43t190.5 -32.5t124.5 -73.5q55 -47 88 -107l-6 182h211v-1126h-207v207q-31 -66 -84 -119q-47 -45 -124 -82t-195 -37q-117 0 -223.5 44t-186.5 123t-127 188.5t-47 242.5zM287 573q0 -84 29.5 -157.5t79.5 -129 t120 -88t150 -32.5q104 0 180 37t125 95t73.5 128.5t24.5 136.5q0 76 -25.5 148.5t-75.5 130t-125 91.5t-171 34q-90 0 -162 -36t-121 -93.5t-75.5 -127t-26.5 -137.5zM647 1466q0 45 17.5 86t48 71t70.5 47.5t85 17.5t86 -17.5t71 -47.5t47 -71t17 -86t-17 -85t-47 -70.5 t-71 -48t-86 -17.5t-85 17.5t-70.5 48t-48 70.5t-17.5 85zM758 1466q0 -45 32.5 -77.5t77.5 -32.5q47 0 79 32.5t32 77.5q0 47 -32 79t-79 32q-45 0 -77.5 -32t-32.5 -79z" />
<glyph unicode="&#xe6;" horiz-adv-x="2316" d="M92 563q0 131 49 240.5t131 186.5t187.5 120t218.5 43t190.5 -33t124.5 -73q55 -47 88 -105l-6 180h211v-112q78 70 173 107.5t204 39.5q119 0 224.5 -46t183 -127t124 -188.5t46.5 -230.5q0 -49 -7 -94l-934 -4q14 -68 47 -124t81.5 -97t109.5 -63.5t135 -22.5 q104 0 186.5 52t129.5 140h217q-31 -84 -84.5 -154.5t-124 -120.5t-154.5 -80t-176 -30q-111 0 -207 39t-174 109v-119h-207v207q-31 -66 -84 -119q-47 -45 -123.5 -82t-195.5 -37q-117 0 -223.5 44t-186.5 123t-127 188.5t-47 242.5zM301 569q0 -84 29.5 -157.5t80 -129 t120 -88t149.5 -32.5q104 0 180 38t125 96t73.5 128t24.5 135q0 76 -25.5 148.5t-75.5 130t-125 91.5t-171 34q-90 0 -161.5 -36t-121 -93.5t-76 -127t-26.5 -137.5zM1294 631l738 2q-10 72 -42 132t-79 105t-108.5 70t-131.5 25q-78 0 -141.5 -26t-112.5 -70t-81 -105 t-42 -133z" />
<glyph unicode="&#xe7;" horiz-adv-x="1284" d="M76 565q0 123 46 231.5t125 188.5t185.5 127t226.5 47q96 0 184.5 -30.5t160 -84t126 -127t82.5 -161.5h-237q-43 96 -126 153.5t-190 57.5q-84 0 -151.5 -32t-115.5 -86t-74.5 -128t-26.5 -156q0 -84 26.5 -157.5t75.5 -128t117 -86t149 -31.5q106 0 188.5 57.5 t127.5 151.5h237q-31 -88 -85 -162t-125.5 -127t-158.5 -83t-184 -30q-121 0 -227 47t-185 128t-125 189.5t-46 231.5zM449 -334h106q6 -18 17 -33q10 -12 26.5 -21t40.5 -9q49 0 67.5 26.5t18.5 57.5t-23.5 55.5t-62.5 24.5q-20 0 -32.5 -5.5t-20.5 -9.5q-8 -8 -16 -14 l-70 63l65 199h107l-43 -139h12q6 0 12.5 1t16.5 1q68 0 117 -47t49 -123q0 -39 -15.5 -74t-42 -61.5t-63.5 -43t-78 -16.5q-66 0 -103.5 25.5t-56.5 58.5q-23 37 -28 84z" />
<glyph unicode="&#xe8;" horiz-adv-x="1314" d="M82 565q0 123 45 231.5t124 188.5t183.5 127t222.5 47q119 0 224.5 -47t183.5 -127t123 -188.5t45 -231.5q0 -49 -6 -94h-934q14 -68 47 -124t81 -97t109.5 -64.5t135.5 -23.5q104 0 186 52t129 140h215q-31 -84 -84 -154.5t-123.5 -121.5t-154.5 -80t-177 -29 q-119 0 -223 47t-183 128t-124 189.5t-45 231.5zM289 635h735q-10 70 -41 131t-78 105t-108.5 70t-130.5 26q-78 0 -141.5 -26t-113 -70t-81 -105t-41.5 -131zM383 1505l90 164l457 -262l-86 -154z" />
<glyph unicode="&#xe9;" horiz-adv-x="1314" d="M82 565q0 123 45 231.5t124 188.5t183.5 127t222.5 47q119 0 224.5 -47t183.5 -127t123 -188.5t45 -231.5q0 -49 -6 -94h-934q14 -68 47 -124t81 -97t109.5 -64.5t135.5 -23.5q104 0 186 52t129 140h215q-31 -84 -84 -154.5t-123.5 -121.5t-154.5 -80t-177 -29 q-119 0 -223 47t-183 128t-124 189.5t-45 231.5zM289 635h735q-10 70 -41 131t-78 105t-108.5 70t-130.5 26q-78 0 -141.5 -26t-113 -70t-81 -105t-41.5 -131zM383 1393l456 264l91 -166l-461 -250z" />
<glyph unicode="&#xea;" horiz-adv-x="1314" d="M82 565q0 123 45 231.5t124 188.5t183.5 127t222.5 47q119 0 224.5 -47t183.5 -127t123 -188.5t45 -231.5q0 -49 -6 -94h-934q14 -68 47 -124t81 -97t109.5 -64.5t135.5 -23.5q104 0 186 52t129 140h215q-31 -84 -84 -154.5t-123.5 -121.5t-154.5 -80t-177 -29 q-119 0 -223 47t-183 128t-124 189.5t-45 231.5zM272 1286l277 275h215l278 -275h-241l-140 156l-147 -156h-242zM289 635h735q-10 70 -41 131t-78 105t-108.5 70t-130.5 26q-78 0 -141.5 -26t-113 -70t-81 -105t-41.5 -131z" />
<glyph unicode="&#xeb;" horiz-adv-x="1314" d="M82 565q0 123 45 231.5t124 188.5t183.5 127t222.5 47q119 0 224.5 -47t183.5 -127t123 -188.5t45 -231.5q0 -49 -6 -94h-934q14 -68 47 -124t81 -97t109.5 -64.5t135.5 -23.5q104 0 186 52t129 140h215q-31 -84 -84 -154.5t-123.5 -121.5t-154.5 -80t-177 -29 q-119 0 -223 47t-183 128t-124 189.5t-45 231.5zM289 635h735q-10 70 -41 131t-78 105t-108.5 70t-130.5 26q-78 0 -141.5 -26t-113 -70t-81 -105t-41.5 -131zM393 1294v248h207v-248h-207zM713 1294v248h206v-248h-206z" />
<glyph unicode="&#xec;" horiz-adv-x="487" d="M-27 1505l90 164l457 -262l-86 -154zM137 0v1126h211v-1126h-211z" />
<glyph unicode="&#xed;" horiz-adv-x="487" d="M-26 1393l456 264l91 -166l-461 -250zM137 0v1126h211v-1126h-211z" />
<glyph unicode="&#xee;" horiz-adv-x="487" d="M-140 1286l277 275h215l278 -275h-241l-140 156l-147 -156h-242zM137 0v1126h211v-1126h-211z" />
<glyph unicode="&#xef;" horiz-adv-x="487" d="M-16 1294v248h207v-248h-207zM137 0v1126h211v-1126h-211zM304 1294v248h206v-248h-206z" />
<glyph unicode="&#xf0;" horiz-adv-x="1382" d="M84 602q0 137 67.5 241.5t162 174t195.5 104.5t169 35q51 0 96 -16.5t80 -34.5q39 -23 74 -49q-20 33 -58 69q-31 33 -80 74t-118 84l-350 -117l-134 105l310 102q-104 45 -234 80l244 80q57 -14 113.5 -33.5t109.5 -48.5l246 82l131 -104l-221 -74q92 -68 167.5 -152 t130 -180t84 -203.5t29.5 -220.5q0 -166 -60 -284.5t-150.5 -195.5t-198 -113t-199.5 -36t-198.5 36t-197.5 112t-150.5 195.5t-59.5 287.5zM295 565q0 -78 31.5 -150.5t85 -128t126 -89t154.5 -33.5t155 31.5t126 87t83.5 130t30.5 158.5q0 86 -31.5 158t-86 124t-127 82 t-154.5 30q-84 0 -155.5 -33t-125 -88.5t-83 -127t-29.5 -151.5z" />
<glyph unicode="&#xf1;" horiz-adv-x="1277" d="M139 0v1128h195v-131q18 25 47 53.5t70 52t97 39t128 15.5q86 0 168 -24.5t146.5 -83t104.5 -155.5t40 -245v-649h-211v662q0 55 -14.5 109t-45 97t-82 70t-125.5 27q-147 0 -227 -87t-80 -233v-645h-211zM250 1434q29 20 65 39q31 16 72 28t88 12t84 -8t70 -19 t64.5 -19.5t68.5 -8.5t69.5 9.5t57.5 19.5q29 12 51 29l88 -127q-39 -27 -78 -48q-35 -18 -76.5 -32.5t-82.5 -14.5t-81 8.5t-77 18.5t-70 18.5t-59 8.5q-27 0 -54.5 -7.5t-50.5 -15.5q-27 -10 -53 -22z" />
<glyph unicode="&#xf2;" horiz-adv-x="1382" d="M80 563q0 123 48 230.5t130 188.5t192.5 127t237.5 46q125 0 236.5 -46t193.5 -127t130 -188.5t48 -230.5t-48 -230.5t-130 -187t-193.5 -126t-236.5 -46.5q-127 0 -237.5 46.5t-192.5 126t-130 187t-48 230.5zM291 563q0 -82 31.5 -154.5t85 -127t126 -86t154.5 -31.5 t153.5 31.5t126 86t85 127t30.5 154.5t-30.5 156t-85 127t-126 85t-153.5 32t-154.5 -32t-126 -85t-85 -127t-31.5 -156zM418 1505l90 164l457 -262l-86 -154z" />
<glyph unicode="&#xf3;" horiz-adv-x="1382" d="M80 563q0 123 48 230.5t130 188.5t192.5 127t237.5 46q125 0 236.5 -46t193.5 -127t130 -188.5t48 -230.5t-48 -230.5t-130 -187t-193.5 -126t-236.5 -46.5q-127 0 -237.5 46.5t-192.5 126t-130 187t-48 230.5zM291 563q0 -82 31.5 -154.5t85 -127t126 -86t154.5 -31.5 t153.5 31.5t126 86t85 127t30.5 154.5t-30.5 156t-85 127t-126 85t-153.5 32t-154.5 -32t-126 -85t-85 -127t-31.5 -156zM418 1393l456 264l91 -166l-461 -250z" />
<glyph unicode="&#xf4;" horiz-adv-x="1382" d="M80 563q0 123 48 230.5t130 188.5t192.5 127t237.5 46q125 0 236.5 -46t193.5 -127t130 -188.5t48 -230.5t-48 -230.5t-130 -187t-193.5 -126t-236.5 -46.5q-127 0 -237.5 46.5t-192.5 126t-130 187t-48 230.5zM291 563q0 -82 31.5 -154.5t85 -127t126 -86t154.5 -31.5 t153.5 31.5t126 86t85 127t30.5 154.5t-30.5 156t-85 127t-126 85t-153.5 32t-154.5 -32t-126 -85t-85 -127t-31.5 -156zM305 1286l277 275h215l278 -275h-241l-140 156l-147 -156h-242z" />
<glyph unicode="&#xf5;" horiz-adv-x="1382" d="M80 563q0 123 48 230.5t130 188.5t192.5 127t237.5 46q125 0 236.5 -46t193.5 -127t130 -188.5t48 -230.5t-48 -230.5t-130 -187t-193.5 -126t-236.5 -46.5q-127 0 -237.5 46.5t-192.5 126t-130 187t-48 230.5zM291 563q0 -82 31.5 -154.5t85 -127t126 -86t154.5 -31.5 t153.5 31.5t126 86t85 127t30.5 154.5t-30.5 156t-85 127t-126 85t-153.5 32t-154.5 -32t-126 -85t-85 -127t-31.5 -156zM301 1434q29 20 65 39q31 16 72 28t88 12t84 -8t70 -19t64.5 -19.5t68.5 -8.5t69.5 9.5t57.5 19.5q29 12 51 29l88 -127q-39 -27 -78 -48 q-35 -18 -76.5 -32.5t-82.5 -14.5t-81 8.5t-77 18.5t-70 18.5t-59 8.5q-27 0 -54.5 -7.5t-50.5 -15.5q-27 -10 -53 -22z" />
<glyph unicode="&#xf6;" horiz-adv-x="1382" d="M80 563q0 123 48 230.5t130 188.5t192.5 127t237.5 46q125 0 236.5 -46t193.5 -127t130 -188.5t48 -230.5t-48 -230.5t-130 -187t-193.5 -126t-236.5 -46.5q-127 0 -237.5 46.5t-192.5 126t-130 187t-48 230.5zM291 563q0 -82 31.5 -154.5t85 -127t126 -86t154.5 -31.5 t153.5 31.5t126 86t85 127t30.5 154.5t-30.5 156t-85 127t-126 85t-153.5 32t-154.5 -32t-126 -85t-85 -127t-31.5 -156zM428 1294v248h207v-248h-207zM748 1294v248h206v-248h-206z" />
<glyph unicode="&#xf7;" horiz-adv-x="1228" d="M102 410v211h1026v-211h-1026zM510 0v219h211v-219h-211zM510 809v221h211v-221h-211z" />
<glyph unicode="&#xf8;" horiz-adv-x="1382" d="M74 559q0 123 48 230.5t130 187.5t192.5 126t237.5 46q131 0 250 -51l104 157l154 -98l-105 -158q94 -82 149.5 -195.5t55.5 -244.5q0 -123 -48 -230.5t-130 -188.5t-193.5 -127t-236.5 -46q-66 0 -126 13.5t-118 35.5l-104 -159l-154 98l105 156q-98 82 -154.5 197.5 t-56.5 250.5zM285 559q0 -82 29.5 -153.5t80.5 -124.5l428 651q-35 12 -69.5 19t-71.5 7q-82 0 -154.5 -31.5t-126 -86t-85 -127t-31.5 -154.5zM549 182q63 -22 133 -22q82 0 153.5 31.5t126 85t85 126t30.5 156.5q0 78 -27.5 146.5t-76.5 121.5z" />
<glyph unicode="&#xf9;" horiz-adv-x="1277" d="M137 487v639h213v-610q0 -80 14.5 -145.5t46 -111.5t86 -70.5t134.5 -24.5t135 28.5t91 76.5t52.5 114t16.5 139v604h211v-1126h-193v170q-18 -57 -59 -100q-35 -37 -101.5 -68t-175.5 -31q-217 0 -344 130t-127 386zM365 1505l90 164l457 -262l-86 -154z" />
<glyph unicode="&#xfa;" horiz-adv-x="1277" d="M137 487v639h213v-610q0 -80 14.5 -145.5t46 -111.5t86 -70.5t134.5 -24.5t135 28.5t91 76.5t52.5 114t16.5 139v604h211v-1126h-193v170q-18 -57 -59 -100q-35 -37 -101.5 -68t-175.5 -31q-217 0 -344 130t-127 386zM365 1393l456 264l91 -166l-461 -250z" />
<glyph unicode="&#xfb;" horiz-adv-x="1277" d="M137 487v639h213v-610q0 -80 14.5 -145.5t46 -111.5t86 -70.5t134.5 -24.5t135 28.5t91 76.5t52.5 114t16.5 139v604h211v-1126h-193v170q-18 -57 -59 -100q-35 -37 -101.5 -68t-175.5 -31q-217 0 -344 130t-127 386zM254 1286l277 275h215l278 -275h-241l-140 156 l-147 -156h-242z" />
<glyph unicode="&#xfc;" horiz-adv-x="1277" d="M137 487v639h213v-610q0 -80 14.5 -145.5t46 -111.5t86 -70.5t134.5 -24.5t135 28.5t91 76.5t52.5 114t16.5 139v604h211v-1126h-193v170q-18 -57 -59 -100q-35 -37 -101.5 -68t-175.5 -31q-217 0 -344 130t-127 386zM375 1294v248h207v-248h-207zM695 1294v248h206v-248 h-206z" />
<glyph unicode="&#xfd;" horiz-adv-x="1175" d="M23 1126h229l332 -893l340 893h227l-623 -1503h-221l166 400zM318 1393l456 264l91 -166l-461 -250z" />
<glyph unicode="&#xfe;" horiz-adv-x="1404" d="M135 -377v1882h211v-559q27 37 62.5 75t84 67.5t107.5 49t133 19.5q131 0 238.5 -49t184.5 -132t119 -193.5t42 -233.5t-45 -228.5t-123 -183.5t-181.5 -122t-219.5 -44q-43 0 -96.5 11.5t-108 37t-105.5 65.5t-92 97v-559h-211zM346 553q0 -100 37 -174t93 -121 t123 -70.5t126 -23.5t127 21.5t124 68.5t93 123t37 184q0 109 -39 185.5t-97.5 125t-126 71t-124.5 22.5q-72 0 -138.5 -27t-118.5 -79t-84 -129t-32 -177z" />
<glyph unicode="&#xff;" horiz-adv-x="1175" d="M23 1126h229l332 -893l340 893h227l-623 -1503h-221l166 400zM323 1294v248h207v-248h-207zM643 1294v248h206v-248h-206z" />
<glyph unicode="&#x152;" horiz-adv-x="2240" d="M86 748q0 162 61.5 304t168 248.5t249 168t303.5 61.5q164 0 306.5 -60.5t248.5 -201.5v233h721v-201h-499v-444h487v-201h-487v-4v-452h499v-203h-721v240q-106 -147 -248.5 -208t-306.5 -61q-162 0 -304 61.5t-248.5 167t-168 248t-61.5 304.5zM304.5 843.5 q-19.5 -112.5 8.5 -229.5q29 -117 97.5 -208t162 -149t205 -79t226.5 8q82 18 150.5 59.5t122.5 96.5t91 124t55 146v265v6q-29 117 -97.5 209t-161.5 150t-205.5 77.5t-227.5 -8.5q-115 -29 -205 -96.5t-146 -163t-75.5 -208z" />
<glyph unicode="&#x153;" horiz-adv-x="2342" d="M74 559q0 123 48 230.5t130 187.5t192.5 126t237.5 46q162 0 295 -72.5t215 -195.5q78 125 206 200.5t281 75.5q119 0 223.5 -47t183.5 -128t124 -189.5t45 -231.5q0 -51 -8 -92h-955q14 -68 50 -124t88.5 -98t117 -65.5t138.5 -23.5q104 0 186 53t129 141l217 -2 q-31 -84 -85 -154.5t-124 -120.5t-153.5 -79t-176.5 -29q-154 0 -280.5 75t-204.5 198q-82 -123 -216 -198t-296 -75q-127 0 -237.5 46t-192.5 127t-130 188.5t-48 230.5zM287 559q0 -84 30.5 -156.5t85 -126t126 -85t153.5 -31.5t154.5 31.5t126 85t85 126t31.5 156.5 q0 82 -31.5 155.5t-85 127t-126 85t-154.5 31.5t-153.5 -31.5t-126 -85t-85 -127t-30.5 -155.5zM1288 633h758q-10 70 -45 131t-86 105t-115.5 70t-134.5 26q-78 0 -141.5 -26t-112.5 -70t-81 -105t-42 -131z" />
<glyph unicode="&#x178;" horiz-adv-x="1214" d="M33 1505h246l327 -710l326 710h244l-459 -962v-543h-221v543zM344 1681v248h207v-248h-207zM664 1681v248h206v-248h-206z" />
<glyph unicode="&#x2c6;" d="M184 1286l277 275h215l278 -275h-241l-140 156l-147 -156h-242z" />
<glyph unicode="&#x2dc;" d="M166 1434q29 20 65 39q31 16 72 28t88 12t84 -8t70 -19t64.5 -19.5t68.5 -8.5t69.5 9.5t57.5 19.5q29 12 51 29l88 -127q-39 -27 -78 -48q-35 -18 -76.5 -32.5t-82.5 -14.5t-81 8.5t-77 18.5t-70 18.5t-59 8.5q-27 0 -54.5 -7.5t-50.5 -15.5q-27 -10 -53 -22z" />
<glyph unicode="&#x2000;" horiz-adv-x="1037" />
<glyph unicode="&#x2001;" horiz-adv-x="2075" />
<glyph unicode="&#x2002;" horiz-adv-x="1037" />
<glyph unicode="&#x2003;" horiz-adv-x="2075" />
<glyph unicode="&#x2004;" horiz-adv-x="691" />
<glyph unicode="&#x2005;" horiz-adv-x="518" />
<glyph unicode="&#x2006;" horiz-adv-x="345" />
<glyph unicode="&#x2007;" horiz-adv-x="345" />
<glyph unicode="&#x2008;" horiz-adv-x="259" />
<glyph unicode="&#x2009;" horiz-adv-x="415" />
<glyph unicode="&#x200a;" horiz-adv-x="115" />
<glyph unicode="&#x2010;" horiz-adv-x="573" d="M4 481v213h569v-213h-569z" />
<glyph unicode="&#x2011;" horiz-adv-x="573" d="M4 481v213h569v-213h-569z" />
<glyph unicode="&#x2012;" horiz-adv-x="573" d="M4 481v213h569v-213h-569z" />
<glyph unicode="&#x2013;" horiz-adv-x="1024" d="M74 481v213h872v-213h-872z" />
<glyph unicode="&#x2014;" horiz-adv-x="2048" d="M80 481v213h1892v-213h-1892z" />
<glyph unicode="&#x2018;" horiz-adv-x="567" d="M174 997v246q0 102 60.5 172t152.5 86v-125q-14 -4 -27.5 -11t-24.5 -20.5t-18.5 -38t-7.5 -63.5h76v-246h-211z" />
<glyph unicode="&#x2019;" horiz-adv-x="567" d="M178 1004v124q27 8 51.5 32t24.5 102h-74v245h211v-245q0 -102 -60.5 -172t-152.5 -86z" />
<glyph unicode="&#x201a;" horiz-adv-x="567" d="M174 -133q29 8 53.5 31.5t24.5 101.5h-76v246h213v-246q0 -102 -61.5 -172t-153.5 -86v125z" />
<glyph unicode="&#x201c;" horiz-adv-x="870" d="M168 997v246q0 102 60.5 172t152.5 86v-125q-14 -4 -27.5 -11t-25 -20.5t-17.5 -38t-6 -63.5h74v-246h-211zM485 997v246q0 102 60.5 172t152.5 86v-125q-14 -4 -27.5 -11t-24.5 -20.5t-18 -38t-7 -63.5h75v-246h-211z" />
<glyph unicode="&#x201d;" horiz-adv-x="870" d="M164 1004v124q14 4 27.5 11.5t24.5 21t18.5 38t7.5 63.5h-76v245h211v-245q0 -102 -60.5 -172t-152.5 -86zM481 1004v124q14 4 27.5 11.5t25 21t18.5 38t7 63.5h-76v245h213v-245q0 -102 -61.5 -172t-153.5 -86z" />
<glyph unicode="&#x201e;" horiz-adv-x="870" d="M166 -133q14 4 27.5 11t24.5 20.5t18.5 38t7.5 63.5h-76v246h211v-246q0 -102 -60.5 -172t-152.5 -86v125zM483 -133q14 4 27.5 11t25 20.5t18.5 38t7 63.5h-76v246h213v-246q0 -102 -61.5 -172t-153.5 -86v125z" />
<glyph unicode="&#x2022;" horiz-adv-x="1241" d="M303 772q0 63 24.5 119.5t67.5 98.5t99.5 66.5t121.5 24.5q66 0 123.5 -24.5t99.5 -66.5t66.5 -98t24.5 -120q0 -66 -24.5 -122t-66.5 -97t-99.5 -65.5t-123.5 -24.5t-122 24.5t-99 65.5t-67.5 97t-24.5 122z" />
<glyph unicode="&#x2026;" horiz-adv-x="2048" d="M250 0v248h209v-248h-209zM924 0v248h209v-248h-209zM1602 0v248h208v-248h-208z" />
<glyph unicode="&#x202f;" horiz-adv-x="415" />
<glyph unicode="&#x2039;" horiz-adv-x="419" d="M72 479v211l278 277v-230l-164 -151l164 -150v-229z" />
<glyph unicode="&#x203a;" horiz-adv-x="419" d="M68 207v229l163 150l-163 151v230l278 -277v-211z" />
<glyph unicode="&#x205f;" horiz-adv-x="518" />
<glyph unicode="&#x20ac;" d="M4 526l70 176h110v152h-180l70 174h110v12q0 55 20.5 138.5t75 162t148.5 135t242 56.5q92 0 171 -28.5t138 -78t96 -117t49 -145.5h-215q-10 49 -39 88q-25 33 -70.5 60.5t-121.5 27.5q-78 0 -131 -27.5t-87 -71.5t-49.5 -98.5t-15.5 -107.5v-6h469l-71 -174h-398v-152 h469l-71 -176h-398v-57q0 -53 15.5 -107.5t49.5 -98.5t87 -71.5t131 -27.5q76 0 122 26.5t70 61.5q29 37 39 88h215q-12 -78 -49 -145.5t-96 -116.5t-138 -78t-171 -29q-147 0 -241.5 56.5t-149 135.5t-75 162t-20.5 138v63h-180z" />
<glyph unicode="&#x2122;" horiz-adv-x="2027" d="M4 1264v159h696v-159h-249v-678h-199v678h-248zM862 586v837h291l199 -555l202 555h291v-837h-198v616l-217 -616h-152l-211 620l-4 -620h-201z" />
<glyph unicode="&#xe000;" horiz-adv-x="1126" d="M0 0v1126h1126v-1126h-1126z" />
<glyph unicode="&#xfb01;" horiz-adv-x="995" d="M49 934v190h103v39q0 86 26.5 150.5t75.5 106.5t116.5 63.5t149.5 21.5h39v-194q-45 0 -82 -5.5t-63.5 -22.5t-41 -52t-14.5 -94v-13h498v-6v-1118h-209v934h-289v-137t1 -152t1 -155.5v-149.5q0 -168 2 -340h-210v934h-103zM647 1260v247h209v-247h-209z" />
<glyph unicode="&#xfb02;" horiz-adv-x="995" d="M39 934v190h104v39q0 86 27 150.5t76 106.5t116.5 63.5t149.5 21.5h37v-194q-43 0 -80 -5.5t-63.5 -22.5t-41 -52t-14.5 -94v-13h291v381h211v-1505h-211v934h-291v-594q0 -168 2 -340h-209v934h-104z" />
</font>
</defs>
</svg>
