<?xml version="1.0" standalone="no"?>
<!DOCTYPE svg PUBLIC "-//W3C//DTD SVG 1.1//EN" "http://www.w3.org/Graphics/SVG/1.1/DTD/svg11.dtd" >
<svg xmlns="http://www.w3.org/2000/svg">
<metadata></metadata>
<defs>
<font id="officeworksdemidemi" horiz-adv-x="1146" >
<font-face units-per-em="2048" ascent="1536" descent="-512" />
<missing-glyph horiz-adv-x="573" />
<glyph horiz-adv-x="2048" />
<glyph horiz-adv-x="2048" />
<glyph unicode="&#xd;" horiz-adv-x="0" />
<glyph unicode=" "  horiz-adv-x="573" />
<glyph unicode="&#x09;" horiz-adv-x="573" />
<glyph unicode="&#xa0;" horiz-adv-x="573" />
<glyph unicode="!" horiz-adv-x="573" d="M150 0v258h270v-258h-270zM150 383v1133h270v-1133h-270z" />
<glyph unicode="&#x22;" horiz-adv-x="737" d="M47 1513h272l-53 -610h-166zM420 1513h270l-53 -610h-164z" />
<glyph unicode="#" d="M66 401l8 193h192l33 244h-172l8 194h191l55 402h205l-56 -402h185l55 402h205l-55 -402h155l-8 -194h-174l-33 -244h154l-8 -193h-175l-55 -401h-203l56 401h-185l-57 -401h-203l56 401h-174zM471 594h184l33 244h-184z" />
<glyph unicode="$" d="M119 496h272q0 -86 56.5 -135.5t130.5 -49.5q37 0 71.5 11.5t61 34t43 54t16.5 74.5q0 78 -44 122t-111.5 75t-144.5 57.5t-144.5 71.5t-111.5 117.5t-44 195.5q0 86 25.5 149.5t65.5 108.5t91 73t103 44v256h254v-260q51 -16 102 -46t92 -75t66.5 -107.5t25.5 -142.5 h-264q0 76 -49 116t-109 40q-59 0 -101 -40t-42 -101q0 -68 44 -106t111.5 -64.5t144.5 -53t144.5 -73.5t111.5 -124t44 -204q0 -74 -22.5 -142.5t-63.5 -123.5t-100.5 -96t-134.5 -62v-262h-254v258q-117 27 -183.5 93.5t-101.5 137.5q-39 82 -51 179z" />
<glyph unicode="%" horiz-adv-x="1761" d="M74 1167q0 76 28.5 144.5t78.5 120t118 81t143 29.5q76 0 143.5 -29.5t118 -81t79 -120t28.5 -144.5t-28.5 -142.5t-79 -115.5t-118 -76.5t-143.5 -27.5t-143.5 27.5t-117.5 76.5t-78.5 116t-28.5 142zM301 1167q0 -59 41 -97t100 -38t100.5 38t41.5 97t-41 103.5 t-101 44.5q-59 0 -100 -44.5t-41 -103.5zM461 0l622 1511h207l-624 -1511h-205zM942 338q0 76 28.5 143.5t79 117.5t117 79t144.5 29q76 0 143.5 -29t117.5 -79t78.5 -117.5t28.5 -143.5q0 -78 -28.5 -144.5t-78.5 -116.5t-117.5 -79t-143.5 -29q-78 0 -144.5 29t-117 79 t-79 116.5t-28.5 144.5zM1169 338q0 -59 41 -100t101 -41q59 0 100 41t41 100t-41 100t-100 41t-100.5 -41t-41.5 -100z" />
<glyph unicode="&#x26;" horiz-adv-x="1392" d="M72 455q0 104 45 182t98 131q63 61 143 104q-37 39 -63 86q-23 41 -42.5 93.5t-19.5 111.5t23 126t71 124t119.5 94t169.5 37q100 0 174 -38t121 -95t70 -125.5t23 -130.5q0 -88 -37 -154.5t-82 -113.5q-53 -53 -119 -94l139 -154l148 256h301l-260 -461l266 -289 l-197 -176l-207 226q-39 -63 -94 -113q-47 -43 -118.5 -78t-170.5 -35q-98 0 -189 37t-160.5 101.5t-110.5 153.5t-41 194zM346 436q0 -35 12.5 -71.5t38 -65.5t65.5 -47.5t93 -18.5t92 26t66 58q31 37 53 84l-236 256q-82 -29 -133 -90t-51 -131zM489 1163q0 -47 25 -85 t84 -97q82 41 116 82t34 96q0 57 -38 93t-94 36q-57 0 -92 -39t-35 -86z" />
<glyph unicode="'" horiz-adv-x="450" d="M88 1513h270l-53 -610h-164z" />
<glyph unicode="(" horiz-adv-x="778" d="M156 604q0 135 23.5 248t63.5 204t89 162.5t102 124.5q123 127 279 197v-299q-78 -66 -140 -158q-53 -78 -96 -197.5t-43 -279.5q0 -162 43 -280.5t96 -196.5q61 -92 140 -156v-292q-156 70 -279 194q-53 53 -102 124t-89 161t-63.5 200.5t-23.5 243.5z" />
<glyph unicode=")" horiz-adv-x="778" d="M78 -27q78 63 141 156q53 78 97 196.5t44 280.5q0 160 -44 280t-97 197q-63 92 -141 158v293q156 -61 280 -182q51 -51 102.5 -122t90.5 -163t63.5 -207t24.5 -256q0 -133 -24.5 -243.5t-63.5 -200.5t-90 -161t-103 -124q-125 -125 -280 -194v292z" />
<glyph unicode="*" horiz-adv-x="901" d="M139 1305l228 -21l-134 180l115 80l105 -211l102 211l115 -80l-133 -180l227 21l-2 -138l-225 23l133 -186l-125 -74l-92 215l-97 -215l-125 74l136 186l-226 -23z" />
<glyph unicode="+" horiz-adv-x="1228" d="M106 393v244h390v399h245v-399h389v-244h-389v-393h-245v393h-390z" />
<glyph unicode="," horiz-adv-x="573" d="M147 0v270h271v-270q0 -74 -21.5 -127t-58.5 -89t-85 -53.5t-103 -17.5v135q20 0 41.5 6.5t39 23t27.5 46t10 76.5h-121z" />
<glyph unicode="-" horiz-adv-x="860" d="M145 467v242h566v-242h-566z" />
<glyph unicode="." horiz-adv-x="573" d="M152 0v270h270v-270h-270z" />
<glyph unicode="/" horiz-adv-x="942" d="M8 -209l643 1722h275l-645 -1722h-273z" />
<glyph unicode="0" d="M68 487v539q0 115 39.5 210t108.5 163.5t161 106.5t196 38t197.5 -35.5t162 -103.5t108.5 -164t40 -215v-539q0 -119 -40 -215t-108.5 -163.5t-161.5 -103.5t-198 -36q-104 0 -196 38t-161 106.5t-108.5 164t-39.5 209.5zM338 479q0 -53 18.5 -99t51 -80t75.5 -54.5 t92 -20.5t92.5 20.5t75 54.5t50 80t18.5 99v557q0 51 -18.5 97.5t-50 81t-74.5 54t-93 19.5q-49 0 -92 -19.5t-75.5 -54t-51 -81t-18.5 -97.5v-557z" />
<glyph unicode="1" d="M281 1264l2 247l219 2h239v-1513h-270v1264h-190z" />
<glyph unicode="2" d="M82 999q-6 82 19.5 178.5t86 178.5t156.5 136t229 54t227.5 -50t155 -126t88 -166t27.5 -168q0 -111 -54 -211t-139 -195t-191.5 -187.5t-211.5 -186.5h596v-256h-975v256q115 106 217 201q43 39 88 81t85 79.5t74 69.5t54 52q86 84 136.5 157t50.5 169q0 39 -14.5 79 t-42 72.5t-68.5 53t-96 20.5q-111 0 -170.5 -76.5t-59.5 -214.5h-268z" />
<glyph unicode="3" d="M68 455h270q0 -55 22.5 -98.5t57.5 -73t76 -44t75 -14.5q49 0 94.5 15.5t81 45t57 76t21.5 107.5q0 84 -35.5 134t-91 76t-120 34t-121.5 8v256q61 -6 109 7t82 36.5t51.5 56.5t17.5 68q0 72 -37 107.5t-96 35.5q-31 0 -56.5 -13t-45 -33.5t-31 -45.5t-11.5 -47h-270 q0 51 22.5 119.5t71.5 130t125 103.5t182 42t184 -42t129.5 -103.5t77 -133t25.5 -128.5q0 -74 -20.5 -125t-44.5 -86q-29 -39 -64 -64q66 -27 119 -80q45 -45 82 -118.5t37 -190.5q0 -115 -46.5 -208t-119 -158.5t-163.5 -101.5t-181 -36q-92 0 -181.5 31t-162 92.5 t-119.5 152.5t-53 210z" />
<glyph unicode="4" d="M31 231v222l690 1063h229v-1029h158v-256h-158v-231h-270v231h-649zM322 487h358v588z" />
<glyph unicode="5" d="M57 449h271q6 -55 29.5 -96.5t57.5 -70t72.5 -43t77.5 -14.5q51 0 97.5 19.5t82 54.5t57 84t21.5 111q0 61 -20.5 110t-56 84t-82 53.5t-95.5 18.5q-76 0 -125 -31t-77 -78q-16 4 -56.5 14.5t-81.5 22.5q-49 14 -104 31l141 799h682v-256h-477l-49 -289q20 12 47 20 q23 8 58.5 15.5t86.5 7.5q92 0 179.5 -39t155 -107.5t107.5 -165t40 -210.5q0 -115 -44 -210.5t-118 -165t-168 -108.5t-195 -39q-104 0 -195 40t-160 106.5t-111 152.5t-48 179z" />
<glyph unicode="6" d="M53 483q0 78 13.5 140.5t34 113.5t47 93t51.5 81q12 18 35.5 55.5t54 83.5t64.5 98t69 103q80 121 172 262h317l-333 -509q94 14 186 -14.5t166 -96.5t120 -171.5t46 -238.5q0 -109 -41 -203t-112 -163.5t-166 -110.5t-204 -41t-203 41t-164.5 110.5t-111.5 164 t-41 202.5zM322 489q0 -55 19 -103t54 -84t80 -56.5t98 -20.5q51 0 97.5 20.5t81 56.5t54 84t19.5 103q0 68 -24.5 118t-61.5 83t-82 48.5t-84 15.5q-53 0 -98 -20.5t-80 -56.5t-54 -84t-19 -104z" />
<glyph unicode="7" d="M127 1257v256h901v-256l-545 -1257h-301l561 1257h-616z" />
<glyph unicode="8" d="M70 438q0 143 60 244.5t163 159.5q-61 53 -97 130t-36 163q0 84 32.5 158.5t88 130t131 88t161.5 32.5t161 -32.5t131.5 -88t89 -130t32.5 -158.5q0 -88 -37 -164t-98 -131q102 -57 162.5 -158.5t60.5 -243.5q0 -96 -40 -182t-107.5 -149.5t-159.5 -100.5t-197 -37 q-104 0 -195 37t-158.5 100.5t-107.5 149.5t-40 182zM340 457q0 -49 18.5 -91t50 -74t73.5 -50.5t91 -18.5t91.5 18.5t74 50.5t50 74t18.5 91t-18.5 91t-50 73.5t-73.5 50t-92 18.5q-49 0 -91 -18.5t-73.5 -50t-50 -73.5t-18.5 -91zM412 1120q0 -68 47 -115t114 -47 q68 0 115 47.5t47 114.5q0 33 -12 63.5t-34.5 54.5t-52.5 38t-63 14q-35 0 -63.5 -14t-51 -38t-34.5 -54.5t-12 -63.5z" />
<glyph unicode="9" d="M49 1020q0 106 41 202.5t111.5 167t165 112.5t202.5 42q109 0 203 -41t165 -111.5t112 -166t41 -201.5q0 -78 -13.5 -139.5t-34 -111.5t-47 -91t-51.5 -80q-12 -20 -35.5 -56t-53.5 -82t-64.5 -98.5t-67.5 -103.5q-80 -121 -172 -262h-318l334 508q-94 -14 -186 13.5 t-166 93t-120 168t-46 237.5zM319 1014q0 -68 24 -118t60.5 -82t80.5 -47t85 -15q51 0 97.5 21.5t81 57t54 84t19.5 103.5t-19.5 103t-54 84t-81 57.5t-97.5 21.5t-97 -21.5t-80 -58.5t-53.5 -86t-19.5 -104z" />
<glyph unicode=":" horiz-adv-x="573" d="M147 0v270h273v-270h-273zM147 866v271h273v-271h-273z" />
<glyph unicode=";" horiz-adv-x="573" d="M150 0v270h272v-270q0 -74 -21.5 -127t-58.5 -89t-86 -53.5t-104 -17.5v135q20 0 41.5 6.5t39 23t27.5 46t10 76.5h-120zM152 866v271h270v-271h-270z" />
<glyph unicode="&#x3c;" horiz-adv-x="1228" d="M100 420v190l1051 437v-236l-733 -297l733 -297v-233z" />
<glyph unicode="=" horiz-adv-x="1228" d="M98 180v246h1026v-246h-1026zM98 621v243h1026v-243h-1026z" />
<glyph unicode="&#x3e;" horiz-adv-x="1228" d="M86 -16v233l733 297l-733 297v236l1051 -437v-190z" />
<glyph unicode="?" d="M84 1067q0 113 41 202t107.5 150.5t150.5 94t168 32.5q104 0 189 -36.5t143.5 -101.5t90.5 -149.5t32 -181.5q0 -66 -18.5 -117t-48.5 -95t-66.5 -82t-73.5 -74q-35 -37 -59.5 -62.5t-40 -58.5t-22.5 -80t-7 -127h-271q0 127 25 212t61.5 142.5t80.5 96t81 73.5t61.5 73 t24.5 95q0 86 -45 144.5t-145 58.5q-49 0 -85 -18.5t-58.5 -48t-34 -67.5t-11.5 -75h-270zM399 0v270h271v-270h-271z" />
<glyph unicode="@" horiz-adv-x="1515" d="M111 764q16 170 88.5 300t178 218t230.5 133t246 45t246 -45t224 -129t159.5 -207t50.5 -276q-10 -141 -68.5 -241.5t-134.5 -164t-153.5 -93.5t-126.5 -30q-45 0 -79 32t-38 95q-35 -53 -89 -89t-147 -36q-72 0 -135 37t-104 102.5t-52.5 156t21.5 198.5 q49 160 156.5 252t271.5 92q51 0 87 -16.5t59.5 -40t37 -50t19.5 -46.5q6 29 12 51t10 39q6 20 9 36h167q-35 -127 -63 -239q-12 -47 -24.5 -96.5t-23.5 -92.5t-20.5 -77.5t-13.5 -53.5q-10 -39 -10 -59t5 -29.5t14 -10.5t20 -1q25 0 58.5 22.5t66 62.5t60.5 94.5t40 119.5 q25 141 -12 252t-113 186.5t-179.5 114.5t-209.5 39q-90 0 -186.5 -37t-178 -108.5t-140 -178t-71.5 -245.5q-14 -139 29 -256t126 -200t197.5 -129t243.5 -46q113 0 196 27.5t138 62.5q66 39 111 92h153q-59 -92 -147 -164q-76 -61 -189.5 -111.5t-269.5 -50.5t-299 57.5 t-249.5 161t-164 249t-40.5 321.5zM583.5 610q4.5 -55 26 -92t57 -54.5t76.5 -17.5q80 0 151 66t97 174q14 55 10 102.5t-23.5 82t-53 54t-76.5 19.5q-25 0 -59.5 -9t-70.5 -32.5t-66.5 -62.5t-49.5 -101q-23 -74 -18.5 -129z" />
<glyph unicode="A" horiz-adv-x="1515" d="M16 0l627 1520h219l631 -1520h-307l-154 391h-559l-149 -391h-308zM573 651h357l-180 463z" />
<glyph unicode="B" horiz-adv-x="1187" d="M141 0v1516h402q104 0 194 -30t154.5 -83t101.5 -126t37 -157q0 -86 -26.5 -143t-57.5 -92q-37 -41 -84 -64q72 -25 129 -73q47 -41 88 -114t41 -185q0 -227 -151.5 -338t-483.5 -111h-344zM420 260h141q156 0 218.5 56.5t62.5 142.5q0 102 -70 151t-229 49h-123v-399z M420 926h110q123 0 172.5 48t49.5 120q0 70 -54.5 115.5t-181.5 45.5h-96v-329z" />
<glyph unicode="C" horiz-adv-x="1597" d="M72 754q0 162 61.5 305t168 250.5t248.5 170t304 62.5q119 0 228.5 -34.5t201.5 -96t164 -146.5t119 -186h-328q-68 92 -169 147.5t-220 55.5q-102 0 -193.5 -42t-159 -113.5t-106.5 -168t-39 -204.5q0 -109 39 -203t106.5 -165t159 -112t193.5 -41q117 0 215 49.5 t168 135.5h330q-47 -98 -120 -180t-165 -141.5t-199.5 -92.5t-224.5 -33q-162 0 -304 61.5t-248.5 168t-168 249t-61.5 304.5z" />
<glyph unicode="D" horiz-adv-x="1433" d="M129 0v1513h391q154 0 300.5 -41.5t262 -132t185 -232.5t69.5 -341q0 -201 -69.5 -345.5t-178 -237.5t-241.5 -138t-262 -45h-457zM408 260h41t29.5 1t27.5 1h35q129 0 226 39t161.5 106.5t97.5 155.5t33 187q0 88 -32 177t-95.5 160.5t-157.5 117.5t-217 46h-41.5 t-46.5 1t-40 1h-21v-993z" />
<glyph unicode="E" horiz-adv-x="1064" d="M131 0v1518h809v-261h-530v-376h508v-265h-508v-356h530v-260h-809z" />
<glyph unicode="F" horiz-adv-x="983" d="M125 0v1518h768v-261h-487v-383h464v-258h-464v-616h-281z" />
<glyph unicode="G" horiz-adv-x="1720" d="M59 760q0 162 62.5 304t171 248.5t253 168t310.5 61.5q121 0 233.5 -31.5t209 -92t172 -148.5t124.5 -199h-333q-68 100 -178.5 155.5t-231.5 55.5q-104 0 -197.5 -41t-162 -111.5t-108.5 -166t-40 -203.5q0 -109 40 -204t108.5 -167t162 -114t197.5 -42q102 0 180 28 t134.5 70t92 91t52.5 90h-631v262h981q0 -145 -55.5 -289.5t-160 -258t-254 -184.5t-335.5 -71q-166 0 -310.5 62.5t-253 170t-171 251t-62.5 305.5z" />
<glyph unicode="H" horiz-adv-x="1392" d="M150 0v1516h278v-625h539v625h278v-1516h-278v633h-539v-633h-278z" />
<glyph unicode="I" horiz-adv-x="573" d="M147 0v1518h281v-1518h-281z" />
<glyph unicode="J" horiz-adv-x="983" d="M8 354h281q2 -37 18 -63q12 -23 40 -42.5t75 -19.5t73.5 20.5t41 49.5t17.5 59.5t3 51.5v1108h279v-1112q0 -84 -26 -163t-78 -139.5t-129 -97.5t-177 -37q-72 0 -129 16.5t-100 44t-74 61.5t-51 71q-51 84 -64 192z" />
<glyph unicode="K" horiz-adv-x="1269" d="M186 0v1516h279v-734l461 734h327l-465 -691l465 -825h-327l-330 639l-131 -172v-467h-279z" />
<glyph unicode="L" horiz-adv-x="901" d="M150 0v1518h276v-1256h471v-262h-471h-64h-212z" />
<glyph unicode="M" horiz-adv-x="1843" d="M137 0v1516h373l414 -1141l413 1141h375v-1516h-280v1149l-390 -1149h-237l-389 1149v-1149h-279z" />
<glyph unicode="N" horiz-adv-x="1515" d="M145 0v1518h318l637 -1121v1121h278v-1518h-311l-643 1112v-1112h-279z" />
<glyph unicode="O" horiz-adv-x="1720" d="M70 752q0 162 61.5 305t169 250.5t250.5 170t307 62.5q162 0 305.5 -62.5t251 -170t169 -251t61.5 -304.5q0 -162 -61.5 -304.5t-169 -248t-251 -167t-305.5 -61.5q-164 0 -307 61.5t-250.5 167t-169 248t-61.5 304.5zM348 752q0 -109 40 -204t108.5 -166t162 -112 t199.5 -41q104 0 197.5 41t163 112t109.5 166t40 204t-40 205t-109.5 168.5t-162.5 115.5t-198 43q-106 0 -199.5 -43t-162 -115.5t-108.5 -168.5t-40 -205z" />
<glyph unicode="P" d="M145 0v1516h478q94 0 182 -29t155.5 -88.5t107.5 -148.5t40 -212t-46 -210t-120 -144t-167 -84t-187 -27h-162v-573h-281zM426 834h113q150 0 220 60t70 159q0 98 -71.5 150t-233.5 52h-98v-421z" />
<glyph unicode="Q" horiz-adv-x="1720" d="M70 752q0 162 61.5 305t169 250.5t249.5 170t306 62.5t307.5 -62.5t251 -170t169 -251t61.5 -304.5q0 -131 -42 -250t-116 -217q45 -25 92 -40.5t100 -15.5v-260q-109 0 -204 38t-185 93q-94 -59 -203.5 -94t-230.5 -35q-164 0 -306 61.5t-249.5 167t-169 248 t-61.5 304.5zM346 752q0 -10 1 -18.5t1 -18.5q35 12 114 25q60 9 129 9q23 0 46 -1q106 -4 196.5 -33t168 -73t143 -95t125.5 -101q47 66 71.5 143t24.5 163q0 109 -40 205t-109.5 168.5t-162 115.5t-198.5 43q-104 0 -197.5 -43t-163 -115.5t-109.5 -169t-40 -204.5z M436 457q68 -104 178.5 -166t241.5 -62q109 0 201 43q-94 72 -193.5 132.5t-185.5 74.5q-44 7 -82 7q-36 0 -68 -6q-65 -13 -92 -23z" />
<glyph unicode="R" horiz-adv-x="1187" d="M129 0v1513h483q106 0 200.5 -30.5t166.5 -91t114 -151.5t42 -214q0 -102 -34 -178t-91.5 -130t-132 -86t-156.5 -46l428 -586h-338l-399 573h-2v-573h-281zM410 786h163q141 0 212 59.5t71 170.5t-73.5 174t-209.5 63h-163v-467z" />
<glyph unicode="S" horiz-adv-x="1064" d="M31 432h293q0 -47 16 -85t44 -63.5t63.5 -40t74.5 -14.5t77 12.5t67.5 37t47 59.5t17.5 82q0 86 -48 133t-119.5 79t-154.5 59.5t-155 75.5t-120 128t-48 213q0 123 47 207t115.5 134t144.5 71.5t133 21.5t135 -22.5t147 -73.5t117 -133t48 -199h-285q0 82 -52 125 t-118 43q-63 0 -108 -43t-45 -109q0 -76 48 -116.5t119.5 -69.5t154.5 -57.5t154.5 -78.5t120 -134t48.5 -223q0 -98 -34 -185.5t-97.5 -154t-154.5 -104.5t-204 -38q-86 0 -151.5 19.5t-116.5 52.5t-87 75t-61 85q-57 100 -73 231z" />
<glyph unicode="T" horiz-adv-x="860" d="M10 1253v260h854v-260h-289v-1253h-278v1253h-287z" />
<glyph unicode="U" horiz-adv-x="1310" d="M115 541v975h278v-967q0 -63 11.5 -120.5t40 -101.5t79.5 -71t129 -27t128 28t80 73t41 102t11 117v967h279v-992q0 -131 -41 -233.5t-113.5 -174t-171 -109.5t-211.5 -38q-109 0 -206 35t-171.5 106.5t-118.5 178t-44 252.5z" />
<glyph unicode="V" horiz-adv-x="1433" d="M18 1516h293l408 -1156l403 1156h293l-573 -1516h-248z" />
<glyph unicode="W" horiz-adv-x="1843" d="M20 1516h283l260 -1065l254 1065h223l244 -1065l268 1065h279l-422 -1516h-238l-243 1008l-242 -1008h-240z" />
<glyph unicode="X" horiz-adv-x="1392" d="M10 0l525 754l-525 764h332l356 -529l359 529h321l-518 -764l518 -754h-321l-359 516l-356 -516h-332z" />
<glyph unicode="Y" horiz-adv-x="1269" d="M-2 1516h305l328 -687l330 687h307l-498 -945v-571h-278v571z" />
<glyph unicode="Z" horiz-adv-x="1024" d="M39 0v227l584 1028h-553v261h886v-242l-579 -1014h618v-260h-956z" />
<glyph unicode="[" horiz-adv-x="655" d="M137 346v559q0 154 37 263.5t99.5 184t142.5 119.5t166 70v-297q-61 -16 -95 -62t-49.5 -101.5t-17.5 -108.5t-2 -82v-594q0 -33 5 -79t22.5 -93t50 -88t86.5 -60v-296q-74 10 -153 52t-143.5 121.5t-106.5 200.5t-42 291z" />
<glyph unicode="\" horiz-adv-x="1310" d="M197 1526h274l635 -1731h-272z" />
<glyph unicode="]" horiz-adv-x="655" d="M72 -23q53 18 85.5 59.5t50 88.5t23 93t5.5 79v596q0 29 -3.5 82t-18.5 108.5t-48 101.5t-94 62v297q86 -25 165.5 -69.5t142 -119.5t99.5 -184.5t37 -263.5v-561q0 -170 -42 -291t-106.5 -200.5t-143.5 -121.5t-152 -52v296z" />
<glyph unicode="^" horiz-adv-x="1228" d="M154 764l354 747h215l354 -747h-243l-220 504l-219 -504h-241z" />
<glyph unicode="_" horiz-adv-x="1024" d="M0 -154h1016v-100h-1016v100z" />
<glyph unicode="`" horiz-adv-x="860" d="M100 1522l119 217l451 -275l-107 -186z" />
<glyph unicode="a" horiz-adv-x="1351" d="M57 565q0 125 43 235.5t118 192.5t174.5 129t213.5 47q117 0 219.5 -50t178.5 -138v149h249v-1130h-249v150q-76 -88 -178.5 -138.5t-219.5 -50.5q-115 0 -214 47t-174 129t-118 192.5t-43 235.5zM330 565q0 -74 25.5 -138.5t70.5 -112.5t106.5 -75.5t131.5 -27.5 t129 27.5t103 75.5t69.5 112.5t25.5 138.5t-25.5 138.5t-69.5 113.5t-103.5 77t-128.5 28q-70 0 -131.5 -28t-106.5 -77t-70.5 -113.5t-25.5 -138.5z" />
<glyph unicode="b" horiz-adv-x="1351" d="M96 0v1518h273v-488q72 66 163 102.5t195 36.5q117 0 219.5 -47t179 -129t121.5 -192.5t45 -235.5t-45 -235.5t-121.5 -192.5t-179 -129t-219.5 -47q-104 0 -195.5 37t-162.5 102v-100h-273zM348 565q0 -74 26.5 -138.5t72 -112.5t105.5 -75.5t130 -27.5t131 27.5 t107.5 75.5t74 113t27.5 138q0 74 -27.5 138.5t-74 113.5t-107.5 77t-131 28t-130 -28t-105.5 -77t-72 -113.5t-26.5 -138.5z" />
<glyph unicode="c" horiz-adv-x="1310" d="M78 565q0 125 48 234.5t130 191.5t191.5 130t232.5 48q98 0 188 -30.5t164 -84t129.5 -128t85.5 -162.5h-309q-43 76 -113.5 121t-156.5 45q-66 0 -125.5 -29t-103.5 -78t-69.5 -115.5t-25.5 -142.5q0 -74 25.5 -139.5t68.5 -114.5t101.5 -77.5t124.5 -28.5 q86 0 155.5 45t112.5 119h311q-31 -88 -86 -162t-130 -127t-164 -83t-187 -30q-123 0 -232.5 47t-190.5 128t-128 190.5t-47 232.5z" />
<glyph unicode="d" horiz-adv-x="1351" d="M76 565q0 125 44 235.5t120.5 193.5t179 131.5t219.5 48.5q104 0 193.5 -39t160.5 -105v486h273v-1516h-273v100q-72 -66 -163 -102.5t-195 -36.5q-117 0 -218.5 47t-177 129t-119.5 192.5t-44 235.5zM346 565q0 -74 26.5 -138.5t71.5 -112.5t105.5 -75.5t130.5 -27.5 t130 27.5t105.5 75.5t72 112.5t26.5 138.5t-25.5 139.5t-71 114.5t-104.5 78t-129 29t-131 -29t-107.5 -78t-73 -114.5t-26.5 -139.5z" />
<glyph unicode="e" horiz-adv-x="1310" d="M66 569q0 125 46 234.5t125.5 191.5t187 130.5t228.5 48.5q123 0 229.5 -48.5t186.5 -130.5t126 -191.5t46 -234.5q0 -63 -12 -120h-885q33 -106 117 -175t192 -69q84 0 152.5 41t114.5 108h282q-31 -86 -85 -156.5t-125.5 -121.5t-157.5 -80t-181 -29q-121 0 -228.5 47 t-187 129t-125.5 191.5t-46 234.5zM338 664h633q-25 113 -106 188.5t-212 75.5q-55 0 -106 -20.5t-92 -55.5t-72 -84t-45 -104z" />
<glyph unicode="f" horiz-adv-x="573" d="M33 895v240h96q0 68 22.5 139.5t68.5 130.5t116 98t162 39h75v-266h-21q-41 0 -68 -6q-33 -8 -51.5 -26.5t-26 -46.5t-7.5 -62h160v-240h-160v-895h-270v895h-96z" />
<glyph unicode="g" horiz-adv-x="1351" d="M66 565q0 125 47 235.5t125.5 192.5t183 129t221.5 47t211 -44t160 -126v136h254v-893q0 -182 -48.5 -314.5t-132 -218.5t-199.5 -128t-251 -42q-80 0 -145.5 15.5t-119 42t-95 60.5t-74.5 69q-76 82 -119 188h309q25 -37 62 -64q33 -23 86 -42t131 -19t143.5 30.5 t112.5 82t72.5 117t25.5 133.5q-66 -88 -163 -139.5t-220 -51.5q-117 0 -221.5 47t-183 129t-125.5 192.5t-47 235.5zM336 565q0 -74 26.5 -138.5t71.5 -112.5t105.5 -75.5t130.5 -27.5t130 27.5t105 75.5t72 113t27 138q0 74 -27 138.5t-72 113.5t-105.5 77t-129.5 28 q-70 0 -130.5 -28t-105.5 -77t-71.5 -113.5t-26.5 -138.5z" />
<glyph unicode="h" horiz-adv-x="1228" d="M113 0v1516h270v-472q14 14 42 35t64.5 39.5t84 30.5t102.5 12q31 0 76 -7t93 -27.5t96 -55.5t87 -90t62.5 -134t23.5 -185v-662h-270v571q0 74 -11.5 136.5t-38 108.5t-71.5 71.5t-113 25.5t-111.5 -24.5t-69.5 -67.5t-36 -100t-10 -121v-600h-270z" />
<glyph unicode="i" horiz-adv-x="491" d="M109 0v1133h270v-1133h-270zM109 1264v247h270v-247h-270z" />
<glyph unicode="j" horiz-adv-x="532" d="M37 -113q27 0 47 6.5t34.5 25t21.5 52t7 90.5v1072h273v-1057q0 -111 -29 -195t-80 -141t-121.5 -87t-152.5 -30v264zM147 1264v247h273v-247h-273z" />
<glyph unicode="k" horiz-adv-x="1187" d="M164 0v1518h272v-916l344 526h312l-387 -553l438 -575h-342l-281 399l-84 -137v-262h-272z" />
<glyph unicode="l" horiz-adv-x="491" d="M113 0v1516h270v-1516h-270z" />
<glyph unicode="m" horiz-adv-x="1925" d="M113 0v1137h249v-103q27 39 68 70q35 27 92.5 48.5t136.5 21.5q92 0 177.5 -42t150.5 -139q12 20 38 51t70 60t106.5 49.5t148.5 20.5q223 0 340.5 -129.5t117.5 -397.5v-647h-272v666q0 76 -18.5 127t-49 79.5t-68.5 41t-77 12.5t-80 -13.5t-73.5 -53.5t-53 -115.5 t-20.5 -200.5v-543h-271v610q0 90 -17 150.5t-47 97.5t-72 52.5t-91 15.5t-88 -15.5t-67.5 -55.5t-44 -110.5t-15.5 -181.5v-563h-270z" />
<glyph unicode="n" horiz-adv-x="1228" d="M113 0v1133h249v-99q31 37 78 68q41 25 100.5 46t139.5 21q78 0 155.5 -28.5t140 -90t101.5 -155.5t39 -225v-670h-270v606q0 90 -17.5 150.5t-48 97.5t-72.5 52.5t-92 15.5q-111 0 -172 -77t-61 -247v-598h-270z" />
<glyph unicode="o" horiz-adv-x="1310" d="M55 565q0 125 48.5 235.5t131 192.5t193.5 129t236 47t234.5 -47t191 -129t130 -192.5t48.5 -235.5t-48.5 -235.5t-130 -192.5t-191.5 -129t-234 -47q-125 0 -236 47t-193.5 129t-131 192.5t-48.5 235.5zM326 565q0 -74 27.5 -137t73.5 -111.5t107.5 -76t129.5 -27.5 q70 0 130 27.5t106 76t72.5 111.5t26.5 137t-26.5 137.5t-72.5 111.5t-106.5 76t-129.5 28q-68 0 -129.5 -28t-107.5 -76t-73.5 -111.5t-27.5 -137.5z" />
<glyph unicode="p" horiz-adv-x="1351" d="M98 -377v1512h256v-121q74 72 169 113.5t204 41.5q117 0 218.5 -48t178 -130t120.5 -192.5t44 -235.5t-44 -235.5t-120.5 -192.5t-178 -129t-218.5 -47q-102 0 -193.5 38t-164.5 103v-477h-271zM348 563q0 -74 26.5 -138.5t72 -112.5t105.5 -75.5t130 -27.5t130 27.5 t105.5 75.5t72 112.5t26.5 138.5t-26.5 138.5t-72 113.5t-105.5 77t-130 28t-130 -28t-105.5 -77t-72 -113.5t-26.5 -138.5z" />
<glyph unicode="q" horiz-adv-x="1351" d="M66 563q0 125 44 235.5t120.5 192.5t178 130t218.5 48q109 0 203 -42t169 -113v121h256v-1512h-270v477q-74 -66 -165 -103.5t-193 -37.5q-117 0 -218.5 47t-178 129t-120.5 192.5t-44 235.5zM338 563q0 -74 26.5 -138.5t71.5 -112.5t105.5 -75.5t130.5 -27.5t130 27.5 t105 75.5t72 112.5t27 138.5t-27 138.5t-72 113.5t-105.5 77t-129.5 28q-70 0 -130.5 -28t-105.5 -77t-71.5 -113.5t-26.5 -138.5z" />
<glyph unicode="r" horiz-adv-x="655" d="M129 0v1133h248v-99q12 20 32.5 44t53.5 44.5t78 32.5t104 12v-262q-47 0 -91 -12t-79 -43t-55.5 -83t-20.5 -132v-635h-270z" />
<glyph unicode="s" horiz-adv-x="901" d="M41 356h276q0 -66 42 -105.5t108 -39.5t93.5 32.5t27.5 82.5q0 47 -38 73.5t-93.5 49t-122 46t-121.5 62.5t-93 100.5t-38 159.5q0 94 37 162t94 111t122.5 63.5t125.5 20.5q80 0 147.5 -32t116.5 -82t76.5 -112t27.5 -121h-266q-4 27 -16 50q-10 18 -31.5 33.5 t-58.5 15.5t-71 -28t-34 -77q0 -43 38 -65.5t94.5 -42t122 -40t121.5 -58t94 -98t38 -159.5q0 -100 -37 -174.5t-95 -124t-131 -73t-146 -23.5q-74 0 -147 26.5t-131 77t-95 124t-37 165.5z" />
<glyph unicode="t" horiz-adv-x="614" d="M45 889v239h133v385h271v-385h149v-239h-149v-889h-271v889h-133z" />
<glyph unicode="u" horiz-adv-x="1228" d="M109 461v676h270v-613q0 -90 17.5 -150.5t48 -97t72.5 -52t91 -15.5q111 0 172.5 75.5t61.5 245.5v607h270v-1137h-250v96q-33 -39 -80 -67q-41 -27 -99 -47.5t-138 -20.5q-78 0 -156 28.5t-140.5 90t-101 156t-38.5 225.5z" />
<glyph unicode="v" d="M8 1137h293l272 -762l265 762h297l-449 -1137h-229z" />
<glyph unicode="w" horiz-adv-x="1638" d="M27 1137h292l193 -695l197 695h2h215l198 -693l191 693h293l-400 -1137h-178l-213 754l-217 -754h-182z" />
<glyph unicode="x" d="M10 0l402 582l-351 555h304l206 -349l207 349h303l-350 -555l406 -582h-322l-244 387l-239 -387h-322z" />
<glyph unicode="y" horiz-adv-x="1187" d="M16 1135h310l258 -729l272 729h307l-649 -1512h-291l215 494z" />
<glyph unicode="z" horiz-adv-x="942" d="M39 0v248l500 639h-463v248h786v-248l-500 -639h537l-2 -248h-858z" />
<glyph unicode="{" horiz-adv-x="696" d="M-8 473v203q55 0 98 12q37 10 68.5 36t31.5 75v446q0 74 32 127t76 87t89 50.5t74 16.5h182v-183h-90q-12 0 -26.5 -4t-28 -18t-21.5 -40t-8 -71v-436q0 -37 -15.5 -71.5t-47 -62.5t-79.5 -45t-112 -17q129 0 191.5 -60.5t62.5 -142.5v-461q0 -59 24.5 -89t59.5 -30h90 v-184h-182q-45 0 -93.5 19.5t-87 59.5t-64.5 97t-26 135v410q0 35 -16 61.5t-44 44t-63.5 26.5t-74.5 9z" />
<glyph unicode="|" horiz-adv-x="1228" d="M481 -510v2040h271v-2040h-271z" />
<glyph unicode="}" horiz-adv-x="696" d="M51 -205h92q35 0 59.5 30t24.5 89v461q0 82 62.5 142.5t191.5 60.5q-66 0 -114 17t-79.5 45t-47 62.5t-15.5 71.5v438q0 45 -8 71t-20.5 40t-26.5 18.5t-27 4.5h-92v182h182q29 0 75 -16.5t90 -50.5t76 -87t32 -127v-448q0 -49 30.5 -75t67.5 -36q43 -12 98 -12v-203 q-39 0 -74.5 -9t-62 -26.5t-43 -44t-16.5 -61.5v-410q0 -78 -25.5 -135t-64.5 -97t-88 -59.5t-95 -19.5h-182v184z" />
<glyph unicode="~" horiz-adv-x="1228" d="M125 510l6 10q2 2 20.5 31t53.5 62.5t85 61t113 27.5t123 -21.5t114 -48t103.5 -48t94.5 -21.5q47 0 80.5 20.5t56.5 45.5q27 29 47 65l88 -184q-33 -53 -74 -92q-35 -35 -85 -62.5t-115 -27.5q-63 0 -114.5 21.5t-101 47t-103.5 47t-122 21.5q-45 0 -76.5 -19.5 t-54.5 -42.5q-25 -27 -45 -61z" />
<glyph unicode="&#xa1;" horiz-adv-x="573" d="M154 -377v1125h270v-1125h-270zM154 870v258h270v-258h-270z" />
<glyph unicode="&#xa2;" d="M90 780q0 63 23.5 136t70.5 138.5t115 118t158 74.5v207h254v-209q80 -18 139 -56t101 -86t66.5 -100.5t37.5 -101.5h-285q-23 37 -65.5 65.5t-108.5 28.5q-33 0 -74 -10t-76.5 -36.5t-60.5 -70.5t-25 -112q0 -61 20.5 -102t51.5 -66t67.5 -36t69.5 -11q45 0 76 5 t51.5 15.5t34.5 24.5t27 35h297q-35 -121 -118 -205t-224 -113v-233h-258v229q-82 16 -148.5 58.5t-115 103.5t-75 140t-26.5 169z" />
<glyph unicode="&#xa3;" d="M0 633v256h152v186q0 117 46 204t113.5 144.5t145.5 85t143 27.5q100 0 183 -41t141.5 -104.5t90.5 -140t32 -146.5h-275q-4 49 -24 88q-16 33 -51 60.5t-95 27.5q-61 0 -97 -17.5t-54.5 -50t-23.5 -76.5t-5 -98v-149h409v-256h-409v-377h250q94 0 149.5 58.5t55.5 142.5 q0 10 -3.5 28.5t-7.5 34.5q-6 20 -10 39h270q4 -16 11 -35q4 -16 7 -33.5t3 -35.5q0 -115 -42 -201t-111.5 -142.5t-156.5 -84t-178 -27.5h-507v633h-152z" />
<glyph unicode="&#xa4;" d="M55 475v193h135v61.5t3 54.5h-138v193h140q6 150 54 255t119.5 173t159.5 99.5t179 31.5q113 0 195.5 -33t135.5 -73q63 -47 107 -105l-88 -246q-20 55 -64 101q-37 37 -100.5 68.5t-165.5 31.5q-80 0 -131 -25.5t-80 -68.5t-41 -97.5t-16 -111.5h553v-193h-555v-116h555 v-193h-545q10 -47 28.5 -91t48 -80t70 -57.5t93.5 -21.5q70 0 125 14.5t95 36t66.5 48t36.5 49.5q10 -31 23.5 -74t25.5 -84q14 -47 29 -96q-53 -43 -117 -76q-53 -29 -125.5 -51.5t-158.5 -22.5q-115 0 -204 38t-153.5 105.5t-102.5 160t-50 202.5h-142z" />
<glyph unicode="&#xa5;" d="M-16 1505h278l313 -585l316 585h272l-354 -655h252v-215h-352v-148h352v-213h-352v-274h-271v274h-354v213h354v148h-354v215h254z" />
<glyph unicode="&#xa6;" horiz-adv-x="1228" d="M479 -356v712h271v-712h-271zM479 662v712h271v-712h-271z" />
<glyph unicode="&#xa7;" d="M63 707q0 82 47.5 163.5t135.5 135.5q-31 61 -45.5 101t-14.5 89q0 86 36 149.5t93.5 105.5t131 63.5t147.5 21.5t145.5 -21.5t129 -67.5t97.5 -119t50 -175h-254q-4 37 -23 68q-16 25 -50 46t-93 21q-78 0 -117 -35.5t-39 -78.5q0 -41 37 -73t84 -54q23 -12 68 -34 t94 -46.5l94 -47t70 -36.5t58.5 -39t64 -62t53 -84t22.5 -106t-26.5 -111.5t-57.5 -91.5q-37 -45 -81 -84q27 -27 49 -65q18 -35 34.5 -85.5t16.5 -115.5q0 -70 -32 -135.5t-90 -115.5t-138 -80t-176 -30t-180.5 33t-145.5 91.5t-97 137t-36 171.5h254q0 -59 20.5 -95 t51 -55.5t66.5 -27t69 -7.5t64.5 7.5t57 22.5t42 41t16.5 62q0 47 -40 80t-105 68q-35 18 -86.5 45t-107.5 55.5t-109.5 58t-92.5 54.5q-82 53 -122 129t-40 158zM318.5 709.5q5.5 -27.5 24.5 -49t42 -35.5q27 -18 71 -42t94 -48.5t103.5 -50t96.5 -48.5q51 45 68.5 81 t13 64.5t-24 49t-39.5 35.5q-33 20 -94.5 52t-122.5 62q-72 37 -152 74q-51 -45 -68.5 -81t-12 -63.5z" />
<glyph unicode="&#xa8;" horiz-adv-x="1024" d="M154 1294v271h272v-271h-272zM602 1294v271h270v-271h-270z" />
<glyph unicode="&#xa9;" horiz-adv-x="1515" d="M-18 754q0 162 60 303t165.5 246.5t247 167t301.5 61.5t301 -61.5t246.5 -167t166 -247t60.5 -302.5q0 -162 -60.5 -303.5t-166 -247t-247 -167t-300.5 -61.5q-160 0 -301.5 61.5t-247 167t-165.5 247t-60 303.5zM156 754q0 -125 47 -235.5t128 -192.5t190.5 -129 t234.5 -47t233.5 47t190.5 129t129 192.5t47 235.5t-47 234.5t-129 191.5t-190.5 129t-233.5 47t-234.5 -47t-190.5 -129t-128 -191.5t-47 -234.5zM332 756q0 86 28.5 170t84 148.5t136.5 104.5t187 40t180 -37t121 -88.5t68.5 -102.5t21.5 -82h-182q-8 23 -22.5 50.5 t-39 51t-60.5 40t-87 16.5t-97 -18.5t-81 -57.5t-55.5 -97t-20.5 -138t21.5 -139.5t56.5 -97.5t78 -56.5t86 -18.5q84 0 136 30t85 126h182q0 -23 -19.5 -74t-64.5 -103t-119.5 -92t-187.5 -40t-194.5 40t-136 105.5t-80 148.5t-25.5 171z" />
<glyph unicode="&#xaa;" horiz-adv-x="737" d="M43 1217q0 70 24.5 128t66.5 101t97.5 66.5t114.5 23.5q39 0 68.5 -11.5t50.5 -25.5q23 -16 41 -37v54h178v-605h-178v52q-12 -20 -35 -37q-18 -14 -49 -24.5t-76 -10.5q-66 0 -121 24.5t-96 68.5t-63.5 103.5t-22.5 129.5zM219 1210q0 -63 43 -107t105 -44q59 0 102 44 t43 107q0 66 -43 110t-102 44q-61 0 -104.5 -44t-43.5 -110z" />
<glyph unicode="&#xab;" horiz-adv-x="942" d="M129 485v207l285 262v-249l-138 -117l138 -119v-250zM535 485v207l284 262v-249l-137 -117l137 -119v-250z" />
<glyph unicode="&#xac;" horiz-adv-x="1228" d="M104 621v243h1026v-645h-243v402h-783z" />
<glyph unicode="&#xad;" horiz-adv-x="860" d="M145 467v242h566v-242h-566z" />
<glyph unicode="&#xae;" horiz-adv-x="1515" d="M-12 754q0 162 60.5 303t165.5 246.5t246.5 167t301.5 61.5t301 -61.5t246.5 -167t166 -247t60.5 -302.5q0 -162 -60.5 -303.5t-166 -247t-246.5 -167t-301 -61.5t-301.5 61.5t-246.5 167t-165.5 247t-60.5 303.5zM162 754q0 -125 47 -235.5t128 -192.5t190.5 -129 t234.5 -47t233.5 47t190.5 129t129 192.5t47 235.5t-47 234.5t-129 191.5t-190.5 129t-233.5 47t-234.5 -47t-190.5 -129t-128 -191.5t-47 -234.5zM434 301v889h373q55 0 111.5 -11.5t100.5 -39t72.5 -73.5t28.5 -118t-25.5 -113.5t-56 -63t-56.5 -29t-26 -9.5t22.5 -8 t50.5 -25.5t50.5 -55.5t22.5 -95q0 -88 4 -137.5t10 -73.5q8 -29 17 -37h-181q-23 23 -22.5 70t-3.5 94q-2 25 -3 57.5t-15.5 62t-48.5 51t-101 21.5h-148v-356h-176zM610 799h160q96 0 133 35.5t37 91.5q0 53 -29.5 87t-105.5 34h-195v-248z" />
<glyph unicode="&#xaf;" horiz-adv-x="860" d="M152 1319v225h563v-225h-563z" />
<glyph unicode="&#xb0;" horiz-adv-x="819" d="M121 1165q0 59 22.5 112.5t62.5 93.5t93 62.5t113 22.5q59 0 112.5 -22.5t93 -62.5t62 -93t22.5 -113q0 -59 -22.5 -112.5t-62 -93t-93 -62.5t-112.5 -23t-112.5 23t-93.5 62.5t-62.5 93t-22.5 112.5zM262 1165q0 -63 44 -107t106 -44q63 0 107 44t44 107q0 61 -44 105.5 t-107 44.5q-61 0 -105.5 -44.5t-44.5 -105.5z" />
<glyph unicode="&#xb1;" horiz-adv-x="1228" d="M104 117h1026v-244h-1026v244zM104 569v244h392v317h243v-317h391v-244h-391v-305h-243v305h-392z" />
<glyph unicode="&#xb2;" horiz-adv-x="688" d="M33 1186q-6 47 9 106.5t54 110.5t100.5 86t147.5 35t146.5 -32t98.5 -77t54 -93t16 -81q0 -59 -15 -104t-36.5 -81t-46 -61.5t-45.5 -44.5q-20 -20 -53 -48l-66 -56q-37 -33 -78 -68h340v-176h-618v166q66 59 127 115q53 47 107.5 98t89.5 86q33 33 53 56.5t29.5 42 t12.5 37t3 42.5q0 25 -11.5 43.5t-27.5 32.5t-35.5 21.5t-36.5 7.5q-70 0 -98.5 -46.5t-28.5 -117.5h-192z" />
<glyph unicode="&#xb3;" horiz-adv-x="688" d="M18 885h195q0 -61 44 -93t89 -32t86 32.5t41 94.5q0 31 -9 57.5t-31.5 46t-61.5 28.5t-99 5v174h21q10 0 19.5 1t19.5 1q41 0 58.5 23.5t17.5 54.5t-15.5 50.5t-42.5 19.5q-29 0 -49 -12.5t-20 -59.5h-195q0 39 15.5 83t46 81t78.5 60.5t116 23.5q66 0 115 -25.5 t80.5 -62.5t48 -78t16.5 -74q0 -63 -20.5 -99t-49.5 -65q16 -10 40 -26.5t45.5 -43t37 -66.5t15.5 -95t-22.5 -109.5t-65.5 -98.5t-104.5 -70.5t-137.5 -26.5q-78 0 -137.5 25.5t-100.5 67.5t-62.5 96t-21.5 112z" />
<glyph unicode="&#xb4;" horiz-adv-x="860" d="M180 1456l453 275l115 -209l-459 -254z" />
<glyph unicode="&#xb6;" horiz-adv-x="1228" d="M-6 1130q0 92 38 163t105.5 118t158.5 70.5t196 23.5h751v-209h-162v-1505h-229v1505h-197v-1505h-231v932q-113 0 -193.5 28.5t-133 82t-78 128t-25.5 168.5z" />
<glyph unicode="&#xb7;" horiz-adv-x="573" d="M152 381v270h270v-270h-270z" />
<glyph unicode="&#xb8;" horiz-adv-x="696" d="M205 -334h106q0 -27 29 -51.5t68 -24.5t66.5 26t27.5 73q0 45 -30 73.5t-66 28.5q-27 0 -43.5 -7t-26.5 -15q-12 -10 -19 -23l-98 39l98 227l103 -14l-49 -111q10 0 18 2q8 0 16.5 1t16.5 1q31 0 63.5 -11t60 -35.5t46 -62.5t18.5 -93t-19.5 -93t-49 -63t-65.5 -36 t-66 -11q-43 0 -81 16.5t-65.5 42t-43 57t-15.5 64.5z" />
<glyph unicode="&#xb9;" horiz-adv-x="688" d="M150 1331v174h307v-903h-195v729h-112z" />
<glyph unicode="&#xba;" horiz-adv-x="737" d="M49 1210q0 68 25.5 127.5t68.5 103.5t101.5 69.5t126.5 25.5t126 -25.5t101 -69.5t68.5 -103.5t25.5 -127.5t-25.5 -126t-68.5 -102t-101.5 -69.5t-125.5 -25.5q-68 0 -126.5 25.5t-101.5 69.5t-68.5 102t-25.5 126zM231 1210q0 -63 41 -107t99 -44q59 0 99 44t40 107 q0 66 -40 110t-99 44q-57 0 -98.5 -44t-41.5 -110z" />
<glyph unicode="&#xbb;" horiz-adv-x="942" d="M131 219v250l139 119l-139 117v249l285 -262v-207zM535 219v250l139 119l-139 117v249l284 -262v-207z" />
<glyph unicode="&#xbc;" horiz-adv-x="1720" d="M195 1331v174h307v-903h-195v729h-112zM389 0l623 1505h200l-624 -1505h-199zM842 133v141l430 629h155v-604h99v-166h-99v-133h-184v133h-401zM1042 299h201v330z" />
<glyph unicode="&#xbd;" horiz-adv-x="1720" d="M123 1331v174h307v-903h-194v729h-113zM322 0l622 1505h201l-625 -1505h-198zM944 584q-6 47 9.5 106.5t53 110.5t100 86t148.5 35t145.5 -32t97.5 -77t54.5 -93t16.5 -81q0 -59 -14.5 -104.5t-36 -81t-46 -62t-45.5 -45.5q-23 -18 -54.5 -47t-63.5 -57q-37 -33 -78 -68 h340v-174h-619v164q66 61 127 117q53 47 107.5 98t89.5 86q33 33 53.5 56.5t29.5 42t12 36.5t3 43t-11 43.5t-28.5 31.5t-37 20t-33.5 7q-72 0 -99.5 -44.5t-27.5 -116.5h-193z" />
<glyph unicode="&#xbe;" horiz-adv-x="1673" d="M41 885h195q0 -61 44 -93t89 -32t86 32.5t41 94.5q0 31 -9.5 57.5t-32 46t-61.5 28.5t-98 5v174h20q10 0 19.5 1t19.5 1q41 0 58.5 23.5t17.5 54.5t-15.5 50.5t-41.5 19.5q-29 0 -49.5 -12.5t-20.5 -59.5h-194q0 39 15 83t46 81t79 60.5t116 23.5q66 0 114.5 -25.5 t80.5 -62.5t48.5 -78t16.5 -74q0 -63 -20.5 -99t-49.5 -65q16 -10 39.5 -26.5t45.5 -43t37 -66.5t15 -95t-22.5 -109.5t-65.5 -98.5t-104.5 -70.5t-137.5 -26.5q-78 0 -137 25.5t-100 67.5t-62.5 96t-21.5 112zM506 0l622 1505h201l-624 -1505h-199zM958 133v141l431 629 h155v-604h98v-166h-98v-133h-184v133h-402zM1159 299h201v330z" />
<glyph unicode="&#xbf;" d="M141 53q0 63 18.5 115.5t48.5 95.5t66.5 81t73.5 77q35 37 59.5 62.5t40 57t22.5 80t7 128.5h273q0 -127 -25 -212t-62.5 -143.5t-80.5 -97.5t-81 -74t-62.5 -72.5t-24.5 -93.5q0 -88 46 -141t144 -53q49 0 85 17.5t58.5 45t34 63.5t11.5 74h272q0 -115 -45 -202.5 t-113.5 -147t-151.5 -90.5t-159 -31q-104 0 -189 36t-143.5 98.5t-90.5 146.5t-32 180zM477 858v270h273v-270h-273z" />
<glyph unicode="&#xc0;" horiz-adv-x="1515" d="M16 0l627 1520h219l631 -1520h-307l-154 391h-559l-149 -391h-308zM473 1909l119 217l451 -275l-107 -186zM573 651h357l-180 463z" />
<glyph unicode="&#xc1;" horiz-adv-x="1515" d="M16 0l627 1520h219l631 -1520h-307l-154 391h-559l-149 -391h-308zM473 1843l453 275l115 -209l-459 -254zM573 651h357l-180 463z" />
<glyph unicode="&#xc2;" horiz-adv-x="1515" d="M16 0l627 1520h219l631 -1520h-307l-154 391h-559l-149 -391h-308zM352 1679l302 281h213l296 -281h-294l-107 131l-115 -131h-295zM573 651h357l-180 463z" />
<glyph unicode="&#xc3;" horiz-adv-x="1515" d="M16 0l627 1520h219l631 -1520h-307l-154 391h-559l-149 -391h-308zM356 1857q35 23 72 43q33 16 75 31t89 15q45 0 84 -9.5t73.5 -20.5t68.5 -20.5t73 -9.5t67.5 6t48.5 17q23 10 39 24l111 -157q-27 -27 -64 -50q-31 -18 -73.5 -32.5t-95.5 -14.5q-41 0 -75 8.5 t-67 19.5t-68.5 19.5t-84.5 8.5q-37 0 -66 -6.5t-51 -14.5q-25 -8 -45 -20zM573 651h357l-180 463z" />
<glyph unicode="&#xc4;" horiz-adv-x="1515" d="M16 0l627 1520h219l631 -1520h-307l-154 391h-559l-149 -391h-308zM398 1681v271h272v-271h-272zM573 651h357l-180 463zM846 1681v271h270v-271h-270z" />
<glyph unicode="&#xc5;" horiz-adv-x="1515" d="M16 0l627 1520h219l631 -1520h-307l-154 391h-559l-149 -391h-308zM534 1866q0 45 17.5 85t47.5 69.5t70 47t87 17.5q45 0 86 -17.5t71.5 -47t48 -69.5t17.5 -85q0 -47 -17.5 -87t-48 -70t-71.5 -47.5t-86 -17.5q-47 0 -87 17.5t-70 47.5t-47.5 70t-17.5 87zM573 651h357 l-180 463zM674 1866q0 -35 23.5 -58.5t58.5 -23.5t58.5 23.5t23.5 58.5t-24 57.5t-58 22.5q-35 0 -58.5 -22.5t-23.5 -57.5z" />
<glyph unicode="&#xc6;" horiz-adv-x="1755" d="M0 0l995 1505h693v-260h-449v-368h426v-261h-426v-356h449v-260h-727v389h-400l-233 -389h-328zM727 649h234l2 412z" />
<glyph unicode="&#xc7;" horiz-adv-x="1597" d="M72 754q0 162 61.5 304t168 248.5t248.5 168t304 61.5q119 0 228.5 -34t201.5 -93t164 -144t119 -186h-328q-68 92 -169 144.5t-220 52.5q-102 0 -193.5 -41t-159 -111.5t-106.5 -166t-39 -203.5q0 -109 39 -203t106.5 -165t159 -112t193.5 -41q117 0 215 49.5t168 135.5 h330q-47 -98 -120 -180t-165 -141.5t-199.5 -92.5t-224.5 -33q-4 0 -9 1t-9 1l-37 -86q10 0 18 2q8 0 16.5 1t16.5 1q31 0 63.5 -11t60 -35.5t46 -62.5t18.5 -93t-19.5 -93t-49 -63t-65.5 -36t-66 -11q-43 0 -81 16.5t-65.5 42t-43 57t-15.5 64.5h106q0 -27 29 -51.5 t68 -24.5t66.5 26t27.5 73q0 45 -30 73.5t-66 28.5q-27 0 -43.5 -7t-26.5 -15q-12 -10 -19 -23l-98 39l84 197q-139 20 -260 88.5t-210 172t-139 233.5t-50 278z" />
<glyph unicode="&#xc8;" horiz-adv-x="1064" d="M131 0v1518h809v-261h-530v-376h508v-265h-508v-356h530v-260h-809zM247 1909l119 217l451 -275l-107 -186z" />
<glyph unicode="&#xc9;" horiz-adv-x="1064" d="M131 0v1518h809v-261h-530v-376h508v-265h-508v-356h530v-260h-809zM248 1843l453 275l115 -209l-459 -254z" />
<glyph unicode="&#xca;" horiz-adv-x="1064" d="M129 1679l302 281h213l296 -281h-294l-107 131l-115 -131h-295zM131 0v1518h809v-261h-530v-376h508v-265h-508v-356h530v-260h-809z" />
<glyph unicode="&#xcb;" horiz-adv-x="1064" d="M131 0v1518h809v-261h-530v-376h508v-265h-508v-356h530v-260h-809zM172 1681v271h272v-271h-272zM620 1681v271h270v-271h-270z" />
<glyph unicode="&#xcc;" horiz-adv-x="573" d="M4 1909l119 217l451 -275l-107 -186zM147 0v1518h281v-1518h-281z" />
<glyph unicode="&#xcd;" horiz-adv-x="573" d="M6 1843l453 275l115 -209l-459 -254zM147 0v1518h281v-1518h-281z" />
<glyph unicode="&#xce;" horiz-adv-x="573" d="M-117 1679l302 281h213l296 -281h-294l-107 131l-115 -131h-295zM147 0v1518h281v-1518h-281z" />
<glyph unicode="&#xcf;" horiz-adv-x="573" d="M-69 1681v271h272v-271h-272zM147 0v1518h281v-1518h-281zM379 1681v271h270v-271h-270z" />
<glyph unicode="&#xd0;" horiz-adv-x="1433" d="M51 657v242h148v606h389q154 0 300 -41t262 -129t185.5 -229t69.5 -340q0 -201 -69.5 -345.5t-178 -237.5t-242 -138t-262.5 -45h-454v657h-148zM477 260h41.5t29.5 1t26.5 1h33.5q129 0 226.5 39t162 106.5t97 155.5t32.5 187q0 88 -31.5 176t-95 158.5t-157.5 114.5 t-217 44h-42t-45.5 1t-39 1h-21.5v-346h283v-242h-283v-397z" />
<glyph unicode="&#xd1;" horiz-adv-x="1515" d="M145 0v1518h318l637 -1121v1121h278v-1518h-311l-643 1112v-1112h-279zM356 1857q35 23 72 43q33 16 75 31t89 15q45 0 84 -9.5t73.5 -20.5t68.5 -20.5t73 -9.5t67.5 6t48.5 17q23 10 39 24l111 -157q-27 -27 -64 -50q-31 -18 -73.5 -32.5t-95.5 -14.5q-41 0 -75 8.5 t-67 19.5t-68.5 19.5t-84.5 8.5q-37 0 -66 -6.5t-51 -14.5q-25 -8 -45 -20z" />
<glyph unicode="&#xd2;" horiz-adv-x="1720" d="M70 752q0 162 61.5 305t169 250.5t250.5 170t307 62.5q162 0 305.5 -62.5t251 -170t169 -251t61.5 -304.5q0 -162 -61.5 -304.5t-169 -248t-251 -167t-305.5 -61.5q-164 0 -307 61.5t-250.5 167t-169 248t-61.5 304.5zM348 752q0 -109 40 -204t108.5 -166t162 -112 t199.5 -41q104 0 197.5 41t163 112t109.5 166t40 204t-40 205t-109.5 168.5t-162.5 115.5t-198 43q-106 0 -199.5 -43t-162 -115.5t-108.5 -168.5t-40 -205zM575 1909l119 217l451 -275l-107 -186z" />
<glyph unicode="&#xd3;" horiz-adv-x="1720" d="M70 752q0 162 61.5 305t169 250.5t250.5 170t307 62.5q162 0 305.5 -62.5t251 -170t169 -251t61.5 -304.5q0 -162 -61.5 -304.5t-169 -248t-251 -167t-305.5 -61.5q-164 0 -307 61.5t-250.5 167t-169 248t-61.5 304.5zM348 752q0 -109 40 -204t108.5 -166t162 -112 t199.5 -41q104 0 197.5 41t163 112t109.5 166t40 204t-40 205t-109.5 168.5t-162.5 115.5t-198 43q-106 0 -199.5 -43t-162 -115.5t-108.5 -168.5t-40 -205zM575 1843l453 275l115 -209l-459 -254z" />
<glyph unicode="&#xd4;" horiz-adv-x="1720" d="M70 752q0 162 61.5 305t169 250.5t250.5 170t307 62.5q162 0 305.5 -62.5t251 -170t169 -251t61.5 -304.5q0 -162 -61.5 -304.5t-169 -248t-251 -167t-305.5 -61.5q-164 0 -307 61.5t-250.5 167t-169 248t-61.5 304.5zM348 752q0 -109 40 -204t108.5 -166t162 -112 t199.5 -41q104 0 197.5 41t163 112t109.5 166t40 204t-40 205t-109.5 168.5t-162.5 115.5t-198 43q-106 0 -199.5 -43t-162 -115.5t-108.5 -168.5t-40 -205zM454 1679l302 281h213l296 -281h-294l-107 131l-115 -131h-295z" />
<glyph unicode="&#xd5;" horiz-adv-x="1720" d="M70 752q0 162 61.5 305t169 250.5t250.5 170t307 62.5q162 0 305.5 -62.5t251 -170t169 -251t61.5 -304.5q0 -162 -61.5 -304.5t-169 -248t-251 -167t-305.5 -61.5q-164 0 -307 61.5t-250.5 167t-169 248t-61.5 304.5zM348 752q0 -109 40 -204t108.5 -166t162 -112 t199.5 -41q104 0 197.5 41t163 112t109.5 166t40 204t-40 205t-109.5 168.5t-162.5 115.5t-198 43q-106 0 -199.5 -43t-162 -115.5t-108.5 -168.5t-40 -205zM459 1857q35 23 72 43q33 16 75 31t89 15q45 0 84 -9.5t73.5 -20.5t68.5 -20.5t73 -9.5t67.5 6t48.5 17 q23 10 39 24l111 -157q-27 -27 -64 -50q-31 -18 -73.5 -32.5t-95.5 -14.5q-41 0 -75 8.5t-67 19.5t-68.5 19.5t-84.5 8.5q-37 0 -66 -6.5t-51 -14.5q-25 -8 -45 -20z" />
<glyph unicode="&#xd6;" horiz-adv-x="1720" d="M70 752q0 162 61.5 305t169 250.5t250.5 170t307 62.5q162 0 305.5 -62.5t251 -170t169 -251t61.5 -304.5q0 -162 -61.5 -304.5t-169 -248t-251 -167t-305.5 -61.5q-164 0 -307 61.5t-250.5 167t-169 248t-61.5 304.5zM348 752q0 -109 40 -204t108.5 -166t162 -112 t199.5 -41q104 0 197.5 41t163 112t109.5 166t40 204t-40 205t-109.5 168.5t-162.5 115.5t-198 43q-106 0 -199.5 -43t-162 -115.5t-108.5 -168.5t-40 -205zM500 1681v271h272v-271h-272zM948 1681v271h270v-271h-270z" />
<glyph unicode="&#xd7;" horiz-adv-x="1228" d="M123 190l323 324l-323 324l166 168l323 -324l324 324l168 -168l-324 -324l324 -324l-168 -165l-324 323l-323 -323z" />
<glyph unicode="&#xd8;" horiz-adv-x="1720" d="M74 754q0 162 61.5 303t169 247.5t250.5 168t307 61.5q88 0 170 -18.5t156 -53.5l133 195l201 -141l-129 -187q119 -109 187.5 -256t68.5 -319q0 -162 -61.5 -304.5t-169 -248t-251 -167t-305.5 -61.5q-180 0 -342 76l-123 -180l-200 139l122 180q-115 106 -180 252 t-65 314zM352 754q0 -98 32 -184.5t89 -155.5l565 829q-88 33 -176 33q-106 0 -199.5 -41t-162 -111.5t-108.5 -165.5t-40 -204zM670 268q94 -39 192 -39q104 0 197.5 41t163 113t109.5 167t40 204q0 100 -36 189t-97 161z" />
<glyph unicode="&#xd9;" horiz-adv-x="1310" d="M115 541v975h278v-967q0 -63 11.5 -120.5t40 -101.5t79.5 -71t129 -27t128 28t80 73t41 102t11 117v967h279v-992q0 -131 -41 -233.5t-113.5 -174t-171 -109.5t-211.5 -38q-109 0 -206 35t-171.5 106.5t-118.5 178t-44 252.5zM370 1909l119 217l451 -275l-107 -186z" />
<glyph unicode="&#xda;" horiz-adv-x="1310" d="M115 541v975h278v-967q0 -63 11.5 -120.5t40 -101.5t79.5 -71t129 -27t128 28t80 73t41 102t11 117v967h279v-992q0 -131 -41 -233.5t-113.5 -174t-171 -109.5t-211.5 -38q-109 0 -206 35t-171.5 106.5t-118.5 178t-44 252.5zM370 1843l453 275l115 -209l-459 -254z" />
<glyph unicode="&#xdb;" horiz-adv-x="1310" d="M115 541v975h278v-967q0 -63 11.5 -120.5t40 -101.5t79.5 -71t129 -27t128 28t80 73t41 102t11 117v967h279v-992q0 -131 -41 -233.5t-113.5 -174t-171 -109.5t-211.5 -38q-109 0 -206 35t-171.5 106.5t-118.5 178t-44 252.5zM249 1679l302 281h213l296 -281h-294 l-107 131l-115 -131h-295z" />
<glyph unicode="&#xdc;" horiz-adv-x="1310" d="M115 541v975h278v-967q0 -63 11.5 -120.5t40 -101.5t79.5 -71t129 -27t128 28t80 73t41 102t11 117v967h279v-992q0 -131 -41 -233.5t-113.5 -174t-171 -109.5t-211.5 -38q-109 0 -206 35t-171.5 106.5t-118.5 178t-44 252.5zM295 1681v271h272v-271h-272zM743 1681v271 h270v-271h-270z" />
<glyph unicode="&#xdd;" horiz-adv-x="1269" d="M-2 1505h305l328 -676l330 676h307l-498 -934v-571h-278v571zM459 1815l452 274l115 -209l-459 -254z" />
<glyph unicode="&#xde;" d="M152 0v1505h278v-291q47 2 110.5 3.5t106.5 1.5q88 0 172 -32t149.5 -92.5t105.5 -146.5t40 -192q0 -109 -36 -195t-98 -146.5t-146 -92t-181 -31.5q-82 0 -135 -1t-88 -3v-287h-278zM430 551q35 0 84 1t90 1q104 0 168 55.5t64 147.5q0 90 -57.5 145t-160.5 55h-188 v-405z" />
<glyph unicode="&#xdf;" horiz-adv-x="1277" d="M111 0v1051q0 102 37.5 190t100 153.5t145.5 103.5t175 38t172 -35t139.5 -93t93.5 -136t34 -164q0 -74 -21.5 -126t-46.5 -87q-31 -39 -68 -64q90 -23 162 -75q31 -23 60.5 -53.5t52 -72.5t37 -95.5t14.5 -120.5q0 -135 -45 -222.5t-112.5 -137.5t-147.5 -70.5 t-150 -20.5t-122 5t-86 14q-41 8 -72 18l57 262q43 -16 84 -26q35 -10 73 -17.5t66 -7.5q29 0 62 14.5t60.5 41t45 63.5t17.5 84q0 45 -16.5 87t-59.5 73.5t-120 50t-200 18.5v240q104 0 153.5 61.5t49.5 153.5t-48 141t-124 49q-37 0 -69.5 -11t-57 -39t-39 -74t-14.5 -115 v-1049h-272z" />
<glyph unicode="&#xe0;" horiz-adv-x="1351" d="M57 565q0 125 43 235.5t118 192.5t174.5 129t213.5 47q117 0 219.5 -50t178.5 -138v149h249v-1130h-249v150q-76 -88 -178.5 -138.5t-219.5 -50.5q-115 0 -214 47t-174 129t-118 192.5t-43 235.5zM330 565q0 -74 25.5 -138.5t70.5 -112.5t106.5 -75.5t131.5 -27.5 t129 27.5t103 75.5t69.5 112.5t25.5 138.5t-25.5 138.5t-69.5 113.5t-103.5 77t-128.5 28q-70 0 -131.5 -28t-106.5 -77t-70.5 -113.5t-25.5 -138.5zM391 1522l119 217l451 -275l-107 -186z" />
<glyph unicode="&#xe1;" horiz-adv-x="1351" d="M57 565q0 125 43 235.5t118 192.5t174.5 129t213.5 47q117 0 219.5 -50t178.5 -138v149h249v-1130h-249v150q-76 -88 -178.5 -138.5t-219.5 -50.5q-115 0 -214 47t-174 129t-118 192.5t-43 235.5zM330 565q0 -74 25.5 -138.5t70.5 -112.5t106.5 -75.5t131.5 -27.5 t129 27.5t103 75.5t69.5 112.5t25.5 138.5t-25.5 138.5t-69.5 113.5t-103.5 77t-128.5 28q-70 0 -131.5 -28t-106.5 -77t-70.5 -113.5t-25.5 -138.5zM391 1456l453 275l115 -209l-459 -254z" />
<glyph unicode="&#xe2;" horiz-adv-x="1351" d="M57 565q0 125 43 235.5t118 192.5t174.5 129t213.5 47q117 0 219.5 -50t178.5 -138v149h249v-1130h-249v150q-76 -88 -178.5 -138.5t-219.5 -50.5q-115 0 -214 47t-174 129t-118 192.5t-43 235.5zM270 1292l302 281h213l296 -281h-294l-107 131l-115 -131h-295zM330 565 q0 -74 25.5 -138.5t70.5 -112.5t106.5 -75.5t131.5 -27.5t129 27.5t103 75.5t69.5 112.5t25.5 138.5t-25.5 138.5t-69.5 113.5t-103.5 77t-128.5 28q-70 0 -131.5 -28t-106.5 -77t-70.5 -113.5t-25.5 -138.5z" />
<glyph unicode="&#xe3;" horiz-adv-x="1351" d="M57 565q0 125 43 235.5t118 192.5t174.5 129t213.5 47q117 0 219.5 -50t178.5 -138v149h249v-1130h-249v150q-76 -88 -178.5 -138.5t-219.5 -50.5q-115 0 -214 47t-174 129t-118 192.5t-43 235.5zM274 1470q35 23 72 43q33 16 75 31t89 15q45 0 84 -9.5t73.5 -20.5 t68.5 -20.5t73 -9.5t67.5 6t48.5 17q23 10 39 24l111 -157q-27 -27 -64 -50q-31 -18 -73.5 -32.5t-95.5 -14.5q-41 0 -75 8.5t-67 19.5t-68.5 19.5t-84.5 8.5q-37 0 -66 -6.5t-51 -14.5q-25 -8 -45 -20zM330 565q0 -74 25.5 -138.5t70.5 -112.5t106.5 -75.5t131.5 -27.5 t129 27.5t103 75.5t69.5 112.5t25.5 138.5t-25.5 138.5t-69.5 113.5t-103.5 77t-128.5 28q-70 0 -131.5 -28t-106.5 -77t-70.5 -113.5t-25.5 -138.5z" />
<glyph unicode="&#xe4;" horiz-adv-x="1351" d="M57 565q0 125 43 235.5t118 192.5t174.5 129t213.5 47q117 0 219.5 -50t178.5 -138v149h249v-1130h-249v150q-76 -88 -178.5 -138.5t-219.5 -50.5q-115 0 -214 47t-174 129t-118 192.5t-43 235.5zM316 1294v271h272v-271h-272zM330 565q0 -74 25.5 -138.5t70.5 -112.5 t106.5 -75.5t131.5 -27.5t129 27.5t103 75.5t69.5 112.5t25.5 138.5t-25.5 138.5t-69.5 113.5t-103.5 77t-128.5 28q-70 0 -131.5 -28t-106.5 -77t-70.5 -113.5t-25.5 -138.5zM764 1294v271h270v-271h-270z" />
<glyph unicode="&#xe5;" horiz-adv-x="1351" d="M57 565q0 125 43 235.5t118 192.5t174.5 129t213.5 47q117 0 219.5 -50t178.5 -138v149h249v-1130h-249v150q-76 -88 -178.5 -138.5t-219.5 -50.5q-115 0 -214 47t-174 129t-118 192.5t-43 235.5zM330 565q0 -74 25.5 -138.5t70.5 -112.5t106.5 -75.5t131.5 -27.5 t129 27.5t103 75.5t69.5 112.5t25.5 138.5t-25.5 138.5t-69.5 113.5t-103.5 77t-128.5 28q-70 0 -131.5 -28t-106.5 -77t-70.5 -113.5t-25.5 -138.5zM452 1479q0 45 17.5 85t47.5 69.5t70 47t87 17.5q45 0 86 -17.5t71.5 -47t48 -69.5t17.5 -85q0 -47 -17.5 -87t-48 -70 t-71.5 -47.5t-86 -17.5q-47 0 -87 17.5t-70 47.5t-47.5 70t-17.5 87zM592 1479q0 -35 23.5 -58.5t58.5 -23.5t58.5 23.5t23.5 58.5t-24 57.5t-58 22.5q-35 0 -58.5 -22.5t-23.5 -57.5z" />
<glyph unicode="&#xe6;" horiz-adv-x="2220" d="M47 565q0 125 43 235.5t118 192.5t174 129t214 47q117 0 219.5 -50t177.5 -138v145h250v-67q72 53 157 81.5t181 28.5q123 0 229.5 -47t186.5 -129t126 -190.5t46 -233.5q0 -63 -12 -120h-885q33 -106 117 -175t192 -69q84 0 152.5 41t113.5 108h283q-31 -86 -85 -156.5 t-126 -121.5t-158 -80t-180 -29q-96 0 -181 29t-157 80v-76h-250v150q-76 -88 -178 -138.5t-219 -50.5q-115 0 -214 47t-174 129t-118 192.5t-43 235.5zM319 565q0 -74 26 -138.5t71 -112.5t106.5 -75.5t130.5 -27.5q70 0 130.5 27.5t105.5 75.5t70.5 112.5t25.5 138.5 t-25.5 138.5t-70.5 113.5t-105.5 77t-130.5 28t-131 -28t-106 -77t-71 -113.5t-26 -138.5zM1266 664h632q-25 113 -105.5 186.5t-211.5 73.5q-113 0 -199 -74t-116 -186z" />
<glyph unicode="&#xe7;" horiz-adv-x="1310" d="M78 565q0 125 47 233.5t128 190.5t190.5 129t232.5 47q98 0 188 -30.5t164 -84t129 -128t86 -162.5h-309q-43 76 -113.5 121t-156.5 45q-66 0 -124.5 -28t-101.5 -77t-68.5 -114.5t-25.5 -141.5q0 -74 25.5 -139.5t68.5 -114.5t101.5 -77.5t124.5 -28.5q86 0 155.5 45 t112.5 119h311q-31 -88 -86 -162t-130 -127t-164 -83t-187 -30h-4l-35 -80q10 0 18 2q8 0 16.5 1t16.5 1q31 0 63.5 -11t60.5 -35.5t46.5 -62.5t18.5 -93t-19.5 -93t-49.5 -63t-65.5 -36t-66.5 -11q-43 0 -81 16.5t-65.5 42t-43 57t-15.5 64.5h107q0 -27 28.5 -51.5 t67.5 -24.5t66.5 26t27.5 73q0 45 -29.5 73.5t-66.5 28.5q-27 0 -43.5 -7t-26.5 -15q-12 -10 -18 -23l-99 39l82 192q-104 18 -193 71.5t-155.5 131.5t-103.5 176.5t-37 208.5z" />
<glyph unicode="&#xe8;" horiz-adv-x="1310" d="M66 569q0 125 46 234.5t125.5 191.5t187 130.5t228.5 48.5q123 0 229.5 -48.5t186.5 -130.5t126 -191.5t46 -234.5q0 -63 -12 -120h-885q33 -106 117 -175t192 -69q84 0 152.5 41t114.5 108h282q-31 -86 -85 -156.5t-125.5 -121.5t-157.5 -80t-181 -29q-121 0 -228.5 47 t-187 129t-125.5 191.5t-46 234.5zM338 664h633q-25 113 -106 188.5t-212 75.5q-55 0 -106 -20.5t-92 -55.5t-72 -84t-45 -104zM370 1522l119 217l451 -275l-107 -186z" />
<glyph unicode="&#xe9;" horiz-adv-x="1310" d="M66 569q0 125 46 234.5t125.5 191.5t187 130.5t228.5 48.5q123 0 229.5 -48.5t186.5 -130.5t126 -191.5t46 -234.5q0 -63 -12 -120h-885q33 -106 117 -175t192 -69q84 0 152.5 41t114.5 108h282q-31 -86 -85 -156.5t-125.5 -121.5t-157.5 -80t-181 -29q-121 0 -228.5 47 t-187 129t-125.5 191.5t-46 234.5zM338 664h633q-25 113 -106 188.5t-212 75.5q-55 0 -106 -20.5t-92 -55.5t-72 -84t-45 -104zM370 1456l453 275l115 -209l-459 -254z" />
<glyph unicode="&#xea;" horiz-adv-x="1310" d="M66 569q0 125 46 234.5t125.5 191.5t187 130.5t228.5 48.5q123 0 229.5 -48.5t186.5 -130.5t126 -191.5t46 -234.5q0 -63 -12 -120h-885q33 -106 117 -175t192 -69q84 0 152.5 41t114.5 108h282q-31 -86 -85 -156.5t-125.5 -121.5t-157.5 -80t-181 -29q-121 0 -228.5 47 t-187 129t-125.5 191.5t-46 234.5zM249 1292l302 281h213l296 -281h-294l-107 131l-115 -131h-295zM338 664h633q-25 113 -106 188.5t-212 75.5q-55 0 -106 -20.5t-92 -55.5t-72 -84t-45 -104z" />
<glyph unicode="&#xeb;" horiz-adv-x="1310" d="M66 569q0 125 46 234.5t125.5 191.5t187 130.5t228.5 48.5q123 0 229.5 -48.5t186.5 -130.5t126 -191.5t46 -234.5q0 -63 -12 -120h-885q33 -106 117 -175t192 -69q84 0 152.5 41t114.5 108h282q-31 -86 -85 -156.5t-125.5 -121.5t-157.5 -80t-181 -29q-121 0 -228.5 47 t-187 129t-125.5 191.5t-46 234.5zM295 1294v271h272v-271h-272zM338 664h633q-25 113 -106 188.5t-212 75.5q-55 0 -106 -20.5t-92 -55.5t-72 -84t-45 -104zM743 1294v271h270v-271h-270z" />
<glyph unicode="&#xec;" horiz-adv-x="491" d="M-37 1522l119 217l451 -275l-107 -186zM109 0v1126h270v-1126h-270z" />
<glyph unicode="&#xed;" horiz-adv-x="491" d="M-35 1456l453 275l115 -209l-459 -254zM109 0v1126h270v-1126h-270z" />
<glyph unicode="&#xee;" horiz-adv-x="491" d="M-158 1292l302 281h213l296 -281h-294l-107 131l-115 -131h-295zM109 0v1126h270v-1126h-270z" />
<glyph unicode="&#xef;" horiz-adv-x="491" d="M-110 1294v271h272v-271h-272zM109 0v1126h270v-1126h-270zM338 1294v271h270v-271h-270z" />
<glyph unicode="&#xf0;" horiz-adv-x="1310" d="M59 563q0 133 53.5 244t135.5 190.5t179 123.5t185 44q29 0 57.5 -4t51.5 -8q27 -6 53 -10q-25 23 -47 45q-20 18 -44 37.5t-46 29.5q-23 -6 -73 -21t-103 -32q-61 -18 -131 -39l-176 115l292 90q-23 14 -55 29q-29 12 -67.5 25.5t-92.5 27.5l306 84q94 -31 190 -86 l262 86l174 -121l-270 -80q78 -63 144.5 -142t115.5 -171t76.5 -197.5t27.5 -222.5q0 -178 -60 -300t-151.5 -196.5t-200 -107.5t-206.5 -33t-200.5 44t-186.5 124t-138.5 189.5t-54.5 242.5zM322 563q0 -74 26.5 -139.5t72.5 -113.5t107 -75.5t131 -27.5t131.5 27.5 t107.5 75.5t72.5 113.5t26.5 139.5t-26.5 138.5t-72.5 113.5t-107.5 77t-131.5 28t-131 -28t-107 -77t-72.5 -113.5t-26.5 -138.5z" />
<glyph unicode="&#xf1;" horiz-adv-x="1228" d="M113 0v1128h249v-94q31 37 78 66q41 25 100.5 46t139.5 21q78 0 155.5 -28.5t140 -90t101.5 -155.5t39 -225v-668h-270v604q0 90 -17.5 150.5t-48 97.5t-72.5 52.5t-92 15.5q-111 0 -172 -76t-61 -246v-598h-270zM213 1483q35 23 72 43q33 16 74.5 30.5t89.5 14.5 q45 0 83.5 -9.5t73.5 -20.5t69 -20.5t73 -9.5t67.5 6.5t48.5 16.5q23 10 39 25l111 -158q-27 -27 -64 -49q-31 -18 -73.5 -32.5t-96.5 -14.5q-41 0 -74.5 8t-66.5 19t-68.5 19.5t-85.5 8.5q-37 0 -65.5 -6t-50.5 -15q-25 -8 -45 -20z" />
<glyph unicode="&#xf2;" horiz-adv-x="1310" d="M55 565q0 125 48.5 235.5t131 192.5t193.5 129t236 47t234.5 -47t191 -129t130 -192.5t48.5 -235.5t-48.5 -235.5t-130 -192.5t-191.5 -129t-234 -47q-125 0 -236 47t-193.5 129t-131 192.5t-48.5 235.5zM326 565q0 -74 27.5 -137t73.5 -111.5t107.5 -76t129.5 -27.5 q70 0 130 27.5t106 76t72.5 111.5t26.5 137t-26.5 137.5t-72.5 111.5t-106.5 76t-129.5 28q-68 0 -129.5 -28t-107.5 -76t-73.5 -111.5t-27.5 -137.5zM370 1522l119 217l451 -275l-107 -186z" />
<glyph unicode="&#xf3;" horiz-adv-x="1310" d="M55 565q0 125 48.5 235.5t131 192.5t193.5 129t236 47t234.5 -47t191 -129t130 -192.5t48.5 -235.5t-48.5 -235.5t-130 -192.5t-191.5 -129t-234 -47q-125 0 -236 47t-193.5 129t-131 192.5t-48.5 235.5zM326 565q0 -74 27.5 -137t73.5 -111.5t107.5 -76t129.5 -27.5 q70 0 130 27.5t106 76t72.5 111.5t26.5 137t-26.5 137.5t-72.5 111.5t-106.5 76t-129.5 28q-68 0 -129.5 -28t-107.5 -76t-73.5 -111.5t-27.5 -137.5zM370 1456l453 275l115 -209l-459 -254z" />
<glyph unicode="&#xf4;" horiz-adv-x="1310" d="M55 565q0 125 48.5 235.5t131 192.5t193.5 129t236 47t234.5 -47t191 -129t130 -192.5t48.5 -235.5t-48.5 -235.5t-130 -192.5t-191.5 -129t-234 -47q-125 0 -236 47t-193.5 129t-131 192.5t-48.5 235.5zM249 1292l302 281h213l296 -281h-294l-107 131l-115 -131h-295z M326 565q0 -74 27.5 -137t73.5 -111.5t107.5 -76t129.5 -27.5q70 0 130 27.5t106 76t72.5 111.5t26.5 137t-26.5 137.5t-72.5 111.5t-106.5 76t-129.5 28q-68 0 -129.5 -28t-107.5 -76t-73.5 -111.5t-27.5 -137.5z" />
<glyph unicode="&#xf5;" horiz-adv-x="1310" d="M55 565q0 125 48.5 235.5t131 192.5t193.5 129t236 47t234.5 -47t191 -129t130 -192.5t48.5 -235.5t-48.5 -235.5t-130 -192.5t-191.5 -129t-234 -47q-125 0 -236 47t-193.5 129t-131 192.5t-48.5 235.5zM254 1470q35 23 72 43q33 16 75 31t89 15q45 0 84 -9.5 t73.5 -20.5t68.5 -20.5t73 -9.5t67.5 6t48.5 17q23 10 39 24l111 -157q-27 -27 -64 -50q-31 -18 -73.5 -32.5t-95.5 -14.5q-41 0 -75 8.5t-67 19.5t-68.5 19.5t-84.5 8.5q-37 0 -66 -6.5t-51 -14.5q-25 -8 -45 -20zM326 565q0 -74 27.5 -137t73.5 -111.5t107.5 -76 t129.5 -27.5q70 0 130 27.5t106 76t72.5 111.5t26.5 137t-26.5 137.5t-72.5 111.5t-106.5 76t-129.5 28q-68 0 -129.5 -28t-107.5 -76t-73.5 -111.5t-27.5 -137.5z" />
<glyph unicode="&#xf6;" horiz-adv-x="1310" d="M55 565q0 125 48.5 235.5t131 192.5t193.5 129t236 47t234.5 -47t191 -129t130 -192.5t48.5 -235.5t-48.5 -235.5t-130 -192.5t-191.5 -129t-234 -47q-125 0 -236 47t-193.5 129t-131 192.5t-48.5 235.5zM295 1294v271h272v-271h-272zM326 565q0 -74 27.5 -137 t73.5 -111.5t107.5 -76t129.5 -27.5q70 0 130 27.5t106 76t72.5 111.5t26.5 137t-26.5 137.5t-72.5 111.5t-106.5 76t-129.5 28q-68 0 -129.5 -28t-107.5 -76t-73.5 -111.5t-27.5 -137.5zM743 1294v271h270v-271h-270z" />
<glyph unicode="&#xf7;" horiz-adv-x="1228" d="M104 393v244h1026v-244h-1026zM494 -41v244h243v-244h-243zM494 825v246h243v-246h-243z" />
<glyph unicode="&#xf8;" horiz-adv-x="1310" d="M74 565q0 125 47 234.5t128 191.5t190.5 130t234.5 48q123 0 237 -51l80 119l203 -139l-82 -121q76 -82 119 -187.5t43 -224.5q0 -125 -47 -235.5t-129 -192.5t-190.5 -129t-233.5 -47q-123 0 -228 43l-73 -106l-201 139l72 104q-80 82 -125 190.5t-45 233.5zM342 565 q0 -55 14.5 -105t40.5 -91l367 534q-23 6 -45.5 10.5t-44.5 4.5q-70 0 -130.5 -28t-105.5 -76t-70.5 -111.5t-25.5 -137.5zM594 221q45 -10 80 -10q68 0 128 27.5t105 75.5t71 113t26 138q0 100 -48 185z" />
<glyph unicode="&#xf9;" horiz-adv-x="1228" d="M109 461v676h270v-613q0 -90 17.5 -150.5t48 -97t72.5 -52t91 -15.5q111 0 172.5 75.5t61.5 245.5v607h270v-1137h-250v96q-33 -39 -80 -67q-41 -27 -99 -47.5t-138 -20.5q-78 0 -156 28.5t-140.5 90t-101 156t-38.5 225.5zM329 1522l119 217l451 -275l-107 -186z" />
<glyph unicode="&#xfa;" horiz-adv-x="1228" d="M109 461v676h270v-613q0 -90 17.5 -150.5t48 -97t72.5 -52t91 -15.5q111 0 172.5 75.5t61.5 245.5v607h270v-1137h-250v96q-33 -39 -80 -67q-41 -27 -99 -47.5t-138 -20.5q-78 0 -156 28.5t-140.5 90t-101 156t-38.5 225.5zM330 1456l453 275l115 -209l-459 -254z" />
<glyph unicode="&#xfb;" horiz-adv-x="1228" d="M109 461v676h270v-613q0 -90 17.5 -150.5t48 -97t72.5 -52t91 -15.5q111 0 172.5 75.5t61.5 245.5v607h270v-1137h-250v96q-33 -39 -80 -67q-41 -27 -99 -47.5t-138 -20.5q-78 0 -156 28.5t-140.5 90t-101 156t-38.5 225.5zM208 1292l302 281h213l296 -281h-294l-107 131 l-115 -131h-295z" />
<glyph unicode="&#xfc;" horiz-adv-x="1228" d="M109 461v676h270v-613q0 -90 17.5 -150.5t48 -97t72.5 -52t91 -15.5q111 0 172.5 75.5t61.5 245.5v607h270v-1137h-250v96q-33 -39 -80 -67q-41 -27 -99 -47.5t-138 -20.5q-78 0 -156 28.5t-140.5 90t-101 156t-38.5 225.5zM254 1294v271h272v-271h-272zM702 1294v271 h270v-271h-270z" />
<glyph unicode="&#xfd;" horiz-adv-x="1187" d="M16 1135h310l258 -729l272 729h307l-649 -1512h-291l215 494zM309 1456l453 275l115 -209l-459 -254z" />
<glyph unicode="&#xfe;" horiz-adv-x="1351" d="M104 -377v1882h271v-491q74 72 167 112.5t199 40.5q113 0 212.5 -47t174 -129t117.5 -191.5t43 -234.5t-43 -234.5t-117.5 -191.5t-174 -129t-212.5 -47q-106 0 -199 41t-167 113v-494h-271zM358 565q0 -76 26 -142.5t71 -115.5t105 -77.5t128 -28.5t128.5 28.5 t105.5 77.5t70.5 115.5t25.5 142.5t-25.5 142.5t-70.5 115.5t-105.5 78t-128.5 29t-128 -29t-105 -78t-71 -115.5t-26 -142.5z" />
<glyph unicode="&#xff;" horiz-adv-x="1187" d="M16 1135h310l258 -729l272 729h307l-649 -1512h-291l215 494zM234 1294v271h272v-271h-272zM682 1294v271h270v-271h-270z" />
<glyph unicode="&#x152;" horiz-adv-x="2242" d="M70 752q0 162 61.5 304t169 247.5t250.5 167t307 61.5q147 0 278.5 -50t235.5 -141v164h809v-260h-530v-371h508v-258h-508v-356h530v-260h-809v162q-104 -90 -235 -140.5t-279 -50.5q-164 0 -307 61.5t-250.5 167t-169 248t-61.5 304.5zM348 752q0 -109 40 -204 t108.5 -166t162 -112t199.5 -41q104 0 197.5 41t163 112t109.5 166t40 204t-40 204t-109.5 166.5t-162.5 112.5t-198 41q-106 0 -199.5 -41t-162 -112.5t-108.5 -166.5t-40 -204z" />
<glyph unicode="&#x153;" horiz-adv-x="2230" d="M55 565q0 125 47.5 235.5t128 192.5t190 129t234.5 47q141 0 262 -60t205 -165q80 104 200 164.5t259 60.5q123 0 229.5 -47t186.5 -129t126 -190.5t46 -233.5q0 -63 -12 -120h-885q33 -106 117 -175t192 -69q84 0 152.5 41t113.5 108h283q-31 -86 -85 -156.5 t-126 -121.5t-158 -80t-180 -29q-139 0 -257 59.5t-200 161.5q-82 -104 -203.5 -165.5t-265.5 -61.5q-125 0 -234.5 47t-190 129t-128 192.5t-47.5 235.5zM326 565q0 -74 25.5 -137t70.5 -111.5t105.5 -76t127.5 -27.5q70 0 130.5 27.5t105.5 76t70.5 111.5t25.5 137 t-25.5 137.5t-70.5 111.5t-105.5 76t-130.5 28q-68 0 -128 -28t-105 -76t-70.5 -111.5t-25.5 -137.5zM1266 664h632q-25 113 -105.5 186.5t-211.5 73.5q-113 0 -199 -74t-116 -186z" />
<glyph unicode="&#x178;" horiz-adv-x="1269" d="M-2 1516h305l328 -687l330 687h307l-498 -945v-571h-278v571zM275 1681v271h272v-271h-272zM723 1681v271h270v-271h-270z" />
<glyph unicode="&#x2c6;" horiz-adv-x="1105" d="M147 1292l302 281h213l296 -281h-294l-107 131l-115 -131h-295z" />
<glyph unicode="&#x2dc;" horiz-adv-x="983" d="M94 1470q35 23 72 43q33 16 75 31t89 15q45 0 84 -9.5t73.5 -20.5t68.5 -20.5t73 -9.5t67.5 6t48.5 17q23 10 39 24l111 -157q-27 -27 -64 -50q-31 -18 -73.5 -32.5t-95.5 -14.5q-41 0 -75 8.5t-67 19.5t-68.5 19.5t-84.5 8.5q-37 0 -66 -6.5t-51 -14.5q-25 -8 -45 -20z " />
<glyph unicode="&#x2000;" horiz-adv-x="1063" />
<glyph unicode="&#x2001;" horiz-adv-x="2126" />
<glyph unicode="&#x2002;" horiz-adv-x="1063" />
<glyph unicode="&#x2003;" horiz-adv-x="2126" />
<glyph unicode="&#x2004;" horiz-adv-x="708" />
<glyph unicode="&#x2005;" horiz-adv-x="531" />
<glyph unicode="&#x2006;" horiz-adv-x="354" />
<glyph unicode="&#x2007;" horiz-adv-x="354" />
<glyph unicode="&#x2008;" horiz-adv-x="265" />
<glyph unicode="&#x2009;" horiz-adv-x="425" />
<glyph unicode="&#x200a;" horiz-adv-x="118" />
<glyph unicode="&#x2010;" horiz-adv-x="860" d="M145 467v242h566v-242h-566z" />
<glyph unicode="&#x2011;" horiz-adv-x="860" d="M145 467v242h566v-242h-566z" />
<glyph unicode="&#x2012;" horiz-adv-x="860" d="M145 467v242h566v-242h-566z" />
<glyph unicode="&#x2013;" horiz-adv-x="1024" d="M68 467v242h874v-242h-874z" />
<glyph unicode="&#x2014;" horiz-adv-x="2048" d="M84 467v242h1892v-242h-1892z" />
<glyph unicode="&#x2018;" horiz-adv-x="450" d="M55 1497h250l129 -463h-186z" />
<glyph unicode="&#x2019;" horiz-adv-x="450" d="M55 1034l127 463h250l-190 -463h-187z" />
<glyph unicode="&#x201a;" horiz-adv-x="573" d="M147 0v270h271v-270q0 -74 -21.5 -127t-58.5 -89t-85 -53.5t-103 -17.5v135q20 0 41.5 6.5t39 23t27.5 46t10 76.5h-121z" />
<glyph unicode="&#x201c;" horiz-adv-x="737" d="M12 1497h250l129 -463h-188zM356 1497h252l127 -463h-186z" />
<glyph unicode="&#x201d;" horiz-adv-x="737" d="M35 1034l125 463h252l-191 -463h-186zM375 1034l125 463h250l-189 -463h-186z" />
<glyph unicode="&#x201e;" horiz-adv-x="983" d="M145 2v270h271v-286q0 -55 -17.5 -104.5t-51.5 -86.5t-84 -58.5t-116 -21.5l5 140q66 0 88 43t22 104h-117zM567 2v270h271v-286q0 -55 -17.5 -104.5t-51.5 -86.5t-84 -58.5t-116 -21.5l4 140q66 0 88.5 43t22.5 104h-117z" />
<glyph unicode="&#x2022;" horiz-adv-x="1228" d="M303 766q0 63 24.5 120.5t66.5 100.5t99.5 67.5t122.5 24.5q63 0 121 -24.5t101 -67.5t67.5 -100.5t24.5 -120.5q0 -66 -24.5 -123t-67.5 -99t-100.5 -66.5t-121.5 -24.5q-66 0 -123 24.5t-99 66.5t-66.5 99t-24.5 123z" />
<glyph unicode="&#x2026;" horiz-adv-x="2048" d="M203 0v274h282v-274h-282zM874 0v274h285v-274h-285zM1556 0v274h283v-274h-283z" />
<glyph unicode="&#x202f;" horiz-adv-x="425" />
<glyph unicode="&#x2039;" horiz-adv-x="491" d="M102 485v207l285 262v-249l-137 -117l137 -119v-250z" />
<glyph unicode="&#x203a;" horiz-adv-x="491" d="M102 219v250l140 119l-140 117v249l287 -262v-207z" />
<glyph unicode="&#x205f;" horiz-adv-x="531" />
<glyph unicode="&#x20ac;" d="M55 475v193h135v61.5t3 54.5h-138v193h140q6 150 54 255t119.5 173t159.5 99.5t179 31.5q113 0 195.5 -33t135.5 -73q63 -47 107 -105l-88 -246q-20 55 -64 101q-37 37 -100.5 68.5t-165.5 31.5q-80 0 -131 -25.5t-80 -68.5t-41 -97.5t-16 -111.5h553v-193h-555v-116h555 v-193h-545q10 -47 28.5 -91t48 -80t70 -57.5t93.5 -21.5q70 0 125 14.5t95 36t66.5 48t36.5 49.5q10 -31 23.5 -74t25.5 -84q14 -47 29 -96q-53 -43 -117 -76q-53 -29 -125.5 -51.5t-158.5 -22.5q-115 0 -204 38t-153.5 105.5t-102.5 160t-50 202.5h-142z" />
<glyph unicode="&#x2122;" horiz-adv-x="2048" d="M25 1337v168h540v-168h-176v-735h-190v735h-174zM684 602v903h258l242 -655l239 655h254v-903h-190v643l-225 -643h-160l-225 623v-623h-193z" />
<glyph unicode="&#xe000;" horiz-adv-x="1136" d="M0 0v1137h1137v-1137h-1137z" />
<glyph unicode="&#xfb01;" horiz-adv-x="1064" d="M51 889v239h96q0 68 23 139.5t69 131t115.5 98.5t161.5 39h76v-266q-55 2 -89 -6.5t-52.5 -26.5t-25.5 -46t-7 -63h536v-239v-889h-270v889h-266v-889h-271v889h-96zM684 1257v248h270v-248h-270z" />
<glyph unicode="&#xfb02;" horiz-adv-x="1064" d="M47 889v239h96q0 68 22.5 139.5t69 131t116 98.5t161.5 39h74v-266q-53 2 -87 -6.5t-52.5 -26.5t-25.5 -46t-7 -63h268v377h270v-1505h-270v889h-268v-889h-271v889h-96z" />
</font>
</defs>
</svg>
