<?xml version="1.0" standalone="no"?>
<!DOCTYPE svg PUBLIC "-//W3C//DTD SVG 1.1//EN" "http://www.w3.org/Graphics/SVG/1.1/DTD/svg11.dtd" >
<svg>
<metadata>
Created by FontForge 20120731 at Thu Sep 18 14:27:06 2014
 By World Wide Web Server
Copyright (c) Christian Schwartz, 2007. All rights reserved.
</metadata>
<defs>
<font id="StagSans-Medium" horiz-adv-x="400" >
  <font-face 
    font-family="Stag Sans Medium"
    font-weight="500"
    font-stretch="normal"
    units-per-em="1000"
    panose-1="2 11 6 3 4 0 0 2 0 4"
    ascent="800"
    descent="-200"
    x-height="525"
    cap-height="700"
    bbox="-187 -221 1203 925"
    underline-thickness="50"
    underline-position="-50"
    stemh="104"
    stemv="147"
    unicode-range="U+0020-FB02"
  />
<missing-glyph horiz-adv-x="500" 
 />
    <glyph glyph-name="f_f" unicode="ff" horiz-adv-x="647" 
d="M15 427v98h62v34c0 100 63 145 166 145c42 0 64 -6 83 -13v-88h-36c-41 0 -67 -9 -67 -49v-29h156v40c0 100 63 145 166 145c42 0 67 -6 87 -14v-87h-40c-41 0 -67 -9 -67 -49v-35h100v-98h-100v-427h-146v427h-156v-427h-146v427h-62z" />
    <glyph glyph-name=".notdef" horiz-adv-x="500" 
 />
    <glyph glyph-name="space" unicode=" " horiz-adv-x="190" 
 />
    <glyph glyph-name="exclam" unicode="!" horiz-adv-x="284" 
d="M94 206l-30 408v86h156v-86l-30 -408h-96zM142 -6c-46 0 -82 35 -82 80s36 81 82 81c45 0 82 -36 82 -81s-37 -80 -82 -80z" />
    <glyph glyph-name="quotedbl" unicode="&#x22;" horiz-adv-x="369" 
d="M51 476l-25 151v73h136v-73l-25 -151h-86zM232 476l-25 151v73h136v-73l-25 -151h-86z" />
    <glyph glyph-name="numbersign" unicode="#" horiz-adv-x="547" 
d="M56 415v109h91l26 176h102l-26 -176h96l26 176h102l-26 -176h76v-109h-92l-15 -106h75v-109h-91l-29 -200h-102l29 200h-96l-29 -200h-102l29 200h-76v109h92l15 106h-75zM233 415l-15 -106h96l15 106h-96z" />
    <glyph glyph-name="dollar" unicode="$" horiz-adv-x="540" 
d="M311 764v-58c63 -5 113 -23 157 -47v-112h-49c-30 26 -66 47 -108 55v-188c142 -39 203 -85 203 -209c0 -122 -74 -197 -213 -210v-97h-89v95c-78 5 -132 23 -185 56v120h51c26 -30 70 -63 134 -71v204c-123 38 -193 88 -193 202c0 121 83 188 203 201v59h89zM380 187
c0 53 -27 72 -79 89v-175c56 12 79 44 79 86zM146 519c0 -41 23 -61 76 -80v162c-52 -10 -76 -38 -76 -82z" />
    <glyph glyph-name="percent" unicode="%" horiz-adv-x="829" 
d="M195 416c38 0 62 32 62 105c0 74 -24 105 -62 105s-62 -31 -62 -105c0 -73 24 -105 62 -105zM195 334c-92 0 -177 62 -177 189s85 185 177 185s177 -58 177 -185s-85 -189 -177 -189zM221 -34h-109l493 763h109zM634 74c38 0 62 32 62 105c0 74 -24 105 -62 105
s-62 -31 -62 -105c0 -73 24 -105 62 -105zM634 -8c-92 0 -177 62 -177 189s85 185 177 185s177 -58 177 -185s-85 -189 -177 -189z" />
    <glyph glyph-name="ampersand" unicode="&#x26;" horiz-adv-x="681" 
d="M516 0l-52 58c-52 -42 -116 -66 -193 -66c-164 0 -249 80 -249 205c0 95 67 161 145 197c-24 38 -37 76 -37 127c0 110 83 187 228 187c74 0 121 -19 154 -43v-110h-53c-20 20 -50 39 -101 39c-48 0 -82 -27 -82 -74c0 -35 16 -58 52 -98l145 -163c19 50 36 107 39 164
h125v-32c-15 -84 -46 -161 -82 -223l113 -127v-41h-152zM297 101c37 0 69 13 96 35l-167 187c-30 -26 -51 -59 -51 -111c0 -62 37 -111 122 -111z" />
    <glyph glyph-name="quoteright" unicode="&#x2019;" horiz-adv-x="216" 
d="M28 455v64c40 4 60 19 60 36c0 18 -14 19 -30 30c-18 12 -29 27 -29 56c0 38 32 66 75 66c44 0 83 -29 83 -91c0 -98 -51 -152 -159 -161z" />
    <glyph glyph-name="parenleft" unicode="(" horiz-adv-x="337" 
d="M316 741v-97c-68 -24 -146 -99 -146 -293c0 -209 78 -281 146 -305v-95h-31c-125 29 -254 142 -254 400c0 249 129 361 254 390h31z" />
    <glyph glyph-name="parenright" unicode=")" horiz-adv-x="337" 
d="M21 644v97h31c125 -29 254 -141 254 -390c0 -258 -129 -371 -254 -400h-31v95c68 24 146 96 146 305c0 194 -78 269 -146 293z" />
    <glyph glyph-name="asterisk" unicode="*" horiz-adv-x="382" 
d="M247 654l-24 -77l62 45l44 14l35 -106l-44 -14h-74l63 -46l27 -37l-91 -64l-27 38l-27 77l-27 -77l-27 -38l-91 64l27 37l63 46h-74l-44 14l35 106l44 -14l61 -45l-23 77v46h112v-46z" />
    <glyph glyph-name="plus" unicode="+" horiz-adv-x="529" 
d="M503 288h-177v-188h-122v188h-178v115h178v188h122v-188h177v-115z" />
    <glyph glyph-name="comma" unicode="," horiz-adv-x="224" 
d="M29 -46c42 6 63 22 63 40c0 19 -15 20 -32 31c-19 13 -30 30 -30 60c0 40 34 70 79 70c46 0 87 -31 87 -96c0 -103 -53 -158 -167 -169v64z" />
    <glyph glyph-name="hyphen" unicode="-" horiz-adv-x="303" 
d="M36 238v119h231v-119h-231z" />
    <glyph glyph-name="period" unicode="." horiz-adv-x="224" 
d="M112 -6c-46 0 -82 35 -82 80s36 81 82 81c45 0 82 -36 82 -81s-37 -80 -82 -80z" />
    <glyph glyph-name="slash" unicode="/" horiz-adv-x="352" 
d="M346 741v-30l-233 -760h-110v30l233 760h110z" />
    <glyph glyph-name="zero" unicode="0" horiz-adv-x="668" 
d="M334 -8c-160 0 -303 115 -303 358s143 358 303 358s303 -115 303 -358s-143 -358 -303 -358zM334 100c89 0 144 65 144 247c0 183 -55 251 -144 251c-90 0 -144 -68 -144 -251c0 -182 54 -247 144 -247z" />
    <glyph glyph-name="one" unicode="1" horiz-adv-x="380" 
d="M297 0h-156v536l-83 -44h-40v104l175 104h104v-700z" />
    <glyph glyph-name="two" unicode="2" horiz-adv-x="535" 
d="M503 122v-122h-483v123l196 189c92 88 126 137 126 193c0 53 -34 86 -100 86c-65 0 -115 -27 -149 -53h-49v105c46 30 123 65 208 65c154 0 246 -62 246 -197c0 -100 -64 -171 -173 -271l-129 -118h307z" />
    <glyph glyph-name="three" unicode="3" horiz-adv-x="522" 
d="M219 -8c-95 0 -154 20 -200 53v110h57c24 -25 69 -50 132 -50c74 0 131 34 131 101s-41 96 -126 96h-52v109h44c87 0 131 31 131 94c0 58 -33 89 -98 89c-62 0 -112 -26 -140 -48h-53v101c51 33 118 61 205 61c142 0 233 -57 233 -189c0 -89 -53 -133 -127 -156v-4
c86 -15 138 -66 138 -158c1 -135 -117 -209 -275 -209z" />
    <glyph glyph-name="four" unicode="4" horiz-adv-x="588" 
d="M486 0h-153v148h-312v130l320 422h145v-443h84v-109h-84v-148zM134 261v-4h199v260h-4z" />
    <glyph glyph-name="five" unicode="5" horiz-adv-x="535" 
d="M507 229c0 -148 -119 -237 -289 -237c-91 0 -145 21 -192 50v111h57c23 -24 68 -49 133 -49c77 0 136 42 136 120c0 80 -45 114 -102 114c-60 0 -91 -26 -110 -47h-93v409h422v-122h-310v-164h3c24 17 66 35 127 35c122 0 218 -68 218 -220z" />
    <glyph glyph-name="six" unicode="6" horiz-adv-x="603" 
d="M310 -8c-160 0 -279 112 -279 343c0 239 130 373 346 373c70 0 115 -12 155 -32v-113h-57c-19 16 -55 33 -105 33c-119 0 -168 -76 -180 -204c39 35 98 52 161 52c132 0 225 -79 225 -216c0 -138 -106 -236 -266 -236zM313 339c-48 0 -97 -18 -126 -39
c4 -146 47 -206 123 -206c82 0 112 54 112 129c0 74 -40 116 -109 116z" />
    <glyph glyph-name="seven" unicode="7" horiz-adv-x="522" 
d="M104 0v61l275 513v4h-358v122h473v-133l-241 -567h-149z" />
    <glyph glyph-name="eight" unicode="8" horiz-adv-x="596" 
d="M298 -8c-176 0 -273 78 -273 207c0 89 52 146 137 174v4c-68 24 -107 70 -107 145c0 117 99 186 243 186s243 -69 243 -186c0 -75 -38 -121 -107 -145v-4c85 -28 137 -85 137 -174c0 -129 -97 -207 -273 -207zM298 94c82 0 123 49 123 113s-41 115 -123 115
c-83 0 -123 -51 -123 -115s40 -113 123 -113zM298 424c59 0 97 31 97 89s-38 90 -97 90c-60 0 -97 -32 -97 -90s37 -89 97 -89z" />
    <glyph glyph-name="nine" unicode="9" horiz-adv-x="603" 
d="M221 -8c-67 0 -115 11 -157 28v115h57c15 -15 51 -33 107 -33c132 0 174 74 185 199c-42 -31 -102 -45 -158 -45c-135 0 -228 75 -228 212c0 138 106 240 266 240s279 -112 279 -343c0 -239 -125 -373 -351 -373zM290 361c48 0 97 17 126 38c-4 149 -47 207 -123 207
c-82 0 -112 -58 -112 -133c0 -74 40 -112 109 -112z" />
    <glyph glyph-name="colon" unicode=":" horiz-adv-x="224" 
d="M112 284c-46 0 -82 35 -82 80s36 81 82 81c45 0 82 -36 82 -81s-37 -80 -82 -80zM112 -6c-46 0 -82 35 -82 80s36 81 82 81c45 0 82 -36 82 -81s-37 -80 -82 -80z" />
    <glyph glyph-name="semicolon" unicode=";" horiz-adv-x="224" 
d="M27 -46c42 6 63 22 63 40c0 19 -15 20 -32 31c-19 13 -30 30 -30 60c0 40 34 70 79 70c46 0 87 -31 87 -96c0 -103 -53 -158 -167 -169v64zM112 284c-46 0 -82 35 -82 80s36 81 82 81c45 0 82 -36 82 -81s-37 -80 -82 -80z" />
    <glyph glyph-name="less" unicode="&#x3c;" horiz-adv-x="476" 
d="M26 281v97l386 192h34v-108l-272 -129v-3l272 -131v-110h-34z" />
    <glyph glyph-name="equal" unicode="=" horiz-adv-x="507" 
d="M477 362h-447v115h447v-115zM477 152h-447v115h447v-115z" />
    <glyph glyph-name="greater" unicode="&#x3e;" horiz-adv-x="476" 
d="M450 378v-97l-386 -192h-34v108l272 129v3l-272 131v110h34z" />
    <glyph glyph-name="question" unicode="?" horiz-adv-x="449" 
d="M121 206c-11 73 -2 117 65 182c44 43 80 84 80 138c0 45 -32 68 -75 68c-54 0 -90 -20 -116 -47h-56v108c46 31 104 53 181 53c137 0 220 -61 220 -181c0 -76 -37 -123 -102 -176c-60 -50 -98 -76 -93 -145h-104zM178 -6c-46 0 -82 35 -82 80s36 81 82 81
c45 0 82 -36 82 -81s-37 -80 -82 -80z" />
    <glyph glyph-name="at" unicode="@" horiz-adv-x="880" 
d="M446 -134c-209 0 -421 112 -421 374c0 277 230 427 438 427c211 0 392 -119 392 -331c0 -187 -116 -270 -243 -270c-81 0 -118 25 -132 63c-28 -33 -69 -63 -130 -63c-76 0 -126 48 -126 143c0 117 82 250 224 250c52 0 79 -17 102 -40c18 22 38 34 72 34h46l-55 -243
c-7 -32 -4 -57 30 -57c63 0 108 55 108 183c0 151 -115 242 -288 242c-167 0 -327 -108 -327 -338c0 -203 139 -285 310 -285c99 0 187 23 252 67h35v-85c-61 -43 -172 -71 -287 -71zM395 157c28 0 58 14 81 39l38 163c-11 4 -22 8 -48 8c-68 0 -113 -75 -113 -158
c0 -35 16 -52 42 -52z" />
    <glyph glyph-name="A" unicode="A" horiz-adv-x="669" 
d="M22 0v41l232 659h161l233 -659v-41h-151l-58 178h-236l-56 -178h-125zM318 543l-82 -258h168l-84 258h-2z" />
    <glyph glyph-name="B" unicode="B" horiz-adv-x="603" 
d="M62 0v700h240c165 0 247 -57 247 -184c0 -84 -50 -129 -124 -145v-4c89 -17 150 -64 150 -163c0 -131 -94 -204 -265 -204h-248zM215 110h91c75 0 109 39 109 101c0 63 -36 101 -109 101h-91v-202zM215 417h83c67 0 97 28 97 88c0 56 -30 85 -97 85h-83v-173z" />
    <glyph glyph-name="C" unicode="C" horiz-adv-x="615" 
d="M364 -8c-202 0 -334 132 -334 356s143 360 346 360c96 0 150 -18 204 -46v-117h-56c-30 28 -75 50 -144 50c-122 0 -190 -85 -190 -241c0 -170 61 -250 181 -250c83 0 129 31 168 70h49v-115c-53 -40 -126 -67 -224 -67z" />
    <glyph glyph-name="D" unicode="D" horiz-adv-x="680" 
d="M62 0v700h221c235 0 368 -107 368 -347c0 -238 -134 -353 -372 -353h-217zM218 110h61c145 0 212 68 212 241c0 172 -66 237 -212 237h-61v-478z" />
    <glyph glyph-name="E" unicode="E" horiz-adv-x="567" 
d="M62 0v700h461v-113h-307v-178h220v-107h-220v-192h318v-110h-472z" />
    <glyph glyph-name="F" unicode="F" horiz-adv-x="556" 
d="M218 0h-156v700h466v-113h-310v-193h239v-107h-239v-287z" />
    <glyph glyph-name="G" unicode="G" horiz-adv-x="666" 
d="M361 -8c-208 0 -332 127 -332 356s131 360 350 360c88 0 138 -14 202 -41v-123h-52c-35 28 -70 49 -147 49c-121 0 -189 -67 -189 -239c0 -173 55 -255 168 -255c45 0 72 5 97 13v152h-96v101h249v-320c-70 -36 -156 -53 -250 -53z" />
    <glyph glyph-name="H" unicode="H" horiz-adv-x="693" 
d="M218 0h-156v700h156v-288h257v288h156v-700h-156v303h-257v-303z" />
    <glyph glyph-name="I" unicode="I" horiz-adv-x="287" 
d="M222 0h-157v700h157v-700z" />
    <glyph glyph-name="J" unicode="J" horiz-adv-x="465" 
d="M176 -8c-72 0 -118 15 -157 36v114h51c19 -19 47 -38 99 -38s81 28 81 83v513h157v-516c0 -123 -76 -192 -231 -192z" />
    <glyph glyph-name="K" unicode="K" horiz-adv-x="668" 
d="M62 0v700h156v-307l267 307h128v-42l-213 -237l236 -379v-42h-150l-191 308l-77 -86v-222h-156z" />
    <glyph glyph-name="L" unicode="L" horiz-adv-x="537" 
d="M507 0h-445v700h156v-590h289v-110z" />
    <glyph glyph-name="M" unicode="M" horiz-adv-x="855" 
d="M62 0v700h210l156 -466h3l155 466h207v-700h-154v522h-3l-177 -522h-94l-174 522h-3v-522h-126z" />
    <glyph glyph-name="N" unicode="N" horiz-adv-x="693" 
d="M62 0v700h177l258 -449h3v449h131v-700h-142l-294 511h-3v-511h-130z" />
    <glyph glyph-name="O" unicode="O" horiz-adv-x="730" 
d="M365 -8c-179 0 -336 127 -336 358s157 358 336 358s336 -127 336 -358s-157 -358 -336 -358zM365 100c102 0 176 76 176 247c0 172 -74 251 -176 251c-103 0 -176 -79 -176 -251c0 -171 73 -247 176 -247z" />
    <glyph glyph-name="P" unicode="P" horiz-adv-x="596" 
d="M62 0v700h232c177 0 278 -70 278 -223c0 -151 -102 -224 -282 -224h-72v-253h-156zM218 588v-230h72c95 0 125 43 125 117c0 75 -26 113 -125 113h-72z" />
    <glyph glyph-name="Q" unicode="Q" horiz-adv-x="730" 
d="M668 -121l-322 94c-192 56 -317 159 -317 377c0 231 157 358 336 358c180 0 336 -127 336 -358c0 -156 -73 -266 -197 -313v-2l224 -38v-118h-60zM365 99c102 0 176 77 176 248c0 172 -74 251 -176 251c-103 0 -176 -79 -176 -251c0 -171 73 -248 176 -248z" />
    <glyph glyph-name="R" unicode="R" horiz-adv-x="632" 
d="M458 0l-149 274h-91v-274h-156v700h235c172 0 269 -70 269 -205c0 -93 -41 -156 -112 -191l147 -263v-41h-143zM218 589v-208h75c82 0 116 36 116 105c0 68 -34 103 -116 103h-75z" />
    <glyph glyph-name="S" unicode="S" horiz-adv-x="533" 
d="M245 -8c-100 0 -163 22 -222 56v119h51c31 -33 84 -64 166 -64c85 0 126 32 126 86c0 75 -70 82 -150 106c-129 38 -188 91 -188 209c0 136 102 204 245 204c82 0 151 -19 195 -46v-113h-49c-37 27 -80 47 -140 47c-76 0 -117 -24 -117 -81c0 -56 46 -73 128 -94
c153 -39 217 -87 217 -216c0 -136 -90 -213 -262 -213z" />
    <glyph glyph-name="T" unicode="T" horiz-adv-x="587" 
d="M371 0h-156v590h-191v110h539v-110h-192v-590z" />
    <glyph glyph-name="U" unicode="U" horiz-adv-x="678" 
d="M357 107c85 0 132 32 132 163v430h130v-426c0 -180 -73 -282 -271 -282c-190 0 -289 102 -289 282v426h156v-430c0 -131 52 -163 142 -163z" />
    <glyph glyph-name="V" unicode="V" horiz-adv-x="661" 
d="M250 0l-229 659v41h149l169 -516h2l170 516h129v-41l-230 -659h-160z" />
    <glyph glyph-name="W" unicode="W" horiz-adv-x="917" 
d="M179 0l-156 659v41h148l108 -507h2l120 507h132l124 -507h2l104 507h131v-41l-157 -659h-173l-105 458h-2l-104 -458h-174z" />
    <glyph glyph-name="X" unicode="X" horiz-adv-x="655" 
d="M31 0v44l193 321l-190 291v44h149l155 -246l138 246h125v-44l-178 -302l201 -310v-44h-148l-168 266l-151 -266h-126z" />
    <glyph glyph-name="Y" unicode="Y" horiz-adv-x="612" 
d="M391 0h-156v271l-217 385v44h146l157 -294h2l151 294h120v-44l-203 -381v-275z" />
    <glyph glyph-name="Z" unicode="Z" horiz-adv-x="553" 
d="M24 0v118l335 467v4h-309v111h474v-121l-335 -467v-4h335v-108h-500z" />
    <glyph glyph-name="bracketleft" unicode="[" horiz-adv-x="338" 
d="M70 -49v790h237v-96h-101v-598h101v-96h-237z" />
    <glyph glyph-name="backslash" unicode="\" horiz-adv-x="352" 
d="M6 711v30h110l233 -760v-30h-110z" />
    <glyph glyph-name="bracketright" unicode="]" horiz-adv-x="338" 
d="M268 741v-790h-237v96h101v598h-101v96h237z" />
    <glyph glyph-name="asciicircum" unicode="^" horiz-adv-x="430" 
d="M19 452v34l143 214h105l144 -214v-34h-106l-89 129h-3l-88 -129h-106z" />
    <glyph glyph-name="underscore" unicode="_" horiz-adv-x="373" 
d="M375 -162h-377v93h377v-93z" />
    <glyph glyph-name="quoteleft" unicode="&#x2018;" horiz-adv-x="216" 
d="M188 702v-64c-40 -4 -60 -19 -60 -36c0 -18 14 -19 30 -30c18 -12 29 -27 29 -56c0 -38 -32 -66 -75 -66c-44 0 -83 29 -83 91c0 98 51 152 159 161z" />
    <glyph glyph-name="a" unicode="a" horiz-adv-x="538" 
d="M425 0c-46 0 -67 10 -77 52c-38 -42 -88 -58 -152 -58c-98 0 -170 54 -170 158c0 110 88 164 209 164c43 0 73 -4 105 -12v50c0 48 -26 73 -96 73c-55 0 -101 -17 -136 -41h-41v103c50 23 111 44 200 44c145 0 219 -48 219 -169v-364h-61zM340 126v100c-23 4 -48 6 -75 6
c-59 0 -97 -21 -97 -72s33 -74 82 -74c36 0 66 18 90 40z" />
    <glyph glyph-name="b" unicode="b" horiz-adv-x="591" 
d="M201 618v-143c39 33 91 58 159 58c101 0 202 -66 202 -263c0 -203 -111 -277 -224 -277c-72 0 -122 22 -159 55c-16 -28 -38 -48 -59 -48h-65v700h89c48 0 57 -12 57 -82zM298 421c-29 0 -67 -12 -97 -26v-270c25 -20 53 -31 95 -31c60 0 118 26 118 163
c0 136 -52 164 -116 164z" />
    <glyph glyph-name="c" unicode="c" horiz-adv-x="499" 
d="M298 -7c-171 0 -272 100 -272 268c0 169 120 272 279 272c82 0 129 -19 161 -36v-109h-56c-21 20 -58 38 -105 38c-76 0 -131 -56 -131 -166c0 -113 52 -161 127 -161c62 0 95 21 117 42h50v-100c-32 -21 -89 -48 -170 -48z" />
    <glyph glyph-name="d" unicode="d" horiz-adv-x="591" 
d="M435 0c-23 0 -36 10 -42 59c-34 -38 -85 -67 -154 -67c-118 0 -210 87 -210 261c0 206 112 280 224 280c67 0 105 -17 137 -45v212h89c49 0 57 -13 57 -82v-618h-101zM281 94c43 0 72 15 109 46v255c-23 17 -52 26 -92 26c-60 0 -121 -30 -121 -161
c0 -120 34 -166 104 -166z" />
    <glyph glyph-name="e" unicode="e" horiz-adv-x="543" 
d="M516 230h-340c7 -105 57 -134 138 -134c59 0 105 19 139 44h45v-96c-42 -24 -101 -51 -206 -51c-172 0 -266 102 -266 267c0 169 110 273 256 273c154 0 236 -85 236 -258c0 -18 -2 -40 -2 -45zM282 441c-51 0 -93 -25 -104 -123h196c-3 93 -35 123 -92 123z" />
    <glyph glyph-name="f" unicode="f" horiz-adv-x="345" 
d="M15 427v98h62v40c0 100 63 145 166 145c42 0 67 -6 87 -14v-87h-40c-41 0 -67 -9 -67 -49v-35h100v-98h-100v-427h-146v427h-62z" />
    <glyph glyph-name="g" unicode="g" horiz-adv-x="591" 
d="M536 525v-497c0 -129 -98 -198 -270 -198c-95 0 -164 18 -211 43v105h44c36 -25 85 -44 149 -44c95 0 142 31 142 103v33c-35 -30 -86 -51 -145 -51c-116 0 -216 73 -216 243c0 195 112 271 230 271c66 0 110 -20 145 -52c11 26 29 44 60 44h72zM287 121
c36 0 74 16 103 37v233c-26 20 -52 30 -94 30c-60 0 -119 -30 -119 -146c0 -117 35 -154 110 -154z" />
    <glyph glyph-name="h" unicode="h" horiz-adv-x="583" 
d="M201 618v-148c49 36 120 63 189 63c76 0 141 -29 141 -147v-386h-146v349c0 52 -20 67 -65 67s-86 -12 -119 -24v-392h-146v700h89c48 0 57 -12 57 -82z" />
    <glyph glyph-name="i" unicode="i" horiz-adv-x="259" 
d="M202 0h-146v525h91c48 0 55 -16 55 -96v-429zM130 566c-44 0 -80 34 -80 77s36 78 80 78s79 -35 79 -78s-35 -77 -79 -77z" />
    <glyph glyph-name="j" unicode="j" horiz-adv-x="259" 
d="M-39 -157v84h30c48 0 65 21 65 71v527h91c47 0 55 -16 55 -96v-440c0 -110 -56 -157 -160 -157c-34 0 -58 4 -81 11zM130 566c-44 0 -80 34 -80 77s36 78 80 78s79 -35 79 -78s-35 -77 -79 -77z" />
    <glyph glyph-name="k" unicode="k" horiz-adv-x="551" 
d="M201 618v-304l187 211h120v-38l-155 -168l176 -279v-40h-135l-139 221l-54 -56v-165h-146v700h89c48 0 57 -12 57 -82z" />
    <glyph glyph-name="l" unicode="l" horiz-adv-x="260" 
d="M203 0h-146v700h89c49 0 57 -12 57 -82v-618z" />
    <glyph glyph-name="m" unicode="m" horiz-adv-x="891" 
d="M154 525c25 0 39 -11 44 -55c47 35 115 63 185 63c54 0 103 -16 125 -67c53 41 125 67 194 67c74 0 137 -34 137 -147v-386h-146v349c0 50 -17 67 -61 67c-42 0 -81 -13 -112 -25v-391h-146v349c0 50 -17 67 -61 67c-42 0 -80 -13 -112 -24v-392h-146v525h99z" />
    <glyph glyph-name="n" unicode="n" horiz-adv-x="583" 
d="M154 525c25 0 39 -11 45 -56c49 36 121 64 191 64c76 0 141 -29 141 -147v-386h-146v349c0 52 -20 67 -65 67s-86 -12 -119 -24v-392h-146v525h99z" />
    <glyph glyph-name="o" unicode="o" horiz-adv-x="588" 
d="M294 -7c-148 0 -268 99 -268 267c0 169 120 273 268 273s268 -104 268 -273c0 -168 -120 -267 -268 -267zM294 97c71 0 120 49 120 162c0 114 -49 170 -120 170s-120 -56 -120 -170c0 -113 49 -162 120 -162z" />
    <glyph glyph-name="p" unicode="p" horiz-adv-x="591" 
d="M332 6c-57 0 -98 14 -131 38v-206h-146v687h99c24 0 38 -10 44 -51c39 33 89 59 162 59c101 0 202 -70 202 -257c0 -198 -113 -270 -230 -270zM300 421c-29 0 -69 -12 -99 -26v-259c25 -20 56 -29 94 -29c64 0 119 28 119 156c0 127 -52 158 -114 158z" />
    <glyph glyph-name="q" unicode="q" horiz-adv-x="591" 
d="M390 -162v219c-34 -30 -85 -51 -145 -51c-117 0 -216 77 -216 250c0 203 112 277 230 277c67 0 111 -21 146 -54c12 27 31 46 59 46h72v-687h-146zM287 108c36 0 74 16 103 37v246c-26 20 -52 30 -94 30c-60 0 -119 -32 -119 -152c0 -121 31 -161 110 -161z" />
    <glyph glyph-name="r" unicode="r" horiz-adv-x="395" 
d="M352 410c-72 0 -123 -16 -151 -31v-379h-146v525h99c25 0 40 -11 45 -63c33 35 81 68 146 68c11 0 22 -2 32 -5v-115h-25z" />
    <glyph glyph-name="s" unicode="s" horiz-adv-x="455" 
d="M212 -6c-86 0 -141 20 -182 43v108h46c24 -22 68 -44 129 -44c59 0 90 16 90 49c0 32 -19 47 -93 56c-115 14 -176 57 -176 160c0 106 79 165 208 165c76 0 123 -15 165 -36v-106h-44c-24 18 -66 35 -120 35c-57 0 -79 -17 -79 -47c0 -27 26 -41 98 -50
c125 -16 177 -57 177 -163c0 -103 -67 -170 -219 -170z" />
    <glyph glyph-name="t" unicode="t" horiz-adv-x="352" 
d="M15 427v98h62v140h146v-140h106v-98h-106v-269c0 -50 20 -64 68 -64h40v-88c-22 -7 -51 -14 -92 -14c-101 0 -162 40 -162 149v286h-62z" />
    <glyph glyph-name="u" unicode="u" horiz-adv-x="595" 
d="M278 102c37 0 78 13 110 26v397h146v-525h-99c-24 0 -38 8 -44 49c-49 -34 -116 -56 -180 -56c-88 0 -153 34 -153 142v390h146v-353c0 -57 28 -70 74 -70z" />
    <glyph glyph-name="v" unicode="v" horiz-adv-x="556" 
d="M210 0l-191 487v38h138l133 -362h2l121 362h124v-38l-183 -487h-144z" />
    <glyph glyph-name="w" unicode="w" horiz-adv-x="794" 
d="M166 0l-145 487v38h139l88 -331h2l103 331h112l96 -331h2l94 331h116v-38l-149 -487h-129l-98 326h-2l-102 -326h-127z" />
    <glyph glyph-name="x" unicode="x" horiz-adv-x="544" 
d="M24 0v38l154 228l-145 221v38h139l110 -178l101 178h121v-38l-135 -213l151 -236v-38h-138l-118 195l-117 -195h-123z" />
    <glyph glyph-name="y" unicode="y" horiz-adv-x="549" 
d="M145 -162v39l71 149l-197 461v38h137l129 -324h2l119 324h125v-38l-261 -649h-125z" />
    <glyph glyph-name="z" unicode="z" horiz-adv-x="493" 
d="M29 0v101l268 321h-252v103h414v-102l-269 -320h262v-103h-423z" />
    <glyph glyph-name="braceleft" unicode="{" horiz-adv-x="367" 
d="M99 79v169c0 28 -16 55 -56 55h-23v96h23c40 0 56 27 56 55v159c0 82 46 128 144 128h93v-96h-72c-15 0 -29 -18 -29 -31v-154c0 -54 -22 -89 -89 -107v-3c67 -18 89 -53 89 -107v-165c0 -13 14 -31 29 -31h72v-96h-93c-98 0 -144 46 -144 128z" />
    <glyph glyph-name="bar" unicode="|" horiz-adv-x="175" 
d="M145 741v-790h-115v790h115z" />
    <glyph glyph-name="braceright" unicode="}" horiz-adv-x="367" 
d="M268 248v-169c0 -82 -46 -128 -144 -128h-93v96h72c15 0 29 18 29 31v165c0 54 22 89 89 107v3c-67 18 -89 53 -89 107v154c0 13 -14 31 -29 31h-72v96h93c98 0 144 -46 144 -128v-159c0 -28 16 -55 56 -55h23v-96h-23c-40 0 -56 -27 -56 -55z" />
    <glyph glyph-name="asciitilde" unicode="~" horiz-adv-x="394" 
d="M253 339c20 0 30 10 37 30h85v-45c-13 -60 -52 -106 -115 -106c-47 0 -95 27 -119 27c-20 0 -30 -10 -37 -30h-85v45c13 60 52 106 115 106c53 0 95 -27 119 -27z" />
    <glyph glyph-name="exclamdown" unicode="&#xa1;" horiz-adv-x="284" 
d="M190 422l30 -408v-86h-156v86l30 408h96zM142 634c46 0 82 -35 82 -80s-36 -81 -82 -81c-45 0 -82 36 -82 81s37 80 82 80z" />
    <glyph glyph-name="cent" unicode="&#xa2;" horiz-adv-x="517" 
d="M478 41c-25 -17 -68 -37 -124 -44v-100h-89v98c-149 13 -240 111 -240 266c0 152 103 251 240 269v59h89v-58c57 -6 96 -21 122 -34v-109h-56c-14 13 -38 27 -66 34v-320c34 8 58 24 74 39h50v-100zM172 260c0 -93 33 -144 93 -159v320c-59 -17 -93 -72 -93 -161z" />
    <glyph glyph-name="sterling" unicode="&#xa3;" horiz-adv-x="520" 
d="M312 591c-52 0 -104 -25 -104 -89c0 -33 4 -67 10 -101h168v-102h-152c3 -23 5 -46 5 -69c0 -45 -17 -83 -37 -108h299v-122h-480v103c43 15 78 51 78 124c0 24 -4 48 -9 72h-65v102h41c-7 31 -12 62 -12 96c0 139 115 211 254 211c83 0 133 -17 179 -46v-115h-49
c-34 26 -71 44 -126 44z" />
    <glyph glyph-name="fraction" unicode="&#x2044;" horiz-adv-x="222" 
d="M-83 -34h-104l493 763h104z" />
    <glyph glyph-name="yen" unicode="&#xa5;" horiz-adv-x="582" 
d="M53 299v87h121l-151 270v44h141l141 -275h2l134 275h118v-44l-142 -270h126v-87h-168v-55h168v-87h-168v-157h-154v157h-168v87h168v55h-168z" />
    <glyph glyph-name="florin" unicode="&#x192;" horiz-adv-x="377" 
d="M29 444h70l15 121c12 98 67 145 170 145c42 0 64 -6 84 -14v-87h-37c-41 0 -61 -9 -66 -49l-14 -116h86v-98h-98l-54 -446h-151l53 446h-58v98z" />
    <glyph glyph-name="section" unicode="&#xa7;" horiz-adv-x="524" 
d="M465 39c0 -98 -73 -172 -229 -172c-89 0 -148 20 -191 42v108h46c23 -23 87 -45 143 -45c58 0 90 18 90 54c0 37 -30 51 -125 78c-124 35 -178 81 -178 173c0 72 39 112 94 134c-40 30 -55 68 -55 128c0 101 79 169 211 169c90 0 138 -18 175 -39v-104h-44
c-23 17 -67 36 -126 36c-54 0 -89 -17 -89 -54c0 -31 25 -53 113 -74c135 -34 199 -76 199 -181c0 -49 -19 -101 -92 -132c38 -27 58 -64 58 -121zM149 301c0 -34 22 -57 94 -77c24 -7 46 -13 67 -20c38 14 58 39 58 68c0 40 -31 60 -102 79c-20 5 -37 10 -54 15
c-45 -10 -63 -35 -63 -65z" />
    <glyph glyph-name="quotesingle" unicode="'" horiz-adv-x="188" 
d="M51 476l-25 151v73h136v-73l-25 -151h-86z" />
    <glyph glyph-name="quotedblleft" unicode="&#x201c;" horiz-adv-x="411" 
d="M188 702v-64c-40 -4 -60 -19 -60 -36c0 -18 14 -19 30 -30c18 -12 29 -27 29 -56c0 -38 -32 -66 -75 -66c-44 0 -83 29 -83 91c0 98 51 152 159 161zM383 702v-64c-40 -4 -60 -19 -60 -36c0 -18 14 -19 30 -30c18 -12 29 -27 29 -56c0 -38 -32 -66 -75 -66
c-44 0 -83 29 -83 91c0 98 51 152 159 161z" />
    <glyph glyph-name="guillemotleft" unicode="&#xab;" horiz-adv-x="515" 
d="M155 40l-120 191v57l120 192h114v-32l-111 -185v-3l111 -188v-32h-114zM366 40l-120 191v57l120 192h114v-32l-111 -185v-3l111 -188v-32h-114z" />
    <glyph glyph-name="guilsinglleft" unicode="&#x2039;" horiz-adv-x="304" 
d="M155 40l-120 191v57l120 192h114v-32l-111 -185v-3l111 -188v-32h-114z" />
    <glyph glyph-name="guilsinglright" unicode="&#x203a;" horiz-adv-x="304" 
d="M269 231l-120 -191h-114v32l111 188v3l-111 185v32h114l120 -192v-57z" />
    <glyph glyph-name="fi" unicode="&#xfb01;" horiz-adv-x="582" 
d="M15 427v98h62v40c0 100 63 145 166 145c36 0 62 -6 80 -13v-88h-33c-41 0 -67 -9 -67 -49v-35h100v-98h-100v-427h-146v427h-62zM525 0h-146v525h91c48 0 55 -16 55 -96v-429zM453 566c-44 0 -80 34 -80 77s36 78 80 78s79 -35 79 -78s-35 -77 -79 -77z" />
    <glyph glyph-name="fl" unicode="&#xfb02;" horiz-adv-x="580" 
d="M15 427v98h62v40c0 100 63 145 166 145c36 0 62 -6 80 -13v-88h-33c-41 0 -67 -9 -67 -49v-35h100v-98h-100v-427h-146v427h-62zM525 0h-146v700h89c49 0 57 -12 57 -82v-618z" />
    <glyph glyph-name="endash" unicode="&#x2013;" horiz-adv-x="457" 
d="M48 226v113h361v-113h-361z" />
    <glyph glyph-name="dagger" unicode="&#x2020;" horiz-adv-x="469" 
d="M181 -49l-21 309v61l30 109l-110 -31h-56v141h56l110 -32l-26 103v89h141v-89l-26 -103l110 32h56v-141h-56l-110 31l30 -107v-62l-21 -310h-107z" />
    <glyph glyph-name="daggerdbl" unicode="&#x2021;" horiz-adv-x="469" 
d="M310 353v-53l-32 -79l111 31h56v-141h-56l-111 32l27 -103v-89h-141v89l27 103l-111 -32h-56v141h56l111 -31l-32 77v53l32 79l-111 -31h-56v141h56l111 -32l-27 103v89h141v-89l-27 -103l111 32h56v-141h-56l-111 31z" />
    <glyph glyph-name="periodcentered" unicode="&#xb7;" horiz-adv-x="224" 
d="M112 215c-46 0 -82 35 -82 80s36 81 82 81c45 0 82 -36 82 -81s-37 -80 -82 -80z" />
    <glyph glyph-name="paragraph" unicode="&#xb6;" horiz-adv-x="592" 
d="M251 -91v394h-3c-131 0 -224 59 -224 198c0 153 110 199 254 199h252v-791h-104v689h-71v-689h-104z" />
    <glyph glyph-name="bullet" unicode="&#x2022;" horiz-adv-x="340" 
d="M170 145c-76 0 -138 50 -138 134s62 136 138 136c77 0 138 -52 138 -136s-61 -134 -138 -134z" />
    <glyph glyph-name="quotesinglbase" unicode="&#x201a;" horiz-adv-x="216" 
d="M28 -101v64c40 4 60 19 60 36c0 18 -14 19 -30 30c-18 12 -29 27 -29 56c0 38 32 66 75 66c44 0 83 -29 83 -91c0 -98 -51 -152 -159 -161z" />
    <glyph glyph-name="quotedblbase" unicode="&#x201e;" horiz-adv-x="411" 
d="M223 -101v64c40 4 60 19 60 36c0 18 -14 19 -30 30c-18 12 -29 27 -29 56c0 38 32 66 75 66c44 0 83 -29 83 -91c0 -98 -51 -152 -159 -161zM28 -101v64c40 4 60 19 60 36c0 18 -14 19 -30 30c-18 12 -29 27 -29 56c0 38 32 66 75 66c44 0 83 -29 83 -91
c0 -98 -51 -152 -159 -161z" />
    <glyph glyph-name="quotedblright" unicode="&#x201d;" horiz-adv-x="411" 
d="M223 455v64c40 4 60 19 60 36c0 18 -14 19 -30 30c-18 12 -29 27 -29 56c0 38 32 66 75 66c44 0 83 -29 83 -91c0 -98 -51 -152 -159 -161zM28 455v64c40 4 60 19 60 36c0 18 -14 19 -30 30c-18 12 -29 27 -29 56c0 38 32 66 75 66c44 0 83 -29 83 -91
c0 -98 -51 -152 -159 -161z" />
    <glyph glyph-name="guillemotright" unicode="&#xbb;" horiz-adv-x="515" 
d="M480 231l-120 -191h-114v32l111 188v3l-111 185v32h114l120 -192v-57zM269 231l-120 -191h-114v32l111 188v3l-111 185v32h114l120 -192v-57z" />
    <glyph glyph-name="ellipsis" unicode="&#x2026;" horiz-adv-x="680" 
d="M112 -6c-46 0 -82 35 -82 80s36 81 82 81c45 0 82 -36 82 -81s-37 -80 -82 -80zM340 -6c-46 0 -82 35 -82 80s36 81 82 81c45 0 82 -36 82 -81s-37 -80 -82 -80zM568 -6c-46 0 -82 35 -82 80s36 81 82 81c45 0 82 -36 82 -81s-37 -80 -82 -80z" />
    <glyph glyph-name="perthousand" unicode="&#x2030;" horiz-adv-x="1221" 
d="M195 416c38 0 62 32 62 105c0 74 -24 105 -62 105s-62 -31 -62 -105c0 -73 24 -105 62 -105zM195 334c-92 0 -177 62 -177 189s85 185 177 185s177 -58 177 -185s-85 -189 -177 -189zM221 -34h-109l493 763h109zM634 74c38 0 62 32 62 105c0 74 -24 105 -62 105
s-62 -31 -62 -105c0 -73 24 -105 62 -105zM634 -8c-92 0 -177 62 -177 189s85 185 177 185s177 -58 177 -185s-85 -189 -177 -189zM1026 74c38 0 62 32 62 105c0 74 -24 105 -62 105s-62 -31 -62 -105c0 -73 24 -105 62 -105zM1026 -8c-92 0 -177 62 -177 189
s85 185 177 185s177 -58 177 -185s-85 -189 -177 -189z" />
    <glyph glyph-name="questiondown" unicode="&#xbf;" horiz-adv-x="449" 
d="M328 422c11 -73 2 -117 -65 -182c-44 -43 -80 -84 -80 -138c0 -45 32 -68 75 -68c54 0 90 20 116 47h56v-108c-46 -31 -104 -53 -181 -53c-137 0 -220 61 -220 181c0 76 37 123 102 176c60 50 98 76 93 145h104zM271 634c46 0 82 -35 82 -80s-36 -81 -82 -81
c-45 0 -82 36 -82 81s37 80 82 80z" />
    <glyph glyph-name="grave" unicode="`" 
d="M245 562h-83l-99 96v42h148l34 -107v-31z" />
    <glyph glyph-name="acute" unicode="&#xb4;" 
d="M238 562h-83v31l34 107h148v-42z" />
    <glyph glyph-name="circumflex" unicode="&#x2c6;" 
d="M60 562v37l91 101h100l87 -101v-37h-80l-61 47l-61 -47h-76z" />
    <glyph glyph-name="tilde" unicode="&#x2dc;" 
d="M32 564v38c11 62 46 94 99 94c47 0 83 -26 108 -26c18 0 28 10 33 27h80v-38c-11 -62 -46 -94 -99 -94c-47 0 -82 28 -107 28c-19 0 -30 -10 -34 -29h-80z" />
    <glyph glyph-name="macron" unicode="&#xaf;" 
d="M330 682v-98h-260v98h260z" />
    <glyph glyph-name="breve" unicode="&#x2d8;" 
d="M200 563c-79 0 -125 49 -135 100v37h92c2 -25 15 -42 43 -42s40 17 43 42h92v-37c-10 -51 -56 -100 -135 -100z" />
    <glyph glyph-name="dotaccent" unicode="&#x2d9;" 
d="M200 566c-44 0 -79 34 -79 77s35 78 79 78s79 -35 79 -78s-35 -77 -79 -77z" />
    <glyph glyph-name="dieresis" unicode="&#xa8;" 
d="M104 566c-42 0 -75 32 -75 73c0 40 33 73 75 73s75 -33 75 -73c0 -41 -33 -73 -75 -73zM296 566c-42 0 -75 32 -75 73c0 40 33 73 75 73s75 -33 75 -73c0 -41 -33 -73 -75 -73z" />
    <glyph glyph-name="ring" unicode="&#x2da;" 
d="M200 566c-57 0 -105 38 -105 100s48 101 105 101s105 -39 105 -101s-48 -100 -105 -100zM200 628c22 0 37 15 37 38c0 24 -15 39 -37 39s-36 -15 -36 -39c0 -23 14 -38 36 -38z" />
    <glyph glyph-name="cedilla" unicode="&#xb8;" 
d="M156 0h69v-24c57 -2 81 -30 81 -74c0 -48 -41 -77 -105 -77c-33 0 -56 6 -77 16v60h29c7 -8 19 -14 36 -14c19 0 28 6 28 19c0 12 -10 18 -35 18h-26v76z" />
    <glyph glyph-name="hungarumlaut" unicode="&#x2dd;" 
d="M75 562v28l32 110h120v-42l-73 -96h-79zM238 562v28l32 110h120v-42l-73 -96h-79z" />
    <glyph glyph-name="ogonek" unicode="&#x2db;" 
d="M275 0c-22 -18 -36 -32 -36 -54c0 -16 9 -27 39 -27h20v-67c-19 -11 -39 -17 -73 -17c-59 0 -96 28 -96 76c0 40 27 69 59 89h87z" />
    <glyph glyph-name="caron" unicode="&#x2c7;" 
d="M338 700v-37l-91 -101h-100l-87 101v37h80l61 -47l61 47h76z" />
    <glyph glyph-name="emdash" unicode="&#x2014;" horiz-adv-x="767" 
d="M48 226v113h671v-113h-671z" />
    <glyph glyph-name="AE" unicode="&#xc6;" horiz-adv-x="949" 
d="M444 0v187h-217l-89 -187h-127v41l334 659h560v-113h-305v-178h218v-107h-218v-192h316v-110h-472zM419 587l-141 -293h166v293h-25z" />
    <glyph glyph-name="ordfeminine" unicode="&#xaa;" horiz-adv-x="447" 
d="M353 258c-37 0 -55 11 -63 44c-32 -35 -74 -49 -128 -49c-80 0 -142 45 -142 133c0 93 73 139 175 139c35 0 61 -3 88 -10v35c0 39 -22 59 -79 59c-46 0 -83 -14 -111 -33h-39v95c43 19 96 37 173 37c127 0 190 -41 190 -147v-303h-64zM283 367v79c-18 2 -38 4 -58 4
c-46 0 -76 -16 -76 -57s27 -56 64 -56c27 0 51 13 70 30z" />
    <glyph glyph-name="Lslash" unicode="&#x141;" horiz-adv-x="553" 
d="M523 0h-445v231l-68 -26v106l68 26v363h156v-302l184 72v-106l-184 -72v-182h289v-110z" />
    <glyph glyph-name="Oslash" unicode="&#xd8;" horiz-adv-x="730" 
d="M365 -8c-66 0 -128 17 -181 50l-49 -61h-97v27l75 94c-52 60 -84 143 -84 248c0 231 157 358 336 358c69 0 135 -19 190 -56l48 59h97v-27l-76 -95c48 -59 77 -139 77 -239c0 -231 -157 -358 -336 -358zM187 347c0 -52 6 -96 18 -131l273 339c-30 29 -68 43 -113 43
c-103 0 -178 -79 -178 -251zM365 100c102 0 178 76 178 247c0 48 -6 88 -16 122l-269 -334c29 -24 65 -35 107 -35z" />
    <glyph glyph-name="OE" unicode="&#x152;" horiz-adv-x="953" 
d="M397 0c-235 0 -368 107 -368 347c0 238 134 353 372 353h508v-113h-298v-178h211v-107h-211v-192h309v-110h-523zM455 587h-54c-145 0 -212 -65 -212 -238c0 -172 66 -239 212 -239h54v477z" />
    <glyph glyph-name="ordmasculine" unicode="&#xba;" horiz-adv-x="512" 
d="M256 252c-129 0 -230 84 -230 226s101 230 230 230s230 -88 230 -230s-101 -226 -230 -226zM256 345c56 0 94 39 94 132s-38 136 -94 136s-94 -43 -94 -136s38 -132 94 -132z" />
    <glyph glyph-name="ae" unicode="&#xe6;" horiz-adv-x="854" 
d="M267 533c83 0 136 -16 166 -52c43 33 98 52 160 52c154 0 236 -85 236 -258c0 -18 -2 -40 -2 -45h-340c7 -105 57 -134 138 -134c59 0 105 19 139 44h45v-96c-42 -24 -101 -51 -206 -51c-93 0 -163 29 -208 82c-41 -49 -101 -81 -184 -81c-113 0 -185 52 -185 160
c0 106 88 164 218 164h96v36c0 48 -26 73 -96 73c-55 0 -101 -17 -136 -41h-41v103c50 23 111 44 200 44zM246 86c56 0 89 25 112 51c-11 27 -18 59 -20 93h-75c-57 0 -95 -19 -95 -70s33 -74 78 -74zM593 441c-51 0 -93 -25 -104 -123h196c-3 93 -35 123 -92 123z" />
    <glyph glyph-name="dotlessi" unicode="&#x131;" horiz-adv-x="259" 
d="M202 0h-146v525h91c48 0 55 -16 55 -96v-429z" />
    <glyph glyph-name="lslash" unicode="&#x142;" horiz-adv-x="276" 
d="M211 0h-146v296l-60 -34v106l60 34v298h89c49 0 57 -12 57 -82v-134l64 36v-106l-64 -36v-378z" />
    <glyph glyph-name="oslash" unicode="&#xf8;" horiz-adv-x="588" 
d="M294 -7c-49 0 -95 11 -134 31l-39 -49h-83v27l56 71c-42 46 -68 109 -68 187c0 169 120 273 268 273c50 0 97 -12 137 -34l34 43h84v-27l-54 -68c42 -46 67 -110 67 -187c0 -168 -120 -267 -268 -267zM171 259c0 -31 3 -57 8 -78l182 230c-19 13 -42 19 -67 19
c-71 0 -123 -57 -123 -171zM294 92c71 0 123 54 123 167c0 31 -3 57 -9 78l-181 -228c19 -12 41 -17 67 -17z" />
    <glyph glyph-name="oe" unicode="&#x153;" horiz-adv-x="931" 
d="M294 -7c-148 0 -268 99 -268 267c0 169 120 273 268 273c79 0 146 -30 191 -84c42 54 106 84 185 84c154 0 236 -85 236 -258c0 -18 -2 -40 -2 -45h-340c7 -105 57 -134 138 -134c59 0 105 19 139 44h45v-96c-42 -24 -101 -51 -206 -51c-91 0 -156 28 -197 79
c-45 -51 -111 -79 -189 -79zM294 95c71 0 120 51 120 164c0 114 -49 168 -120 168s-120 -54 -120 -168c0 -113 49 -164 120 -164zM670 441c-51 0 -93 -25 -104 -123h196c-3 93 -35 123 -92 123z" />
    <glyph glyph-name="germandbls" unicode="&#xdf;" horiz-adv-x="618" 
d="M55 0v507c0 123 89 203 258 203c132 0 219 -48 219 -154c0 -52 -39 -93 -85 -128c-45 -34 -55 -46 -55 -64c0 -16 10 -27 66 -50c91 -37 137 -75 137 -165c0 -89 -68 -156 -203 -156c-54 0 -105 13 -135 34v108h45c17 -15 45 -35 90 -35c43 0 69 16 69 37
c0 26 -19 35 -89 63c-68 26 -110 69 -110 137c0 64 33 94 75 136c31 31 51 48 51 78c0 33 -25 55 -77 55c-80 0 -110 -41 -110 -104v-502h-146z" />
    <glyph glyph-name="trademark" unicode="&#x2122;" horiz-adv-x="684" 
d="M378 420h-69v280h126l44 -152h1l45 152h124v-280h-81v213h-1l-65 -213h-59l-64 213h-1v-213zM188 420h-83v220h-80v60h244v-60h-81v-220z" />
    <glyph glyph-name="Eth" unicode="&#xd0;" horiz-adv-x="687" 
d="M8 295v107h61v298h221c235 0 368 -107 368 -347c0 -238 -134 -353 -372 -353h-217v295h-61zM225 110h61c145 0 212 68 212 241c0 172 -66 237 -212 237h-61v-186h149v-107h-149v-185z" />
    <glyph glyph-name="onehalf" unicode="&#xbd;" horiz-adv-x="773" 
d="M214 315h-117v274l-52 -27h-22v82l106 56h85v-385zM161 -34h-104l493 763h104zM743 84v-84h-281v84l107 99c40 37 60 61 60 86c0 22 -17 37 -47 37c-29 0 -57 -13 -71 -25h-40v74c28 19 71 36 128 36c92 0 145 -36 145 -113c0 -56 -34 -90 -92 -140l-63 -54h154z" />
    <glyph glyph-name="Thorn" unicode="&#xde;" horiz-adv-x="596" 
d="M62 0v700h156v-129h76c177 0 278 -68 278 -216c0 -147 -102 -217 -282 -217h-72v-138h-156zM218 459v-216h72c95 0 125 38 125 110c0 73 -26 106 -125 106h-72z" />
    <glyph glyph-name="onequarter" unicode="&#xbc;" horiz-adv-x="726" 
d="M214 315h-117v274l-52 -27h-22v82l106 56h85v-385zM161 -34h-104l493 763h104zM666 0h-108v79h-173v84l176 222h105v-233h40v-73h-40v-79zM465 154v-2h94v116h-3z" />
    <glyph glyph-name="divide" unicode="&#xf7;" horiz-adv-x="529" 
d="M503 288h-477v115h477v-115zM265 444c-46 0 -82 35 -82 80s36 81 82 81c45 0 82 -36 82 -81s-37 -80 -82 -80zM265 86c-46 0 -82 35 -82 80s36 81 82 81c45 0 82 -36 82 -81s-37 -80 -82 -80z" />
    <glyph glyph-name="brokenbar" unicode="&#xa6;" horiz-adv-x="176" 
d="M30 -49v357h116l-1 -357h-115zM30 393v348h115l1 -348h-116z" />
    <glyph glyph-name="degree" unicode="&#xb0;" horiz-adv-x="348" 
d="M174 424c-80 0 -147 56 -147 141s67 141 147 141s147 -56 147 -141s-67 -141 -147 -141zM174 491c41 0 70 30 70 74c0 45 -29 74 -70 74c-40 0 -68 -29 -68 -74c0 -44 28 -74 68 -74z" />
    <glyph glyph-name="thorn" unicode="&#xfe;" horiz-adv-x="588" 
d="M201 618v-142c39 32 88 57 159 57c101 0 202 -70 202 -257c0 -198 -113 -270 -230 -270c-57 0 -98 14 -131 38v-206h-146v862h89c48 0 57 -12 57 -82zM300 421c-29 0 -69 -12 -99 -26v-259c25 -20 56 -29 94 -29c64 0 119 28 119 156c0 127 -52 158 -114 158z" />
    <glyph glyph-name="threequarters" unicode="&#xbe;" horiz-adv-x="772" 
d="M147 309c-59 0 -93 15 -119 31v71h39c12 -11 38 -25 69 -25c39 0 63 13 63 43c0 29 -22 43 -60 43h-36v72h33c38 0 61 16 61 42c0 25 -17 38 -50 38c-29 0 -55 -11 -69 -21h-38v69c28 18 70 34 123 34c81 0 141 -33 141 -107c0 -47 -32 -73 -78 -86v-2
c53 -9 84 -37 84 -88c0 -74 -63 -114 -163 -114zM213 -34h-104l493 763h104zM712 0h-108v79h-173v84l176 222h105v-233h40v-73h-40v-79zM511 154v-2h94v116h-3z" />
    <glyph glyph-name="registered" unicode="&#xae;" horiz-adv-x="386" 
d="M193 350c-96 0 -184 66 -184 179c0 114 88 179 184 179c95 0 184 -65 184 -179c0 -113 -89 -179 -184 -179zM193 386c79 0 142 48 142 143s-63 143 -142 143s-142 -48 -142 -143s63 -143 142 -143zM275 565c0 -22 -11 -39 -29 -49l33 -57v-18h-54l-32 63h-17v-63h-57v185
h80c51 0 76 -21 76 -61zM176 589v-48h18c18 0 24 9 24 25c0 14 -6 23 -24 23h-18z" />
    <glyph glyph-name="minus" unicode="&#x2212;" horiz-adv-x="529" 
d="M503 288h-477v115h477v-115z" />
    <glyph glyph-name="eth" unicode="&#xf0;" horiz-adv-x="588" 
d="M182 553l42 38c-19 6 -38 11 -59 16v93h49c35 -6 68 -15 99 -26l27 25h92v-24l-42 -39c110 -70 172 -189 172 -355c0 -201 -120 -288 -273 -288s-263 98 -263 258s99 254 238 254c63 0 98 -22 129 -54c-20 46 -51 80 -90 105l-29 -27h-92v24zM299 97c73 0 115 51 115 153
c0 103 -42 155 -115 155s-125 -52 -125 -155c0 -102 52 -153 125 -153z" />
    <glyph glyph-name="multiply" unicode="&#xd7;" horiz-adv-x="513" 
d="M403 115l-146 146l-146 -146l-78 78l146 146l-146 146l78 78l146 -146l146 146l77 -78l-146 -146l146 -146z" />
    <glyph glyph-name="copyright" unicode="&#xa9;" horiz-adv-x="780" 
d="M390 -8c-191 0 -359 127 -359 358s168 358 359 358s359 -127 359 -358s-168 -358 -359 -358zM390 43c165 0 297 111 297 307s-132 307 -297 307s-297 -111 -297 -307s132 -307 297 -307zM401 154c-125 0 -199 73 -199 197c0 123 88 199 204 199c61 0 96 -14 120 -26v-84
h-45c-15 14 -37 28 -75 28c-55 0 -90 -41 -90 -118c0 -80 33 -114 88 -114c45 0 68 15 83 29h40v-76c-23 -15 -66 -35 -126 -35z" />
    <glyph glyph-name="Aacute" unicode="&#xc1;" horiz-adv-x="669" 
d="M22 0v41l232 659h161l233 -659v-41h-151l-58 178h-236l-56 -178h-125zM318 543l-82 -258h168l-84 258h-2zM365 722h-83v31l34 97h148v-42z" />
    <glyph glyph-name="Acircumflex" unicode="&#xc2;" horiz-adv-x="669" 
d="M34 0v41l232 659h161l233 -659v-41h-151l-58 178h-236l-56 -178h-125zM204 722v37l91 95h100l87 -95v-37h-80l-61 41l-61 -41h-76zM330 543l-82 -258h168l-84 258h-2z" />
    <glyph glyph-name="Adieresis" unicode="&#xc4;" horiz-adv-x="669" 
d="M22 0v41l232 659h161l233 -659v-41h-151l-58 178h-236l-56 -178h-125zM318 543l-82 -258h168l-84 258h-2zM237 723c-42 0 -75 32 -75 73c0 40 33 73 75 73s75 -33 75 -73c0 -41 -33 -73 -75 -73zM429 723c-42 0 -75 32 -75 73c0 40 33 73 75 73s75 -33 75 -73
c0 -41 -33 -73 -75 -73z" />
    <glyph glyph-name="Agrave" unicode="&#xc0;" horiz-adv-x="669" 
d="M22 0v41l232 659h161l233 -659v-41h-151l-58 178h-236l-56 -178h-125zM318 543l-82 -258h168l-84 258h-2zM382 722h-83l-99 86v42h148l34 -97v-31z" />
    <glyph glyph-name="Aring" unicode="&#xc5;" horiz-adv-x="669" 
d="M22 0v41l232 659h161l233 -659v-41h-151l-58 178h-236l-56 -178h-125zM331 724c-57 0 -105 38 -105 100s48 101 105 101s105 -39 105 -101s-48 -100 -105 -100zM318 543l-82 -258h168l-84 258h-2zM331 786c22 0 37 15 37 38c0 24 -15 39 -37 39s-36 -15 -36 -39
c0 -23 14 -38 36 -38z" />
    <glyph glyph-name="Atilde" unicode="&#xc3;" horiz-adv-x="669" 
d="M22 0v41l232 659h161l233 -659v-41h-151l-58 178h-236l-56 -178h-125zM168 722v38c11 62 46 94 99 94c47 0 83 -26 108 -26c18 0 28 10 33 27h80v-38c-11 -62 -46 -94 -99 -94c-47 0 -82 28 -107 28c-19 0 -30 -10 -34 -29h-80zM318 543l-82 -258h168l-84 258h-2z" />
    <glyph glyph-name="Ccedilla" unicode="&#xc7;" horiz-adv-x="615" 
d="M588 59c-52 -40 -124 -66 -219 -67v-16c57 -2 81 -30 81 -74c0 -48 -41 -77 -105 -77c-33 0 -56 6 -77 16v60h29c7 -8 19 -14 36 -14c19 0 28 6 28 19c0 12 -10 18 -35 18h-26v73c-166 25 -270 151 -270 351c0 224 143 360 346 360c96 0 150 -18 204 -46v-117h-56
c-30 28 -75 50 -144 50c-122 0 -190 -85 -190 -241c0 -170 61 -250 181 -250c83 0 129 31 168 70h49v-115z" />
    <glyph glyph-name="Eacute" unicode="&#xc9;" horiz-adv-x="567" 
d="M62 0v700h461v-113h-307v-178h220v-107h-220v-192h318v-110h-472zM343 722h-83v31l34 97h148v-42z" />
    <glyph glyph-name="Ecircumflex" unicode="&#xca;" horiz-adv-x="567" 
d="M62 0v700h461v-113h-307v-178h220v-107h-220v-192h318v-110h-472zM167 722v37l91 95h100l87 -95v-37h-80l-61 41l-61 -41h-76z" />
    <glyph glyph-name="Edieresis" unicode="&#xcb;" horiz-adv-x="567" 
d="M62 0v700h461v-113h-307v-178h220v-107h-220v-192h318v-110h-472zM210 723c-42 0 -75 32 -75 73c0 40 33 73 75 73s75 -33 75 -73c0 -41 -33 -73 -75 -73zM402 723c-42 0 -75 32 -75 73c0 40 33 73 75 73s75 -33 75 -73c0 -41 -33 -73 -75 -73z" />
    <glyph glyph-name="Egrave" unicode="&#xc8;" horiz-adv-x="567" 
d="M62 0v700h461v-113h-307v-178h220v-107h-220v-192h318v-110h-472zM356 722h-83l-99 86v42h148l34 -97v-31z" />
    <glyph glyph-name="Iacute" unicode="&#xcd;" horiz-adv-x="287" 
d="M222 0h-157v700h157v-700zM180 722h-83v31l34 97h148v-42z" />
    <glyph glyph-name="Icircumflex" unicode="&#xce;" horiz-adv-x="287" 
d="M222 0h-157v700h157v-700zM4 722v37l91 95h100l87 -95v-37h-80l-61 41l-61 -41h-76z" />
    <glyph glyph-name="Idieresis" unicode="&#xcf;" horiz-adv-x="287" 
d="M222 0h-157v700h157v-700zM47 723c-42 0 -75 32 -75 73c0 40 33 73 75 73s75 -33 75 -73c0 -41 -33 -73 -75 -73zM239 723c-42 0 -75 32 -75 73c0 40 33 73 75 73s75 -33 75 -73c0 -41 -33 -73 -75 -73z" />
    <glyph glyph-name="Igrave" unicode="&#xcc;" horiz-adv-x="287" 
d="M222 0h-157v700h157v-700zM193 722h-83l-99 86v42h148l34 -97v-31z" />
    <glyph glyph-name="Ntilde" unicode="&#xd1;" horiz-adv-x="693" 
d="M62 0v700h177l258 -449h3v449h131v-700h-142l-294 511h-3v-511h-130zM202 722v38c11 62 46 94 99 94c47 0 83 -26 108 -26c18 0 28 10 33 27h80v-38c-11 -62 -46 -94 -99 -94c-47 0 -82 28 -107 28c-19 0 -30 -10 -34 -29h-80z" />
    <glyph glyph-name="Oacute" unicode="&#xd3;" horiz-adv-x="730" 
d="M365 -8c-179 0 -336 127 -336 358s157 358 336 358s336 -127 336 -358s-157 -358 -336 -358zM365 100c102 0 176 76 176 247c0 172 -74 251 -176 251c-103 0 -176 -79 -176 -251c0 -171 73 -247 176 -247zM402 722h-83v31l34 97h148v-42z" />
    <glyph glyph-name="Ocircumflex" unicode="&#xd4;" horiz-adv-x="730" 
d="M365 -8c-179 0 -336 127 -336 358s157 358 336 358s336 -127 336 -358s-157 -358 -336 -358zM365 100c102 0 176 76 176 247c0 172 -74 251 -176 251c-103 0 -176 -79 -176 -251c0 -171 73 -247 176 -247zM226 722v37l91 95h100l87 -95v-37h-80l-61 41l-61 -41h-76z" />
    <glyph glyph-name="Odieresis" unicode="&#xd6;" horiz-adv-x="730" 
d="M365 -8c-179 0 -336 127 -336 358s157 358 336 358s336 -127 336 -358s-157 -358 -336 -358zM365 100c102 0 176 76 176 247c0 172 -74 251 -176 251c-103 0 -176 -79 -176 -251c0 -171 73 -247 176 -247zM269 723c-42 0 -75 32 -75 73c0 40 33 73 75 73s75 -33 75 -73
c0 -41 -33 -73 -75 -73zM461 723c-42 0 -75 32 -75 73c0 40 33 73 75 73s75 -33 75 -73c0 -41 -33 -73 -75 -73z" />
    <glyph glyph-name="Ograve" unicode="&#xd2;" horiz-adv-x="730" 
d="M365 -8c-179 0 -336 127 -336 358s157 358 336 358s336 -127 336 -358s-157 -358 -336 -358zM365 100c102 0 176 76 176 247c0 172 -74 251 -176 251c-103 0 -176 -79 -176 -251c0 -171 73 -247 176 -247zM415 722h-83l-99 86v42h148l34 -97v-31z" />
    <glyph glyph-name="Otilde" unicode="&#xd5;" horiz-adv-x="730" 
d="M365 -8c-179 0 -336 127 -336 358s157 358 336 358s336 -127 336 -358s-157 -358 -336 -358zM365 100c102 0 176 76 176 247c0 172 -74 251 -176 251c-103 0 -176 -79 -176 -251c0 -171 73 -247 176 -247zM205 722v38c11 62 46 94 99 94c47 0 83 -26 108 -26
c18 0 28 10 33 27h80v-38c-11 -62 -46 -94 -99 -94c-47 0 -82 28 -107 28c-19 0 -30 -10 -34 -29h-80z" />
    <glyph glyph-name="Scaron" unicode="&#x160;" horiz-adv-x="524" 
d="M242 -8c-100 0 -163 22 -222 56v119h51c31 -33 84 -64 166 -64c85 0 126 32 126 86c0 75 -70 82 -150 106c-129 38 -188 91 -188 209c0 136 102 204 245 204c82 0 151 -19 195 -46v-113h-49c-37 27 -80 47 -140 47c-76 0 -117 -24 -117 -81c0 -56 46 -73 128 -94
c153 -39 217 -87 217 -216c0 -136 -90 -213 -262 -213zM406 854v-37l-91 -95h-100l-87 95v37h80l61 -41l61 41h76z" />
    <glyph glyph-name="Uacute" unicode="&#xda;" horiz-adv-x="678" 
d="M357 107c85 0 132 32 132 163v430h130v-426c0 -180 -73 -282 -271 -282c-190 0 -289 102 -289 282v426h156v-430c0 -131 52 -163 142 -163zM390 722h-83v31l34 97h148v-42z" />
    <glyph glyph-name="Ucircumflex" unicode="&#xdb;" horiz-adv-x="678" 
d="M357 107c85 0 132 32 132 163v430h130v-426c0 -180 -73 -282 -271 -282c-190 0 -289 102 -289 282v426h156v-430c0 -131 52 -163 142 -163zM214 722v37l91 95h100l87 -95v-37h-80l-61 41l-61 -41h-76z" />
    <glyph glyph-name="Udieresis" unicode="&#xdc;" horiz-adv-x="678" 
d="M357 107c85 0 132 32 132 163v430h130v-426c0 -180 -73 -282 -271 -282c-190 0 -289 102 -289 282v426h156v-430c0 -131 52 -163 142 -163zM257 723c-42 0 -75 32 -75 73c0 40 33 73 75 73s75 -33 75 -73c0 -41 -33 -73 -75 -73zM449 723c-42 0 -75 32 -75 73
c0 40 33 73 75 73s75 -33 75 -73c0 -41 -33 -73 -75 -73z" />
    <glyph glyph-name="Ugrave" unicode="&#xd9;" horiz-adv-x="678" 
d="M357 107c85 0 132 32 132 163v430h130v-426c0 -180 -73 -282 -271 -282c-190 0 -289 102 -289 282v426h156v-430c0 -131 52 -163 142 -163zM403 722h-83l-99 86v42h148l34 -97v-31z" />
    <glyph glyph-name="Yacute" unicode="&#xdd;" horiz-adv-x="612" 
d="M391 0h-156v271l-217 385v44h146l157 -294h2l151 294h120v-44l-203 -381v-275zM352 722h-83v31l34 97h148v-42z" />
    <glyph glyph-name="Ydieresis" unicode="&#x178;" horiz-adv-x="612" 
d="M391 0h-156v271l-217 385v44h146l157 -294h2l151 294h120v-44l-203 -381v-275zM225 723c-42 0 -75 32 -75 73c0 40 33 73 75 73s75 -33 75 -73c0 -41 -33 -73 -75 -73zM417 723c-42 0 -75 32 -75 73c0 40 33 73 75 73s75 -33 75 -73c0 -41 -33 -73 -75 -73z" />
    <glyph glyph-name="Zcaron" unicode="&#x17d;" horiz-adv-x="553" 
d="M24 0v118l335 467v4h-309v111h474v-121l-335 -467v-4h335v-108h-500zM429 854v-37l-91 -95h-100l-87 95v37h80l61 -41l61 41h76z" />
    <glyph glyph-name="aacute" unicode="&#xe1;" horiz-adv-x="538" 
d="M425 0c-46 0 -67 10 -77 52c-38 -42 -88 -58 -152 -58c-98 0 -170 54 -170 158c0 110 88 164 209 164c43 0 73 -4 105 -12v50c0 48 -26 73 -96 73c-55 0 -101 -17 -136 -41h-41v103c50 23 111 44 200 44c145 0 219 -48 219 -169v-364h-61zM340 126v100c-23 4 -48 6 -75 6
c-59 0 -97 -21 -97 -72s33 -74 82 -74c36 0 66 18 90 40zM310 562h-83v31l34 107h148v-42z" />
    <glyph glyph-name="acircumflex" unicode="&#xe2;" horiz-adv-x="538" 
d="M425 0c-46 0 -67 10 -77 52c-38 -42 -88 -58 -152 -58c-98 0 -170 54 -170 158c0 110 88 164 209 164c43 0 73 -4 105 -12v50c0 48 -26 73 -96 73c-55 0 -101 -17 -136 -41h-41v103c50 23 111 44 200 44c145 0 219 -48 219 -169v-364h-61zM127 562v37l91 101h100l87 -101
v-37h-80l-61 47l-61 -47h-76zM340 126v100c-23 4 -48 6 -75 6c-59 0 -97 -21 -97 -72s33 -74 82 -74c36 0 66 18 90 40z" />
    <glyph glyph-name="adieresis" unicode="&#xe4;" horiz-adv-x="538" 
d="M425 0c-46 0 -67 10 -77 52c-38 -42 -88 -58 -152 -58c-98 0 -170 54 -170 158c0 110 88 164 209 164c43 0 73 -4 105 -12v50c0 48 -26 73 -96 73c-55 0 -101 -17 -136 -41h-41v103c50 23 111 44 200 44c145 0 219 -48 219 -169v-364h-61zM340 126v100c-23 4 -48 6 -75 6
c-59 0 -97 -21 -97 -72s33 -74 82 -74c36 0 66 18 90 40zM170 566c-42 0 -75 32 -75 73c0 40 33 73 75 73s75 -33 75 -73c0 -41 -33 -73 -75 -73zM362 566c-42 0 -75 32 -75 73c0 40 33 73 75 73s75 -33 75 -73c0 -41 -33 -73 -75 -73z" />
    <glyph glyph-name="agrave" unicode="&#xe0;" horiz-adv-x="538" 
d="M425 0c-46 0 -67 10 -77 52c-38 -42 -88 -58 -152 -58c-98 0 -170 54 -170 158c0 110 88 164 209 164c43 0 73 -4 105 -12v50c0 48 -26 73 -96 73c-55 0 -101 -17 -136 -41h-41v103c50 23 111 44 200 44c145 0 219 -48 219 -169v-364h-61zM340 126v100c-23 4 -48 6 -75 6
c-59 0 -97 -21 -97 -72s33 -74 82 -74c36 0 66 18 90 40zM307 562h-83l-99 96v42h148l34 -107v-31z" />
    <glyph glyph-name="aring" unicode="&#xe5;" horiz-adv-x="538" 
d="M425 0c-46 0 -67 10 -77 52c-38 -42 -88 -58 -152 -58c-98 0 -170 54 -170 158c0 110 88 164 209 164c43 0 73 -4 105 -12v50c0 48 -26 73 -96 73c-55 0 -101 -17 -136 -41h-41v103c50 23 111 44 200 44c145 0 219 -48 219 -169v-364h-61zM266 566
c-57 0 -105 38 -105 100s48 101 105 101s105 -39 105 -101s-48 -100 -105 -100zM340 126v100c-23 4 -48 6 -75 6c-59 0 -97 -21 -97 -72s33 -74 82 -74c36 0 66 18 90 40zM266 628c22 0 37 15 37 38c0 24 -15 39 -37 39s-36 -15 -36 -39c0 -23 14 -38 36 -38z" />
    <glyph glyph-name="atilde" unicode="&#xe3;" horiz-adv-x="538" 
d="M425 0c-46 0 -67 10 -77 52c-38 -42 -88 -58 -152 -58c-98 0 -170 54 -170 158c0 110 88 164 209 164c43 0 73 -4 105 -12v50c0 48 -26 73 -96 73c-55 0 -101 -17 -136 -41h-41v103c50 23 111 44 200 44c145 0 219 -48 219 -169v-364h-61zM106 564v38c11 62 46 94 99 94
c47 0 83 -26 108 -26c18 0 28 10 33 27h80v-38c-11 -62 -46 -94 -99 -94c-47 0 -82 28 -107 28c-19 0 -30 -10 -34 -29h-80zM340 126v100c-23 4 -48 6 -75 6c-59 0 -97 -21 -97 -72s33 -74 82 -74c36 0 66 18 90 40z" />
    <glyph glyph-name="ccedilla" unicode="&#xe7;" horiz-adv-x="499" 
d="M223 0c-125 26 -197 119 -197 261c0 169 120 272 279 272c82 0 129 -19 161 -36v-109h-56c-21 20 -58 38 -105 38c-76 0 -131 -56 -131 -166c0 -113 52 -161 127 -161c62 0 95 21 117 42h50v-100c-32 -21 -89 -48 -170 -48h-6v-17c57 -2 81 -30 81 -74
c0 -48 -41 -77 -105 -77c-33 0 -56 6 -77 16v60h29c7 -8 19 -14 36 -14c19 0 28 6 28 19c0 12 -10 18 -35 18h-26v76z" />
    <glyph glyph-name="eacute" unicode="&#xe9;" horiz-adv-x="543" 
d="M516 230h-340c7 -105 57 -134 138 -134c59 0 105 19 139 44h45v-96c-42 -24 -101 -51 -206 -51c-172 0 -266 102 -266 267c0 169 110 273 256 273c154 0 236 -85 236 -258c0 -18 -2 -40 -2 -45zM282 441c-51 0 -93 -25 -104 -123h196c-3 93 -35 123 -92 123zM323 562h-83
v31l34 107h148v-42z" />
    <glyph glyph-name="ecircumflex" unicode="&#xea;" horiz-adv-x="543" 
d="M516 230h-340c7 -105 57 -134 138 -134c59 0 105 19 139 44h45v-96c-42 -24 -101 -51 -206 -51c-172 0 -266 102 -266 267c0 169 110 273 256 273c154 0 236 -85 236 -258c0 -18 -2 -40 -2 -45zM140 562v37l91 101h100l87 -101v-37h-80l-61 47l-61 -47h-76zM282 441
c-51 0 -93 -25 -104 -123h196c-3 93 -35 123 -92 123z" />
    <glyph glyph-name="edieresis" unicode="&#xeb;" horiz-adv-x="543" 
d="M516 230h-340c7 -105 57 -134 138 -134c59 0 105 19 139 44h45v-96c-42 -24 -101 -51 -206 -51c-172 0 -266 102 -266 267c0 169 110 273 256 273c154 0 236 -85 236 -258c0 -18 -2 -40 -2 -45zM282 441c-51 0 -93 -25 -104 -123h196c-3 93 -35 123 -92 123zM183 566
c-42 0 -75 32 -75 73c0 40 33 73 75 73s75 -33 75 -73c0 -41 -33 -73 -75 -73zM375 566c-42 0 -75 32 -75 73c0 40 33 73 75 73s75 -33 75 -73c0 -41 -33 -73 -75 -73z" />
    <glyph glyph-name="egrave" unicode="&#xe8;" horiz-adv-x="543" 
d="M516 230h-340c7 -105 57 -134 138 -134c59 0 105 19 139 44h45v-96c-42 -24 -101 -51 -206 -51c-172 0 -266 102 -266 267c0 169 110 273 256 273c154 0 236 -85 236 -258c0 -18 -2 -40 -2 -45zM282 441c-51 0 -93 -25 -104 -123h196c-3 93 -35 123 -92 123zM320 562h-83
l-99 96v42h148l34 -107v-31z" />
    <glyph glyph-name="iacute" unicode="&#xed;" horiz-adv-x="259" 
d="M202 0h-146v525h91c48 0 55 -16 55 -96v-429zM156 562h-83v31l34 107h148v-42z" />
    <glyph glyph-name="icircumflex" unicode="&#xee;" horiz-adv-x="259" 
d="M202 0h-146v525h91c48 0 55 -16 55 -96v-429zM-10 562v37l91 101h100l87 -101v-37h-80l-61 47l-61 -47h-76z" />
    <glyph glyph-name="idieresis" unicode="&#xef;" horiz-adv-x="259" 
d="M202 0h-146v525h91c48 0 55 -16 55 -96v-429zM33 566c-42 0 -75 32 -75 73c0 40 33 73 75 73s75 -33 75 -73c0 -41 -33 -73 -75 -73zM225 566c-42 0 -75 32 -75 73c0 40 33 73 75 73s75 -33 75 -73c0 -41 -33 -73 -75 -73z" />
    <glyph glyph-name="igrave" unicode="&#xec;" horiz-adv-x="259" 
d="M202 0h-146v525h91c48 0 55 -16 55 -96v-429zM180 562h-83l-99 96v42h148l34 -107v-31z" />
    <glyph glyph-name="ntilde" unicode="&#xf1;" horiz-adv-x="583" 
d="M154 525c25 0 39 -11 45 -56c49 36 121 64 191 64c76 0 141 -29 141 -147v-386h-146v349c0 52 -20 67 -65 67s-86 -12 -119 -24v-392h-146v525h99zM136 564v38c11 62 46 94 99 94c47 0 83 -26 108 -26c18 0 28 10 33 27h80v-38c-11 -62 -46 -94 -99 -94
c-47 0 -82 28 -107 28c-19 0 -30 -10 -34 -29h-80z" />
    <glyph glyph-name="oacute" unicode="&#xf3;" horiz-adv-x="588" 
d="M294 -7c-148 0 -268 99 -268 267c0 169 120 273 268 273s268 -104 268 -273c0 -168 -120 -267 -268 -267zM294 97c71 0 120 49 120 162c0 114 -49 170 -120 170s-120 -56 -120 -170c0 -113 49 -162 120 -162zM338 562h-83v31l34 107h148v-42z" />
    <glyph glyph-name="ocircumflex" unicode="&#xf4;" horiz-adv-x="588" 
d="M294 -7c-148 0 -268 99 -268 267c0 169 120 273 268 273s268 -104 268 -273c0 -168 -120 -267 -268 -267zM294 97c71 0 120 49 120 162c0 114 -49 170 -120 170s-120 -56 -120 -170c0 -113 49 -162 120 -162zM155 562v37l91 101h100l87 -101v-37h-80l-61 47l-61 -47h-76z
" />
    <glyph glyph-name="odieresis" unicode="&#xf6;" horiz-adv-x="588" 
d="M294 -7c-148 0 -268 99 -268 267c0 169 120 273 268 273s268 -104 268 -273c0 -168 -120 -267 -268 -267zM294 97c71 0 120 49 120 162c0 114 -49 170 -120 170s-120 -56 -120 -170c0 -113 49 -162 120 -162zM198 566c-42 0 -75 32 -75 73c0 40 33 73 75 73
s75 -33 75 -73c0 -41 -33 -73 -75 -73zM390 566c-42 0 -75 32 -75 73c0 40 33 73 75 73s75 -33 75 -73c0 -41 -33 -73 -75 -73z" />
    <glyph glyph-name="ograve" unicode="&#xf2;" horiz-adv-x="588" 
d="M294 -7c-148 0 -268 99 -268 267c0 169 120 273 268 273s268 -104 268 -273c0 -168 -120 -267 -268 -267zM294 97c71 0 120 49 120 162c0 114 -49 170 -120 170s-120 -56 -120 -170c0 -113 49 -162 120 -162zM335 562h-83l-99 96v42h148l34 -107v-31z" />
    <glyph glyph-name="otilde" unicode="&#xf5;" horiz-adv-x="588" 
d="M294 -7c-148 0 -268 99 -268 267c0 169 120 273 268 273s268 -104 268 -273c0 -168 -120 -267 -268 -267zM294 97c71 0 120 49 120 162c0 114 -49 170 -120 170s-120 -56 -120 -170c0 -113 49 -162 120 -162zM134 564v38c11 62 46 94 99 94c47 0 83 -26 108 -26
c18 0 28 10 33 27h80v-38c-11 -62 -46 -94 -99 -94c-47 0 -82 28 -107 28c-19 0 -30 -10 -34 -29h-80z" />
    <glyph glyph-name="scaron" unicode="&#x161;" horiz-adv-x="455" 
d="M212 -6c-86 0 -141 20 -182 43v108h46c24 -22 68 -44 129 -44c59 0 90 16 90 49c0 32 -19 47 -93 56c-115 14 -176 57 -176 160c0 106 79 165 208 165c76 0 123 -15 165 -36v-106h-44c-24 18 -66 35 -120 35c-57 0 -79 -17 -79 -47c0 -27 26 -41 98 -50
c125 -16 177 -57 177 -163c0 -103 -67 -170 -219 -170zM369 700v-37l-91 -101h-100l-87 101v37h80l61 -47l61 47h76z" />
    <glyph glyph-name="uacute" unicode="&#xfa;" horiz-adv-x="595" 
d="M278 102c37 0 78 13 110 26v397h146v-525h-99c-24 0 -38 8 -44 49c-49 -34 -116 -56 -180 -56c-88 0 -153 34 -153 142v390h146v-353c0 -57 28 -70 74 -70zM341 562h-83v31l34 107h148v-42z" />
    <glyph glyph-name="ucircumflex" unicode="&#xfb;" horiz-adv-x="595" 
d="M278 102c37 0 78 13 110 26v397h146v-525h-99c-24 0 -38 8 -44 49c-49 -34 -116 -56 -180 -56c-88 0 -153 34 -153 142v390h146v-353c0 -57 28 -70 74 -70zM158 562v37l91 101h100l87 -101v-37h-80l-61 47l-61 -47h-76z" />
    <glyph glyph-name="udieresis" unicode="&#xfc;" horiz-adv-x="595" 
d="M278 102c37 0 78 13 110 26v397h146v-525h-99c-24 0 -38 8 -44 49c-49 -34 -116 -56 -180 -56c-88 0 -153 34 -153 142v390h146v-353c0 -57 28 -70 74 -70zM393 566c-42 0 -75 32 -75 73c0 40 33 73 75 73s75 -33 75 -73c0 -41 -33 -73 -75 -73zM201 566
c-42 0 -75 32 -75 73c0 40 33 73 75 73s75 -33 75 -73c0 -41 -33 -73 -75 -73z" />
    <glyph glyph-name="ugrave" unicode="&#xf9;" horiz-adv-x="595" 
d="M278 102c37 0 78 13 110 26v397h146v-525h-99c-24 0 -38 8 -44 49c-49 -34 -116 -56 -180 -56c-88 0 -153 34 -153 142v390h146v-353c0 -57 28 -70 74 -70zM338 562h-83l-99 96v42h148l34 -107v-31z" />
    <glyph glyph-name="yacute" unicode="&#xfd;" horiz-adv-x="549" 
d="M145 -162v39l71 149l-197 461v38h137l129 -324h2l119 324h125v-38l-261 -649h-125zM330 562h-83v31l34 107h148v-42z" />
    <glyph glyph-name="ydieresis" unicode="&#xff;" horiz-adv-x="549" 
d="M145 -162v39l71 149l-197 461v38h137l129 -324h2l119 324h125v-38l-261 -649h-125zM190 566c-42 0 -75 32 -75 73c0 40 33 73 75 73s75 -33 75 -73c0 -41 -33 -73 -75 -73zM382 566c-42 0 -75 32 -75 73c0 40 33 73 75 73s75 -33 75 -73c0 -41 -33 -73 -75 -73z" />
    <glyph glyph-name="zcaron" unicode="&#x17e;" horiz-adv-x="493" 
d="M29 0v101l268 321h-252v103h414v-102l-269 -320h262v-103h-423zM391 700v-37l-91 -101h-100l-87 101v37h80l61 -47l61 47h76z" />
    <glyph glyph-name="oneeighth" unicode="&#x215b;" horiz-adv-x="783" 
d="M214 315h-117v274l-52 -27h-22v82l106 56h85v-385zM154 -34h-104l493 763h104zM597 -8c-105 0 -163 45 -163 116c0 50 25 80 74 96v2c-40 13 -59 40 -59 81c0 65 61 104 148 104c85 0 147 -39 147 -104c0 -41 -18 -68 -58 -81v-2c49 -16 73 -46 73 -96
c0 -71 -58 -116 -162 -116zM597 64c37 0 53 22 53 53c0 30 -16 54 -53 54c-38 0 -55 -24 -55 -54c0 -31 17 -53 55 -53zM597 234c27 0 44 15 44 42s-17 43 -44 43c-29 0 -45 -16 -45 -43s16 -42 45 -42z" />
    <glyph glyph-name="threeeighths" unicode="&#x215c;" horiz-adv-x="811" 
d="M147 309c-59 0 -93 15 -119 31v71h39c12 -11 38 -25 69 -25c39 0 63 13 63 43c0 29 -22 43 -60 43h-36v72h33c38 0 61 16 61 42c0 25 -17 38 -50 38c-29 0 -55 -11 -69 -21h-38v69c28 18 70 34 123 34c81 0 141 -33 141 -107c0 -47 -32 -73 -78 -86v-2
c53 -9 84 -37 84 -88c0 -74 -63 -114 -163 -114zM200 -34h-104l493 763h104zM625 -8c-105 0 -163 45 -163 116c0 50 25 80 74 96v2c-40 13 -59 40 -59 81c0 65 61 104 148 104c85 0 147 -39 147 -104c0 -41 -18 -68 -58 -81v-2c49 -16 73 -46 73 -96
c0 -71 -58 -116 -162 -116zM625 64c37 0 53 22 53 53c0 30 -16 54 -53 54c-38 0 -55 -24 -55 -54c0 -31 17 -53 55 -53zM625 234c27 0 44 15 44 42s-17 43 -44 43c-29 0 -45 -16 -45 -43s16 -42 45 -42z" />
    <glyph glyph-name="fiveeighths" unicode="&#x215d;" horiz-adv-x="819" 
d="M316 439c0 -81 -65 -130 -170 -130c-55 0 -87 12 -116 28v74h40c13 -11 37 -23 69 -23c41 0 64 18 64 51s-22 48 -48 48s-41 -12 -50 -22h-64v235h255v-84h-175v-75h2c13 9 36 18 72 18c69 0 121 -39 121 -120zM202 -34h-104l493 763h104zM633 -8
c-105 0 -163 45 -163 116c0 50 25 80 74 96v2c-40 13 -59 40 -59 81c0 65 61 104 148 104c85 0 147 -39 147 -104c0 -41 -18 -68 -58 -81v-2c49 -16 73 -46 73 -96c0 -71 -58 -116 -162 -116zM633 64c37 0 53 22 53 53c0 30 -16 54 -53 54c-38 0 -55 -24 -55 -54
c0 -31 17 -53 55 -53zM633 234c27 0 44 15 44 42s-17 43 -44 43c-29 0 -45 -16 -45 -43s16 -42 45 -42z" />
    <glyph glyph-name="seveneighths" unicode="&#x215e;" horiz-adv-x="790" 
d="M65 315v33l142 262v2h-182v88h274v-93l-122 -292h-112zM155 -34h-104l493 763h104zM604 -8c-105 0 -163 45 -163 116c0 50 25 80 74 96v2c-40 13 -59 40 -59 81c0 65 61 104 148 104c85 0 147 -39 147 -104c0 -41 -18 -68 -58 -81v-2c49 -16 73 -46 73 -96
c0 -71 -58 -116 -162 -116zM604 64c37 0 53 22 53 53c0 30 -16 54 -53 54c-38 0 -55 -24 -55 -54c0 -31 17 -53 55 -53zM604 234c27 0 44 15 44 42s-17 43 -44 43c-29 0 -45 -16 -45 -43s16 -42 45 -42z" />
    <glyph glyph-name="onethird" unicode="&#x2153;" horiz-adv-x="765" 
d="M214 315h-117v274l-52 -27h-22v82l106 56h85v-385zM150 -34h-104l493 763h104zM575 -6c-59 0 -93 15 -119 31v71h39c12 -11 38 -25 69 -25c39 0 63 13 63 43c0 29 -22 43 -60 43h-36v72h33c38 0 61 16 61 42c0 25 -17 38 -50 38c-29 0 -55 -11 -69 -21h-38v69
c28 18 70 34 123 34c81 0 141 -33 141 -107c0 -47 -32 -73 -78 -86v-2c53 -9 84 -37 84 -88c0 -74 -63 -114 -163 -114z" />
    <glyph glyph-name="twothirds" unicode="&#x2154;" horiz-adv-x="838" 
d="M306 399v-84h-281v84l107 99c40 37 60 61 60 86c0 22 -17 37 -47 37c-29 0 -57 -13 -71 -25h-40v74c28 19 71 36 128 36c92 0 145 -36 145 -113c0 -56 -34 -90 -92 -140l-63 -54h154zM236 -34h-104l493 763h104zM648 -6c-59 0 -93 15 -119 31v71h39c12 -11 38 -25 69 -25
c39 0 63 13 63 43c0 29 -22 43 -60 43h-36v72h33c38 0 61 16 61 42c0 25 -17 38 -50 38c-29 0 -55 -11 -69 -21h-38v69c28 18 70 34 123 34c81 0 141 -33 141 -107c0 -47 -32 -73 -78 -86v-2c53 -9 84 -37 84 -88c0 -74 -63 -114 -163 -114z" />
    <glyph glyph-name="Euro" unicode="&#x20ac;" horiz-adv-x="597" 
d="M22 323h48v25c0 10 0 20 1 30h-49v87h61c36 153 147 243 304 243c82 0 126 -12 178 -40v-110h-57c-29 22 -65 37 -116 37c-85 0 -132 -45 -152 -130h193l-18 -87h-185v-55h174l-18 -87h-147c17 -90 59 -132 143 -132c66 0 109 23 141 53h49v-106
c-45 -34 -104 -59 -197 -59c-157 0 -262 88 -294 244h-59v87z" />
    <glyph glyph-name="Dcroat" unicode="&#x110;" horiz-adv-x="687" 
d="M8 295v107h61v298h221c235 0 368 -107 368 -347c0 -238 -134 -353 -372 -353h-217v295h-61zM225 110h61c145 0 212 68 212 241c0 172 -66 237 -212 237h-61v-186h149v-107h-149v-185z" />
    <glyph glyph-name="uni0237" unicode="&#x237;" horiz-adv-x="259" 
d="M-39 -157v84h30c48 0 65 21 65 71v527h91c47 0 55 -16 55 -96v-440c0 -110 -56 -157 -160 -157c-34 0 -58 4 -81 11z" />
    <glyph glyph-name="dcroat" unicode="&#x111;" horiz-adv-x="591" 
d="M256 561v85h134v54h89c48 0 56 -13 57 -54h53v-85h-53v-561h-101c-23 0 -36 10 -42 59c-34 -38 -85 -67 -154 -67c-118 0 -210 87 -210 261c0 206 112 280 224 280c67 0 105 -17 137 -45v73h-134zM281 94c43 0 72 15 109 46v255c-23 17 -52 26 -92 26
c-60 0 -121 -30 -121 -161c0 -120 34 -166 104 -166z" />
    <glyph glyph-name="Abreve" unicode="&#x102;" horiz-adv-x="669" 
d="M22 0v41l232 659h161l233 -659v-41h-151l-58 178h-236l-56 -178h-125zM331 723c-79 0 -125 47 -135 92v37h92c2 -17 15 -33 43 -33s40 16 43 33h92v-37c-10 -45 -56 -92 -135 -92zM318 543l-82 -258h168l-84 258h-2z" />
    <glyph glyph-name="Amacron" unicode="&#x100;" horiz-adv-x="669" 
d="M22 0v41l232 659h161l233 -659v-41h-151l-58 178h-236l-56 -178h-125zM464 832v-98h-268v98h268zM318 543l-82 -258h168l-84 258h-2z" />
    <glyph glyph-name="Aogonek" unicode="&#x104;" horiz-adv-x="669" 
d="M22 0v41l232 659h161l233 -659v-41h-22c-22 -18 -36 -32 -36 -54c0 -16 9 -27 39 -27h20v-67c-19 -11 -39 -17 -73 -17c-59 0 -96 28 -96 76c0 40 27 69 59 89h-42l-58 178h-236l-56 -178h-125zM318 543l-82 -258h168l-84 258h-2z" />
    <glyph glyph-name="Cacute" unicode="&#x106;" horiz-adv-x="615" 
d="M364 -8c-202 0 -334 132 -334 356s143 360 346 360c96 0 150 -18 204 -46v-117h-56c-30 28 -75 50 -144 50c-122 0 -190 -85 -190 -241c0 -170 61 -250 181 -250c83 0 129 31 168 70h49v-115c-53 -40 -126 -67 -224 -67zM389 722h-83v31l34 97h148v-42z" />
    <glyph glyph-name="Ccaron" unicode="&#x10c;" horiz-adv-x="615" 
d="M364 -8c-202 0 -334 132 -334 356s143 360 346 360c96 0 150 -18 204 -46v-117h-56c-30 28 -75 50 -144 50c-122 0 -190 -85 -190 -241c0 -170 61 -250 181 -250c83 0 129 31 168 70h49v-115c-53 -40 -126 -67 -224 -67zM491 854v-37l-91 -95h-100l-87 95v37h80l61 -41
l61 41h76z" />
    <glyph glyph-name="Ccircumflex" unicode="&#x108;" horiz-adv-x="615" 
d="M364 -8c-202 0 -334 132 -334 356s143 360 346 360c96 0 150 -18 204 -46v-117h-56c-30 28 -75 50 -144 50c-122 0 -190 -85 -190 -241c0 -170 61 -250 181 -250c83 0 129 31 168 70h49v-115c-53 -40 -126 -67 -224 -67zM213 722v37l91 95h100l87 -95v-37h-80l-61 41
l-61 -41h-76z" />
    <glyph glyph-name="Cdotaccent" unicode="&#x10a;" horiz-adv-x="615" 
d="M364 -8c-202 0 -334 132 -334 356s143 360 346 360c96 0 150 -18 204 -46v-117h-56c-30 28 -75 50 -144 50c-122 0 -190 -85 -190 -241c0 -170 61 -250 181 -250c83 0 129 31 168 70h49v-115c-53 -40 -126 -67 -224 -67zM352 723c-44 0 -79 34 -79 77s35 78 79 78
s79 -35 79 -78s-35 -77 -79 -77z" />
    <glyph glyph-name="Dcaron" unicode="&#x10e;" horiz-adv-x="680" 
d="M62 0v700h221c235 0 368 -107 368 -347c0 -238 -134 -353 -372 -353h-217zM218 110h61c145 0 212 68 212 241c0 172 -66 237 -212 237h-61v-478zM453 854v-37l-91 -95h-100l-87 95v37h80l61 -41l61 41h76z" />
    <glyph glyph-name="Ebreve" unicode="&#x114;" horiz-adv-x="567" 
d="M62 0v700h461v-113h-307v-178h220v-107h-220v-192h318v-110h-472zM306 723c-79 0 -125 47 -135 92v37h92c2 -17 15 -33 43 -33s40 16 43 33h92v-37c-10 -45 -56 -92 -135 -92z" />
    <glyph glyph-name="Ecaron" unicode="&#x11a;" horiz-adv-x="567" 
d="M62 0v700h461v-113h-307v-178h220v-107h-220v-192h318v-110h-472zM445 854v-37l-91 -95h-100l-87 95v37h80l61 -41l61 41h76z" />
    <glyph glyph-name="Edotaccent" unicode="&#x116;" horiz-adv-x="567" 
d="M62 0v700h461v-113h-307v-178h220v-107h-220v-192h318v-110h-472zM306 723c-44 0 -79 34 -79 77s35 78 79 78s79 -35 79 -78s-35 -77 -79 -77z" />
    <glyph glyph-name="Emacron" unicode="&#x112;" horiz-adv-x="567" 
d="M62 0v700h461v-113h-307v-178h220v-107h-220v-192h318v-110h-472zM440 832v-98h-268v98h268z" />
    <glyph glyph-name="Eogonek" unicode="&#x118;" horiz-adv-x="567" 
d="M62 0v700h461v-113h-307v-178h220v-107h-220v-192h318v-110h-46c-22 -18 -36 -32 -36 -54c0 -16 9 -27 39 -27h20v-67c-19 -11 -39 -17 -73 -17c-59 0 -96 28 -96 76c0 40 27 69 59 89h-339z" />
    <glyph glyph-name="Gbreve" unicode="&#x11e;" horiz-adv-x="666" 
d="M361 -8c-208 0 -332 127 -332 356s131 360 350 360c88 0 138 -14 202 -41v-123h-52c-35 28 -70 49 -147 49c-121 0 -189 -67 -189 -239c0 -173 55 -255 168 -255c45 0 72 5 97 13v152h-96v101h249v-320c-70 -36 -156 -53 -250 -53zM352 723c-79 0 -125 47 -135 92v37h92
c2 -17 15 -33 43 -33s40 16 43 33h92v-37c-10 -45 -56 -92 -135 -92z" />
    <glyph glyph-name="Gcircumflex" unicode="&#x11c;" horiz-adv-x="666" 
d="M361 -8c-208 0 -332 127 -332 356s131 360 350 360c88 0 138 -14 202 -41v-123h-52c-35 28 -70 49 -147 49c-121 0 -189 -67 -189 -239c0 -173 55 -255 168 -255c45 0 72 5 97 13v152h-96v101h249v-320c-70 -36 -156 -53 -250 -53zM213 722v37l91 95h100l87 -95v-37h-80
l-61 41l-61 -41h-76z" />
    <glyph glyph-name="Gcommaaccent" unicode="&#x122;" horiz-adv-x="666" 
d="M361 -8c-208 0 -332 127 -332 356s131 360 350 360c88 0 138 -14 202 -41v-123h-52c-35 28 -70 49 -147 49c-121 0 -189 -67 -189 -239c0 -173 55 -255 168 -255c45 0 72 5 97 13v152h-96v101h249v-320c-70 -36 -156 -53 -250 -53zM288 -221v58c32 3 44 14 44 26
s-12 14 -22 21c-14 10 -21 22 -21 45c0 30 26 53 60 53c36 0 67 -23 67 -73c0 -79 -41 -123 -128 -130z" />
    <glyph glyph-name="Gdotaccent" unicode="&#x120;" horiz-adv-x="666" 
d="M361 -8c-208 0 -332 127 -332 356s131 360 350 360c88 0 138 -14 202 -41v-123h-52c-35 28 -70 49 -147 49c-121 0 -189 -67 -189 -239c0 -173 55 -255 168 -255c45 0 72 5 97 13v152h-96v101h249v-320c-70 -36 -156 -53 -250 -53zM352 723c-44 0 -79 34 -79 77
s35 78 79 78s79 -35 79 -78s-35 -77 -79 -77z" />
    <glyph glyph-name="Hbar" unicode="&#x126;" horiz-adv-x="693" 
d="M6 498v98h56v104h156v-104h257v104h156v-104h56v-98h-56v-498h-156v303h-257v-303h-156v498h-56zM218 412h257v86h-257v-86z" />
    <glyph glyph-name="Hcircumflex" unicode="&#x124;" horiz-adv-x="693" 
d="M218 0h-156v700h156v-288h257v288h156v-700h-156v303h-257v-303zM207 722v37l91 95h100l87 -95v-37h-80l-61 41l-61 -41h-76z" />
    <glyph glyph-name="Idotaccent" unicode="&#x130;" horiz-adv-x="287" 
d="M222 0h-157v700h157v-700zM143 723c-44 0 -79 34 -79 77s35 78 79 78s79 -35 79 -78s-35 -77 -79 -77z" />
    <glyph glyph-name="Imacron" unicode="&#x12a;" horiz-adv-x="287" 
d="M222 0h-157v700h157v-700zM277 832v-98h-268v98h268z" />
    <glyph glyph-name="Iogonek" unicode="&#x12e;" horiz-adv-x="287" 
d="M222 0h-17c-22 -18 -36 -32 -36 -54c0 -16 9 -27 39 -27h20v-67c-19 -11 -39 -17 -73 -17c-59 0 -96 28 -96 76c0 40 27 69 59 89h-53v700h157v-700z" />
    <glyph glyph-name="Jcircumflex" unicode="&#x134;" horiz-adv-x="465" 
d="M176 -8c-72 0 -118 15 -157 36v114h51c19 -19 47 -38 99 -38s81 28 81 83v513h157v-516c0 -123 -76 -192 -231 -192zM186 722v37l91 95h100l87 -95v-37h-80l-61 41l-61 -41h-76z" />
    <glyph glyph-name="Kcommaaccent" unicode="&#x136;" horiz-adv-x="668" 
d="M62 0v700h156v-307l267 307h128v-42l-213 -237l236 -379v-42h-150l-191 308l-77 -86v-222h-156zM276 -221v58c32 3 44 14 44 26s-12 14 -22 21c-14 10 -21 22 -21 45c0 30 26 53 60 53c36 0 67 -23 67 -73c0 -79 -41 -123 -128 -130z" />
    <glyph glyph-name="Lacute" unicode="&#x139;" horiz-adv-x="537" 
d="M507 0h-445v700h156v-590h289v-110zM177 722h-83v31l34 97h148v-42z" />
    <glyph glyph-name="Lcaron" unicode="&#x13d;" horiz-adv-x="537" 
d="M367 563h-73v137h128v-42zM507 0h-445v700h156v-590h289v-110z" />
    <glyph glyph-name="Lcommaaccent" unicode="&#x13b;" horiz-adv-x="537" 
d="M507 0h-445v700h156v-590h289v-110zM232 -221v58c32 3 44 14 44 26s-12 14 -22 21c-14 10 -21 22 -21 45c0 30 26 53 60 53c36 0 67 -23 67 -73c0 -79 -41 -123 -128 -130z" />
    <glyph glyph-name="Nacute" unicode="&#x143;" horiz-adv-x="693" 
d="M62 0v700h177l258 -449h3v449h131v-700h-142l-294 511h-3v-511h-130zM399 722h-83v31l34 97h148v-42z" />
    <glyph glyph-name="Ncaron" unicode="&#x147;" horiz-adv-x="693" 
d="M62 0v700h177l258 -449h3v449h131v-700h-142l-294 511h-3v-511h-130zM501 854v-37l-91 -95h-100l-87 95v37h80l61 -41l61 41h76z" />
    <glyph glyph-name="Ncommaaccent" unicode="&#x145;" horiz-adv-x="693" 
d="M62 0v700h177l258 -449h3v449h131v-700h-142l-294 511h-3v-511h-130zM276 -221v58c32 3 44 14 44 26s-12 14 -22 21c-14 10 -21 22 -21 45c0 30 26 53 60 53c36 0 67 -23 67 -73c0 -79 -41 -123 -128 -130z" />
    <glyph glyph-name="Ohungarumlaut" unicode="&#x150;" horiz-adv-x="730" 
d="M365 -8c-179 0 -336 127 -336 358s157 358 336 358s336 -127 336 -358s-157 -358 -336 -358zM365 100c102 0 176 76 176 247c0 172 -74 251 -176 251c-103 0 -176 -79 -176 -251c0 -171 73 -247 176 -247zM240 722v28l30 100h120v-42l-71 -86h-79zM403 722v28l30 100h120
v-42l-71 -86h-79z" />
    <glyph glyph-name="Omacron" unicode="&#x14c;" horiz-adv-x="730" 
d="M365 -8c-179 0 -336 127 -336 358s157 358 336 358s336 -127 336 -358s-157 -358 -336 -358zM365 100c102 0 176 76 176 247c0 172 -74 251 -176 251c-103 0 -176 -79 -176 -251c0 -171 73 -247 176 -247zM499 832v-98h-268v98h268z" />
    <glyph glyph-name="Racute" unicode="&#x154;" horiz-adv-x="632" 
d="M458 0l-149 274h-91v-274h-156v700h235c172 0 269 -70 269 -205c0 -93 -41 -156 -112 -191l147 -263v-41h-143zM218 589v-208h75c82 0 116 36 116 105c0 68 -34 103 -116 103h-75zM337 722h-83v31l34 97h148v-42z" />
    <glyph glyph-name="Rcaron" unicode="&#x158;" horiz-adv-x="632" 
d="M458 0l-149 274h-91v-274h-156v700h235c172 0 269 -70 269 -205c0 -93 -41 -156 -112 -191l147 -263v-41h-143zM218 589v-208h75c82 0 116 36 116 105c0 68 -34 103 -116 103h-75zM439 854v-37l-91 -95h-100l-87 95v37h80l61 -41l61 41h76z" />
    <glyph glyph-name="Rcommaaccent" unicode="&#x156;" horiz-adv-x="632" 
d="M458 0l-149 274h-91v-274h-156v700h235c172 0 269 -70 269 -205c0 -93 -41 -156 -112 -191l147 -263v-41h-143zM218 589v-208h75c82 0 116 36 116 105c0 68 -34 103 -116 103h-75zM258 -221v58c32 3 44 14 44 26s-12 14 -22 21c-14 10 -21 22 -21 45c0 30 26 53 60 53
c36 0 67 -23 67 -73c0 -79 -41 -123 -128 -130z" />
    <glyph glyph-name="Sacute" unicode="&#x15a;" horiz-adv-x="533" 
d="M248 -8c-100 0 -163 22 -222 56v119h51c31 -33 84 -64 166 -64c85 0 126 32 126 86c0 75 -70 82 -150 106c-129 38 -188 91 -188 209c0 136 102 204 245 204c82 0 151 -19 195 -46v-113h-49c-37 27 -80 47 -140 47c-76 0 -117 -24 -117 -81c0 -56 46 -73 128 -94
c153 -39 217 -87 217 -216c0 -136 -90 -213 -262 -213zM310 722h-83v31l34 97h148v-42z" />
    <glyph glyph-name="Scedilla" unicode="&#x15e;" horiz-adv-x="536" 
d="M510 205c0 -126 -77 -201 -224 -211v-18c57 -2 81 -30 81 -74c0 -48 -41 -77 -105 -77c-33 0 -56 6 -77 16v60h29c7 -8 19 -14 36 -14c19 0 28 6 28 19c0 12 -10 18 -35 18h-26v69c-83 4 -139 24 -191 55v119h51c31 -33 84 -64 166 -64c85 0 126 32 126 86
c0 75 -70 82 -150 106c-129 38 -188 91 -188 209c0 136 102 204 245 204c82 0 151 -19 195 -46v-113h-49c-37 27 -80 47 -140 47c-76 0 -117 -24 -117 -81c0 -56 46 -73 128 -94c153 -39 217 -87 217 -216z" />
    <glyph glyph-name="Scircumflex" unicode="&#x15c;" horiz-adv-x="533" 
d="M248 -8c-100 0 -163 22 -222 56v119h51c31 -33 84 -64 166 -64c85 0 126 32 126 86c0 75 -70 82 -150 106c-129 38 -188 91 -188 209c0 136 102 204 245 204c82 0 151 -19 195 -46v-113h-49c-37 27 -80 47 -140 47c-76 0 -117 -24 -117 -81c0 -56 46 -73 128 -94
c153 -39 217 -87 217 -216c0 -136 -90 -213 -262 -213zM134 722v37l91 95h100l87 -95v-37h-80l-61 41l-61 -41h-76z" />
    <glyph glyph-name="Scommaaccent" unicode="&#x218;" horiz-adv-x="536" 
d="M248 -8c-100 0 -163 22 -222 56v119h51c31 -33 84 -64 166 -64c85 0 126 32 126 86c0 75 -70 82 -150 106c-129 38 -188 91 -188 209c0 136 102 204 245 204c82 0 151 -19 195 -46v-113h-49c-37 27 -80 47 -140 47c-76 0 -117 -24 -117 -81c0 -56 46 -73 128 -94
c153 -39 217 -87 217 -216c0 -136 -90 -213 -262 -213zM201 -221v58c32 3 44 14 44 26s-12 14 -22 21c-14 10 -21 22 -21 45c0 30 26 53 60 53c36 0 67 -23 67 -73c0 -79 -41 -123 -128 -130z" />
    <glyph glyph-name="Tcaron" unicode="&#x164;" horiz-adv-x="587" 
d="M371 0h-156v590h-191v110h539v-110h-192v-590zM432 854v-37l-91 -95h-100l-87 95v37h80l61 -41l61 41h76z" />
    <glyph glyph-name="Tcommaaccent" unicode="&#x162;" horiz-adv-x="587" 
d="M371 0h-156v590h-191v110h539v-110h-192v-590zM229 -221v58c32 3 44 14 44 26s-12 14 -22 21c-14 10 -21 22 -21 45c0 30 26 53 60 53c36 0 67 -23 67 -73c0 -79 -41 -123 -128 -130z" />
    <glyph glyph-name="Ubreve" unicode="&#x16c;" horiz-adv-x="678" 
d="M357 107c85 0 132 32 132 163v430h130v-426c0 -180 -73 -282 -271 -282c-190 0 -289 102 -289 282v426h156v-430c0 -131 52 -163 142 -163zM353 723c-79 0 -125 47 -135 92v37h92c2 -17 15 -33 43 -33s40 16 43 33h92v-37c-10 -45 -56 -92 -135 -92z" />
    <glyph glyph-name="Uhungarumlaut" unicode="&#x170;" horiz-adv-x="678" 
d="M357 107c85 0 132 32 132 163v430h130v-426c0 -180 -73 -282 -271 -282c-190 0 -289 102 -289 282v426h156v-430c0 -131 52 -163 142 -163zM228 722v28l30 100h120v-42l-71 -86h-79zM391 722v28l30 100h120v-42l-71 -86h-79z" />
    <glyph glyph-name="Umacron" unicode="&#x16a;" horiz-adv-x="678" 
d="M357 107c85 0 132 32 132 163v430h130v-426c0 -180 -73 -282 -271 -282c-190 0 -289 102 -289 282v426h156v-430c0 -131 52 -163 142 -163zM487 832v-98h-268v98h268z" />
    <glyph glyph-name="Uogonek" unicode="&#x172;" horiz-adv-x="678" 
d="M497 21c-30 -15 -62 -22 -80 -38c-12 -11 -19 -22 -19 -37c0 -16 9 -27 39 -27h20v-67c-19 -11 -39 -17 -73 -17c-59 0 -96 28 -96 76c0 35 22 63 49 82h-1c-177 0 -277 104 -277 281v426h156v-430c0 -131 52 -163 142 -163c85 0 132 32 132 163v430h130v-426
c0 -128 -35 -211 -122 -253z" />
    <glyph glyph-name="Uring" unicode="&#x16e;" horiz-adv-x="678" 
d="M357 107c85 0 132 32 132 163v430h130v-426c0 -180 -73 -282 -271 -282c-190 0 -289 102 -289 282v426h156v-430c0 -131 52 -163 142 -163zM353 694c-57 0 -105 38 -105 100s48 101 105 101s105 -39 105 -101s-48 -100 -105 -100zM353 756c22 0 37 15 37 38
c0 24 -15 39 -37 39s-36 -15 -36 -39c0 -23 14 -38 36 -38z" />
    <glyph glyph-name="Zacute" unicode="&#x179;" horiz-adv-x="553" 
d="M24 0v118l335 467v4h-309v111h474v-121l-335 -467v-4h335v-108h-500zM320 722h-83v31l34 97h148v-42z" />
    <glyph glyph-name="Zdotaccent" unicode="&#x17b;" horiz-adv-x="553" 
d="M24 0v118l335 467v4h-309v111h474v-121l-335 -467v-4h335v-108h-500zM290 723c-44 0 -79 34 -79 77s35 78 79 78s79 -35 79 -78s-35 -77 -79 -77z" />
    <glyph glyph-name="abreve" unicode="&#x103;" horiz-adv-x="538" 
d="M425 0c-46 0 -67 10 -77 52c-38 -42 -88 -58 -152 -58c-98 0 -170 54 -170 158c0 110 88 164 209 164c43 0 73 -4 105 -12v50c0 48 -26 73 -96 73c-55 0 -101 -17 -136 -41h-41v103c50 23 111 44 200 44c145 0 219 -48 219 -169v-364h-61zM266 563
c-79 0 -125 49 -135 100v37h92c2 -25 15 -42 43 -42s40 17 43 42h92v-37c-10 -51 -56 -100 -135 -100zM340 126v100c-23 4 -48 6 -75 6c-59 0 -97 -21 -97 -72s33 -74 82 -74c36 0 66 18 90 40z" />
    <glyph glyph-name="amacron" unicode="&#x101;" horiz-adv-x="538" 
d="M425 0c-46 0 -67 10 -77 52c-38 -42 -88 -58 -152 -58c-98 0 -170 54 -170 158c0 110 88 164 209 164c43 0 73 -4 105 -12v50c0 48 -26 73 -96 73c-55 0 -101 -17 -136 -41h-41v103c50 23 111 44 200 44c145 0 219 -48 219 -169v-364h-61zM396 682v-98h-260v98h260z
M340 126v100c-23 4 -48 6 -75 6c-59 0 -97 -21 -97 -72s33 -74 82 -74c36 0 66 18 90 40z" />
    <glyph glyph-name="aogonek" unicode="&#x105;" horiz-adv-x="538" 
d="M464 0c-22 -18 -36 -32 -36 -54c0 -16 9 -27 39 -27h20v-67c-19 -11 -39 -17 -73 -17c-59 0 -96 28 -96 76c0 39 28 73 67 93c-19 7 -31 21 -37 48c-38 -42 -88 -58 -152 -58c-98 0 -170 54 -170 158c0 110 88 164 209 164c43 0 73 -4 105 -12v50c0 48 -26 73 -96 73
c-55 0 -101 -17 -136 -41h-41v103c50 23 111 44 200 44c145 0 219 -48 219 -169v-364h-22zM340 126v100c-23 4 -48 6 -75 6c-59 0 -97 -21 -97 -72s33 -74 82 -74c36 0 66 18 90 40z" />
    <glyph glyph-name="cacute" unicode="&#x107;" horiz-adv-x="499" 
d="M298 -7c-171 0 -272 100 -272 268c0 169 120 272 279 272c82 0 129 -19 161 -36v-109h-56c-21 20 -58 38 -105 38c-76 0 -131 -56 -131 -166c0 -113 52 -161 127 -161c62 0 95 21 117 42h50v-100c-32 -21 -89 -48 -170 -48zM325 562h-83v31l34 107h148v-42z" />
    <glyph glyph-name="ccaron" unicode="&#x10d;" horiz-adv-x="499" 
d="M298 -7c-171 0 -272 100 -272 268c0 169 120 272 279 272c82 0 129 -19 161 -36v-109h-56c-21 20 -58 38 -105 38c-76 0 -131 -56 -131 -166c0 -113 52 -161 127 -161c62 0 95 21 117 42h50v-100c-32 -21 -89 -48 -170 -48zM420 700v-37l-91 -101h-100l-87 101v37h80
l61 -47l61 47h76z" />
    <glyph glyph-name="ccircumflex" unicode="&#x109;" horiz-adv-x="499" 
d="M298 -7c-171 0 -272 100 -272 268c0 169 120 272 279 272c82 0 129 -19 161 -36v-109h-56c-21 20 -58 38 -105 38c-76 0 -131 -56 -131 -166c0 -113 52 -161 127 -161c62 0 95 21 117 42h50v-100c-32 -21 -89 -48 -170 -48zM142 562v37l91 101h100l87 -101v-37h-80
l-61 47l-61 -47h-76z" />
    <glyph glyph-name="cdotaccent" unicode="&#x10b;" horiz-adv-x="499" 
d="M298 -7c-171 0 -272 100 -272 268c0 169 120 272 279 272c82 0 129 -19 161 -36v-109h-56c-21 20 -58 38 -105 38c-76 0 -131 -56 -131 -166c0 -113 52 -161 127 -161c62 0 95 21 117 42h50v-100c-32 -21 -89 -48 -170 -48zM281 566c-44 0 -79 34 -79 77s35 78 79 78
s79 -35 79 -78s-35 -77 -79 -77z" />
    <glyph glyph-name="dcaron" unicode="&#x10f;" horiz-adv-x="591" 
d="M435 0c-23 0 -36 10 -42 59c-34 -38 -85 -67 -154 -67c-118 0 -210 87 -210 261c0 206 112 280 224 280c67 0 105 -17 137 -45v212h89c49 0 57 -13 57 -82v-618h-101zM281 94c43 0 72 15 109 46v255c-23 17 -52 26 -92 26c-60 0 -121 -30 -121 -161
c0 -120 34 -166 104 -166zM643 563h-73v137h128v-42z" />
    <glyph glyph-name="ebreve" unicode="&#x115;" horiz-adv-x="543" 
d="M516 230h-340c7 -105 57 -134 138 -134c59 0 105 19 139 44h45v-96c-42 -24 -101 -51 -206 -51c-172 0 -266 102 -266 267c0 169 110 273 256 273c154 0 236 -85 236 -258c0 -18 -2 -40 -2 -45zM279 563c-79 0 -125 49 -135 100v37h92c2 -25 15 -42 43 -42s40 17 43 42
h92v-37c-10 -51 -56 -100 -135 -100zM282 441c-51 0 -93 -25 -104 -123h196c-3 93 -35 123 -92 123z" />
    <glyph glyph-name="ecaron" unicode="&#x11b;" horiz-adv-x="543" 
d="M516 230h-340c7 -105 57 -134 138 -134c59 0 105 19 139 44h45v-96c-42 -24 -101 -51 -206 -51c-172 0 -266 102 -266 267c0 169 110 273 256 273c154 0 236 -85 236 -258c0 -18 -2 -40 -2 -45zM418 700v-37l-91 -101h-100l-87 101v37h80l61 -47l61 47h76zM282 441
c-51 0 -93 -25 -104 -123h196c-3 93 -35 123 -92 123z" />
    <glyph glyph-name="edotaccent" unicode="&#x117;" horiz-adv-x="543" 
d="M516 230h-340c7 -105 57 -134 138 -134c59 0 105 19 139 44h45v-96c-42 -24 -101 -51 -206 -51c-172 0 -266 102 -266 267c0 169 110 273 256 273c154 0 236 -85 236 -258c0 -18 -2 -40 -2 -45zM282 441c-51 0 -93 -25 -104 -123h196c-3 93 -35 123 -92 123zM279 566
c-44 0 -79 34 -79 77s35 78 79 78s79 -35 79 -78s-35 -77 -79 -77z" />
    <glyph glyph-name="emacron" unicode="&#x113;" horiz-adv-x="543" 
d="M516 230h-340c7 -105 57 -134 138 -134c59 0 105 19 139 44h45v-96c-42 -24 -101 -51 -206 -51c-172 0 -266 102 -266 267c0 169 110 273 256 273c154 0 236 -85 236 -258c0 -18 -2 -40 -2 -45zM409 682v-98h-260v98h260zM282 441c-51 0 -93 -25 -104 -123h196
c-3 93 -35 123 -92 123z" />
    <glyph glyph-name="eogonek" unicode="&#x119;" horiz-adv-x="543" 
d="M434 1c-20 -16 -35 -33 -35 -55c0 -16 9 -27 39 -27h20v-67c-19 -11 -39 -17 -73 -17c-59 0 -96 28 -96 76c0 37 26 66 56 85c-15 -2 -36 -3 -53 -3c-172 0 -266 102 -266 267c0 169 110 273 256 273c154 0 236 -85 236 -258c0 -18 -2 -40 -2 -45h-340
c7 -105 57 -134 138 -134c59 0 105 19 139 44h45v-96c-20 -15 -48 -30 -64 -43zM282 441c-51 0 -93 -25 -104 -123h196c-3 93 -35 123 -92 123z" />
    <glyph glyph-name="gbreve" unicode="&#x11f;" horiz-adv-x="591" 
d="M536 525v-497c0 -129 -98 -198 -270 -198c-95 0 -164 18 -211 43v105h44c36 -25 85 -44 149 -44c95 0 142 31 142 103v33c-35 -30 -86 -51 -145 -51c-116 0 -216 73 -216 243c0 195 112 271 230 271c66 0 110 -20 145 -52c11 26 29 44 60 44h72zM287 121
c36 0 74 16 103 37v233c-26 20 -52 30 -94 30c-60 0 -119 -30 -119 -146c0 -117 35 -154 110 -154zM290 563c-79 0 -125 49 -135 100v37h92c2 -25 15 -42 43 -42s40 17 43 42h92v-37c-10 -51 -56 -100 -135 -100z" />
    <glyph glyph-name="gcircumflex" unicode="&#x11d;" horiz-adv-x="591" 
d="M536 525v-497c0 -129 -98 -198 -270 -198c-95 0 -164 18 -211 43v105h44c36 -25 85 -44 149 -44c95 0 142 31 142 103v33c-35 -30 -86 -51 -145 -51c-116 0 -216 73 -216 243c0 195 112 271 230 271c66 0 110 -20 145 -52c11 26 29 44 60 44h72zM287 121
c36 0 74 16 103 37v233c-26 20 -52 30 -94 30c-60 0 -119 -30 -119 -146c0 -117 35 -154 110 -154zM151 562v37l91 101h100l87 -101v-37h-80l-61 47l-61 -47h-76z" />
    <glyph glyph-name="gcommaaccent" unicode="&#x123;" horiz-adv-x="591" 
d="M536 525v-497c0 -129 -98 -198 -270 -198c-95 0 -164 18 -211 43v105h44c36 -25 85 -44 149 -44c95 0 142 31 142 103v33c-35 -30 -86 -51 -145 -51c-116 0 -216 73 -216 243c0 195 112 271 230 271c66 0 110 -20 145 -52c11 26 29 44 60 44h72zM287 121
c36 0 74 16 103 37v233c-26 20 -52 30 -94 30c-60 0 -119 -30 -119 -146c0 -117 35 -154 110 -154zM354 775v-58c-32 -3 -44 -14 -44 -26s12 -14 22 -21c14 -10 21 -22 21 -45c0 -30 -26 -53 -60 -53c-36 0 -67 23 -67 73c0 79 41 123 128 130z" />
    <glyph glyph-name="gdotaccent" unicode="&#x121;" horiz-adv-x="591" 
d="M536 525v-497c0 -129 -98 -198 -270 -198c-95 0 -164 18 -211 43v105h44c36 -25 85 -44 149 -44c95 0 142 31 142 103v33c-35 -30 -86 -51 -145 -51c-116 0 -216 73 -216 243c0 195 112 271 230 271c66 0 110 -20 145 -52c11 26 29 44 60 44h72zM287 121
c36 0 74 16 103 37v233c-26 20 -52 30 -94 30c-60 0 -119 -30 -119 -146c0 -117 35 -154 110 -154zM290 566c-44 0 -79 34 -79 77s35 78 79 78s79 -35 79 -78s-35 -77 -79 -77z" />
    <glyph glyph-name="hbar" unicode="&#x127;" horiz-adv-x="583" 
d="M2 561v85h53v54h89c46 0 56 -12 57 -54h134v-85h-134v-91c49 36 120 63 189 63c76 0 141 -29 141 -147v-386h-146v349c0 52 -20 67 -65 67s-86 -12 -119 -24v-392h-146v561h-53z" />
    <glyph glyph-name="hcircumflex" unicode="&#x125;" horiz-adv-x="583" 
d="M201 618v-148c49 36 120 63 189 63c76 0 141 -29 141 -147v-386h-146v349c0 52 -20 67 -65 67s-86 -12 -119 -24v-392h-146v700h89c48 0 57 -12 57 -82zM156 722v37l91 101h100l87 -101v-37h-80l-61 47l-61 -47h-76z" />
    <glyph glyph-name="imacron" unicode="&#x12b;" horiz-adv-x="259" 
d="M202 0h-146v525h91c48 0 55 -16 55 -96v-429zM249 682v-98h-240v98h240z" />
    <glyph glyph-name="iogonek" unicode="&#x12f;" horiz-adv-x="259" 
d="M202 0h-15c-22 -18 -36 -32 -36 -54c0 -16 9 -27 39 -27h20v-67c-19 -11 -39 -17 -73 -17c-59 0 -96 28 -96 76c0 40 27 69 59 89h-44v525h91c48 0 55 -16 55 -96v-429zM130 566c-44 0 -80 34 -80 77s36 78 80 78s79 -35 79 -78s-35 -77 -79 -77z" />
    <glyph glyph-name="jcircumflex" unicode="&#x135;" horiz-adv-x="259" 
d="M-39 -157v84h30c48 0 65 21 65 71v527h91c47 0 55 -16 55 -96v-440c0 -110 -56 -157 -160 -157c-34 0 -58 4 -81 11zM-11 562v37l91 101h100l87 -101v-37h-80l-61 47l-61 -47h-76z" />
    <glyph glyph-name="kcommaaccent" unicode="&#x137;" horiz-adv-x="551" 
d="M201 618v-304l187 211h120v-38l-155 -168l176 -279v-40h-135l-139 221l-54 -56v-165h-146v700h89c48 0 57 -12 57 -82zM228 -221v58c32 3 44 14 44 26s-12 14 -22 21c-14 10 -21 22 -21 45c0 30 26 53 60 53c36 0 67 -23 67 -73c0 -79 -41 -123 -128 -130z" />
    <glyph glyph-name="lacute" unicode="&#x13a;" horiz-adv-x="260" 
d="M203 0h-146v700h89c49 0 57 -12 57 -82v-618zM165 722h-83v31l34 107h148v-42z" />
    <glyph glyph-name="lcaron" unicode="&#x13e;" horiz-adv-x="260" 
d="M310 563h-73v137h128v-42zM203 0h-146v700h89c49 0 57 -12 57 -82v-618z" />
    <glyph glyph-name="lcommaaccent" unicode="&#x13c;" horiz-adv-x="260" 
d="M203 0h-146v700h89c49 0 57 -12 57 -82v-618zM66 -221v58c32 3 44 14 44 26s-12 14 -22 21c-14 10 -21 22 -21 45c0 30 26 53 60 53c36 0 67 -23 67 -73c0 -79 -41 -123 -128 -130z" />
    <glyph glyph-name="nacute" unicode="&#x144;" horiz-adv-x="583" 
d="M154 525c25 0 39 -11 45 -56c49 36 121 64 191 64c76 0 141 -29 141 -147v-386h-146v349c0 52 -20 67 -65 67s-86 -12 -119 -24v-392h-146v525h99zM340 562h-83v31l34 107h148v-42z" />
    <glyph glyph-name="ncaron" unicode="&#x148;" horiz-adv-x="583" 
d="M154 525c25 0 39 -11 45 -56c49 36 121 64 191 64c76 0 141 -29 141 -147v-386h-146v349c0 52 -20 67 -65 67s-86 -12 -119 -24v-392h-146v525h99zM435 700v-37l-91 -101h-100l-87 101v37h80l61 -47l61 47h76z" />
    <glyph glyph-name="ncommaaccent" unicode="&#x146;" horiz-adv-x="583" 
d="M154 525c25 0 39 -11 45 -56c49 36 121 64 191 64c76 0 141 -29 141 -147v-386h-146v349c0 52 -20 67 -65 67s-86 -12 -119 -24v-392h-146v525h99zM232 -221v58c32 3 44 14 44 26s-12 14 -22 21c-14 10 -21 22 -21 45c0 30 26 53 60 53c36 0 67 -23 67 -73
c0 -79 -41 -123 -128 -130z" />
    <glyph glyph-name="ohungarumlaut" unicode="&#x151;" horiz-adv-x="588" 
d="M294 -7c-148 0 -268 99 -268 267c0 169 120 273 268 273s268 -104 268 -273c0 -168 -120 -267 -268 -267zM294 97c71 0 120 49 120 162c0 114 -49 170 -120 170s-120 -56 -120 -170c0 -113 49 -162 120 -162zM172 562v28l32 110h120v-42l-73 -96h-79zM335 562v28l32 110
h120v-42l-73 -96h-79z" />
    <glyph glyph-name="omacron" unicode="&#x14d;" horiz-adv-x="588" 
d="M294 -7c-148 0 -268 99 -268 267c0 169 120 273 268 273s268 -104 268 -273c0 -168 -120 -267 -268 -267zM294 97c71 0 120 49 120 162c0 114 -49 170 -120 170s-120 -56 -120 -170c0 -113 49 -162 120 -162zM424 682v-98h-260v98h260z" />
    <glyph glyph-name="racute" unicode="&#x155;" horiz-adv-x="395" 
d="M352 410c-72 0 -123 -16 -151 -31v-379h-146v525h99c25 0 40 -11 45 -63c33 35 81 68 146 68c11 0 22 -2 32 -5v-115h-25zM269 562h-83v31l34 107h148v-42z" />
    <glyph glyph-name="rcaron" unicode="&#x159;" horiz-adv-x="395" 
d="M352 410c-72 0 -123 -16 -151 -31v-379h-146v525h99c25 0 40 -11 45 -63c33 35 81 68 146 68c11 0 22 -2 32 -5v-115h-25zM364 700v-37l-91 -101h-100l-87 101v37h80l61 -47l61 47h76z" />
    <glyph glyph-name="rcommaaccent" unicode="&#x157;" horiz-adv-x="390" 
d="M352 410c-72 0 -123 -16 -151 -31v-379h-146v525h99c25 0 40 -11 45 -63c33 35 81 68 146 68c11 0 22 -2 32 -5v-115h-25zM61 -221v58c32 3 44 14 44 26s-12 14 -22 21c-14 10 -21 22 -21 45c0 30 26 53 60 53c36 0 67 -23 67 -73c0 -79 -41 -123 -128 -130z" />
    <glyph glyph-name="sacute" unicode="&#x15b;" horiz-adv-x="455" 
d="M212 -6c-86 0 -141 20 -182 43v108h46c24 -22 68 -44 129 -44c59 0 90 16 90 49c0 32 -19 47 -93 56c-115 14 -176 57 -176 160c0 106 79 165 208 165c76 0 123 -15 165 -36v-106h-44c-24 18 -66 35 -120 35c-57 0 -79 -17 -79 -47c0 -27 26 -41 98 -50
c125 -16 177 -57 177 -163c0 -103 -67 -170 -219 -170zM274 562h-83v31l34 107h148v-42z" />
    <glyph glyph-name="scedilla" unicode="&#x15f;" horiz-adv-x="455" 
d="M431 164c0 -94 -56 -158 -181 -168v-20c57 -2 81 -30 81 -74c0 -48 -41 -77 -105 -77c-33 0 -56 6 -77 16v60h29c7 -8 19 -14 36 -14c19 0 28 6 28 19c0 12 -10 18 -35 18h-26v71c-69 4 -115 22 -151 42v108h46c24 -22 68 -44 129 -44c59 0 90 16 90 49
c0 32 -19 47 -93 56c-115 14 -176 57 -176 160c0 106 79 165 208 165c76 0 123 -15 165 -36v-106h-44c-24 18 -66 35 -120 35c-57 0 -79 -17 -79 -47c0 -27 26 -41 98 -50c125 -16 177 -57 177 -163z" />
    <glyph glyph-name="scircumflex" unicode="&#x15d;" horiz-adv-x="455" 
d="M212 -6c-86 0 -141 20 -182 43v108h46c24 -22 68 -44 129 -44c59 0 90 16 90 49c0 32 -19 47 -93 56c-115 14 -176 57 -176 160c0 106 79 165 208 165c76 0 123 -15 165 -36v-106h-44c-24 18 -66 35 -120 35c-57 0 -79 -17 -79 -47c0 -27 26 -41 98 -50
c125 -16 177 -57 177 -163c0 -103 -67 -170 -219 -170zM91 562v37l91 101h100l87 -101v-37h-80l-61 47l-61 -47h-76z" />
    <glyph glyph-name="scommaaccent" unicode="&#x219;" horiz-adv-x="455" 
d="M212 -6c-86 0 -141 20 -182 43v108h46c24 -22 68 -44 129 -44c59 0 90 16 90 49c0 32 -19 47 -93 56c-115 14 -176 57 -176 160c0 106 79 165 208 165c76 0 123 -15 165 -36v-106h-44c-24 18 -66 35 -120 35c-57 0 -79 -17 -79 -47c0 -27 26 -41 98 -50
c125 -16 177 -57 177 -163c0 -103 -67 -170 -219 -170zM166 -221v58c32 3 44 14 44 26s-12 14 -22 21c-14 10 -21 22 -21 45c0 30 26 53 60 53c36 0 67 -23 67 -73c0 -79 -41 -123 -128 -130z" />
    <glyph glyph-name="tcaron" unicode="&#x165;" horiz-adv-x="352" 
d="M336 563h-73v137h128v-42zM15 427v98h62v140h146v-140h106v-98h-106v-269c0 -50 20 -64 68 -64h40v-88c-22 -7 -51 -14 -92 -14c-101 0 -162 40 -162 149v286h-62z" />
    <glyph glyph-name="tcommaaccent" unicode="&#x163;" horiz-adv-x="352" 
d="M15 427v98h62v140h146v-140h106v-98h-106v-269c0 -50 20 -64 68 -64h40v-88c-22 -7 -51 -14 -92 -14c-101 0 -162 40 -162 149v286h-62zM135 -221v58c32 3 44 14 44 26s-12 14 -22 21c-14 10 -21 22 -21 45c0 30 26 53 60 53c36 0 67 -23 67 -73
c0 -79 -41 -123 -128 -130z" />
    <glyph glyph-name="ubreve" unicode="&#x16d;" horiz-adv-x="595" 
d="M278 102c37 0 78 13 110 26v397h146v-525h-99c-24 0 -38 8 -44 49c-49 -34 -116 -56 -180 -56c-88 0 -153 34 -153 142v390h146v-353c0 -57 28 -70 74 -70zM297 563c-79 0 -125 49 -135 100v37h92c2 -25 15 -42 43 -42s40 17 43 42h92v-37c-10 -51 -56 -100 -135 -100z
" />
    <glyph glyph-name="uhungarumlaut" unicode="&#x171;" horiz-adv-x="595" 
d="M278 102c37 0 78 13 110 26v397h146v-525h-99c-24 0 -38 8 -44 49c-49 -34 -116 -56 -180 -56c-88 0 -153 34 -153 142v390h146v-353c0 -57 28 -70 74 -70zM338 562v28l32 110h120v-42l-73 -96h-79zM175 562v28l32 110h120v-42l-73 -96h-79z" />
    <glyph glyph-name="umacron" unicode="&#x16b;" horiz-adv-x="595" 
d="M278 102c37 0 78 13 110 26v397h146v-525h-99c-24 0 -38 8 -44 49c-49 -34 -116 -56 -180 -56c-88 0 -153 34 -153 142v390h146v-353c0 -57 28 -70 74 -70zM427 682v-98h-260v98h260z" />
    <glyph glyph-name="uogonek" unicode="&#x173;" horiz-adv-x="595" 
d="M513 0c-22 -18 -36 -32 -36 -54c0 -16 9 -27 39 -27h20v-67c-19 -11 -39 -17 -73 -17c-59 0 -96 28 -96 76c0 40 27 69 59 89c-19 2 -30 12 -35 49c-49 -34 -116 -56 -180 -56c-88 0 -153 34 -153 142v390h146v-353c0 -57 28 -70 74 -70c37 0 78 13 110 26v397h146v-525
h-21z" />
    <glyph glyph-name="uring" unicode="&#x16f;" horiz-adv-x="595" 
d="M278 102c37 0 78 13 110 26v397h146v-525h-99c-24 0 -38 8 -44 49c-49 -34 -116 -56 -180 -56c-88 0 -153 34 -153 142v390h146v-353c0 -57 28 -70 74 -70zM297 566c-57 0 -105 38 -105 100s48 101 105 101s105 -39 105 -101s-48 -100 -105 -100zM297 628
c22 0 37 15 37 38c0 24 -15 39 -37 39s-36 -15 -36 -39c0 -23 14 -38 36 -38z" />
    <glyph glyph-name="zacute" unicode="&#x17a;" horiz-adv-x="493" 
d="M29 0v101l268 321h-252v103h414v-102l-269 -320h262v-103h-423zM296 562h-83v31l34 107h148v-42z" />
    <glyph glyph-name="zdotaccent" unicode="&#x17c;" horiz-adv-x="493" 
d="M29 0v101l268 321h-252v103h414v-102l-269 -320h262v-103h-423zM252 566c-44 0 -79 34 -79 77s35 78 79 78s79 -35 79 -78s-35 -77 -79 -77z" />
    <glyph glyph-name="space_uni0326" 
d="M136 -221v58c32 3 44 14 44 26s-12 14 -22 21c-14 10 -21 22 -21 45c0 30 26 53 60 53c36 0 67 -23 67 -73c0 -79 -41 -123 -128 -130z" />
    <glyph glyph-name="zero.numerator" horiz-adv-x="411" 
d="M206 309c-99 0 -180 62 -180 198s84 199 180 199s179 -63 179 -199s-81 -198 -179 -198zM206 387c39 0 62 28 62 118s-23 118 -62 118c-40 0 -63 -28 -63 -118s23 -118 63 -118z" />
    <glyph glyph-name="one.numerator" horiz-adv-x="263" 
d="M214 315h-117v274l-52 -27h-22v82l106 56h85v-385z" />
    <glyph glyph-name="two.numerator" horiz-adv-x="336" 
d="M306 399v-84h-281v84l107 99c40 37 60 61 60 86c0 22 -17 37 -47 37c-29 0 -57 -13 -71 -25h-40v74c28 19 71 36 128 36c92 0 145 -36 145 -113c0 -56 -34 -90 -92 -140l-63 -54h154z" />
    <glyph glyph-name="three.numerator" horiz-adv-x="331" 
d="M141 309c-59 0 -93 15 -119 31v71h39c12 -11 38 -25 69 -25c39 0 63 13 63 43c0 29 -22 43 -60 43h-36v72h33c38 0 61 16 61 42c0 25 -17 38 -50 38c-29 0 -55 -11 -69 -21h-38v69c28 18 70 34 123 34c81 0 141 -33 141 -107c0 -47 -32 -73 -78 -86v-2
c53 -9 84 -37 84 -88c0 -74 -63 -114 -163 -114z" />
    <glyph glyph-name="four.numerator" horiz-adv-x="362" 
d="M302 315h-108v79h-173v84l176 222h105v-233h40v-73h-40v-79zM101 469v-2h94v116h-3z" />
    <glyph glyph-name="five.numerator" horiz-adv-x="332" 
d="M307 439c0 -81 -65 -130 -170 -130c-55 0 -87 12 -116 28v74h40c13 -11 37 -23 69 -23c41 0 64 18 64 51s-22 48 -48 48s-41 -12 -50 -22h-64v235h255v-84h-175v-75h2c13 9 36 18 72 18c69 0 121 -39 121 -120z" />
    <glyph glyph-name="six.numerator" horiz-adv-x="377" 
d="M196 309c-100 0 -170 56 -170 189c0 132 75 208 204 208c47 0 77 -9 99 -21v-78h-39c-11 8 -33 15 -60 15c-57 0 -81 -28 -88 -87c23 16 57 23 89 23c71 0 121 -39 121 -116c0 -82 -60 -133 -156 -133zM191 488c-20 0 -39 -7 -51 -14c2 -73 22 -92 53 -92
c33 0 48 18 48 55c0 36 -18 51 -50 51z" />
    <glyph glyph-name="seven.numerator" horiz-adv-x="326" 
d="M65 315v33l142 262v2h-182v88h274v-93l-122 -292h-112z" />
    <glyph glyph-name="eight.numerator" horiz-adv-x="373" 
d="M187 307c-105 0 -163 45 -163 116c0 50 25 80 74 96v2c-40 13 -59 40 -59 81c0 65 61 104 148 104c85 0 147 -39 147 -104c0 -41 -18 -68 -58 -81v-2c49 -16 73 -46 73 -96c0 -71 -58 -116 -162 -116zM187 379c37 0 53 22 53 53c0 30 -16 54 -53 54
c-38 0 -55 -24 -55 -54c0 -31 17 -53 55 -53zM187 549c27 0 44 15 44 42s-17 43 -44 43c-29 0 -45 -16 -45 -43s16 -42 45 -42z" />
    <glyph glyph-name="nine.numerator" horiz-adv-x="372" 
d="M178 706c100 0 170 -56 170 -191c0 -129 -68 -206 -204 -206c-53 0 -81 9 -103 21v78h39c11 -8 31 -15 64 -15c61 0 82 27 88 83c-24 -16 -56 -22 -87 -22c-71 0 -123 41 -123 118c0 82 60 134 156 134zM183 524c20 0 38 6 51 13c-2 76 -23 96 -54 96
c-33 0 -49 -21 -49 -57c0 -39 20 -52 52 -52z" />
    <glyph glyph-name="zero.denominator" horiz-adv-x="411" 
d="M206 -6c-99 0 -180 62 -180 198s84 199 180 199s179 -63 179 -199s-81 -198 -179 -198zM206 72c39 0 62 28 62 118s-23 118 -62 118c-40 0 -63 -28 -63 -118s23 -118 63 -118z" />
    <glyph glyph-name="one.denominator" horiz-adv-x="263" 
d="M214 0h-117v274l-52 -27h-22v82l106 56h85v-385z" />
    <glyph glyph-name="two.denominator" horiz-adv-x="336" 
d="M306 84v-84h-281v84l107 99c40 37 60 61 60 86c0 22 -17 37 -47 37c-29 0 -57 -13 -71 -25h-40v74c28 19 71 36 128 36c92 0 145 -36 145 -113c0 -56 -34 -90 -92 -140l-63 -54h154z" />
    <glyph glyph-name="three.denominator" horiz-adv-x="331" 
d="M141 -6c-59 0 -93 15 -119 31v71h39c12 -11 38 -25 69 -25c39 0 63 13 63 43c0 29 -22 43 -60 43h-36v72h33c38 0 61 16 61 42c0 25 -17 38 -50 38c-29 0 -55 -11 -69 -21h-38v69c28 18 70 34 123 34c81 0 141 -33 141 -107c0 -47 -32 -73 -78 -86v-2
c53 -9 84 -37 84 -88c0 -74 -63 -114 -163 -114z" />
    <glyph glyph-name="four.denominator" horiz-adv-x="362" 
d="M302 0h-108v79h-173v84l176 222h105v-233h40v-73h-40v-79zM101 154v-2h94v116h-3z" />
    <glyph glyph-name="five.denominator" horiz-adv-x="332" 
d="M307 124c0 -81 -65 -130 -170 -130c-55 0 -87 12 -116 28v74h40c13 -11 37 -23 69 -23c41 0 64 18 64 51s-22 48 -48 48s-41 -12 -50 -22h-64v235h255v-84h-175v-75h2c13 9 36 18 72 18c69 0 121 -39 121 -120z" />
    <glyph glyph-name="six.denominator" horiz-adv-x="377" 
d="M196 -6c-100 0 -170 56 -170 189c0 132 75 208 204 208c47 0 77 -9 99 -21v-78h-39c-11 8 -33 15 -60 15c-57 0 -81 -28 -88 -87c23 16 57 23 89 23c71 0 121 -39 121 -116c0 -82 -60 -133 -156 -133zM191 173c-20 0 -39 -7 -51 -14c2 -73 22 -92 53 -92
c33 0 48 18 48 55c0 36 -18 51 -50 51z" />
    <glyph glyph-name="seven.denominator" horiz-adv-x="326" 
d="M65 0v33l142 262v2h-182v88h274v-93l-122 -292h-112z" />
    <glyph glyph-name="eight.denominator" horiz-adv-x="373" 
d="M187 -8c-105 0 -163 45 -163 116c0 50 25 80 74 96v2c-40 13 -59 40 -59 81c0 65 61 104 148 104c85 0 147 -39 147 -104c0 -41 -18 -68 -58 -81v-2c49 -16 73 -46 73 -96c0 -71 -58 -116 -162 -116zM187 64c37 0 53 22 53 53c0 30 -16 54 -53 54c-38 0 -55 -24 -55 -54
c0 -31 17 -53 55 -53zM187 234c27 0 44 15 44 42s-17 43 -44 43c-29 0 -45 -16 -45 -43s16 -42 45 -42z" />
    <glyph glyph-name="nine.denominator" horiz-adv-x="372" 
d="M178 391c100 0 170 -56 170 -191c0 -129 -68 -206 -204 -206c-53 0 -81 9 -103 21v78h39c11 -8 31 -15 64 -15c61 0 82 27 88 83c-24 -16 -56 -22 -87 -22c-71 0 -123 41 -123 118c0 82 60 134 156 134zM183 209c20 0 38 6 51 13c-2 76 -23 96 -54 96
c-33 0 -49 -21 -49 -57c0 -39 20 -52 52 -52z" />
    <glyph glyph-name="one.superior" unicode="&#xb9;" horiz-adv-x="263" 
d="M214 315h-117v274l-52 -27h-22v82l106 56h85v-385z" />
    <glyph glyph-name="two.superior" unicode="&#xb2;" horiz-adv-x="336" 
d="M306 399v-84h-281v84l107 99c40 37 60 61 60 86c0 22 -17 37 -47 37c-29 0 -57 -13 -71 -25h-40v74c28 19 71 36 128 36c92 0 145 -36 145 -113c0 -56 -34 -90 -92 -140l-63 -54h154z" />
    <glyph glyph-name="three.superior" unicode="&#xb3;" horiz-adv-x="331" 
d="M141 309c-59 0 -93 15 -119 31v71h39c12 -11 38 -25 69 -25c39 0 63 13 63 43c0 29 -22 43 -60 43h-36v72h33c38 0 61 16 61 42c0 25 -17 38 -50 38c-29 0 -55 -11 -69 -21h-38v69c28 18 70 34 123 34c81 0 141 -33 141 -107c0 -47 -32 -73 -78 -86v-2
c53 -9 84 -37 84 -88c0 -74 -63 -114 -163 -114z" />
    <glyph glyph-name="Q.alt" horiz-adv-x="730" 
d="M594 -124c-37 61 -96 97 -240 114c-82 10 -152 36 -206 81c-75 59 -119 151 -119 279c0 231 157 358 336 358c180 0 336 -127 336 -358c0 -156 -66 -257 -169 -297v-2c117 -21 181 -75 208 -121v-54h-146zM365 100c102 0 176 76 176 247c0 172 -74 251 -176 251
c-103 0 -176 -79 -176 -251c0 -171 73 -247 176 -247z" />
    <glyph glyph-name="Q.alt1" horiz-adv-x="730" 
d="M365 -8c-179 0 -336 127 -336 358s157 358 336 358s336 -127 336 -358c0 -96 -29 -175 -76 -234l77 -57v-59h-107l-53 42c-53 -33 -114 -50 -177 -50zM365 100c34 0 63 4 86 15l-97 78v58h91l76 -57c13 37 20 87 20 153c0 172 -74 251 -176 251
c-103 0 -176 -79 -176 -251c0 -171 73 -247 176 -247z" />
    <glyph glyph-name="f.short" horiz-adv-x="324" 
d="M15 427v98h62v40c0 100 63 145 166 145c36 0 62 -6 80 -13v-88h-33c-41 0 -67 -9 -67 -49v-35h100v-98h-100v-427h-146v427h-62z" />
    <glyph glyph-name="f_f.short" horiz-adv-x="626" 
d="M223 427v-427h-146v427h-62v98h62v34c0 100 63 145 166 145c42 0 64 -6 83 -13v-88h-36c-41 0 -67 -9 -67 -49v-29h156v40c0 100 63 145 166 145c36 0 62 -6 80 -13v-88h-33c-41 0 -67 -9 -67 -49v-35h100v-98h-100v-427h-146v427h-156z" />
    <glyph glyph-name="less.cap" horiz-adv-x="426" 
d="M393 700v-43l-220 -307v-3l220 -304v-43h-129l-231 311v77l231 312h129z" />
    <glyph glyph-name="greater.cap" horiz-adv-x="426" 
d="M33 0v43l220 307v3l-220 304v43h129l231 -311v-77l-231 -312h-129z" />
    <glyph glyph-name="questiondown.cap" horiz-adv-x="449" 
d="M328 494c11 -73 2 -117 -65 -182c-44 -43 -80 -84 -80 -138c0 -45 32 -68 75 -68c54 0 90 20 116 47h56v-108c-46 -31 -104 -53 -181 -53c-137 0 -220 61 -220 181c0 76 37 123 102 176c60 50 98 76 93 145h104zM271 706c46 0 82 -35 82 -80s-36 -81 -82 -81
c-45 0 -82 36 -82 81s37 80 82 80z" />
    <glyph glyph-name="exclamdown.cap" horiz-adv-x="284" 
d="M190 494l30 -408v-86h-156v86l30 408h96zM142 706c46 0 82 -35 82 -80s-36 -81 -82 -81c-45 0 -82 36 -82 81s37 80 82 80z" />
    <glyph glyph-name="bullet.cap" horiz-adv-x="340" 
d="M170 192c-76 0 -138 50 -138 134s62 136 138 136c77 0 138 -52 138 -136s-61 -134 -138 -134z" />
    <glyph glyph-name="hyphen.cap" horiz-adv-x="307" 
d="M38 273v119h231v-119h-231z" />
    <glyph glyph-name="endash.cap" horiz-adv-x="437" 
d="M38 276v113h361v-113h-361z" />
    <glyph glyph-name="emdash.cap" horiz-adv-x="747" 
d="M38 276v113h671v-113h-671z" />
    <glyph glyph-name="dagger.cap" horiz-adv-x="469" 
d="M181 0l-21 270v61l30 109l-110 -31h-56v141h56l110 -32l-26 103v79h141v-79l-26 -103l110 32h56v-141h-56l-110 31l30 -107v-62l-21 -271h-107z" />
    <glyph glyph-name="daggerdbl.cap" horiz-adv-x="469" 
d="M310 373v-44l-32 -79l111 31h56v-141h-56l-111 32l27 -103v-69h-141v69l27 103l-111 -32h-56v141h56l111 -31l-32 77v44l32 79l-111 -31h-56v141h56l111 -32l-27 103v69h141v-69l-27 -103l111 32h56v-141h-56l-111 31z" />
    <glyph glyph-name="quoteleft.cap" horiz-adv-x="531" 
d="M492 599c-177 -19 -222 -85 -222 -143c0 -64 77 -69 142 -105c47 -26 89 -71 89 -164c0 -115 -86 -195 -215 -195c-132 0 -256 87 -256 278c0 245 148 415 462 430v-101z" />
    <glyph glyph-name="quoteright.cap" horiz-adv-x="531" 
d="M39 101c177 19 222 85 222 143c0 64 -77 69 -142 105c-47 26 -89 71 -89 164c0 115 86 195 215 195c132 0 256 -87 256 -278c0 -245 -148 -415 -462 -430v101z" />
    <glyph glyph-name="quotedblleft.cap" horiz-adv-x="1049" 
d="M1010 599c-177 -19 -222 -85 -222 -143c0 -64 77 -69 142 -105c47 -26 89 -71 89 -164c0 -115 -86 -195 -215 -195c-132 0 -256 87 -256 278c0 245 148 415 462 430v-101zM492 599c-177 -19 -222 -85 -222 -143c0 -64 77 -69 142 -105c47 -26 89 -71 89 -164
c0 -115 -86 -195 -215 -195c-132 0 -256 87 -256 278c0 245 148 415 462 430v-101z" />
    <glyph glyph-name="quotedblright.cap" horiz-adv-x="1049" 
d="M39 101c177 19 222 85 222 143c0 64 -77 69 -142 105c-47 26 -89 71 -89 164c0 115 86 195 215 195c132 0 256 -87 256 -278c0 -245 -148 -415 -462 -430v101zM557 101c177 19 222 85 222 143c0 64 -77 69 -142 105c-47 26 -89 71 -89 164c0 115 86 195 215 195
c132 0 256 -87 256 -278c0 -245 -148 -415 -462 -430v101z" />
    <glyph glyph-name="guillemotleft.cap" horiz-adv-x="696" 
d="M663 700v-43l-220 -307v-3l220 -304v-43h-129l-231 311v77l231 312h129zM393 700v-43l-220 -307v-3l220 -304v-43h-129l-231 311v77l231 312h129z" />
    <glyph glyph-name="guillemotright.cap" horiz-adv-x="696" 
d="M33 0v43l220 307v3l-220 304v43h129l231 -311v-77l-231 -312h-129zM303 0v43l220 307v3l-220 304v43h129l231 -311v-77l-231 -312h-129z" />
    <glyph glyph-name="at.cap" horiz-adv-x="862" 
d="M437 -39c-201 0 -404 108 -404 359c0 266 218 410 420 410c203 0 376 -114 376 -318c0 -179 -110 -259 -232 -259c-78 0 -112 28 -127 64c-26 -35 -62 -63 -124 -63c-70 0 -123 47 -123 138c0 120 81 240 217 240c50 0 73 -16 95 -38c17 21 39 33 72 33h46l-51 -234
c-7 -30 -8 -54 25 -54c60 0 101 50 101 173c0 145 -109 231 -275 231c-160 0 -312 -102 -312 -323c0 -195 132 -272 296 -272c95 0 179 23 242 65h33v-84c-58 -41 -165 -68 -275 -68zM391 248c26 0 51 13 74 37l32 146c-10 4 -19 8 -43 8c-63 0 -102 -68 -102 -145
c0 -30 15 -46 39 -46z" />
    <glyph glyph-name="paragraph.cap" horiz-adv-x="592" 
d="M251 0v303h-3c-131 0 -224 59 -224 198c0 153 110 199 254 199h252v-700h-104v598h-71v-598h-104z" />
    <glyph glyph-name="grave.cap" 
d="M245 722h-83l-99 86v42h148l34 -97v-31z" />
    <glyph glyph-name="dieresis.cap" 
d="M104 723c-42 0 -75 32 -75 73c0 40 33 73 75 73s75 -33 75 -73c0 -41 -33 -73 -75 -73zM296 723c-42 0 -75 32 -75 73c0 40 33 73 75 73s75 -33 75 -73c0 -41 -33 -73 -75 -73z" />
    <glyph glyph-name="macron.cap" 
d="M334 832v-98h-268v98h268z" />
    <glyph glyph-name="acute.cap" 
d="M238 722h-83v31l34 97h148v-42z" />
    <glyph glyph-name="circumflex.cap" 
d="M60 722v37l91 95h100l87 -95v-37h-80l-61 41l-61 -41h-76z" />
    <glyph glyph-name="caron.cap" 
d="M338 854v-37l-91 -95h-100l-87 95v37h80l61 -41l61 41h76z" />
    <glyph glyph-name="breve.cap" 
d="M200 723c-79 0 -125 47 -135 92v37h92c2 -17 15 -33 43 -33s40 16 43 33h92v-37c-10 -45 -56 -92 -135 -92z" />
    <glyph glyph-name="dotaccent.cap" 
d="M200 723c-44 0 -79 34 -79 77s35 78 79 78s79 -35 79 -78s-35 -77 -79 -77z" />
    <glyph glyph-name="ring.cap" 
d="M200 724c-57 0 -105 38 -105 100s48 101 105 101s105 -39 105 -101s-48 -100 -105 -100zM200 786c22 0 37 15 37 38c0 24 -15 39 -37 39s-36 -15 -36 -39c0 -23 14 -38 36 -38z" />
    <glyph glyph-name="tilde.cap" 
d="M32 722v38c11 62 46 94 99 94c47 0 83 -26 108 -26c18 0 28 10 33 27h80v-38c-11 -62 -46 -94 -99 -94c-47 0 -82 28 -107 28c-19 0 -30 -10 -34 -29h-80z" />
    <glyph glyph-name="hungarumlaut.cap" 
d="M75 722v28l30 100h120v-42l-71 -86h-79zM238 722v28l30 100h120v-42l-71 -86h-79z" />
    </font>
</defs>
</svg>
