<?xml version="1.0" standalone="no"?>
<!DOCTYPE svg PUBLIC "-//W3C//DTD SVG 1.1//EN" "http://www.w3.org/Graphics/SVG/1.1/DTD/svg11.dtd" >
<svg>
<metadata>
Created by FontForge 20120731 at Thu Sep 18 14:28:16 2014
 By World Wide Web Server
Copyright (c) Christian Schwartz, 2007. All rights reserved.
</metadata>
<defs>
<font id="StagSans-Semibold" horiz-adv-x="398" >
  <font-face 
    font-family="Stag Sans Semibold"
    font-weight="600"
    font-stretch="normal"
    units-per-em="1000"
    panose-1="2 11 7 3 4 0 0 2 0 4"
    ascent="800"
    descent="-200"
    x-height="527"
    cap-height="700"
    bbox="-192 -228 1256 927"
    underline-thickness="50"
    underline-position="-50"
    stemh="123"
    stemv="181"
    unicode-range="U+0020-FB02"
  />
<missing-glyph horiz-adv-x="386" 
 />
    <glyph glyph-name="f_f" unicode="ff" horiz-adv-x="673" 
d="M12 411v116h57v26c0 108 66 153 178 153c47 0 70 -6 92 -14v-101h-29c-40 0 -61 -8 -61 -43v-21h136v32c0 108 65 153 179 153c46 0 74 -7 96 -15v-100h-34c-41 0 -62 -8 -62 -45v-25h91v-116h-91v-411h-179v411h-136v-411h-180v411h-57z" />
    <glyph glyph-name=".notdef" horiz-adv-x="386" 
 />
    <glyph glyph-name="space" unicode=" " horiz-adv-x="188" 
 />
    <glyph glyph-name="exclam" unicode="!" horiz-adv-x="301" 
d="M91 218l-36 377v105h191v-105l-37 -377h-118zM150 -7c-52 0 -94 40 -94 91s42 91 94 91s94 -40 94 -91s-42 -91 -94 -91z" />
    <glyph glyph-name="quotedbl" unicode="&#x22;" horiz-adv-x="405" 
d="M49 458l-25 157v85h158v-85l-25 -157h-108zM248 458l-25 157v85h158v-85l-25 -157h-108z" />
    <glyph glyph-name="numbersign" unicode="#" horiz-adv-x="552" 
d="M54 409v124h88l25 167h117l-25 -167h83l25 167h117l-24 -167h70v-124h-89l-13 -94h70v-124h-88l-28 -191h-117l28 191h-84l-27 -191h-117l27 191h-70v124h88l14 94h-70zM241 409l-13 -94h83l13 94h-83z" />
    <glyph glyph-name="dollar" unicode="$" horiz-adv-x="554" 
d="M320 767v-62c68 -5 122 -23 170 -49v-125h-71c-25 22 -59 42 -99 49v-154c153 -41 211 -88 211 -213c0 -122 -77 -200 -220 -215v-100h-91v97c-83 4 -144 23 -195 55v132h72c25 -27 65 -55 123 -62v162c-125 37 -202 83 -202 213c0 125 84 194 211 208v64h91zM363 191
c0 36 -18 53 -52 65v-129c35 12 52 34 52 64zM175 513c0 -30 18 -46 54 -60v122c-35 -10 -54 -32 -54 -62z" />
    <glyph glyph-name="percent" unicode="%" horiz-adv-x="865" 
d="M204 422c34 0 54 28 54 96c0 69 -20 97 -54 97s-54 -28 -54 -97c0 -68 20 -96 54 -96zM204 329c-97 0 -187 62 -187 191s90 189 187 189s187 -60 187 -189s-90 -191 -187 -191zM125 -34l493 763h119l-493 -763h-119zM662 84c34 0 54 28 54 97s-20 97 -54 97
s-55 -28 -55 -97s21 -97 55 -97zM662 -9c-97 0 -187 63 -187 192s90 188 187 188c96 0 186 -59 186 -188s-90 -192 -186 -192z" />
    <glyph glyph-name="ampersand" unicode="&#x26;" horiz-adv-x="712" 
d="M517 0l-45 49c-52 -37 -114 -57 -191 -57c-173 0 -261 82 -261 208c0 97 67 161 144 197c-20 35 -32 72 -32 119c0 113 85 193 242 193c80 0 130 -18 166 -44v-121h-71c-16 16 -41 32 -86 32c-41 0 -68 -23 -68 -61c0 -32 16 -54 50 -91l127 -144c18 43 34 94 38 143h142
v-49c-16 -74 -47 -146 -83 -205l109 -124v-45h-181zM310 118c29 0 55 10 77 26l-149 166c-23 -21 -39 -49 -39 -89c0 -59 36 -103 111 -103z" />
    <glyph glyph-name="quoteright" unicode="&#x2019;" horiz-adv-x="231" 
d="M25 430v73c40 5 64 18 64 37s-18 20 -34 33c-17 12 -30 29 -30 60c0 44 36 75 86 75s95 -33 95 -105c0 -106 -58 -164 -181 -173z" />
    <glyph glyph-name="parenleft" unicode="(" horiz-adv-x="352" 
d="M332 741v-111c-67 -24 -135 -96 -135 -280c0 -195 68 -265 135 -290v-109h-51c-125 34 -253 144 -253 399c0 250 130 358 253 391h51z" />
    <glyph glyph-name="parenright" unicode=")" horiz-adv-x="352" 
d="M19 630v111h52c122 -33 253 -141 253 -391c0 -255 -128 -365 -253 -399h-52v109c67 25 135 95 135 290c0 184 -68 256 -135 280z" />
    <glyph glyph-name="asterisk" unicode="*" horiz-adv-x="402" 
d="M265 651l-28 -77l63 48l47 15l39 -121l-46 -16l-75 3l65 -44l28 -39l-104 -74l-29 40l-24 78l-25 -78l-29 -40l-104 74l29 39l65 44l-75 -3l-47 16l40 121l47 -15l61 -48l-26 77v49h128v-49z" />
    <glyph glyph-name="plus" unicode="+" horiz-adv-x="534" 
d="M510 276h-168v-180h-149v180h-169v139h169v180h149v-180h168v-139z" />
    <glyph glyph-name="comma" unicode="," horiz-adv-x="235" 
d="M23 -41c43 6 67 21 67 40s-18 20 -36 33s-31 32 -31 64c0 46 39 79 91 79s99 -34 99 -110c0 -109 -62 -168 -190 -180v74z" />
    <glyph glyph-name="hyphen" unicode="-" horiz-adv-x="306" 
d="M30 224v137h246v-137h-246z" />
    <glyph glyph-name="period" unicode="." horiz-adv-x="235" 
d="M117 -7c-52 0 -94 40 -94 91s42 91 94 91s94 -40 94 -91s-42 -91 -94 -91z" />
    <glyph glyph-name="slash" unicode="/" horiz-adv-x="368" 
d="M363 741v-35l-231 -755h-130v35l231 755h130z" />
    <glyph glyph-name="zero" unicode="0" horiz-adv-x="682" 
d="M341 -9c-172 0 -314 119 -314 359s145 359 314 359s314 -119 314 -359s-143 -359 -314 -359zM341 121c77 0 121 61 121 225c0 166 -44 227 -121 227c-78 0 -121 -61 -121 -227c0 -164 43 -225 121 -225z" />
    <glyph glyph-name="one" unicode="1" 
d="M327 0h-192v512l-77 -41h-40v133l173 96h136v-700z" />
    <glyph glyph-name="two" unicode="2" horiz-adv-x="549" 
d="M519 144v-144h-499v146l193 182c81 75 112 118 112 166c0 44 -29 72 -87 72c-57 0 -100 -23 -129 -47h-69v128c50 31 128 62 222 62c162 0 257 -63 257 -205c0 -99 -62 -167 -167 -259l-115 -101h282z" />
    <glyph glyph-name="three" unicode="3" horiz-adv-x="539" 
d="M226 -9c-102 0 -163 20 -211 50v125h71c23 -22 65 -42 123 -42c65 0 114 29 114 86c0 56 -34 81 -109 81h-57v125h50c76 0 113 28 113 79c0 49 -30 76 -88 76c-55 0 -100 -20 -126 -39h-67v119c53 33 125 58 217 58c148 0 247 -57 247 -188c0 -91 -51 -137 -131 -160v-4
c92 -14 143 -65 143 -158c1 -134 -116 -208 -289 -208z" />
    <glyph glyph-name="four" unicode="4" horiz-adv-x="605" 
d="M511 0h-188v146h-303v146l312 408h179v-429h76v-125h-76v-146zM155 275v-4h171v226h-4z" />
    <glyph glyph-name="five" unicode="5" horiz-adv-x="550" 
d="M526 229c0 -149 -117 -238 -300 -238c-96 0 -154 19 -204 48v129h70c24 -22 64 -43 124 -43c72 0 119 36 119 102s-37 95 -88 95c-52 0 -79 -22 -96 -40h-109v418h445v-144h-310v-144h3c25 20 64 37 128 37c123 0 218 -68 218 -220z" />
    <glyph glyph-name="six" unicode="6" horiz-adv-x="622" 
d="M323 -9c-173 0 -296 107 -296 344c0 239 132 374 360 374c79 0 130 -15 170 -34v-134h-69c-20 15 -54 29 -104 29c-101 0 -150 -59 -163 -173c41 33 100 48 159 48c129 0 219 -74 219 -213c0 -144 -106 -241 -276 -241zM319 325c-39 0 -77 -13 -101 -28
c3 -138 38 -185 101 -185c68 0 93 44 93 112c0 67 -32 101 -93 101z" />
    <glyph glyph-name="seven" unicode="7" horiz-adv-x="533" 
d="M93 0v60l263 488v4h-337v148h488v-158l-224 -542h-190z" />
    <glyph glyph-name="eight" unicode="8" horiz-adv-x="614" 
d="M307 -9c-185 0 -286 79 -286 208c0 89 46 145 134 173v4c-70 24 -106 71 -106 146c0 117 107 187 258 187s258 -70 258 -187c0 -75 -34 -122 -105 -146v-4c87 -28 133 -84 133 -173c0 -129 -101 -208 -286 -208zM307 112c69 0 102 44 102 101c0 56 -33 101 -102 101
c-70 0 -103 -45 -103 -101c0 -57 33 -101 103 -101zM307 427c51 0 82 29 82 79s-31 80 -82 80c-52 0 -82 -30 -82 -80s30 -79 82 -79z" />
    <glyph glyph-name="nine" unicode="9" horiz-adv-x="622" 
d="M233 -9c-78 0 -134 14 -175 31v134h70c16 -13 54 -29 107 -29c116 0 156 59 166 171c-42 -31 -101 -45 -155 -45c-132 0 -223 74 -223 213c0 144 107 243 276 243c174 0 297 -107 297 -346c0 -236 -123 -372 -363 -372zM303 374c38 0 76 12 101 27
c-4 141 -39 185 -101 185c-68 0 -93 -47 -93 -114s32 -98 93 -98z" />
    <glyph glyph-name="colon" unicode=":" horiz-adv-x="236" 
d="M118 277c-53 0 -94 40 -94 90c0 51 41 92 94 92c52 0 94 -41 94 -92c0 -50 -42 -90 -94 -90zM118 -7c-53 0 -94 40 -94 91s41 91 94 91c52 0 94 -40 94 -91s-42 -91 -94 -91z" />
    <glyph glyph-name="semicolon" unicode=";" horiz-adv-x="236" 
d="M22 -41c44 6 67 21 67 40s-18 20 -36 33s-31 32 -31 64c0 46 39 79 91 79c53 0 99 -34 99 -110c0 -109 -61 -168 -190 -180v74zM118 277c-53 0 -94 40 -94 90c0 51 41 92 94 92c52 0 94 -41 94 -92c0 -50 -42 -90 -94 -90z" />
    <glyph glyph-name="less" unicode="&#x3c;" horiz-adv-x="471" 
d="M25 269v121l381 185h38v-135l-236 -108v-3l236 -109v-136h-38z" />
    <glyph glyph-name="equal" unicode="=" horiz-adv-x="504" 
d="M477 350h-450v133h450v-133zM477 140h-450v133h450v-133z" />
    <glyph glyph-name="greater" unicode="&#x3e;" horiz-adv-x="471" 
d="M447 390v-121l-382 -185h-38v135l236 108v3l-236 108v137h38z" />
    <glyph glyph-name="question" unicode="?" horiz-adv-x="464" 
d="M115 218c-14 79 1 122 61 180c42 39 78 73 78 118c0 37 -27 57 -67 57c-49 0 -80 -18 -103 -40h-68v123c47 30 107 53 193 53c150 0 231 -66 231 -186c0 -82 -44 -129 -110 -177c-56 -43 -90 -68 -85 -128h-130zM184 -7c-52 0 -94 40 -94 91s42 91 94 91s94 -40 94 -91
s-42 -91 -94 -91z" />
    <glyph glyph-name="at" unicode="@" horiz-adv-x="882" 
d="M442 -134c-215 0 -421 112 -421 374c0 277 236 427 443 427c218 0 397 -119 397 -331c0 -187 -124 -270 -259 -270c-79 0 -117 25 -132 63c-29 -32 -70 -62 -131 -62c-74 0 -123 49 -123 143c0 120 84 247 220 247c50 0 78 -18 101 -42c18 24 37 36 72 36h68l-54 -238
c-7 -31 -4 -54 25 -54c57 0 107 54 107 177c0 151 -112 240 -291 240c-167 0 -331 -108 -331 -336c0 -201 136 -283 309 -283c100 0 186 23 252 66h36v-86c-62 -42 -172 -71 -288 -71zM404 169c21 0 44 10 61 28l35 151c-9 3 -18 6 -38 6c-58 0 -96 -66 -96 -137
c0 -32 14 -48 38 -48z" />
    <glyph glyph-name="A" unicode="A" horiz-adv-x="694" 
d="M19 0v45l223 655h208l226 -655v-45h-186l-49 158h-223l-47 -158h-152zM328 524l-71 -236h145l-72 236h-2z" />
    <glyph glyph-name="B" unicode="B" horiz-adv-x="627" 
d="M56 0v700h262c174 0 260 -58 260 -183c0 -86 -49 -129 -126 -147v-4c93 -17 152 -65 152 -163c0 -132 -102 -203 -281 -203h-267zM244 124h71c65 0 96 33 96 90c0 58 -32 89 -96 89h-71v-179zM244 420h65c59 0 86 25 86 78c0 51 -27 77 -85 77h-66v-155z" />
    <glyph glyph-name="C" unicode="C" horiz-adv-x="635" 
d="M371 -9c-210 0 -344 128 -344 355c0 229 144 363 360 363c98 0 158 -20 210 -50v-133h-74c-26 24 -68 46 -131 46c-106 0 -169 -71 -169 -219c0 -160 55 -228 160 -228c75 0 118 28 152 61h68v-127c-53 -39 -128 -68 -232 -68z" />
    <glyph glyph-name="D" unicode="D" horiz-adv-x="701" 
d="M56 0v700h248c242 0 371 -112 371 -346c0 -236 -128 -354 -377 -354h-242zM248 129h47c125 0 184 60 184 220s-57 218 -184 218h-47v-438z" />
    <glyph glyph-name="E" unicode="E" horiz-adv-x="581" 
d="M56 0v700h482v-134h-291v-149h205v-126h-205v-161h301v-130h-492z" />
    <glyph glyph-name="F" unicode="F" horiz-adv-x="571" 
d="M248 0h-192v700h485v-134h-293v-167h225v-128h-225v-271z" />
    <glyph glyph-name="G" unicode="G" horiz-adv-x="681" 
d="M371 -9c-228 0 -345 128 -345 355c0 233 137 363 367 363c91 0 148 -15 210 -44v-138h-71c-31 24 -68 44 -137 44c-110 0 -171 -60 -171 -222c0 -163 47 -230 146 -230c37 0 60 4 80 10v128h-83v116h265v-329c-73 -36 -163 -53 -261 -53z" />
    <glyph glyph-name="H" unicode="H" horiz-adv-x="711" 
d="M248 0h-192v700h192v-276h215v276h192v-700h-192v289h-215v-289z" />
    <glyph glyph-name="I" unicode="I" horiz-adv-x="311" 
d="M252 0h-193v700h193v-700z" />
    <glyph glyph-name="J" unicode="J" horiz-adv-x="490" 
d="M187 -9c-77 0 -131 17 -171 42v129h66c18 -17 44 -33 90 -33c48 0 74 25 74 72v499h192v-499c0 -137 -80 -210 -251 -210z" />
    <glyph glyph-name="K" unicode="K" horiz-adv-x="693" 
d="M56 0v700h192v-285l237 285h165v-43l-203 -234l224 -380v-43h-187l-172 291l-64 -70v-221h-192z" />
    <glyph glyph-name="L" unicode="L" horiz-adv-x="552" 
d="M523 0h-467v700h192v-568h275v-132z" />
    <glyph glyph-name="M" unicode="M" horiz-adv-x="881" 
d="M56 0v700h251l133 -416h3l133 416h249v-700h-188v483h-3l-157 -483h-110l-155 483h-3v-483h-153z" />
    <glyph glyph-name="N" unicode="N" horiz-adv-x="707" 
d="M56 0v700h205l229 -405h3v405h158v-700h-174l-261 459h-3v-459h-157z" />
    <glyph glyph-name="O" unicode="O" horiz-adv-x="742" 
d="M371 -9c-190 0 -345 127 -345 358s157 360 345 360s346 -129 346 -360s-156 -358 -346 -358zM371 122c88 0 150 68 150 225c0 158 -62 227 -150 227s-150 -69 -150 -227c0 -157 62 -225 150 -225z" />
    <glyph glyph-name="P" unicode="P" horiz-adv-x="619" 
d="M56 0v700h257c190 0 286 -72 286 -228c0 -153 -102 -226 -293 -226h-58v-246h-192zM247 571v-205h58c78 0 104 40 104 105c0 66 -23 100 -104 100h-58z" />
    <glyph glyph-name="Q" unicode="Q" horiz-adv-x="742" 
d="M678 -119l-326 88c-204 55 -326 160 -326 383c0 228 157 357 345 357c189 0 346 -129 346 -359c0 -150 -74 -247 -184 -290v-3l207 -31v-145h-62zM371 119c88 0 150 67 150 228c0 158 -62 227 -150 227s-150 -69 -150 -227c0 -161 62 -228 150 -228z" />
    <glyph glyph-name="R" unicode="R" horiz-adv-x="658" 
d="M456 0l-135 257h-73v-257h-192v700h263c186 0 280 -74 280 -214c0 -88 -39 -150 -104 -187l139 -254v-45h-178zM246 570v-188h61c71 0 102 32 102 94s-31 94 -102 94h-61z" />
    <glyph glyph-name="S" unicode="S" horiz-adv-x="554" 
d="M251 -9c-102 0 -172 22 -229 56v133h71c28 -30 78 -56 151 -56c72 0 109 25 109 69c0 60 -56 66 -134 87c-128 33 -196 84 -196 216c0 143 109 213 263 213c88 0 158 -18 208 -47v-129h-69c-32 24 -76 43 -132 43c-68 0 -102 -20 -102 -65c0 -46 39 -59 115 -77
c165 -38 224 -91 224 -222c0 -140 -96 -221 -279 -221z" />
    <glyph glyph-name="T" unicode="T" horiz-adv-x="603" 
d="M397 0h-192v567h-180v133h553v-133h-181v-567z" />
    <glyph glyph-name="U" unicode="U" horiz-adv-x="693" 
d="M366 131c76 0 114 31 114 136v433h159v-434c0 -177 -87 -274 -285 -274s-301 98 -301 274v434h192v-433c0 -105 42 -136 121 -136z" />
    <glyph glyph-name="V" unicode="V" horiz-adv-x="685" 
d="M239 0l-222 655v45h187l149 -480h2l151 480h161v-45l-222 -655h-206z" />
    <glyph glyph-name="W" unicode="W" horiz-adv-x="944" 
d="M175 0l-156 655v45h186l94 -461h2l107 461h152l110 -461h2l91 461h162v-45l-157 -655h-202l-95 411h-2l-95 -411h-199z" />
    <glyph glyph-name="X" unicode="X" horiz-adv-x="681" 
d="M25 0v47l186 315l-181 291v47h190l137 -229l123 229h157v-47l-171 -293l190 -313v-47h-189l-148 251l-136 -251h-158z" />
    <glyph glyph-name="Y" unicode="Y" horiz-adv-x="637" 
d="M420 0h-192v260l-214 393v47h180l140 -273h2l135 273h152v-47l-203 -388v-265z" />
    <glyph glyph-name="Z" unicode="Z" horiz-adv-x="572" 
d="M26 0v139l311 424v4h-289v133h495v-144l-311 -421v-4h311v-131h-517z" />
    <glyph glyph-name="bracketleft" unicode="[" horiz-adv-x="343" 
d="M61 -49v790h256v-115h-93v-560h93v-115h-256z" />
    <glyph glyph-name="backslash" unicode="\" horiz-adv-x="368" 
d="M5 706v35h129l232 -755v-35h-130z" />
    <glyph glyph-name="bracketright" unicode="]" horiz-adv-x="343" 
d="M282 741v-790h-255v115h92v560h-92v115h255z" />
    <glyph glyph-name="asciicircum" unicode="^" horiz-adv-x="442" 
d="M15 451v38l140 211h131l141 -211v-38h-128l-77 110h-3l-76 -110h-128z" />
    <glyph glyph-name="underscore" unicode="_" horiz-adv-x="380" 
d="M383 -162h-386v110h386v-110z" />
    <glyph glyph-name="quoteleft" unicode="&#x2018;" horiz-adv-x="231" 
d="M206 629c-40 -5 -64 -19 -64 -38c0 -18 18 -20 35 -32c16 -13 29 -29 29 -60c0 -44 -36 -75 -85 -75c-51 0 -96 32 -96 105c0 106 58 163 181 173v-73z" />
    <glyph glyph-name="a" unicode="a" horiz-adv-x="553" 
d="M410 0c-42 0 -62 15 -72 50c-37 -41 -86 -57 -151 -57c-93 0 -167 53 -167 157c0 111 85 164 207 164c40 0 71 -4 101 -10v36c0 46 -24 67 -89 67c-52 0 -95 -15 -125 -35h-54v121c49 21 120 42 214 42c157 0 234 -52 234 -182v-353h-98zM258 98c27 0 51 13 70 29v93
c-18 3 -39 5 -59 5c-48 0 -78 -19 -78 -63c0 -45 28 -64 67 -64z" />
    <glyph glyph-name="b" unicode="b" horiz-adv-x="607" 
d="M228 606v-132c38 35 89 61 157 61c100 0 199 -63 199 -261c0 -201 -103 -282 -223 -282c-71 0 -121 22 -157 60c-17 -32 -39 -52 -63 -52h-93v700h114c55 0 66 -14 66 -94zM303 401c-22 0 -51 -7 -75 -17v-252c20 -14 41 -22 73 -22c52 0 101 25 101 148
c0 119 -44 143 -99 143z" />
    <glyph glyph-name="c" unicode="c" horiz-adv-x="508" 
d="M301 -8c-176 0 -281 96 -281 270c0 171 120 273 292 273c77 0 132 -18 167 -37v-123h-65c-19 17 -51 33 -94 33c-69 0 -117 -48 -117 -148s44 -144 113 -144c54 0 83 18 105 37h60v-113c-34 -22 -94 -48 -180 -48z" />
    <glyph glyph-name="d" unicode="d" horiz-adv-x="607" 
d="M432 0c-24 0 -39 11 -47 55c-32 -35 -80 -64 -152 -64c-119 0 -210 84 -210 265c0 208 114 279 219 279c67 0 105 -19 137 -50v215h114c56 0 66 -15 66 -94v-606h-127zM296 110c33 0 56 10 83 32v241c-19 12 -42 18 -71 18c-53 0 -103 -25 -103 -141
c0 -110 31 -150 91 -150z" />
    <glyph glyph-name="e" unicode="e" horiz-adv-x="557" 
d="M535 224h-333c9 -89 51 -112 124 -112c59 0 103 17 134 39h56v-107c-46 -26 -108 -52 -218 -52c-183 0 -278 102 -278 268c0 169 110 275 269 275c164 0 248 -87 248 -265c0 -21 -2 -40 -2 -46zM289 425c-41 0 -76 -21 -86 -107h164c-3 81 -30 107 -78 107z" />
    <glyph glyph-name="f" unicode="f" horiz-adv-x="358" 
d="M12 411v116h57v32c0 108 66 153 180 153c46 0 74 -7 96 -15v-100h-35c-40 0 -61 -8 -61 -45v-25h90v-116h-90v-411h-180v411h-57z" />
    <glyph glyph-name="g" unicode="g" horiz-adv-x="607" 
d="M559 527v-487c0 -139 -109 -210 -291 -210c-100 0 -168 16 -218 40v122h56c32 -21 79 -37 139 -37c91 0 134 27 134 90v26c-33 -27 -83 -45 -141 -45c-117 0 -215 65 -215 244c0 197 114 265 226 265c65 0 108 -21 145 -59c11 31 32 51 68 51h97zM300 140
c29 0 56 11 79 27v214c-20 13 -42 20 -73 20c-52 0 -101 -21 -101 -126c0 -109 32 -135 95 -135z" />
    <glyph glyph-name="h" unicode="h" horiz-adv-x="602" 
d="M228 606v-140c46 38 111 69 186 69c79 0 143 -32 143 -149v-386h-180v339c0 46 -19 58 -62 58c-33 0 -62 -9 -87 -17v-380h-180v700h114c55 0 66 -14 66 -94z" />
    <glyph glyph-name="i" unicode="i" horiz-adv-x="278" 
d="M228 0h-179v527h116c54 0 63 -18 63 -101v-426zM139 559c-53 0 -93 35 -93 84s40 85 93 85c54 0 93 -36 93 -85s-39 -84 -93 -84z" />
    <glyph glyph-name="j" unicode="j" horiz-adv-x="278" 
d="M-39 -156v98h28c45 0 60 17 60 60v525h116c54 0 63 -20 63 -101v-433c0 -116 -60 -162 -175 -162c-40 0 -67 5 -92 13zM139 559c-53 0 -93 35 -93 84s40 85 93 85c54 0 93 -36 93 -85s-39 -84 -93 -84z" />
    <glyph glyph-name="k" unicode="k" horiz-adv-x="578" 
d="M228 606v-275l164 196h150v-43l-145 -165l165 -276v-43h-169l-122 205l-43 -47v-158h-180v700h114c55 0 66 -14 66 -94z" />
    <glyph glyph-name="l" unicode="l" horiz-adv-x="280" 
d="M230 0h-180v700h114c56 0 66 -14 66 -94v-606z" />
    <glyph glyph-name="m" unicode="m" horiz-adv-x="909" 
d="M173 527c28 0 45 -11 51 -65c46 41 109 73 182 73c58 0 108 -19 129 -75c50 45 117 75 189 75c77 0 140 -35 140 -149v-386h-180v339c0 44 -17 58 -59 58c-29 0 -57 -8 -79 -16v-381h-180v339c0 44 -17 58 -59 58c-29 0 -56 -8 -79 -15v-382h-180v527h125z" />
    <glyph glyph-name="n" unicode="n" horiz-adv-x="602" 
d="M173 527c28 0 44 -11 51 -64c47 39 113 72 190 72c79 0 143 -32 143 -149v-386h-180v339c0 46 -19 58 -62 58c-33 0 -62 -9 -87 -17v-380h-180v527h125z" />
    <glyph glyph-name="o" unicode="o" horiz-adv-x="601" 
d="M301 -8c-159 0 -281 101 -281 269c0 169 122 274 281 274c158 0 280 -105 280 -274c0 -168 -122 -269 -280 -269zM301 110c58 0 98 45 98 149c0 105 -40 153 -98 153c-59 0 -99 -48 -99 -153c0 -104 40 -149 99 -149z" />
    <glyph glyph-name="p" unicode="p" horiz-adv-x="607" 
d="M357 5c-57 0 -98 13 -129 37v-204h-180v689h125c27 0 43 -10 50 -57c39 37 90 65 162 65c100 0 199 -65 199 -257c0 -201 -110 -273 -227 -273zM304 401c-22 0 -52 -7 -76 -17v-242c20 -14 43 -21 73 -21c55 0 101 25 101 141c0 113 -44 139 -98 139z" />
    <glyph glyph-name="q" unicode="q" horiz-adv-x="607" 
d="M379 -162v213c-33 -28 -83 -46 -141 -46c-117 0 -215 76 -215 256c0 206 114 274 226 274c66 0 109 -23 145 -62c13 33 34 54 68 54h97v-689h-180zM300 122c29 0 56 11 79 27v232c-20 13 -42 20 -73 20c-52 0 -101 -27 -101 -134c0 -112 29 -145 95 -145z" />
    <glyph glyph-name="r" unicode="r" horiz-adv-x="415" 
d="M377 383c-68 0 -120 -13 -149 -25v-358h-180v527h125c28 0 45 -12 51 -72c35 44 81 76 145 76c11 0 22 -2 32 -4v-144h-24z" />
    <glyph glyph-name="s" unicode="s" horiz-adv-x="469" 
d="M215 -7c-92 0 -147 20 -190 42v118h61c21 -19 65 -39 122 -39c48 0 78 11 78 38c0 28 -18 37 -91 47c-112 14 -175 53 -175 163c0 115 90 172 222 172c84 0 133 -14 178 -35v-116h-57c-24 16 -63 32 -116 32c-50 0 -69 -13 -69 -38c0 -22 23 -33 90 -41
c123 -15 182 -52 182 -164s-74 -179 -235 -179z" />
    <glyph glyph-name="t" unicode="t" horiz-adv-x="368" 
d="M12 411v116h57v134h180v-134h98v-116h-98v-240c0 -47 18 -62 65 -62h35v-104c-24 -7 -58 -14 -103 -14c-108 0 -177 38 -177 153v267h-57z" />
    <glyph glyph-name="u" unicode="u" horiz-adv-x="610" 
d="M297 124c28 0 58 9 82 17v386h179v-527h-125c-28 0 -43 8 -50 59c-48 -37 -109 -67 -180 -67c-87 0 -154 36 -154 151v384h180v-343c0 -50 25 -60 68 -60z" />
    <glyph glyph-name="v" unicode="v" horiz-adv-x="574" 
d="M201 0l-186 486v41h172l113 -329h2l104 329h153v-41l-180 -486h-178z" />
    <glyph glyph-name="w" unicode="w" horiz-adv-x="818" 
d="M160 0l-143 485v42h173l76 -304h2l89 304h132l84 -304h2l81 304h145v-42l-147 -485h-160l-85 290h-2l-89 -290h-158z" />
    <glyph glyph-name="x" unicode="x" horiz-adv-x="571" 
d="M19 0v42l147 227l-137 216v42h176l95 -162l88 162h147v-42l-126 -206l143 -237v-42h-175l-102 178l-102 -178h-154z" />
    <glyph glyph-name="y" unicode="y" horiz-adv-x="569" 
d="M136 -162v41l69 146l-190 461v41h171l110 -299h3l102 299h154v-41l-256 -648h-163z" />
    <glyph glyph-name="z" unicode="z" horiz-adv-x="508" 
d="M25 0v121l247 282h-234v124h441v-124l-248 -281h243v-122h-449z" />
    <glyph glyph-name="braceleft" unicode="{" horiz-adv-x="376" 
d="M97 88v150c0 28 -16 55 -56 55h-22v116h22c40 0 56 27 56 55v141c0 85 51 136 155 136h97v-115h-61c-15 0 -28 -16 -28 -30v-134c0 -54 -22 -91 -93 -109v-3c71 -18 93 -55 93 -109v-145c0 -14 13 -30 28 -30h61v-115h-99c-102 0 -153 51 -153 137z" />
    <glyph glyph-name="bar" unicode="|" horiz-adv-x="198" 
d="M166 741v-790h-134v790h134z" />
    <glyph glyph-name="braceright" unicode="}" horiz-adv-x="376" 
d="M278 238v-150c0 -86 -51 -137 -153 -137h-98v115h60c16 0 29 16 29 30v145c0 54 22 91 92 109v3c-70 18 -92 55 -92 109v134c0 14 -13 30 -29 30h-60v115h97c104 0 154 -51 154 -136v-141c0 -28 16 -55 56 -55h23v-116h-23c-40 0 -56 -27 -56 -55z" />
    <glyph glyph-name="asciitilde" unicode="~" horiz-adv-x="406" 
d="M16 206v53c13 68 56 117 122 117c52 0 94 -25 119 -25c19 0 29 10 35 28h97v-53c-12 -67 -55 -117 -121 -117c-47 0 -94 25 -119 25c-19 0 -29 -10 -35 -28h-98z" />
    <glyph glyph-name="exclamdown" unicode="&#xa1;" horiz-adv-x="301" 
d="M209 413l37 -376v-105h-191v105l36 376h118zM150 638c53 0 94 -40 94 -90c0 -51 -41 -92 -94 -92c-51 0 -94 41 -94 92c0 50 43 90 94 90z" />
    <glyph glyph-name="cent" unicode="&#xa2;" horiz-adv-x="520" 
d="M488 40c-26 -17 -71 -37 -128 -44v-99h-91v97c-155 12 -249 106 -249 268c0 156 102 254 251 270v63h91v-63c54 -5 96 -19 124 -34v-123h-65c-13 11 -34 23 -59 29v-286c30 7 50 21 66 35h60v-113zM202 260c0 -77 24 -121 69 -138v277c-44 -18 -69 -65 -69 -139z" />
    <glyph glyph-name="sterling" unicode="&#xa3;" horiz-adv-x="540" 
d="M19 0v120c43 16 77 51 77 119c0 17 -2 33 -4 49h-68v118h41c-7 29 -12 58 -12 91c0 138 109 212 262 212c87 0 146 -19 196 -50v-133h-69c-27 22 -59 40 -110 40c-49 0 -92 -22 -92 -80c0 -26 2 -53 6 -80h162v-118h-147c1 -14 2 -28 2 -41c0 -45 -19 -82 -38 -103h295
v-144h-501z" />
    <glyph glyph-name="fraction" unicode="&#x2044;" horiz-adv-x="224" 
d="M417 729l-493 -763h-116l493 763h116z" />
    <glyph glyph-name="yen" unicode="&#xa5;" horiz-adv-x="606" 
d="M49 292v95h115l-145 266v47h176l122 -250h3l116 250h151v-47l-139 -266h120v-95h-165v-47h165v-94h-165v-151h-189v151h-165v94h165v47h-165z" />
    <glyph glyph-name="florin" unicode="&#x192;" horiz-adv-x="401" 
d="M30 444h69l13 111c12 104 73 157 186 157c45 0 72 -7 92 -15v-103h-33c-40 0 -59 -10 -64 -49l-12 -101h83v-116h-97l-52 -428h-180l50 428h-55v116z" />
    <glyph glyph-name="section" unicode="&#xa7;" horiz-adv-x="550" 
d="M19 274c0 71 38 112 93 135c-35 28 -49 66 -49 123c0 107 85 177 222 177c92 0 143 -17 183 -36v-116h-57c-23 17 -64 34 -120 34c-48 0 -77 -13 -77 -43c0 -25 23 -42 99 -61c141 -35 215 -73 215 -187c0 -54 -23 -105 -92 -135c34 -27 52 -63 52 -116
c0 -107 -75 -183 -238 -183c-92 0 -152 20 -196 41v118h58c21 -20 82 -40 134 -40c53 0 79 15 79 44c0 30 -25 40 -109 63c-137 37 -197 82 -197 182zM257 239c29 -8 56 -16 80 -24c26 11 40 30 40 53c0 36 -27 54 -98 72c-26 7 -49 13 -70 20c-31 -9 -44 -28 -44 -50
c0 -32 19 -51 92 -71z" />
    <glyph glyph-name="quotesingle" unicode="'" horiz-adv-x="206" 
d="M49 458l-25 157v85h158v-85l-25 -157h-108z" />
    <glyph glyph-name="quotedblleft" unicode="&#x201c;" horiz-adv-x="446" 
d="M206 629c-40 -5 -64 -19 -64 -38c0 -18 18 -20 35 -32c16 -13 29 -29 29 -60c0 -44 -36 -75 -85 -75c-51 0 -96 32 -96 105c0 106 58 163 181 173v-73zM420 629c-39 -5 -63 -19 -63 -38c0 -18 18 -20 34 -32c17 -13 30 -29 30 -60c0 -44 -36 -75 -86 -75s-95 32 -95 105
c0 106 58 163 180 173v-73z" />
    <glyph glyph-name="guillemotleft" unicode="&#xab;" horiz-adv-x="532" 
d="M144 40l-113 188v63l113 189h134v-36l-105 -182v-2l105 -184v-36h-134zM367 40l-113 188v63l113 189h134v-36l-105 -182v-2l105 -184v-36h-134z" />
    <glyph glyph-name="guilsinglleft" unicode="&#x2039;" horiz-adv-x="309" 
d="M144 40l-113 188v63l113 189h134v-36l-105 -182v-2l105 -184v-36h-134z" />
    <glyph glyph-name="guilsinglright" unicode="&#x203a;" horiz-adv-x="309" 
d="M165 480l113 -189v-63l-113 -188h-134v36l105 184v2l-105 182v36h134z" />
    <glyph glyph-name="fi" unicode="&#xfb01;" horiz-adv-x="617" 
d="M567 0h-179v527h116c54 0 63 -18 63 -101v-426zM478 559c-53 0 -93 35 -93 84s40 85 93 85s93 -36 93 -85s-40 -84 -93 -84zM12 411v116h57v32c0 108 66 153 178 153c43 0 70 -6 91 -14v-101h-28c-40 0 -61 -8 -61 -45v-25h89v-116h-89v-411h-180v411h-57z" />
    <glyph glyph-name="fl" unicode="&#xfb02;" horiz-adv-x="616" 
d="M12 411v116h57v32c0 108 66 153 178 153c43 0 70 -6 91 -14v-101h-28c-40 0 -61 -8 -61 -45v-25h89v-116h-89v-411h-180v411h-57zM567 0h-179v700h114c55 0 65 -14 65 -94v-606z" />
    <glyph glyph-name="endash" unicode="&#x2013;" horiz-adv-x="447" 
d="M38 216v132h370v-132h-370z" />
    <glyph glyph-name="dagger" unicode="&#x2020;" horiz-adv-x="479" 
d="M178 -49l-28 298v65l38 105l-109 -35h-58v163h58l109 -37l-33 99v91h169v-91l-33 -98l109 36h58v-163h-58l-109 36l38 -104v-66l-28 -299h-123z" />
    <glyph glyph-name="daggerdbl" unicode="&#x2021;" horiz-adv-x="479" 
d="M155 -49v84l33 99l-109 -37h-58v163h58l110 -36l-39 72v57l38 73l-109 -35h-58v163h58l109 -38l-33 100v84h169v-84l-33 -99l109 37h58v-163h-58l-110 36l39 -72v-57l-38 -73l109 35h58v-163h-58l-109 38l33 -100v-84h-169z" />
    <glyph glyph-name="periodcentered" unicode="&#xb7;" horiz-adv-x="235" 
d="M117 204c-52 0 -94 39 -94 90s42 91 94 91s94 -40 94 -91s-42 -90 -94 -90z" />
    <glyph glyph-name="paragraph" unicode="&#xb6;" horiz-adv-x="590" 
d="M242 -91v391h-3c-128 0 -218 59 -218 199c0 153 110 201 254 201h259v-791h-114v677h-64v-677h-114z" />
    <glyph glyph-name="bullet" unicode="&#x2022;" horiz-adv-x="357" 
d="M179 134c-82 0 -149 54 -149 145s67 147 149 147c83 0 148 -56 148 -147s-65 -145 -148 -145z" />
    <glyph glyph-name="quotesinglbase" unicode="&#x201a;" horiz-adv-x="231" 
d="M25 -29c40 4 64 18 64 37c0 18 -18 20 -34 33c-17 12 -30 29 -30 60c0 44 36 75 86 75s95 -33 95 -105c0 -107 -58 -164 -181 -174v74z" />
    <glyph glyph-name="quotedblbase" unicode="&#x201e;" horiz-adv-x="446" 
d="M240 -29c40 4 64 18 64 37c0 18 -18 20 -35 33c-16 12 -29 29 -29 60c0 44 36 75 85 75c51 0 96 -33 96 -105c0 -107 -58 -164 -181 -174v74zM25 -29c40 4 64 18 64 37c0 18 -18 20 -34 33c-17 12 -30 29 -30 60c0 44 36 75 86 75s95 -33 95 -105
c0 -107 -58 -164 -181 -174v74z" />
    <glyph glyph-name="quotedblright" unicode="&#x201d;" horiz-adv-x="446" 
d="M240 430v73c40 5 64 18 64 37s-18 20 -35 33c-16 12 -29 29 -29 60c0 44 36 75 85 75c51 0 96 -33 96 -105c0 -106 -58 -164 -181 -173zM25 430v73c40 5 64 18 64 37s-18 20 -34 33c-17 12 -30 29 -30 60c0 44 36 75 86 75s95 -33 95 -105c0 -106 -58 -164 -181 -173z
" />
    <glyph glyph-name="guillemotright" unicode="&#xbb;" horiz-adv-x="532" 
d="M254 40v36l105 184v2l-105 182v36h134l113 -189v-63l-113 -188h-134zM31 40v36l105 184v2l-105 182v36h134l113 -189v-63l-113 -188h-134z" />
    <glyph glyph-name="ellipsis" unicode="&#x2026;" horiz-adv-x="719" 
d="M117 -7c-52 0 -94 40 -94 91s42 91 94 91s94 -40 94 -91s-42 -91 -94 -91zM360 -7c-53 0 -94 40 -94 91s41 91 94 91c51 0 94 -40 94 -91s-43 -91 -94 -91zM602 -7c-52 0 -94 40 -94 91s42 91 94 91s94 -40 94 -91s-42 -91 -94 -91z" />
    <glyph glyph-name="perthousand" unicode="&#x2030;" horiz-adv-x="1273" 
d="M204 422c34 0 54 28 54 96c0 69 -20 97 -54 97s-54 -28 -54 -97c0 -68 20 -96 54 -96zM204 329c-97 0 -187 62 -187 191s90 189 187 189s187 -60 187 -189s-90 -191 -187 -191zM125 -34l493 763h119l-493 -763h-119zM662 84c34 0 54 28 54 97s-20 97 -54 97
s-55 -28 -55 -97s21 -97 55 -97zM662 -9c-97 0 -187 63 -187 192s90 188 187 188c96 0 186 -59 186 -188s-90 -192 -186 -192zM1069 84c34 0 54 28 54 97s-20 97 -54 97s-54 -28 -54 -97s20 -97 54 -97zM1069 -9c-97 0 -187 63 -187 192s90 188 187 188s187 -59 187 -188
s-90 -192 -187 -192z" />
    <glyph glyph-name="questiondown" unicode="&#xbf;" horiz-adv-x="464" 
d="M349 413c14 -78 -1 -122 -61 -179c-42 -40 -78 -73 -78 -118c0 -38 27 -57 67 -57c49 0 80 18 103 40h68v-124c-47 -29 -107 -53 -193 -53c-149 0 -231 67 -231 187c0 81 44 128 110 177c56 43 90 67 85 127h130zM280 638c53 0 94 -40 94 -90c0 -51 -41 -92 -94 -92
c-52 0 -94 41 -94 92c0 50 42 90 94 90z" />
    <glyph glyph-name="grave" unicode="`" 
d="M257 561h-105l-102 99v43h173l34 -109v-33z" />
    <glyph glyph-name="acute" unicode="&#xb4;" 
d="M247 561h-105v33l33 109h173v-43z" />
    <glyph glyph-name="circumflex" unicode="&#x2c6;" 
d="M48 561v38l91 104h121l89 -104v-38h-97l-56 42l-55 -42h-93z" />
    <glyph glyph-name="tilde" unicode="&#x2dc;" 
d="M25 562v40c11 66 49 104 106 104c48 0 86 -24 110 -24c17 0 26 9 31 24h90v-40c-11 -66 -49 -104 -105 -104c-49 0 -86 26 -110 26c-18 0 -28 -9 -32 -26h-90z" />
    <glyph glyph-name="macron" unicode="&#xaf;" 
d="M334 687v-108h-270v108h270z" />
    <glyph glyph-name="breve" unicode="&#x2d8;" 
d="M199 561c-83 0 -133 48 -145 106v40h103c2 -22 14 -38 42 -38s39 16 42 38h103v-40c-12 -58 -62 -106 -145 -106z" />
    <glyph glyph-name="dotaccent" unicode="&#x2d9;" 
d="M199 559c-53 0 -93 35 -93 84s40 85 93 85s93 -36 93 -85s-40 -84 -93 -84z" />
    <glyph glyph-name="dieresis" unicode="&#xa8;" 
d="M97 560c-49 0 -85 33 -85 79s36 80 85 80s84 -34 84 -80s-35 -79 -84 -79zM301 560c-49 0 -84 33 -84 79s35 80 84 80s85 -34 85 -80s-36 -79 -85 -79z" />
    <glyph glyph-name="ring" unicode="&#x2da;" 
d="M199 562c-58 0 -107 39 -107 102c0 62 49 102 107 102s107 -40 107 -102c0 -63 -49 -102 -107 -102zM199 628c20 0 34 14 34 36s-14 36 -34 36s-33 -14 -33 -36s13 -36 33 -36z" />
    <glyph glyph-name="cedilla" unicode="&#xb8;" 
d="M153 0h76v-24c56 -3 81 -29 81 -73c0 -47 -37 -78 -112 -78c-37 0 -60 6 -82 16v62h31c7 -6 18 -11 33 -11c18 0 26 5 26 16c0 10 -8 16 -31 16h-22v76z" />
    <glyph glyph-name="hungarumlaut" unicode="&#x2dd;" 
d="M62 561v28l32 114h138v-42l-77 -100h-93zM238 561v28l32 114h138v-42l-76 -100h-94z" />
    <glyph glyph-name="ogonek" unicode="&#x2db;" 
d="M217 -167c-73 0 -111 30 -111 77c0 42 32 71 68 90h102c-21 -18 -34 -31 -34 -50c0 -15 10 -24 37 -24h18v-76c-19 -11 -43 -17 -80 -17z" />
    <glyph glyph-name="caron" unicode="&#x2c7;" 
d="M349 703v-38l-92 -104h-121l-88 104v38h97l56 -42l55 42h93z" />
    <glyph glyph-name="emdash" unicode="&#x2014;" horiz-adv-x="748" 
d="M38 215v133h671v-133h-671z" />
    <glyph glyph-name="AE" unicode="&#xc6;" horiz-adv-x="963" 
d="M438 0v165h-204l-76 -165h-149v45l318 655h593v-134h-291v-149h204v-126h-204v-161h301v-130h-492zM418 566l-125 -272h145v272h-20z" />
    <glyph glyph-name="ordfeminine" unicode="&#xaa;" horiz-adv-x="466" 
d="M344 258c-35 0 -51 14 -60 43c-31 -35 -71 -49 -125 -49c-77 0 -140 44 -140 132c0 94 71 138 173 138c33 0 60 -2 84 -8v27c0 36 -20 53 -73 53c-43 0 -78 -13 -102 -28h-49v105c45 19 101 37 183 37c136 0 200 -44 200 -157v-293h-91zM222 345c19 0 39 10 54 22v74
c-14 2 -30 4 -46 4c-37 0 -61 -15 -61 -51s23 -49 53 -49z" />
    <glyph glyph-name="Lslash" unicode="&#x141;" horiz-adv-x="564" 
d="M534 0h-467v222l-61 -22v123l61 22v355h192v-283l178 66v-123l-178 -66v-162h275v-132z" />
    <glyph glyph-name="Oslash" unicode="&#xd8;" horiz-adv-x="742" 
d="M371 -9c-68 0 -132 16 -186 48l-49 -61h-97v28l74 91c-54 60 -87 145 -87 252c0 231 157 360 345 360c71 0 138 -19 194 -54l48 59h96v-28l-75 -92c51 -60 83 -143 83 -245c0 -231 -156 -358 -346 -358zM218 347c0 -42 4 -77 11 -106l240 296c-25 26 -59 39 -98 39
c-90 0 -153 -70 -153 -229zM371 120c89 0 154 68 154 227c0 38 -4 71 -10 99l-238 -293c25 -23 57 -33 94 -33z" />
    <glyph glyph-name="OE" unicode="&#x152;" horiz-adv-x="968" 
d="M397 0c-243 0 -371 112 -371 346c0 236 128 354 376 354h523v-134h-285v-149h199v-126h-199v-161h295v-130h-538zM449 569h-44c-125 0 -184 -58 -184 -218s57 -220 184 -220h44v438z" />
    <glyph glyph-name="ordmasculine" unicode="&#xba;" horiz-adv-x="522" 
d="M261 251c-137 0 -238 85 -238 226c0 142 101 231 238 231s238 -89 238 -231c0 -141 -101 -226 -238 -226zM261 355c47 0 77 36 77 121c0 86 -30 124 -77 124s-77 -38 -77 -124c0 -85 30 -121 77 -121z" />
    <glyph glyph-name="ae" unicode="&#xe6;" horiz-adv-x="863" 
d="M202 -7c-108 0 -182 51 -182 159s83 164 217 164h91v25c0 45 -24 66 -89 66c-52 0 -95 -15 -125 -35h-54v121c49 21 120 42 211 42c79 0 131 -15 163 -49c45 31 101 49 162 49c163 0 247 -87 247 -265c0 -21 -2 -40 -2 -46h-333c9 -89 51 -112 123 -112
c59 0 103 17 135 39h56v-107c-46 -26 -108 -52 -218 -52c-98 0 -170 29 -216 80c-42 -48 -98 -79 -186 -79zM255 98c44 0 71 20 91 42c-10 25 -16 53 -19 84h-60c-46 0 -76 -18 -76 -62c0 -45 28 -64 64 -64zM595 425c-42 0 -77 -21 -86 -108h164c-3 82 -30 108 -78 108z
" />
    <glyph glyph-name="dotlessi" unicode="&#x131;" horiz-adv-x="278" 
d="M228 0h-179v527h116c54 0 63 -18 63 -101v-426z" />
    <glyph glyph-name="lslash" unicode="&#x142;" horiz-adv-x="297" 
d="M238 0h-179v278l-56 -29v118l56 29v304h114c55 0 65 -14 65 -94v-115l59 31v-118l-59 -31v-373z" />
    <glyph glyph-name="oslash" unicode="&#xf8;" horiz-adv-x="601" 
d="M301 -8c-52 0 -101 11 -142 31l-40 -49h-82v26l57 70c-46 46 -74 111 -74 191c0 169 122 274 281 274c53 0 102 -12 144 -35l36 45h82v-26l-54 -67c45 -47 72 -112 72 -191c0 -168 -122 -269 -280 -269zM197 259c0 -22 1 -41 4 -57l159 194c-16 14 -37 20 -59 20
c-61 0 -104 -50 -104 -157zM301 104c60 0 102 50 102 155c0 22 -1 41 -4 58l-159 -194c17 -14 38 -19 61 -19z" />
    <glyph glyph-name="oe" unicode="&#x153;" horiz-adv-x="934" 
d="M298 -8c-157 0 -278 101 -278 269c0 169 121 274 277 274c77 0 143 -28 189 -77c43 49 105 77 184 77c159 0 244 -87 244 -265c0 -21 -2 -40 -2 -46h-333c9 -89 51 -112 124 -112c59 0 102 17 134 39h56v-107c-46 -26 -108 -52 -214 -52c-89 0 -153 26 -195 72
c-46 -47 -110 -72 -186 -72zM301 109c58 0 98 46 98 150c0 105 -40 152 -98 152c-59 0 -99 -47 -99 -152c0 -104 40 -150 99 -150zM666 425c-41 0 -76 -21 -86 -107h164c-3 81 -30 107 -78 107z" />
    <glyph glyph-name="germandbls" unicode="&#xdf;" horiz-adv-x="652" 
d="M48 0v498c0 133 93 213 281 213c153 0 243 -51 243 -155c0 -51 -36 -90 -80 -123c-43 -32 -53 -44 -53 -61c0 -16 11 -25 60 -45c88 -36 135 -74 135 -169c0 -97 -70 -166 -214 -166c-57 0 -111 13 -143 34v117h57c16 -14 42 -31 80 -31c35 0 57 13 57 32
c0 22 -19 30 -79 53c-71 26 -112 67 -112 138c0 58 28 88 67 129c29 32 47 48 47 75c0 28 -24 49 -70 49c-69 0 -96 -36 -96 -94v-494h-180z" />
    <glyph glyph-name="trademark" unicode="&#x2122;" horiz-adv-x="708" 
d="M200 420h-97v209h-77v71h252v-71h-78v-209zM316 420v280h137l40 -139h1l41 139h138v-280h-95v193h-1l-58 -193h-66l-57 193h-1v-193h-79z" />
    <glyph glyph-name="Eth" unicode="&#xd0;" horiz-adv-x="705" 
d="M5 287v124h55v289h248c242 0 371 -112 371 -346c0 -236 -128 -354 -377 -354h-242v287h-55zM252 129h47c125 0 184 60 184 220s-57 218 -184 218h-47v-156h126v-124h-126v-158z" />
    <glyph glyph-name="onehalf" unicode="&#xbd;" horiz-adv-x="814" 
d="M789 98v-98h-295v98l109 96c35 31 52 51 52 72c0 19 -14 32 -40 32s-50 -11 -62 -22h-52v88c31 19 76 35 137 35c101 0 156 -39 156 -118c0 -58 -35 -91 -91 -137l-56 -46h142zM237 308h-139v266l-49 -25h-23v97l109 54h102v-392zM679 729l-493 -763h-116l493 763h116z
" />
    <glyph glyph-name="Thorn" unicode="&#xde;" horiz-adv-x="619" 
d="M56 0v700h192v-122h65c190 0 286 -71 286 -223c0 -150 -102 -222 -293 -222h-58v-133h-192zM247 448v-194h58c78 0 104 36 104 100s-23 94 -104 94h-58z" />
    <glyph glyph-name="onequarter" unicode="&#xbc;" horiz-adv-x="773" 
d="M721 0h-132v79h-171v94l176 219h127v-231h39v-82h-39v-79zM510 162v-2h83v104h-2zM237 308h-139v266l-49 -25h-23v97l109 54h102v-392zM680 729l-493 -763h-116l493 763h116z" />
    <glyph glyph-name="divide" unicode="&#xf7;" horiz-adv-x="534" 
d="M510 276h-486v139h486v-139zM268 243c51 0 92 -40 92 -91c0 -50 -41 -89 -92 -89c-53 0 -94 39 -94 89c0 51 41 91 94 91zM268 628c51 0 92 -40 92 -90c0 -51 -41 -90 -92 -90c-53 0 -94 39 -94 90c0 50 41 90 94 90z" />
    <glyph glyph-name="brokenbar" unicode="&#xa6;" horiz-adv-x="198" 
d="M32 -49v357h135l-1 -357h-134zM32 390v351h134l1 -351h-135z" />
    <glyph glyph-name="degree" unicode="&#xb0;" horiz-adv-x="350" 
d="M175 417c-82 0 -151 58 -151 145s69 144 151 144s152 -57 152 -144s-70 -145 -152 -145zM175 493c38 0 64 28 64 69s-26 68 -64 68c-37 0 -62 -27 -62 -68s25 -69 62 -69z" />
    <glyph glyph-name="thorn" unicode="&#xfe;" horiz-adv-x="605" 
d="M228 606v-131c38 35 87 60 157 60c100 0 199 -68 199 -258c0 -197 -101 -276 -224 -276c-56 0 -99 14 -132 39v-202h-180v862h114c55 0 66 -14 66 -94zM304 401c-22 0 -52 -7 -76 -17v-244c20 -14 43 -21 73 -21c55 0 101 26 101 143c0 113 -44 139 -98 139z" />
    <glyph glyph-name="threequarters" unicode="&#xbe;" horiz-adv-x="811" 
d="M157 301c-64 0 -100 15 -128 30v82h48c12 -9 35 -21 65 -21c35 0 55 12 55 37c0 24 -18 36 -51 36h-40v79h36c35 0 54 13 54 35s-15 33 -45 33c-28 0 -50 -10 -63 -18h-48v80c29 18 76 33 134 33c86 0 149 -33 149 -107c0 -51 -30 -77 -80 -89v-3c58 -8 87 -38 87 -90
c0 -75 -64 -117 -173 -117zM759 0h-132v79h-171v94l176 219h127v-231h39v-82h-39v-79zM548 162v-2h83v104h-2zM728 729l-493 -763h-116l493 763h116z" />
    <glyph glyph-name="registered" unicode="&#xae;" horiz-adv-x="384" 
d="M192 350c-97 0 -185 66 -185 179c0 114 88 179 185 179c96 0 185 -65 185 -179c0 -113 -89 -179 -185 -179zM192 389c77 0 139 47 139 140s-62 140 -139 140s-139 -47 -139 -140s62 -140 139 -140zM221 441l-29 60h-14v-60h-62v183h82c52 0 77 -21 77 -62
c0 -21 -10 -37 -26 -47l30 -55v-19h-58zM192 540c16 0 22 8 22 23c0 13 -6 21 -22 21h-15v-44h15z" />
    <glyph glyph-name="minus" unicode="&#x2212;" horiz-adv-x="534" 
d="M510 276h-486v139h486v-139z" />
    <glyph glyph-name="eth" unicode="&#xf0;" horiz-adv-x="601" 
d="M163 522v28l40 34c-18 5 -36 9 -55 13v103h70c34 -5 67 -13 97 -23l26 22h101v-27l-40 -34c114 -68 179 -187 179 -351c0 -205 -122 -295 -285 -295c-161 0 -276 97 -276 259c0 163 107 251 229 251c66 0 96 -20 126 -49c-16 41 -45 71 -82 94l-29 -25h-101zM304 110
c60 0 95 43 95 139c0 97 -35 141 -95 141s-102 -44 -102 -141c0 -96 42 -139 102 -139z" />
    <glyph glyph-name="multiply" unicode="&#xd7;" horiz-adv-x="525" 
d="M403 107l-140 139l-139 -139l-95 95l139 138l-139 138l95 95l139 -139l140 139l94 -95l-139 -138l139 -138z" />
    <glyph glyph-name="copyright" unicode="&#xa9;" horiz-adv-x="781" 
d="M391 -8c-191 0 -363 127 -363 358s172 358 363 358s362 -127 362 -358s-171 -358 -362 -358zM391 48c161 0 294 110 294 302s-133 302 -294 302c-162 0 -295 -110 -295 -302s133 -302 295 -302zM402 151c-129 0 -206 71 -206 199c0 126 87 202 214 202
c57 0 98 -14 125 -27v-95h-52c-14 12 -34 24 -67 24c-49 0 -81 -34 -81 -105c0 -72 29 -102 79 -102c39 0 59 13 74 26h48v-86c-25 -16 -70 -36 -134 -36z" />
    <glyph glyph-name="Aacute" unicode="&#xc1;" horiz-adv-x="694" 
d="M19 0v45l223 655h208l226 -655v-45h-186l-49 158h-223l-47 -158h-152zM284 723v33l33 102h173v-42l-101 -93h-105zM328 524l-71 -236h145l-72 236h-2z" />
    <glyph glyph-name="Acircumflex" unicode="&#xc2;" horiz-adv-x="694" 
d="M27 0v45l223 655h208l226 -655v-45h-186l-49 158h-223l-47 -158h-152zM201 723v38l91 100h121l89 -100v-38h-97l-56 38l-55 -38h-93zM336 524l-71 -236h145l-72 236h-2z" />
    <glyph glyph-name="Adieresis" unicode="&#xc4;" horiz-adv-x="694" 
d="M19 0v45l223 655h208l226 -655v-45h-186l-49 158h-223l-47 -158h-152zM242 723c-49 0 -85 33 -85 79s36 79 85 79s84 -33 84 -79s-35 -79 -84 -79zM446 723c-49 0 -84 33 -84 79s35 79 84 79s85 -33 85 -79s-36 -79 -85 -79zM328 524l-71 -236h145l-72 236h-2z" />
    <glyph glyph-name="Agrave" unicode="&#xc0;" horiz-adv-x="694" 
d="M19 0v45l223 655h208l226 -655v-45h-186l-49 158h-223l-47 -158h-152zM404 723h-105l-102 93v42h173l34 -102v-33zM328 524l-71 -236h145l-72 236h-2z" />
    <glyph glyph-name="Aring" unicode="&#xc5;" horiz-adv-x="694" 
d="M19 0v45l223 655h208l226 -655v-45h-186l-49 158h-223l-47 -158h-152zM343 723c-58 0 -107 39 -107 102c0 62 49 102 107 102s107 -40 107 -102c0 -63 -49 -102 -107 -102zM328 524l-71 -236h145l-72 236h-2zM343 789c20 0 34 14 34 36s-14 36 -34 36s-33 -14 -33 -36
s13 -36 33 -36z" />
    <glyph glyph-name="Atilde" unicode="&#xc3;" horiz-adv-x="694" 
d="M19 0v45l223 655h208l226 -655v-45h-186l-49 158h-223l-47 -158h-152zM172 723v40c11 66 49 103 106 103c48 0 86 -24 110 -24c17 0 26 9 31 24h90v-40c-11 -66 -49 -103 -105 -103c-49 0 -86 26 -110 26c-18 0 -28 -9 -32 -26h-90zM328 524l-71 -236h145l-72 236h-2z
" />
    <glyph glyph-name="Ccedilla" unicode="&#xc7;" horiz-adv-x="631" 
d="M603 59c-51 -37 -121 -65 -218 -68v-15c56 -3 81 -29 81 -73c0 -47 -37 -78 -112 -78c-37 0 -60 6 -82 16v62h31c7 -6 18 -11 33 -11c18 0 26 5 26 16c0 10 -8 16 -31 16h-22v71c-174 23 -282 147 -282 351c0 229 144 363 360 363c98 0 158 -20 210 -50v-133h-74
c-26 24 -68 46 -131 46c-106 0 -169 -71 -169 -219c0 -160 55 -228 160 -228c75 0 118 28 152 61h68v-127z" />
    <glyph glyph-name="Eacute" unicode="&#xc9;" horiz-adv-x="581" 
d="M252 723v33l33 102h173v-42l-101 -93h-105zM56 0v700h482v-134h-291v-149h205v-126h-205v-161h301v-130h-492z" />
    <glyph glyph-name="Ecircumflex" unicode="&#xca;" horiz-adv-x="581" 
d="M56 0v700h482v-134h-291v-149h205v-126h-205v-161h301v-130h-492zM158 723v38l91 100h121l89 -100v-38h-97l-56 38l-55 -38h-93z" />
    <glyph glyph-name="Edieresis" unicode="&#xcb;" horiz-adv-x="581" 
d="M207 723c-49 0 -85 33 -85 79s36 79 85 79s84 -33 84 -79s-35 -79 -84 -79zM411 723c-49 0 -84 33 -84 79s35 79 84 79s85 -33 85 -79s-36 -79 -85 -79zM56 0v700h482v-134h-291v-149h205v-126h-205v-161h301v-130h-492z" />
    <glyph glyph-name="Egrave" unicode="&#xc8;" horiz-adv-x="581" 
d="M369 723h-105l-102 93v42h173l34 -102v-33zM56 0v700h482v-134h-291v-149h205v-126h-205v-161h301v-130h-492z" />
    <glyph glyph-name="Iacute" unicode="&#xcd;" horiz-adv-x="311" 
d="M252 0h-193v700h193v-700zM99 723v33l33 102h173v-42l-101 -93h-105z" />
    <glyph glyph-name="Icircumflex" unicode="&#xce;" horiz-adv-x="311" 
d="M252 0h-193v700h193v-700zM5 723v38l91 100h121l89 -100v-38h-97l-56 38l-55 -38h-93z" />
    <glyph glyph-name="Idieresis" unicode="&#xcf;" horiz-adv-x="311" 
d="M252 0h-193v700h193v-700zM53 723c-49 0 -85 33 -85 79s36 79 85 79s84 -33 84 -79s-35 -79 -84 -79zM257 723c-49 0 -84 33 -84 79s35 79 84 79s85 -33 85 -79s-36 -79 -85 -79z" />
    <glyph glyph-name="Igrave" unicode="&#xcc;" horiz-adv-x="311" 
d="M252 0h-193v700h193v-700zM216 723h-105l-102 93v42h173l34 -102v-33z" />
    <glyph glyph-name="Ntilde" unicode="&#xd1;" horiz-adv-x="707" 
d="M201 723v40c11 66 49 103 106 103c48 0 86 -24 110 -24c17 0 26 9 31 24h90v-40c-11 -66 -49 -103 -105 -103c-49 0 -86 26 -110 26c-18 0 -28 -9 -32 -26h-90zM56 0v700h205l229 -405h3v405h158v-700h-174l-261 459h-3v-459h-157z" />
    <glyph glyph-name="Oacute" unicode="&#xd3;" horiz-adv-x="742" 
d="M314 723v33l33 102h173v-42l-101 -93h-105zM371 -9c-190 0 -345 127 -345 358s157 360 345 360s346 -129 346 -360s-156 -358 -346 -358zM371 122c88 0 150 68 150 225c0 158 -62 227 -150 227s-150 -69 -150 -227c0 -157 62 -225 150 -225z" />
    <glyph glyph-name="Ocircumflex" unicode="&#xd4;" horiz-adv-x="742" 
d="M371 -9c-190 0 -345 127 -345 358s157 360 345 360s346 -129 346 -360s-156 -358 -346 -358zM371 122c88 0 150 68 150 225c0 158 -62 227 -150 227s-150 -69 -150 -227c0 -157 62 -225 150 -225zM220 723v38l91 100h121l89 -100v-38h-97l-56 38l-55 -38h-93z" />
    <glyph glyph-name="Odieresis" unicode="&#xd6;" horiz-adv-x="742" 
d="M269 723c-49 0 -85 33 -85 79s36 79 85 79s84 -33 84 -79s-35 -79 -84 -79zM473 723c-49 0 -84 33 -84 79s35 79 84 79s85 -33 85 -79s-36 -79 -85 -79zM371 -9c-190 0 -345 127 -345 358s157 360 345 360s346 -129 346 -360s-156 -358 -346 -358zM371 122
c88 0 150 68 150 225c0 158 -62 227 -150 227s-150 -69 -150 -227c0 -157 62 -225 150 -225z" />
    <glyph glyph-name="Ograve" unicode="&#xd2;" horiz-adv-x="742" 
d="M431 723h-105l-102 93v42h173l34 -102v-33zM371 -9c-190 0 -345 127 -345 358s157 360 345 360s346 -129 346 -360s-156 -358 -346 -358zM371 122c88 0 150 68 150 225c0 158 -62 227 -150 227s-150 -69 -150 -227c0 -157 62 -225 150 -225z" />
    <glyph glyph-name="Otilde" unicode="&#xd5;" horiz-adv-x="742" 
d="M202 723v40c11 66 49 103 106 103c48 0 86 -24 110 -24c17 0 26 9 31 24h90v-40c-11 -66 -49 -103 -105 -103c-49 0 -86 26 -110 26c-18 0 -28 -9 -32 -26h-90zM371 -9c-190 0 -345 127 -345 358s157 360 345 360s346 -129 346 -360s-156 -358 -346 -358zM371 122
c88 0 150 68 150 225c0 158 -62 227 -150 227s-150 -69 -150 -227c0 -157 62 -225 150 -225z" />
    <glyph glyph-name="Scaron" unicode="&#x160;" horiz-adv-x="547" 
d="M251 -9c-102 0 -172 22 -229 56v133h71c28 -30 78 -56 151 -56c72 0 109 25 109 69c0 60 -56 66 -134 87c-128 33 -196 84 -196 216c0 143 109 213 263 213c88 0 158 -18 208 -47v-129h-69c-32 24 -76 43 -132 43c-68 0 -102 -20 -102 -65c0 -46 39 -59 115 -77
c165 -38 224 -91 224 -222c0 -140 -96 -221 -279 -221zM427 861v-38l-92 -100h-121l-88 100v38h97l56 -38l55 38h93z" />
    <glyph glyph-name="Uacute" unicode="&#xda;" horiz-adv-x="693" 
d="M305 723v33l33 102h173v-42l-101 -93h-105zM366 131c76 0 114 31 114 136v433h159v-434c0 -177 -87 -274 -285 -274s-301 98 -301 274v434h192v-433c0 -105 42 -136 121 -136z" />
    <glyph glyph-name="Ucircumflex" unicode="&#xdb;" horiz-adv-x="693" 
d="M366 131c76 0 114 31 114 136v433h159v-434c0 -177 -87 -274 -285 -274s-301 98 -301 274v434h192v-433c0 -105 42 -136 121 -136zM211 723v38l91 100h121l89 -100v-38h-97l-56 38l-55 -38h-93z" />
    <glyph glyph-name="Udieresis" unicode="&#xdc;" horiz-adv-x="693" 
d="M259 723c-49 0 -85 33 -85 79s36 79 85 79s84 -33 84 -79s-35 -79 -84 -79zM463 723c-49 0 -84 33 -84 79s35 79 84 79s85 -33 85 -79s-36 -79 -85 -79zM366 131c76 0 114 31 114 136v433h159v-434c0 -177 -87 -274 -285 -274s-301 98 -301 274v434h192v-433
c0 -105 42 -136 121 -136z" />
    <glyph glyph-name="Ugrave" unicode="&#xd9;" horiz-adv-x="693" 
d="M422 723h-105l-102 93v42h173l34 -102v-33zM366 131c76 0 114 31 114 136v433h159v-434c0 -177 -87 -274 -285 -274s-301 98 -301 274v434h192v-433c0 -105 42 -136 121 -136z" />
    <glyph glyph-name="Yacute" unicode="&#xdd;" horiz-adv-x="637" 
d="M420 0h-192v260l-214 393v47h180l140 -273h2l135 273h152v-47l-203 -388v-265zM271 723v33l33 102h173v-42l-101 -93h-105z" />
    <glyph glyph-name="Ydieresis" unicode="&#x178;" horiz-adv-x="637" 
d="M420 0h-192v260l-214 393v47h180l140 -273h2l135 273h152v-47l-203 -388v-265zM230 723c-49 0 -85 33 -85 79s36 79 85 79s84 -33 84 -79s-35 -79 -84 -79zM434 723c-49 0 -84 33 -84 79s35 79 84 79s85 -33 85 -79s-36 -79 -85 -79z" />
    <glyph glyph-name="Zcaron" unicode="&#x17d;" horiz-adv-x="572" 
d="M448 861v-38l-92 -100h-121l-88 100v38h97l56 -38l55 38h93zM18 0v139l311 424v4h-289v133h495v-144l-311 -421v-4h311v-131h-517z" />
    <glyph glyph-name="aacute" unicode="&#xe1;" horiz-adv-x="553" 
d="M410 0c-42 0 -62 15 -72 50c-37 -41 -86 -57 -151 -57c-93 0 -167 53 -167 157c0 111 85 164 207 164c40 0 71 -4 101 -10v36c0 46 -24 67 -89 67c-52 0 -95 -15 -125 -35h-54v121c49 21 120 42 214 42c157 0 234 -52 234 -182v-353h-98zM326 561h-105v33l33 109h173v-43
zM328 127v93c-18 3 -39 5 -59 5c-48 0 -78 -19 -78 -63c0 -45 28 -64 67 -64c27 0 51 13 70 29z" />
    <glyph glyph-name="acircumflex" unicode="&#xe2;" horiz-adv-x="553" 
d="M410 0c-42 0 -62 15 -72 50c-37 -41 -86 -57 -151 -57c-93 0 -167 53 -167 157c0 111 85 164 207 164c40 0 71 -4 101 -10v36c0 46 -24 67 -89 67c-52 0 -95 -15 -125 -35h-54v121c49 21 120 42 214 42c157 0 234 -52 234 -182v-353h-98zM122 561v38l91 104h121l89 -104
v-38h-97l-56 42l-55 -42h-93zM258 98c27 0 51 13 70 29v93c-18 3 -39 5 -59 5c-48 0 -78 -19 -78 -63c0 -45 28 -64 67 -64z" />
    <glyph glyph-name="adieresis" unicode="&#xe4;" horiz-adv-x="553" 
d="M410 0c-42 0 -62 15 -72 50c-37 -41 -86 -57 -151 -57c-93 0 -167 53 -167 157c0 111 85 164 207 164c40 0 71 -4 101 -10v36c0 46 -24 67 -89 67c-52 0 -95 -15 -125 -35h-54v121c49 21 120 42 214 42c157 0 234 -52 234 -182v-353h-98zM170 560c-49 0 -85 33 -85 79
s36 80 85 80s84 -34 84 -80s-35 -79 -84 -79zM374 560c-49 0 -84 33 -84 79s35 80 84 80s85 -34 85 -80s-36 -79 -85 -79zM328 127v93c-18 3 -39 5 -59 5c-48 0 -78 -19 -78 -63c0 -45 28 -64 67 -64c27 0 51 13 70 29z" />
    <glyph glyph-name="agrave" unicode="&#xe0;" horiz-adv-x="553" 
d="M410 0c-42 0 -62 15 -72 50c-37 -41 -86 -57 -151 -57c-93 0 -167 53 -167 157c0 111 85 164 207 164c40 0 71 -4 101 -10v36c0 46 -24 67 -89 67c-52 0 -95 -15 -125 -35h-54v121c49 21 120 42 214 42c157 0 234 -52 234 -182v-353h-98zM326 561h-105l-102 99v43h173
l34 -109v-33zM328 127v93c-18 3 -39 5 -59 5c-48 0 -78 -19 -78 -63c0 -45 28 -64 67 -64c27 0 51 13 70 29z" />
    <glyph glyph-name="aring" unicode="&#xe5;" horiz-adv-x="553" 
d="M410 0c-42 0 -62 15 -72 50c-37 -41 -86 -57 -151 -57c-93 0 -167 53 -167 157c0 111 85 164 207 164c40 0 71 -4 101 -10v36c0 46 -24 67 -89 67c-52 0 -95 -15 -125 -35h-54v121c49 21 120 42 214 42c157 0 234 -52 234 -182v-353h-98zM272 562c-58 0 -107 39 -107 102
c0 62 49 102 107 102s107 -40 107 -102c0 -63 -49 -102 -107 -102zM328 127v93c-18 3 -39 5 -59 5c-48 0 -78 -19 -78 -63c0 -45 28 -64 67 -64c27 0 51 13 70 29zM272 628c20 0 34 14 34 36s-14 36 -34 36s-33 -14 -33 -36s13 -36 33 -36z" />
    <glyph glyph-name="atilde" unicode="&#xe3;" horiz-adv-x="553" 
d="M410 0c-42 0 -62 15 -72 50c-37 -41 -86 -57 -151 -57c-93 0 -167 53 -167 157c0 111 85 164 207 164c40 0 71 -4 101 -10v36c0 46 -24 67 -89 67c-52 0 -95 -15 -125 -35h-54v121c49 21 120 42 214 42c157 0 234 -52 234 -182v-353h-98zM104 562v40
c11 66 49 104 106 104c48 0 86 -24 110 -24c17 0 26 9 31 24h90v-40c-11 -66 -49 -104 -105 -104c-49 0 -86 26 -110 26c-18 0 -28 -9 -32 -26h-90zM328 127v93c-18 3 -39 5 -59 5c-48 0 -78 -19 -78 -63c0 -45 28 -64 67 -64c27 0 51 13 70 29z" />
    <glyph glyph-name="ccedilla" unicode="&#xe7;" horiz-adv-x="508" 
d="M481 40c-34 -22 -94 -48 -179 -48v-16c56 -3 81 -29 81 -73c0 -47 -37 -78 -112 -78c-37 0 -60 6 -82 16v62h31c7 -6 18 -11 33 -11c18 0 26 5 26 16c0 10 -8 16 -31 16h-22v75c-131 24 -206 115 -206 263c0 171 120 273 292 273c77 0 132 -18 167 -37v-123h-65
c-19 17 -51 33 -94 33c-69 0 -117 -48 -117 -148s44 -144 113 -144c54 0 83 18 105 37h60v-113z" />
    <glyph glyph-name="eacute" unicode="&#xe9;" horiz-adv-x="557" 
d="M535 224h-333c9 -89 51 -112 124 -112c59 0 103 17 134 39h56v-107c-46 -26 -108 -52 -218 -52c-183 0 -278 102 -278 268c0 169 110 275 269 275c164 0 248 -87 248 -265c0 -21 -2 -40 -2 -46zM338 561h-105v33l33 109h173v-43zM289 425c-41 0 -76 -21 -86 -107h164
c-3 81 -30 107 -78 107z" />
    <glyph glyph-name="ecircumflex" unicode="&#xea;" horiz-adv-x="557" 
d="M535 224h-333c9 -89 51 -112 124 -112c59 0 103 17 134 39h56v-107c-46 -26 -108 -52 -218 -52c-183 0 -278 102 -278 268c0 169 110 275 269 275c164 0 248 -87 248 -265c0 -21 -2 -40 -2 -46zM134 561v38l91 104h121l89 -104v-38h-97l-56 42l-55 -42h-93zM289 425
c-41 0 -76 -21 -86 -107h164c-3 81 -30 107 -78 107z" />
    <glyph glyph-name="edieresis" unicode="&#xeb;" horiz-adv-x="557" 
d="M535 224h-333c9 -89 51 -112 124 -112c59 0 103 17 134 39h56v-107c-46 -26 -108 -52 -218 -52c-183 0 -278 102 -278 268c0 169 110 275 269 275c164 0 248 -87 248 -265c0 -21 -2 -40 -2 -46zM386 560c-49 0 -84 33 -84 79s35 80 84 80s85 -34 85 -80s-36 -79 -85 -79z
M182 560c-49 0 -85 33 -85 79s36 80 85 80s84 -34 84 -80s-35 -79 -84 -79zM289 425c-41 0 -76 -21 -86 -107h164c-3 81 -30 107 -78 107z" />
    <glyph glyph-name="egrave" unicode="&#xe8;" horiz-adv-x="557" 
d="M535 224h-333c9 -89 51 -112 124 -112c59 0 103 17 134 39h56v-107c-46 -26 -108 -52 -218 -52c-183 0 -278 102 -278 268c0 169 110 275 269 275c164 0 248 -87 248 -265c0 -21 -2 -40 -2 -46zM338 561h-105l-102 99v43h173l34 -109v-33zM289 425
c-41 0 -76 -21 -86 -107h164c-3 81 -30 107 -78 107z" />
    <glyph glyph-name="iacute" unicode="&#xed;" horiz-adv-x="278" 
d="M181 561h-105v33l33 109h173v-43zM228 0h-179v527h116c54 0 63 -18 63 -101v-426z" />
    <glyph glyph-name="icircumflex" unicode="&#xee;" horiz-adv-x="278" 
d="M-11 561v38l91 104h121l89 -104v-38h-97l-56 42l-55 -42h-93zM228 0h-179v527h116c54 0 63 -18 63 -101v-426z" />
    <glyph glyph-name="idieresis" unicode="&#xef;" horiz-adv-x="278" 
d="M37 560c-49 0 -85 33 -85 79s36 80 85 80s84 -34 84 -80s-35 -79 -84 -79zM241 560c-49 0 -84 33 -84 79s35 80 84 80s85 -34 85 -80s-36 -79 -85 -79zM228 0h-179v527h116c54 0 63 -18 63 -101v-426z" />
    <glyph glyph-name="igrave" unicode="&#xec;" horiz-adv-x="278" 
d="M228 0h-179v527h116c54 0 63 -18 63 -101v-426zM200 561h-105l-102 99v43h173l34 -109v-33z" />
    <glyph glyph-name="ntilde" unicode="&#xf1;" horiz-adv-x="602" 
d="M173 527c28 0 44 -11 51 -64c47 39 113 72 190 72c79 0 143 -32 143 -149v-386h-180v339c0 46 -19 58 -62 58c-33 0 -62 -9 -87 -17v-380h-180v527h125zM136 562v40c11 66 49 104 106 104c48 0 86 -24 110 -24c17 0 26 9 31 24h90v-40c-11 -66 -49 -104 -105 -104
c-49 0 -86 26 -110 26c-18 0 -28 -9 -32 -26h-90z" />
    <glyph glyph-name="oacute" unicode="&#xf3;" horiz-adv-x="601" 
d="M354 561h-105v33l33 109h173v-43zM301 -8c-159 0 -281 101 -281 269c0 169 122 274 281 274c158 0 280 -105 280 -274c0 -168 -122 -269 -280 -269zM301 110c58 0 98 45 98 149c0 105 -40 153 -98 153c-59 0 -99 -48 -99 -153c0 -104 40 -149 99 -149z" />
    <glyph glyph-name="ocircumflex" unicode="&#xf4;" horiz-adv-x="601" 
d="M150 561v38l91 104h121l89 -104v-38h-97l-56 42l-55 -42h-93zM301 -8c-159 0 -281 101 -281 269c0 169 122 274 281 274c158 0 280 -105 280 -274c0 -168 -122 -269 -280 -269zM301 110c58 0 98 45 98 149c0 105 -40 153 -98 153c-59 0 -99 -48 -99 -153
c0 -104 40 -149 99 -149z" />
    <glyph glyph-name="odieresis" unicode="&#xf6;" horiz-adv-x="601" 
d="M198 560c-49 0 -85 33 -85 79s36 80 85 80s84 -34 84 -80s-35 -79 -84 -79zM402 560c-49 0 -84 33 -84 79s35 80 84 80s85 -34 85 -80s-36 -79 -85 -79zM301 -8c-159 0 -281 101 -281 269c0 169 122 274 281 274c158 0 280 -105 280 -274c0 -168 -122 -269 -280 -269z
M301 110c58 0 98 45 98 149c0 105 -40 153 -98 153c-59 0 -99 -48 -99 -153c0 -104 40 -149 99 -149z" />
    <glyph glyph-name="ograve" unicode="&#xf2;" horiz-adv-x="601" 
d="M301 -8c-159 0 -281 101 -281 269c0 169 122 274 281 274c158 0 280 -105 280 -274c0 -168 -122 -269 -280 -269zM301 110c58 0 98 45 98 149c0 105 -40 153 -98 153c-59 0 -99 -48 -99 -153c0 -104 40 -149 99 -149zM354 561h-105l-102 99v43h173l34 -109v-33z" />
    <glyph glyph-name="otilde" unicode="&#xf5;" horiz-adv-x="601" 
d="M301 -8c-159 0 -281 101 -281 269c0 169 122 274 281 274c158 0 280 -105 280 -274c0 -168 -122 -269 -280 -269zM301 110c58 0 98 45 98 149c0 105 -40 153 -98 153c-59 0 -99 -48 -99 -153c0 -104 40 -149 99 -149zM132 562v40c11 66 49 104 106 104
c48 0 86 -24 110 -24c17 0 26 9 31 24h90v-40c-11 -66 -49 -104 -105 -104c-49 0 -86 26 -110 26c-18 0 -28 -9 -32 -26h-90z" />
    <glyph glyph-name="scaron" unicode="&#x161;" horiz-adv-x="469" 
d="M389 703v-38l-92 -104h-121l-88 104v38h97l56 -42l55 42h93zM215 -7c-92 0 -147 20 -190 42v118h61c21 -19 65 -39 122 -39c48 0 78 11 78 38c0 28 -18 37 -91 47c-112 14 -175 53 -175 163c0 115 90 172 222 172c84 0 133 -14 178 -35v-116h-57c-24 16 -63 32 -116 32
c-50 0 -69 -13 -69 -38c0 -22 23 -33 90 -41c123 -15 182 -52 182 -164s-74 -179 -235 -179z" />
    <glyph glyph-name="uacute" unicode="&#xfa;" horiz-adv-x="610" 
d="M297 124c28 0 58 9 82 17v386h179v-527h-125c-28 0 -43 8 -50 59c-48 -37 -109 -67 -180 -67c-87 0 -154 36 -154 151v384h180v-343c0 -50 25 -60 68 -60zM359 561h-105v33l33 109h173v-43z" />
    <glyph glyph-name="ucircumflex" unicode="&#xfb;" horiz-adv-x="610" 
d="M297 124c28 0 58 9 82 17v386h179v-527h-125c-28 0 -43 8 -50 59c-48 -37 -109 -67 -180 -67c-87 0 -154 36 -154 151v384h180v-343c0 -50 25 -60 68 -60zM154 561v38l91 104h121l89 -104v-38h-97l-56 42l-55 -42h-93z" />
    <glyph glyph-name="udieresis" unicode="&#xfc;" horiz-adv-x="610" 
d="M297 124c28 0 58 9 82 17v386h179v-527h-125c-28 0 -43 8 -50 59c-48 -37 -109 -67 -180 -67c-87 0 -154 36 -154 151v384h180v-343c0 -50 25 -60 68 -60zM407 560c-49 0 -84 33 -84 79s35 80 84 80s85 -34 85 -80s-36 -79 -85 -79zM203 560c-49 0 -85 33 -85 79
s36 80 85 80s84 -34 84 -80s-35 -79 -84 -79z" />
    <glyph glyph-name="ugrave" unicode="&#xf9;" horiz-adv-x="610" 
d="M297 124c28 0 58 9 82 17v386h179v-527h-125c-28 0 -43 8 -50 59c-48 -37 -109 -67 -180 -67c-87 0 -154 36 -154 151v384h180v-343c0 -50 25 -60 68 -60zM359 561h-105l-102 99v43h173l34 -109v-33z" />
    <glyph glyph-name="yacute" unicode="&#xfd;" horiz-adv-x="569" 
d="M136 -162v41l69 146l-190 461v41h171l110 -299h3l102 299h154v-41l-256 -648h-163zM350 561h-105v33l33 109h173v-43z" />
    <glyph glyph-name="ydieresis" unicode="&#xff;" horiz-adv-x="569" 
d="M136 -162v41l69 146l-190 461v41h171l110 -299h3l102 299h154v-41l-256 -648h-163zM194 560c-49 0 -85 33 -85 79s36 80 85 80s84 -34 84 -80s-35 -79 -84 -79zM398 560c-49 0 -84 33 -84 79s35 80 84 80s85 -34 85 -80s-36 -79 -85 -79z" />
    <glyph glyph-name="zcaron" unicode="&#x17e;" horiz-adv-x="508" 
d="M408 703v-38l-92 -104h-121l-88 104v38h97l56 -42l55 42h93zM25 0v121l247 282h-234v124h441v-124l-248 -281h243v-122h-449z" />
    <glyph glyph-name="oneeighth" unicode="&#x215b;" horiz-adv-x="827" 
d="M237 308h-139v266l-49 -25h-23v97l109 54h102v-392zM673 729l-493 -763h-116l493 763h116zM638 -7c-116 0 -176 46 -176 118c0 51 25 82 77 97v2c-43 12 -62 41 -62 82c0 66 65 107 161 107c94 0 160 -41 160 -107c0 -41 -19 -70 -61 -82v-2c52 -15 76 -46 76 -97
c0 -72 -60 -118 -175 -118zM638 75c32 0 46 20 46 48s-14 50 -46 50c-33 0 -48 -22 -48 -50s15 -48 48 -48zM638 239c25 0 39 15 39 39s-14 40 -39 40c-27 0 -40 -16 -40 -40s13 -39 40 -39z" />
    <glyph glyph-name="threeeighths" unicode="&#x215c;" horiz-adv-x="854" 
d="M157 301c-64 0 -100 15 -128 30v82h48c12 -9 35 -21 65 -21c35 0 55 12 55 37c0 24 -18 36 -51 36h-40v79h36c35 0 54 13 54 35s-15 33 -45 33c-28 0 -50 -10 -63 -18h-48v80c29 18 76 33 134 33c86 0 149 -33 149 -107c0 -51 -30 -77 -80 -89v-3c58 -8 87 -38 87 -90
c0 -75 -64 -117 -173 -117zM715 729l-493 -763h-116l493 763h116zM665 -7c-116 0 -176 46 -176 118c0 51 25 82 77 97v2c-43 12 -62 41 -62 82c0 66 65 107 161 107c94 0 160 -41 160 -107c0 -41 -19 -70 -61 -82v-2c52 -15 76 -46 76 -97c0 -72 -60 -118 -175 -118zM665 75
c32 0 46 20 46 48s-14 50 -46 50c-33 0 -48 -22 -48 -50s15 -48 48 -48zM665 239c25 0 39 15 39 39s-14 40 -39 40c-27 0 -40 -16 -40 -40s13 -39 40 -39z" />
    <glyph glyph-name="fiveeighths" unicode="&#x215d;" horiz-adv-x="861" 
d="M334 435c0 -83 -68 -134 -179 -134c-58 0 -93 12 -124 28v85h48c14 -10 35 -21 64 -21c39 0 58 16 58 44c0 27 -19 39 -42 39c-22 0 -36 -9 -44 -19h-74v243h272v-96h-178v-66h2c14 10 38 19 77 19c68 0 120 -39 120 -122zM717 729l-493 -763h-116l493 763h116zM672 -7
c-116 0 -176 46 -176 118c0 51 25 82 77 97v2c-43 12 -62 41 -62 82c0 66 65 107 161 107c94 0 160 -41 160 -107c0 -41 -19 -70 -61 -82v-2c52 -15 76 -46 76 -97c0 -72 -60 -118 -175 -118zM672 75c32 0 46 20 46 48s-14 50 -46 50c-33 0 -48 -22 -48 -50s15 -48 48 -48z
M672 239c25 0 39 15 39 39s-14 40 -39 40c-27 0 -40 -16 -40 -40s13 -39 40 -39z" />
    <glyph glyph-name="seveneighths" unicode="&#x215e;" horiz-adv-x="840" 
d="M677 729l-493 -763h-116l493 763h116zM651 -7c-116 0 -176 46 -176 118c0 51 25 82 77 97v2c-43 12 -62 41 -62 82c0 66 65 107 161 107c94 0 160 -41 160 -107c0 -41 -19 -70 -61 -82v-2c52 -15 76 -46 76 -97c0 -72 -60 -118 -175 -118zM651 75c32 0 46 20 46 48
s-14 50 -46 50c-33 0 -48 -22 -48 -50s15 -48 48 -48zM651 239c25 0 39 15 39 39s-14 40 -39 40c-27 0 -40 -16 -40 -40s13 -39 40 -39zM67 308v35l137 251v2h-176v104h292v-108l-116 -284h-137z" />
    <glyph glyph-name="onethird" unicode="&#x2153;" horiz-adv-x="806" 
d="M237 308h-139v266l-49 -25h-23v97l109 54h102v-392zM669 729l-493 -763h-116l493 763h116zM616 -7c-64 0 -100 15 -128 30v82h48c12 -9 35 -21 65 -21c35 0 55 12 55 37c0 24 -18 36 -51 36h-40v79h36c35 0 54 13 54 35s-15 33 -45 33c-28 0 -50 -10 -63 -18h-48v80
c29 17 76 33 134 33c86 0 149 -33 149 -107c0 -51 -30 -77 -80 -89v-3c58 -8 87 -38 87 -90c0 -75 -64 -117 -173 -117z" />
    <glyph glyph-name="twothirds" unicode="&#x2154;" horiz-adv-x="876" 
d="M323 406v-98h-295v98l109 96c35 31 52 51 52 72c0 19 -14 32 -40 32s-50 -11 -62 -22h-52v88c31 19 76 35 137 35c101 0 156 -39 156 -118c0 -58 -35 -91 -91 -137l-56 -46h142zM750 729l-493 -763h-116l493 763h116zM685 -7c-64 0 -100 15 -128 30v82h48
c12 -9 35 -21 65 -21c35 0 55 12 55 37c0 24 -18 36 -51 36h-40v79h36c35 0 54 13 54 35s-15 33 -45 33c-28 0 -50 -10 -63 -18h-48v80c29 17 76 33 134 33c86 0 149 -33 149 -107c0 -51 -30 -77 -80 -89v-3c58 -8 87 -38 87 -90c0 -75 -64 -117 -173 -117z" />
    <glyph glyph-name="Euro" unicode="&#x20ac;" horiz-adv-x="614" 
d="M404 233h-130c16 -75 53 -107 124 -107c59 0 99 21 128 48h65v-121c-46 -35 -110 -62 -209 -62c-154 0 -268 80 -304 242h-59v93h48v47h-48v93h61c37 161 155 243 317 243c86 0 137 -14 189 -43v-129h-74c-26 21 -59 36 -107 36c-71 0 -113 -34 -131 -107h174l-17 -93
h-167v-47h158z" />
    <glyph glyph-name="Dcroat" unicode="&#x110;" horiz-adv-x="705" 
d="M5 287v124h55v289h248c242 0 371 -112 371 -346c0 -236 -128 -354 -377 -354h-242v287h-55zM252 129h47c125 0 184 60 184 220s-57 218 -184 218h-47v-156h126v-124h-126v-158z" />
    <glyph glyph-name="uni0237" unicode="&#x237;" horiz-adv-x="278" 
d="M-39 -156v98h28c45 0 60 17 60 60v525h116c54 0 63 -20 63 -101v-433c0 -116 -60 -162 -175 -162c-40 0 -67 5 -92 13z" />
    <glyph glyph-name="dcroat" unicode="&#x111;" horiz-adv-x="607" 
d="M253 559v90h126v51h114c55 0 65 -15 66 -51h49v-90h-49v-559h-127c-24 0 -39 10 -47 55c-32 -35 -80 -64 -152 -64c-119 0 -210 84 -210 265c0 208 114 279 219 279c67 0 105 -19 137 -50v74h-126zM296 110c33 0 56 10 83 32v241c-19 12 -42 18 -71 18
c-53 0 -103 -25 -103 -141c0 -110 31 -150 91 -150z" />
    <glyph glyph-name="Abreve" unicode="&#x102;" horiz-adv-x="694" 
d="M19 0v45l223 655h208l226 -655v-45h-186l-49 158h-223l-47 -158h-152zM343 723c-83 0 -133 44 -145 99v39h103c2 -16 14 -31 42 -31s39 15 42 31h103v-39c-12 -53 -62 -99 -145 -99zM328 524l-71 -236h145l-72 236h-2z" />
    <glyph glyph-name="Amacron" unicode="&#x100;" horiz-adv-x="694" 
d="M19 0v45l223 655h208l226 -655v-45h-186l-49 158h-223l-47 -158h-152zM480 842v-109h-276v109h276zM328 524l-71 -236h145l-72 236h-2z" />
    <glyph glyph-name="Aogonek" unicode="&#x104;" horiz-adv-x="694" 
d="M595 -167c-73 0 -111 30 -111 77c0 42 32 71 68 90h-62l-49 158h-223l-47 -158h-152v45l223 655h208l226 -655v-45h-22c-21 -18 -34 -31 -34 -50c0 -15 10 -24 37 -24h18v-76c-19 -11 -43 -17 -80 -17zM328 524l-71 -236h145l-72 236h-2z" />
    <glyph glyph-name="Cacute" unicode="&#x106;" horiz-adv-x="635" 
d="M371 -9c-210 0 -344 128 -344 355c0 229 144 363 360 363c98 0 158 -20 210 -50v-133h-74c-26 24 -68 46 -131 46c-106 0 -169 -71 -169 -219c0 -160 55 -228 160 -228c75 0 118 28 152 61h68v-127c-53 -39 -128 -68 -232 -68zM304 723v33l33 102h173v-42l-101 -93h-105z
" />
    <glyph glyph-name="Ccaron" unicode="&#x10c;" horiz-adv-x="635" 
d="M371 -9c-210 0 -344 128 -344 355c0 229 144 363 360 363c98 0 158 -20 210 -50v-133h-74c-26 24 -68 46 -131 46c-106 0 -169 -71 -169 -219c0 -160 55 -228 160 -228c75 0 118 28 152 61h68v-127c-53 -39 -128 -68 -232 -68zM512 861v-38l-92 -100h-121l-88 100v38h97
l56 -38l55 38h93z" />
    <glyph glyph-name="Ccircumflex" unicode="&#x108;" horiz-adv-x="635" 
d="M371 -9c-210 0 -344 128 -344 355c0 229 144 363 360 363c98 0 158 -20 210 -50v-133h-74c-26 24 -68 46 -131 46c-106 0 -169 -71 -169 -219c0 -160 55 -228 160 -228c75 0 118 28 152 61h68v-127c-53 -39 -128 -68 -232 -68zM211 723v38l91 100h121l89 -100v-38h-97
l-56 38l-55 -38h-93z" />
    <glyph glyph-name="Cdotaccent" unicode="&#x10a;" horiz-adv-x="635" 
d="M361 723c-53 0 -93 35 -93 84s40 85 93 85s93 -36 93 -85s-40 -84 -93 -84zM371 -9c-210 0 -344 128 -344 355c0 229 144 363 360 363c98 0 158 -20 210 -50v-133h-74c-26 24 -68 46 -131 46c-106 0 -169 -71 -169 -219c0 -160 55 -228 160 -228c75 0 118 28 152 61h68
v-127c-53 -39 -128 -68 -232 -68z" />
    <glyph glyph-name="Dcaron" unicode="&#x10e;" horiz-adv-x="701" 
d="M470 861v-38l-92 -100h-121l-88 100v38h97l56 -38l55 38h93zM56 0v700h248c242 0 371 -112 371 -346c0 -236 -128 -354 -377 -354h-242zM248 129h47c125 0 184 60 184 220s-57 218 -184 218h-47v-438z" />
    <glyph glyph-name="Ebreve" unicode="&#x114;" horiz-adv-x="581" 
d="M309 723c-83 0 -133 44 -145 99v39h103c2 -16 14 -31 42 -31s39 15 42 31h103v-39c-12 -53 -62 -99 -145 -99zM56 0v700h482v-134h-291v-149h205v-126h-205v-161h301v-130h-492z" />
    <glyph glyph-name="Ecaron" unicode="&#x11a;" horiz-adv-x="581" 
d="M459 861v-38l-92 -100h-121l-88 100v38h97l56 -38l55 38h93zM56 0v700h482v-134h-291v-149h205v-126h-205v-161h301v-130h-492z" />
    <glyph glyph-name="Edotaccent" unicode="&#x116;" horiz-adv-x="581" 
d="M309 723c-53 0 -93 35 -93 84s40 85 93 85s93 -36 93 -85s-40 -84 -93 -84zM56 0v700h482v-134h-291v-149h205v-126h-205v-161h301v-130h-492z" />
    <glyph glyph-name="Emacron" unicode="&#x112;" horiz-adv-x="581" 
d="M447 842v-109h-276v109h276zM56 0v700h482v-134h-291v-149h205v-126h-205v-161h301v-130h-492z" />
    <glyph glyph-name="Eogonek" unicode="&#x118;" horiz-adv-x="581" 
d="M56 0v700h482v-134h-291v-149h205v-126h-205v-161h301v-130h-43c-21 -18 -34 -31 -34 -50c0 -15 10 -24 37 -24h18v-76c-19 -11 -43 -17 -80 -17c-73 0 -111 30 -111 77c0 42 32 71 68 90h-347z" />
    <glyph glyph-name="Gbreve" unicode="&#x11e;" horiz-adv-x="681" 
d="M362 723c-83 0 -133 44 -145 99v39h103c2 -16 14 -31 42 -31s39 15 42 31h103v-39c-12 -53 -62 -99 -145 -99zM371 -9c-228 0 -345 128 -345 355c0 233 137 363 367 363c91 0 148 -15 210 -44v-138h-71c-31 24 -68 44 -137 44c-110 0 -171 -60 -171 -222
c0 -163 47 -230 146 -230c37 0 60 4 80 10v128h-83v116h265v-329c-73 -36 -163 -53 -261 -53z" />
    <glyph glyph-name="Gcircumflex" unicode="&#x11c;" horiz-adv-x="681" 
d="M371 -9c-228 0 -345 128 -345 355c0 233 137 363 367 363c91 0 148 -15 210 -44v-138h-71c-31 24 -68 44 -137 44c-110 0 -171 -60 -171 -222c0 -163 47 -230 146 -230c37 0 60 4 80 10v128h-83v116h265v-329c-73 -36 -163 -53 -261 -53zM211 723v38l91 100h121l89 -100
v-38h-97l-56 38l-55 -38h-93z" />
    <glyph glyph-name="Gcommaaccent" unicode="&#x122;" horiz-adv-x="681" 
d="M289 -228v62c34 3 46 11 46 24c0 10 -12 13 -22 20c-17 10 -25 23 -25 47c0 33 30 57 71 57c43 0 77 -26 77 -80c0 -80 -46 -124 -147 -130zM371 -9c-228 0 -345 128 -345 355c0 233 137 363 367 363c91 0 148 -15 210 -44v-138h-71c-31 24 -68 44 -137 44
c-110 0 -171 -60 -171 -222c0 -163 47 -230 146 -230c37 0 60 4 80 10v128h-83v116h265v-329c-73 -36 -163 -53 -261 -53z" />
    <glyph glyph-name="Gdotaccent" unicode="&#x120;" horiz-adv-x="681" 
d="M362 723c-53 0 -93 35 -93 84s40 85 93 85s93 -36 93 -85s-40 -84 -93 -84zM371 -9c-228 0 -345 128 -345 355c0 233 137 363 367 363c91 0 148 -15 210 -44v-138h-71c-31 24 -68 44 -137 44c-110 0 -171 -60 -171 -222c0 -163 47 -230 146 -230c37 0 60 4 80 10v128h-83
v116h265v-329c-73 -36 -163 -53 -261 -53z" />
    <glyph glyph-name="Hbar" unicode="&#x126;" horiz-adv-x="711" 
d="M1 500v108h55v92h192v-92h215v92h192v-92h55v-108h-55v-500h-192v289h-215v-289h-192v500h-55zM248 422h215v78h-215v-78z" />
    <glyph glyph-name="Hcircumflex" unicode="&#x124;" horiz-adv-x="711" 
d="M248 0h-192v700h192v-276h215v276h192v-700h-192v289h-215v-289zM204 723v38l91 100h121l89 -100v-38h-97l-56 38l-55 -38h-93z" />
    <glyph glyph-name="Idotaccent" unicode="&#x130;" horiz-adv-x="311" 
d="M252 0h-193v700h193v-700zM155 723c-53 0 -93 35 -93 84s40 85 93 85s93 -36 93 -85s-40 -84 -93 -84z" />
    <glyph glyph-name="Imacron" unicode="&#x12a;" horiz-adv-x="311" 
d="M252 0h-193v700h193v-700zM293 842v-109h-276v109h276z" />
    <glyph glyph-name="Iogonek" unicode="&#x12e;" horiz-adv-x="311" 
d="M174 -167c-73 0 -111 30 -111 77c0 42 32 71 68 90h-72v700h193v-700h-19c-21 -18 -34 -31 -34 -50c0 -15 10 -24 37 -24h18v-76c-19 -11 -43 -17 -80 -17z" />
    <glyph glyph-name="Jcircumflex" unicode="&#x134;" horiz-adv-x="490" 
d="M187 -9c-77 0 -131 17 -171 42v129h66c18 -17 44 -33 90 -33c48 0 74 25 74 72v499h192v-499c0 -137 -80 -210 -251 -210zM188 723v38l91 100h121l89 -100v-38h-97l-56 38l-55 -38h-93z" />
    <glyph glyph-name="Kcommaaccent" unicode="&#x136;" horiz-adv-x="693" 
d="M56 0v700h192v-285l237 285h165v-43l-203 -234l224 -380v-43h-187l-172 291l-64 -70v-221h-192zM282 -228v62c34 3 46 11 46 24c0 10 -12 13 -22 20c-17 10 -25 23 -25 47c0 33 30 57 71 57c43 0 77 -26 77 -80c0 -80 -46 -124 -147 -130z" />
    <glyph glyph-name="Lacute" unicode="&#x139;" horiz-adv-x="552" 
d="M96 723v33l33 102h173v-42l-101 -93h-105zM523 0h-467v700h192v-568h275v-132z" />
    <glyph glyph-name="Lcaron" unicode="&#x13d;" horiz-adv-x="552" 
d="M313 561v139h138v-43l-57 -96h-81zM523 0h-467v700h192v-568h275v-132z" />
    <glyph glyph-name="Lcommaaccent" unicode="&#x13b;" horiz-adv-x="552" 
d="M221 -228v62c34 3 46 11 46 24c0 10 -12 13 -22 20c-17 10 -25 23 -25 47c0 33 30 57 71 57c43 0 77 -26 77 -80c0 -80 -46 -124 -147 -130zM523 0h-467v700h192v-568h275v-132z" />
    <glyph glyph-name="Nacute" unicode="&#x143;" horiz-adv-x="707" 
d="M313 723v33l33 102h173v-42l-101 -93h-105zM56 0v700h205l229 -405h3v405h158v-700h-174l-261 459h-3v-459h-157z" />
    <glyph glyph-name="Ncaron" unicode="&#x147;" horiz-adv-x="707" 
d="M520 861v-38l-92 -100h-121l-88 100v38h97l56 -38l55 38h93zM56 0v700h205l229 -405h3v405h158v-700h-174l-261 459h-3v-459h-157z" />
    <glyph glyph-name="Ncommaaccent" unicode="&#x145;" horiz-adv-x="707" 
d="M273 -228v62c34 3 46 11 46 24c0 10 -12 13 -22 20c-17 10 -25 23 -25 47c0 33 30 57 71 57c43 0 77 -26 77 -80c0 -80 -46 -124 -147 -130zM56 0v700h205l229 -405h3v405h158v-700h-174l-261 459h-3v-459h-157z" />
    <glyph glyph-name="Ohungarumlaut" unicode="&#x150;" horiz-adv-x="742" 
d="M371 -9c-190 0 -345 127 -345 358s157 360 345 360s346 -129 346 -360s-156 -358 -346 -358zM371 122c88 0 150 68 150 225c0 158 -62 227 -150 227s-150 -69 -150 -227c0 -157 62 -225 150 -225zM230 723v29l31 106h141v-42l-76 -93h-96zM409 723v29l31 106h141v-42
l-75 -93h-97z" />
    <glyph glyph-name="Omacron" unicode="&#x14c;" horiz-adv-x="742" 
d="M509 842v-109h-276v109h276zM371 -9c-190 0 -345 127 -345 358s157 360 345 360s346 -129 346 -360s-156 -358 -346 -358zM371 122c88 0 150 68 150 225c0 158 -62 227 -150 227s-150 -69 -150 -227c0 -157 62 -225 150 -225z" />
    <glyph glyph-name="Racute" unicode="&#x154;" horiz-adv-x="658" 
d="M456 0l-135 257h-73v-257h-192v700h263c186 0 280 -74 280 -214c0 -88 -39 -150 -104 -187l139 -254v-45h-178zM246 570v-188h61c71 0 102 32 102 94s-31 94 -102 94h-61zM256 723v33l33 102h173v-42l-101 -93h-105z" />
    <glyph glyph-name="Rcaron" unicode="&#x158;" horiz-adv-x="658" 
d="M456 0l-135 257h-73v-257h-192v700h263c186 0 280 -74 280 -214c0 -88 -39 -150 -104 -187l139 -254v-45h-178zM464 861v-38l-92 -100h-121l-88 100v38h97l56 -38l55 38h93zM246 570v-188h61c71 0 102 32 102 94s-31 94 -102 94h-61z" />
    <glyph glyph-name="Rcommaaccent" unicode="&#x156;" horiz-adv-x="658" 
d="M456 0l-135 257h-73v-257h-192v700h263c186 0 280 -74 280 -214c0 -88 -39 -150 -104 -187l139 -254v-45h-178zM246 570v-188h61c71 0 102 32 102 94s-31 94 -102 94h-61zM265 -228v62c34 3 46 11 46 24c0 10 -12 13 -22 20c-17 10 -25 23 -25 47c0 33 30 57 71 57
c43 0 77 -26 77 -80c0 -80 -46 -124 -147 -130z" />
    <glyph glyph-name="Sacute" unicode="&#x15a;" horiz-adv-x="554" 
d="M253 -9c-102 0 -172 22 -229 56v133h71c28 -30 78 -56 151 -56c72 0 109 25 109 69c0 60 -56 66 -134 87c-128 33 -196 84 -196 216c0 143 109 213 263 213c88 0 158 -18 208 -47v-129h-69c-32 24 -76 43 -132 43c-68 0 -102 -20 -102 -65c0 -46 39 -59 115 -77
c165 -38 224 -91 224 -222c0 -140 -96 -221 -279 -221zM224 723v33l33 102h173v-42l-101 -93h-105z" />
    <glyph glyph-name="Scedilla" unicode="&#x15e;" horiz-adv-x="556" 
d="M532 212c0 -128 -80 -207 -233 -219v-17c56 -3 81 -29 81 -73c0 -47 -37 -78 -112 -78c-37 0 -60 6 -82 16v62h31c7 -6 18 -11 33 -11c18 0 26 5 26 16c0 10 -8 16 -31 16h-22v68c-86 4 -148 24 -199 55v133h71c28 -30 78 -56 151 -56c72 0 109 25 109 69
c0 60 -56 66 -134 87c-128 33 -196 84 -196 216c0 143 109 213 263 213c88 0 158 -18 208 -47v-129h-69c-32 24 -76 43 -132 43c-68 0 -102 -20 -102 -65c0 -46 39 -59 115 -77c165 -38 224 -91 224 -222z" />
    <glyph glyph-name="Scircumflex" unicode="&#x15c;" horiz-adv-x="554" 
d="M253 -9c-102 0 -172 22 -229 56v133h71c28 -30 78 -56 151 -56c72 0 109 25 109 69c0 60 -56 66 -134 87c-128 33 -196 84 -196 216c0 143 109 213 263 213c88 0 158 -18 208 -47v-129h-69c-32 24 -76 43 -132 43c-68 0 -102 -20 -102 -65c0 -46 39 -59 115 -77
c165 -38 224 -91 224 -222c0 -140 -96 -221 -279 -221zM131 723v38l91 100h121l89 -100v-38h-97l-56 38l-55 -38h-93z" />
    <glyph glyph-name="Scommaaccent" unicode="&#x218;" horiz-adv-x="556" 
d="M201 -228v62c34 3 46 11 46 24c0 10 -12 13 -22 20c-17 10 -25 23 -25 47c0 33 30 57 71 57c43 0 77 -26 77 -80c0 -80 -46 -124 -147 -130zM253 -9c-102 0 -172 22 -229 56v133h71c28 -30 78 -56 151 -56c72 0 109 25 109 69c0 60 -56 66 -134 87
c-128 33 -196 84 -196 216c0 143 109 213 263 213c88 0 158 -18 208 -47v-129h-69c-32 24 -76 43 -132 43c-68 0 -102 -20 -102 -65c0 -46 39 -59 115 -77c165 -38 224 -91 224 -222c0 -140 -96 -221 -279 -221z" />
    <glyph glyph-name="Tcaron" unicode="&#x164;" horiz-adv-x="603" 
d="M452 861v-38l-92 -100h-121l-88 100v38h97l56 -38l55 38h93zM397 0h-192v567h-180v133h553v-133h-181v-567z" />
    <glyph glyph-name="Tcommaaccent" unicode="&#x162;" horiz-adv-x="603" 
d="M228 -228v62c34 3 46 11 46 24c0 10 -12 13 -22 20c-17 10 -25 23 -25 47c0 33 30 57 71 57c43 0 77 -26 77 -80c0 -80 -46 -124 -147 -130zM397 0h-192v567h-180v133h553v-133h-181v-567z" />
    <glyph glyph-name="Ubreve" unicode="&#x16c;" horiz-adv-x="693" 
d="M361 723c-83 0 -133 44 -145 99v39h103c2 -16 14 -31 42 -31s39 15 42 31h103v-39c-12 -53 -62 -99 -145 -99zM366 131c76 0 114 31 114 136v433h159v-434c0 -177 -87 -274 -285 -274s-301 98 -301 274v434h192v-433c0 -105 42 -136 121 -136z" />
    <glyph glyph-name="Uhungarumlaut" unicode="&#x170;" horiz-adv-x="693" 
d="M366 131c76 0 114 31 114 136v433h159v-434c0 -177 -87 -274 -285 -274s-301 98 -301 274v434h192v-433c0 -105 42 -136 121 -136zM220 723v29l31 106h141v-42l-76 -93h-96zM399 723v29l31 106h141v-42l-75 -93h-97z" />
    <glyph glyph-name="Umacron" unicode="&#x16a;" horiz-adv-x="693" 
d="M499 842v-109h-276v109h276zM366 131c76 0 114 31 114 136v433h159v-434c0 -177 -87 -274 -285 -274s-301 98 -301 274v434h192v-433c0 -105 42 -136 121 -136z" />
    <glyph glyph-name="Uogonek" unicode="&#x172;" horiz-adv-x="693" 
d="M395 -167c-73 0 -111 30 -111 78c0 36 25 64 55 82h-1c-181 0 -285 101 -285 273v434h192v-433c0 -105 42 -136 121 -136c76 0 114 31 114 136v433h159v-434c0 -121 -38 -200 -123 -242c-27 -14 -58 -21 -76 -37c-13 -12 -20 -23 -20 -37c0 -15 10 -24 37 -24h18v-76
c-19 -11 -42 -17 -80 -17z" />
    <glyph glyph-name="Uring" unicode="&#x16e;" horiz-adv-x="693" 
d="M369 131c76 0 114 31 114 136v433h159v-434c0 -177 -87 -274 -285 -274s-301 98 -301 274v434h192v-433c0 -105 42 -136 121 -136zM366 696c-58 0 -107 39 -107 102c0 62 49 102 107 102s107 -40 107 -102c0 -63 -49 -102 -107 -102zM366 762c20 0 34 14 34 36
s-14 36 -34 36s-33 -14 -33 -36s13 -36 33 -36z" />
    <glyph glyph-name="Zacute" unicode="&#x179;" horiz-adv-x="572" 
d="M18 0v139l311 424v4h-289v133h495v-144l-311 -421v-4h311v-131h-517zM236 723v33l33 102h173v-42l-101 -93h-105z" />
    <glyph glyph-name="Zdotaccent" unicode="&#x17b;" horiz-adv-x="572" 
d="M298 723c-53 0 -93 35 -93 84s40 85 93 85s93 -36 93 -85s-40 -84 -93 -84zM18 0v139l311 424v4h-289v133h495v-144l-311 -421v-4h311v-131h-517z" />
    <glyph glyph-name="abreve" unicode="&#x103;" horiz-adv-x="553" 
d="M410 0c-42 0 -62 15 -72 50c-37 -41 -86 -57 -151 -57c-93 0 -167 53 -167 157c0 111 85 164 207 164c40 0 71 -4 101 -10v36c0 46 -24 67 -89 67c-52 0 -95 -15 -125 -35h-54v121c49 21 120 42 214 42c157 0 234 -52 234 -182v-353h-98zM272 561c-83 0 -133 48 -145 106
v40h103c2 -22 14 -38 42 -38s39 16 42 38h103v-40c-12 -58 -62 -106 -145 -106zM328 127v93c-18 3 -39 5 -59 5c-48 0 -78 -19 -78 -63c0 -45 28 -64 67 -64c27 0 51 13 70 29z" />
    <glyph glyph-name="amacron" unicode="&#x101;" horiz-adv-x="553" 
d="M410 0c-42 0 -62 15 -72 50c-37 -41 -86 -57 -151 -57c-93 0 -167 53 -167 157c0 111 85 164 207 164c40 0 71 -4 101 -10v36c0 46 -24 67 -89 67c-52 0 -95 -15 -125 -35h-54v121c49 21 120 42 214 42c157 0 234 -52 234 -182v-353h-98zM407 687v-108h-270v108h270z
M258 98c27 0 51 13 70 29v93c-18 3 -39 5 -59 5c-48 0 -78 -19 -78 -63c0 -45 28 -64 67 -64z" />
    <glyph glyph-name="aogonek" unicode="&#x105;" horiz-adv-x="553" 
d="M428 -167c-73 0 -111 30 -111 77c0 40 30 73 71 92c-27 5 -42 19 -50 48c-37 -41 -86 -57 -151 -57c-93 0 -167 53 -167 157c0 111 85 164 207 164c40 0 71 -4 101 -10v36c0 46 -24 67 -89 67c-52 0 -95 -15 -125 -35h-54v121c49 21 120 42 214 42
c157 0 234 -52 234 -182v-353h-21c-21 -18 -34 -31 -34 -50c0 -15 10 -24 37 -24h18v-76c-19 -11 -43 -17 -80 -17zM258 98c27 0 51 13 70 29v93c-18 3 -39 5 -59 5c-48 0 -78 -19 -78 -63c0 -45 28 -64 67 -64z" />
    <glyph glyph-name="cacute" unicode="&#x107;" horiz-adv-x="508" 
d="M339 561h-105v33l33 109h173v-43zM301 -8c-176 0 -281 96 -281 270c0 171 120 273 292 273c77 0 132 -18 167 -37v-123h-65c-19 17 -51 33 -94 33c-69 0 -117 -48 -117 -148s44 -144 113 -144c54 0 83 18 105 37h60v-113c-34 -22 -94 -48 -180 -48z" />
    <glyph glyph-name="ccaron" unicode="&#x10d;" horiz-adv-x="508" 
d="M435 703v-38l-92 -104h-121l-88 104v38h97l56 -42l55 42h93zM301 -8c-176 0 -281 96 -281 270c0 171 120 273 292 273c77 0 132 -18 167 -37v-123h-65c-19 17 -51 33 -94 33c-69 0 -117 -48 -117 -148s44 -144 113 -144c54 0 83 18 105 37h60v-113
c-34 -22 -94 -48 -180 -48z" />
    <glyph glyph-name="ccircumflex" unicode="&#x109;" horiz-adv-x="508" 
d="M134 561v38l91 104h121l89 -104v-38h-97l-56 42l-55 -42h-93zM301 -8c-176 0 -281 96 -281 270c0 171 120 273 292 273c77 0 132 -18 167 -37v-123h-65c-19 17 -51 33 -94 33c-69 0 -117 -48 -117 -148s44 -144 113 -144c54 0 83 18 105 37h60v-113
c-34 -22 -94 -48 -180 -48z" />
    <glyph glyph-name="cdotaccent" unicode="&#x10b;" horiz-adv-x="508" 
d="M301 -8c-176 0 -281 96 -281 270c0 171 120 273 292 273c77 0 132 -18 167 -37v-123h-65c-19 17 -51 33 -94 33c-69 0 -117 -48 -117 -148s44 -144 113 -144c54 0 83 18 105 37h60v-113c-34 -22 -94 -48 -180 -48zM285 559c-53 0 -93 35 -93 84s40 85 93 85
s93 -36 93 -85s-40 -84 -93 -84z" />
    <glyph glyph-name="dcaron" unicode="&#x10f;" horiz-adv-x="607" 
d="M559 606v-606h-127c-24 0 -39 10 -47 55c-32 -35 -80 -64 -152 -64c-119 0 -210 84 -210 265c0 208 114 279 219 279c67 0 105 -19 137 -50v215h114c56 0 66 -15 66 -94zM296 110c33 0 56 10 83 32v241c-19 12 -42 18 -71 18c-53 0 -103 -25 -103 -141
c0 -110 31 -150 91 -150zM590 561v139h139v-43l-58 -96h-81z" />
    <glyph glyph-name="ebreve" unicode="&#x115;" horiz-adv-x="557" 
d="M535 224h-333c9 -89 51 -112 124 -112c59 0 103 17 134 39h56v-107c-46 -26 -108 -52 -218 -52c-183 0 -278 102 -278 268c0 169 110 275 269 275c164 0 248 -87 248 -265c0 -21 -2 -40 -2 -46zM284 561c-83 0 -133 48 -145 106v40h103c2 -22 14 -38 42 -38s39 16 42 38
h103v-40c-12 -58 -62 -106 -145 -106zM289 425c-41 0 -76 -21 -86 -107h164c-3 81 -30 107 -78 107z" />
    <glyph glyph-name="ecaron" unicode="&#x11b;" horiz-adv-x="557" 
d="M535 224h-333c9 -89 51 -112 124 -112c59 0 103 17 134 39h56v-107c-46 -26 -108 -52 -218 -52c-183 0 -278 102 -278 268c0 169 110 275 269 275c164 0 248 -87 248 -265c0 -21 -2 -40 -2 -46zM435 703v-38l-92 -104h-121l-88 104v38h97l56 -42l55 42h93zM289 425
c-41 0 -76 -21 -86 -107h164c-3 81 -30 107 -78 107z" />
    <glyph glyph-name="edotaccent" unicode="&#x117;" horiz-adv-x="557" 
d="M535 224h-333c9 -89 51 -112 124 -112c59 0 103 17 134 39h56v-107c-46 -26 -108 -52 -218 -52c-183 0 -278 102 -278 268c0 169 110 275 269 275c164 0 248 -87 248 -265c0 -21 -2 -40 -2 -46zM284 559c-53 0 -93 35 -93 84s40 85 93 85s93 -36 93 -85s-40 -84 -93 -84z
M289 425c-41 0 -76 -21 -86 -107h164c-3 81 -30 107 -78 107z" />
    <glyph glyph-name="emacron" unicode="&#x113;" horiz-adv-x="557" 
d="M535 224h-333c9 -89 51 -112 124 -112c59 0 103 17 134 39h56v-107c-46 -26 -108 -52 -218 -52c-183 0 -278 102 -278 268c0 169 110 275 269 275c164 0 248 -87 248 -265c0 -21 -2 -40 -2 -46zM419 687v-108h-270v108h270zM289 425c-41 0 -76 -21 -86 -107h164
c-3 81 -30 107 -78 107z" />
    <glyph glyph-name="eogonek" unicode="&#x119;" horiz-adv-x="557" 
d="M454 1c-19 -16 -32 -32 -32 -51c0 -15 9 -24 37 -24h18v-76c-19 -11 -43 -17 -80 -17c-73 0 -112 30 -112 78c0 37 28 65 60 84c-13 -2 -32 -3 -47 -3c-183 0 -278 102 -278 268c0 169 110 275 269 275c164 0 248 -87 248 -265c0 -21 -2 -40 -2 -46h-332
c8 -88 51 -112 123 -112c59 0 103 17 134 39h56v-107c-23 -17 -47 -30 -62 -43zM289 425c-42 0 -76 -21 -86 -107h164c-3 81 -30 107 -78 107z" />
    <glyph glyph-name="gbreve" unicode="&#x11f;" horiz-adv-x="607" 
d="M559 527v-487c0 -139 -109 -210 -291 -210c-100 0 -168 16 -218 40v122h56c32 -21 79 -37 139 -37c91 0 134 27 134 90v26c-33 -27 -83 -45 -141 -45c-117 0 -215 65 -215 244c0 197 114 265 226 265c65 0 108 -21 145 -59c11 31 32 51 68 51h97zM300 140
c29 0 56 11 79 27v214c-20 13 -42 20 -73 20c-52 0 -101 -21 -101 -126c0 -109 32 -135 95 -135zM298 561c-83 0 -133 48 -145 106v40h103c2 -22 14 -38 42 -38s39 16 42 38h103v-40c-12 -58 -62 -106 -145 -106z" />
    <glyph glyph-name="gcircumflex" unicode="&#x11d;" horiz-adv-x="607" 
d="M559 527v-487c0 -139 -109 -210 -291 -210c-100 0 -168 16 -218 40v122h56c32 -21 79 -37 139 -37c91 0 134 27 134 90v26c-33 -27 -83 -45 -141 -45c-117 0 -215 65 -215 244c0 197 114 265 226 265c65 0 108 -21 145 -59c11 31 32 51 68 51h97zM300 140
c29 0 56 11 79 27v214c-20 13 -42 20 -73 20c-52 0 -101 -21 -101 -126c0 -109 32 -135 95 -135zM148 561v38l91 104h121l89 -104v-38h-97l-56 42l-55 -42h-93z" />
    <glyph glyph-name="gcommaaccent" unicode="&#x123;" horiz-adv-x="607" 
d="M559 527v-487c0 -139 -109 -210 -291 -210c-100 0 -168 16 -218 40v122h56c32 -21 79 -37 139 -37c91 0 134 27 134 90v26c-33 -27 -83 -45 -141 -45c-117 0 -215 65 -215 244c0 197 114 265 226 265c65 0 108 -21 145 -59c11 31 32 51 68 51h97zM300 140
c29 0 56 11 79 27v214c-20 13 -42 20 -73 20c-52 0 -101 -21 -101 -126c0 -109 32 -135 95 -135zM370 774v-62c-34 -3 -46 -11 -46 -24c0 -10 12 -13 22 -20c17 -10 25 -23 25 -47c0 -33 -30 -57 -71 -57c-43 0 -77 26 -77 80c0 80 46 124 147 130z" />
    <glyph glyph-name="gdotaccent" unicode="&#x121;" horiz-adv-x="607" 
d="M559 527v-487c0 -139 -109 -210 -291 -210c-100 0 -168 16 -218 40v122h56c32 -21 79 -37 139 -37c91 0 134 27 134 90v26c-33 -27 -83 -45 -141 -45c-117 0 -215 65 -215 244c0 197 114 265 226 265c65 0 108 -21 145 -59c11 31 32 51 68 51h97zM300 140
c29 0 56 11 79 27v214c-20 13 -42 20 -73 20c-52 0 -101 -21 -101 -126c0 -109 32 -135 95 -135zM298 559c-53 0 -93 35 -93 84s40 85 93 85s93 -36 93 -85s-40 -84 -93 -84z" />
    <glyph glyph-name="hbar" unicode="&#x127;" horiz-adv-x="602" 
d="M-1 559v90h49v51h114c53 0 65 -14 66 -51h126v-90h-126v-93c46 38 111 69 186 69c79 0 143 -32 143 -149v-386h-180v339c0 46 -19 58 -62 58c-33 0 -62 -9 -87 -17v-380h-180v559h-49z" />
    <glyph glyph-name="hcircumflex" unicode="&#x125;" horiz-adv-x="602" 
d="M228 606v-140c46 38 111 69 186 69c79 0 143 -32 143 -149v-386h-180v339c0 46 -19 58 -62 58c-33 0 -62 -9 -87 -17v-380h-180v700h114c55 0 66 -14 66 -94zM150 721v38l91 104h121l89 -104v-38h-97l-56 42l-55 -42h-93z" />
    <glyph glyph-name="imacron" unicode="&#x12b;" horiz-adv-x="278" 
d="M228 0h-179v527h116c54 0 63 -18 63 -101v-426zM267 687v-108h-257v108h257z" />
    <glyph glyph-name="iogonek" unicode="&#x12f;" horiz-adv-x="278" 
d="M154 -167c-73 0 -111 30 -111 77c0 42 32 71 68 90h-62v527h116c54 0 63 -18 63 -101v-426h-15c-21 -18 -34 -31 -34 -50c0 -15 10 -24 37 -24h18v-76c-19 -11 -43 -17 -80 -17zM139 559c-53 0 -93 35 -93 84s40 85 93 85c54 0 93 -36 93 -85s-39 -84 -93 -84z" />
    <glyph glyph-name="jcircumflex" unicode="&#x135;" horiz-adv-x="278" 
d="M-39 -156v98h28c45 0 60 17 60 60v525h116c54 0 63 -20 63 -101v-433c0 -116 -60 -162 -175 -162c-40 0 -67 5 -92 13zM-12 561v38l91 104h121l89 -104v-38h-97l-56 42l-55 -42h-93z" />
    <glyph glyph-name="kcommaaccent" unicode="&#x137;" horiz-adv-x="578" 
d="M228 606v-275l164 196h150v-43l-145 -165l165 -276v-43h-169l-122 205l-43 -47v-158h-180v700h114c55 0 66 -14 66 -94zM231 -228v62c34 3 46 11 46 24c0 10 -12 13 -22 20c-17 10 -25 23 -25 47c0 33 30 57 71 57c43 0 77 -26 77 -80c0 -80 -46 -124 -147 -130z" />
    <glyph glyph-name="lacute" unicode="&#x13a;" horiz-adv-x="280" 
d="M185 721h-105v33l33 109h173v-43zM230 0h-180v700h114c56 0 66 -14 66 -94v-606z" />
    <glyph glyph-name="lcaron" unicode="&#x13e;" horiz-adv-x="280" 
d="M261 561v139h139v-43l-58 -96h-81zM230 0h-180v700h114c56 0 66 -14 66 -94v-606z" />
    <glyph glyph-name="lcommaaccent" unicode="&#x13c;" horiz-adv-x="280" 
d="M68 -228v62c34 3 46 11 46 24c0 10 -12 13 -22 20c-17 10 -25 23 -25 47c0 33 30 57 71 57c43 0 77 -26 77 -80c0 -80 -46 -124 -147 -130zM230 0h-180v700h114c56 0 66 -14 66 -94v-606z" />
    <glyph glyph-name="nacute" unicode="&#x144;" horiz-adv-x="602" 
d="M173 527c28 0 44 -11 51 -64c47 39 113 72 190 72c79 0 143 -32 143 -149v-386h-180v339c0 46 -19 58 -62 58c-33 0 -62 -9 -87 -17v-380h-180v527h125zM359 561h-105v33l33 109h173v-43z" />
    <glyph glyph-name="ncaron" unicode="&#x148;" horiz-adv-x="602" 
d="M173 527c28 0 44 -11 51 -64c47 39 113 72 190 72c79 0 143 -32 143 -149v-386h-180v339c0 46 -19 58 -62 58c-33 0 -62 -9 -87 -17v-380h-180v527h125zM455 703v-38l-92 -104h-121l-88 104v38h97l56 -42l55 42h93z" />
    <glyph glyph-name="ncommaaccent" unicode="&#x146;" horiz-adv-x="602" 
d="M173 527c28 0 44 -11 51 -64c47 39 113 72 190 72c79 0 143 -32 143 -149v-386h-180v339c0 46 -19 58 -62 58c-33 0 -62 -9 -87 -17v-380h-180v527h125zM232 -228v62c34 3 46 11 46 24c0 10 -12 13 -22 20c-17 10 -25 23 -25 47c0 33 30 57 71 57c43 0 77 -26 77 -80
c0 -80 -46 -124 -147 -130z" />
    <glyph glyph-name="ohungarumlaut" unicode="&#x151;" horiz-adv-x="601" 
d="M162 561v28l32 114h138v-42l-77 -100h-93zM338 561v28l32 114h138v-42l-76 -100h-94zM301 -8c-159 0 -281 101 -281 269c0 169 122 274 281 274c158 0 280 -105 280 -274c0 -168 -122 -269 -280 -269zM301 110c58 0 98 45 98 149c0 105 -40 153 -98 153
c-59 0 -99 -48 -99 -153c0 -104 40 -149 99 -149z" />
    <glyph glyph-name="omacron" unicode="&#x14d;" horiz-adv-x="601" 
d="M435 687v-108h-270v108h270zM301 -8c-159 0 -281 101 -281 269c0 169 122 274 281 274c158 0 280 -105 280 -274c0 -168 -122 -269 -280 -269zM301 110c58 0 98 45 98 149c0 105 -40 153 -98 153c-59 0 -99 -48 -99 -153c0 -104 40 -149 99 -149z" />
    <glyph glyph-name="racute" unicode="&#x155;" horiz-adv-x="415" 
d="M377 383c-68 0 -120 -13 -149 -25v-358h-180v527h125c28 0 45 -12 51 -72c35 44 81 76 145 76c11 0 22 -2 32 -4v-144h-24zM290 561h-105v33l33 109h173v-43z" />
    <glyph glyph-name="rcaron" unicode="&#x159;" horiz-adv-x="411" 
d="M377 383c-68 0 -120 -13 -149 -25v-358h-180v527h125c28 0 45 -12 51 -72c35 44 81 76 145 76c11 0 22 -2 32 -4v-144h-24zM387 703v-38l-92 -104h-121l-88 104v38h97l56 -42l55 42h93z" />
    <glyph glyph-name="rcommaaccent" unicode="&#x157;" horiz-adv-x="411" 
d="M377 383c-68 0 -120 -13 -149 -25v-358h-180v527h125c28 0 45 -12 51 -72c35 44 81 76 145 76c11 0 22 -2 32 -4v-144h-24zM62 -228v62c34 3 46 11 46 24c0 10 -12 13 -22 20c-17 10 -25 23 -25 47c0 33 30 57 71 57c43 0 77 -26 77 -80c0 -80 -46 -124 -147 -130z" />
    <glyph glyph-name="sacute" unicode="&#x15b;" horiz-adv-x="469" 
d="M292 561h-105v33l33 109h173v-43zM215 -7c-92 0 -147 20 -190 42v118h61c21 -19 65 -39 122 -39c48 0 78 11 78 38c0 28 -18 37 -91 47c-112 14 -175 53 -175 163c0 115 90 172 222 172c84 0 133 -14 178 -35v-116h-57c-24 16 -63 32 -116 32c-50 0 -69 -13 -69 -38
c0 -22 23 -33 90 -41c123 -15 182 -52 182 -164s-74 -179 -235 -179z" />
    <glyph glyph-name="scedilla" unicode="&#x15f;" horiz-adv-x="469" 
d="M450 172c0 -100 -59 -165 -187 -177v-19c56 -3 81 -29 81 -73c0 -47 -37 -78 -112 -78c-37 0 -60 6 -82 16v62h31c7 -6 18 -11 33 -11c18 0 26 5 26 16c0 10 -8 16 -31 16h-22v70c-76 3 -124 21 -162 41v118h61c21 -19 65 -39 122 -39c48 0 78 11 78 38
c0 28 -18 37 -91 47c-112 14 -175 53 -175 163c0 115 90 172 222 172c84 0 133 -14 178 -35v-116h-57c-24 16 -63 32 -116 32c-50 0 -69 -13 -69 -38c0 -22 23 -33 90 -41c123 -15 182 -52 182 -164z" />
    <glyph glyph-name="scircumflex" unicode="&#x15d;" horiz-adv-x="469" 
d="M88 561v38l91 104h121l89 -104v-38h-97l-56 42l-55 -42h-93zM215 -7c-92 0 -147 20 -190 42v118h61c21 -19 65 -39 122 -39c48 0 78 11 78 38c0 28 -18 37 -91 47c-112 14 -175 53 -175 163c0 115 90 172 222 172c84 0 133 -14 178 -35v-116h-57c-24 16 -63 32 -116 32
c-50 0 -69 -13 -69 -38c0 -22 23 -33 90 -41c123 -15 182 -52 182 -164s-74 -179 -235 -179z" />
    <glyph glyph-name="scommaaccent" unicode="&#x219;" horiz-adv-x="469" 
d="M165 -228v62c34 3 46 11 46 24c0 10 -12 13 -22 20c-17 10 -25 23 -25 47c0 33 30 57 71 57c43 0 77 -26 77 -80c0 -80 -46 -124 -147 -130zM215 -7c-92 0 -147 20 -190 42v118h61c21 -19 65 -39 122 -39c48 0 78 11 78 38c0 28 -18 37 -91 47c-112 14 -175 53 -175 163
c0 115 90 172 222 172c84 0 133 -14 178 -35v-116h-57c-24 16 -63 32 -116 32c-50 0 -69 -13 -69 -38c0 -22 23 -33 90 -41c123 -15 182 -52 182 -164s-74 -179 -235 -179z" />
    <glyph glyph-name="tcaron" unicode="&#x165;" horiz-adv-x="368" 
d="M366 561h-81v139h139v-43zM12 411v116h57v134h180v-134h98v-116h-98v-240c0 -47 18 -62 65 -62h35v-104c-24 -7 -58 -14 -103 -14c-108 0 -177 38 -177 153v267h-57z" />
    <glyph glyph-name="tcommaaccent" unicode="&#x163;" horiz-adv-x="368" 
d="M132 -228v62c34 3 46 11 46 24c0 10 -12 13 -22 20c-17 10 -25 23 -25 47c0 33 30 57 71 57c43 0 77 -26 77 -80c0 -80 -46 -124 -147 -130zM12 411v116h57v134h180v-134h98v-116h-98v-240c0 -47 18 -62 65 -62h35v-104c-24 -7 -58 -14 -103 -14c-108 0 -177 38 -177 153
v267h-57z" />
    <glyph glyph-name="ubreve" unicode="&#x16d;" horiz-adv-x="610" 
d="M297 124c28 0 58 9 82 17v386h179v-527h-125c-28 0 -43 8 -50 59c-48 -37 -109 -67 -180 -67c-87 0 -154 36 -154 151v384h180v-343c0 -50 25 -60 68 -60zM305 561c-83 0 -133 48 -145 106v40h103c2 -22 14 -38 42 -38s39 16 42 38h103v-40c-12 -58 -62 -106 -145 -106z
" />
    <glyph glyph-name="uhungarumlaut" unicode="&#x171;" horiz-adv-x="610" 
d="M297 124c28 0 58 9 82 17v386h179v-527h-125c-28 0 -43 8 -50 59c-48 -37 -109 -67 -180 -67c-87 0 -154 36 -154 151v384h180v-343c0 -50 25 -60 68 -60zM343 561v28l32 114h138v-42l-76 -100h-94zM167 561v28l32 114h138v-42l-77 -100h-93z" />
    <glyph glyph-name="umacron" unicode="&#x16b;" horiz-adv-x="610" 
d="M297 124c28 0 58 9 82 17v386h179v-527h-125c-28 0 -43 8 -50 59c-48 -37 -109 -67 -180 -67c-87 0 -154 36 -154 151v384h180v-343c0 -50 25 -60 68 -60zM440 687v-108h-270v108h270z" />
    <glyph glyph-name="uogonek" unicode="&#x173;" horiz-adv-x="610" 
d="M479 -167c-73 0 -111 30 -111 77c0 42 32 71 68 90h-3c-28 0 -43 8 -50 59c-48 -37 -109 -67 -180 -67c-87 0 -154 36 -154 151v384h180v-343c0 -50 25 -60 68 -60c28 0 58 9 82 17v386h179v-527h-20c-21 -18 -34 -31 -34 -50c0 -15 10 -24 37 -24h18v-76
c-19 -11 -43 -17 -80 -17z" />
    <glyph glyph-name="uring" unicode="&#x16f;" horiz-adv-x="610" 
d="M297 124c28 0 58 9 82 17v386h179v-527h-125c-28 0 -43 8 -50 59c-48 -37 -109 -67 -180 -67c-87 0 -154 36 -154 151v384h180v-343c0 -50 25 -60 68 -60zM305 562c-58 0 -107 39 -107 102c0 62 49 102 107 102s107 -40 107 -102c0 -63 -49 -102 -107 -102zM305 628
c20 0 34 14 34 36s-14 36 -34 36s-33 -14 -33 -36s13 -36 33 -36z" />
    <glyph glyph-name="zacute" unicode="&#x17a;" horiz-adv-x="508" 
d="M312 561h-105v33l33 109h173v-43zM25 0v121l247 282h-234v124h441v-124l-248 -281h243v-122h-449z" />
    <glyph glyph-name="zdotaccent" unicode="&#x17c;" horiz-adv-x="508" 
d="M25 0v121l247 282h-234v124h441v-124l-248 -281h243v-122h-449zM258 559c-53 0 -93 35 -93 84s40 85 93 85s93 -36 93 -85s-40 -84 -93 -84z" />
    <glyph glyph-name="space_uni0326" 
d="M128 -228v62c34 3 46 11 46 24c0 10 -12 13 -22 20c-17 10 -25 23 -25 47c0 33 30 57 71 57c43 0 77 -26 77 -80c0 -80 -46 -124 -147 -130z" />
    <glyph glyph-name="zero.numerator" horiz-adv-x="427" 
d="M214 301c-106 0 -192 68 -192 203s90 203 192 203c103 0 191 -68 191 -203s-85 -203 -191 -203zM214 392c34 0 54 25 54 109c0 83 -20 108 -54 108s-54 -25 -54 -108c0 -84 20 -109 54 -109z" />
    <glyph glyph-name="one.numerator" horiz-adv-x="276" 
d="M231 308h-139v266l-49 -25h-23v97l109 54h102v-392z" />
    <glyph glyph-name="two.numerator" horiz-adv-x="348" 
d="M317 406v-98h-295v98l109 96c35 31 52 51 52 72c0 19 -14 32 -40 32s-50 -11 -62 -22h-52v88c31 19 76 35 137 35c101 0 156 -39 156 -118c0 -58 -35 -91 -91 -137l-56 -46h142z" />
    <glyph glyph-name="three.numerator" horiz-adv-x="343" 
d="M147 301c-64 0 -100 15 -128 30v82h48c12 -9 35 -21 65 -21c35 0 55 12 55 37c0 24 -18 36 -51 36h-40v79h36c35 0 54 13 54 35s-15 33 -45 33c-28 0 -50 -10 -63 -18h-48v80c29 18 76 33 134 33c86 0 149 -33 149 -107c0 -51 -30 -77 -80 -89v-3c58 -8 87 -38 87 -90
c0 -75 -64 -117 -173 -117z" />
    <glyph glyph-name="four.numerator" horiz-adv-x="380" 
d="M322 308h-132v79h-171v94l176 219h127v-231h39v-82h-39v-79zM111 471v-2h83v103h-2z" />
    <glyph glyph-name="five.numerator" horiz-adv-x="345" 
d="M323 435c0 -83 -68 -134 -179 -134c-58 0 -93 12 -124 28v85h48c14 -10 35 -21 64 -21c39 0 58 16 58 44c0 27 -19 39 -42 39c-22 0 -36 -9 -44 -19h-74v243h272v-96h-178v-66h2c14 10 38 19 77 19c68 0 120 -39 120 -122z" />
    <glyph glyph-name="six.numerator" horiz-adv-x="392" 
d="M203 301c-107 0 -181 57 -181 194c0 134 80 212 215 212c54 0 88 -10 110 -22v-89h-47c-12 7 -31 13 -57 13c-52 0 -77 -23 -84 -77c23 16 57 23 90 23c70 0 122 -36 122 -115c0 -87 -66 -139 -168 -139zM199 479c-16 0 -32 -5 -42 -10c2 -68 18 -84 44 -84
c27 0 41 15 41 48c0 34 -16 46 -43 46z" />
    <glyph glyph-name="seven.numerator" horiz-adv-x="339" 
d="M61 308v35l137 251v2h-176v104h292v-108l-116 -284h-137z" />
    <glyph glyph-name="eight.numerator" horiz-adv-x="391" 
d="M196 301c-116 0 -176 46 -176 118c0 51 25 82 77 97v2c-43 12 -62 41 -62 82c0 66 65 107 161 107c94 0 160 -41 160 -107c0 -41 -19 -70 -61 -82v-2c52 -15 76 -46 76 -97c0 -72 -60 -118 -175 -118zM196 383c32 0 46 20 46 48s-14 50 -46 50c-33 0 -48 -22 -48 -50
s15 -48 48 -48zM196 547c25 0 39 15 39 39s-14 40 -39 40c-27 0 -40 -16 -40 -40s13 -39 40 -39z" />
    <glyph glyph-name="nine.numerator" horiz-adv-x="389" 
d="M187 707c107 0 181 -57 181 -195c0 -132 -70 -211 -217 -211c-58 0 -90 10 -113 22v89h48c12 -7 30 -14 60 -14c56 0 79 22 85 75c-23 -16 -56 -23 -89 -23c-70 0 -123 38 -123 117c0 87 66 140 168 140zM191 527c16 0 31 4 42 9c-2 69 -18 87 -44 87
c-27 0 -42 -18 -42 -50c0 -36 17 -46 44 -46z" />
    <glyph glyph-name="zero.denominator" horiz-adv-x="427" 
d="M214 -7c-106 0 -192 68 -192 203s90 203 192 203c103 0 191 -68 191 -203s-85 -203 -191 -203zM214 84c34 0 54 25 54 109c0 83 -20 108 -54 108s-54 -25 -54 -108c0 -84 20 -109 54 -109z" />
    <glyph glyph-name="one.denominator" horiz-adv-x="276" 
d="M231 0h-139v266l-49 -25h-23v97l109 54h102v-392z" />
    <glyph glyph-name="two.denominator" horiz-adv-x="348" 
d="M317 98v-98h-295v98l109 96c35 31 52 51 52 72c0 19 -14 32 -40 32s-50 -11 -62 -22h-52v88c31 19 76 35 137 35c101 0 156 -39 156 -118c0 -58 -35 -91 -91 -137l-56 -46h142z" />
    <glyph glyph-name="three.denominator" horiz-adv-x="343" 
d="M147 -7c-64 0 -100 15 -128 30v82h48c12 -9 35 -21 65 -21c35 0 55 12 55 37c0 24 -18 36 -51 36h-40v79h36c35 0 54 13 54 35s-15 33 -45 33c-28 0 -50 -10 -63 -18h-48v80c29 17 76 33 134 33c86 0 149 -33 149 -107c0 -51 -30 -77 -80 -89v-3c58 -8 87 -38 87 -90
c0 -75 -64 -117 -173 -117z" />
    <glyph glyph-name="four.denominator" horiz-adv-x="380" 
d="M322 0h-132v79h-171v94l176 219h127v-231h39v-82h-39v-79zM111 162v-2h83v104h-2z" />
    <glyph glyph-name="five.denominator" horiz-adv-x="345" 
d="M323 127c0 -83 -68 -134 -179 -134c-58 0 -93 12 -124 28v85h48c14 -10 35 -21 64 -21c39 0 58 16 58 44c0 26 -19 39 -42 39c-22 0 -36 -10 -44 -19h-74v243h272v-96h-178v-66h2c14 10 38 19 77 19c68 0 120 -39 120 -122z" />
    <glyph glyph-name="six.denominator" horiz-adv-x="392" 
d="M203 -7c-107 0 -181 57 -181 194c0 134 80 212 215 212c54 0 88 -10 110 -22v-89h-47c-12 7 -31 13 -57 13c-52 0 -77 -23 -84 -77c23 16 57 23 90 23c70 0 122 -36 122 -115c0 -87 -66 -139 -168 -139zM199 171c-16 0 -32 -5 -42 -10c2 -68 18 -84 44 -84
c27 0 41 15 41 48c0 34 -16 46 -43 46z" />
    <glyph glyph-name="seven.denominator" horiz-adv-x="339" 
d="M61 0v35l137 251v2h-176v104h292v-108l-116 -284h-137z" />
    <glyph glyph-name="eight.denominator" horiz-adv-x="391" 
d="M196 -7c-116 0 -176 46 -176 118c0 51 25 82 77 97v2c-43 12 -62 41 -62 82c0 66 65 107 161 107c94 0 160 -41 160 -107c0 -41 -19 -70 -61 -82v-2c52 -15 76 -46 76 -97c0 -72 -60 -118 -175 -118zM196 75c32 0 46 20 46 48s-14 50 -46 50c-33 0 -48 -22 -48 -50
s15 -48 48 -48zM196 239c25 0 39 15 39 39s-14 40 -39 40c-27 0 -40 -16 -40 -40s13 -39 40 -39z" />
    <glyph glyph-name="nine.denominator" horiz-adv-x="389" 
d="M187 399c107 0 181 -57 181 -195c0 -132 -70 -211 -217 -211c-58 0 -90 10 -113 22v89h48c12 -8 30 -14 60 -14c56 0 79 22 85 75c-23 -16 -56 -23 -89 -23c-70 0 -123 38 -123 117c0 87 66 140 168 140zM191 219c16 0 31 4 42 9c-2 69 -18 87 -44 87
c-27 0 -42 -18 -42 -50c0 -36 17 -46 44 -46z" />
    <glyph glyph-name="one.superior" unicode="&#xb9;" horiz-adv-x="275" 
d="M230 308h-139v266l-49 -25h-24v97l109 54h103v-392z" />
    <glyph glyph-name="two.superior" unicode="&#xb2;" horiz-adv-x="348" 
d="M317 406v-98h-295v98l109 96c35 31 52 51 52 72c0 19 -14 32 -40 32s-50 -11 -62 -22h-52v88c31 19 76 35 137 35c101 0 156 -39 156 -118c0 -58 -35 -91 -91 -137l-56 -46h142z" />
    <glyph glyph-name="three.superior" unicode="&#xb3;" horiz-adv-x="343" 
d="M147 301c-64 0 -100 15 -128 30v82h48c12 -9 35 -21 65 -21c35 0 55 12 55 37c0 24 -18 36 -51 36h-40v79h36c35 0 54 13 54 35s-15 33 -45 33c-28 0 -50 -10 -63 -18h-48v80c29 18 76 33 134 33c86 0 149 -33 149 -107c0 -51 -30 -77 -80 -89v-3c58 -8 87 -38 87 -90
c0 -75 -64 -117 -173 -117z" />
    <glyph glyph-name="Q.alt" horiz-adv-x="742" 
d="M589 -121c-36 54 -95 89 -235 110c-84 13 -155 40 -210 84c-75 59 -118 149 -118 279c0 228 157 357 345 357c189 0 346 -129 346 -359c0 -149 -64 -242 -170 -281v-3c112 -19 181 -74 209 -120v-67h-167zM371 120c88 0 150 67 150 227c0 158 -62 227 -150 227
s-150 -69 -150 -227c0 -160 62 -227 150 -227z" />
    <glyph glyph-name="Q.alt1" horiz-adv-x="742" 
d="M371 -9c-190 0 -345 127 -345 358s157 360 345 360s346 -129 346 -360c0 -90 -28 -167 -74 -226l79 -66v-57h-138l-42 36c-51 -29 -110 -45 -171 -45zM371 118c26 0 48 3 67 9l-81 71v54h131l24 -20c6 30 9 68 9 115c0 158 -62 227 -150 227s-150 -69 -150 -227
c0 -160 62 -229 150 -229z" />
    <glyph glyph-name="f.short" horiz-adv-x="337" 
d="M12 411v116h57v32c0 108 66 153 178 153c43 0 70 -6 91 -14v-101h-28c-40 0 -61 -8 -61 -45v-25h89v-116h-89v-411h-180v411h-57z" />
    <glyph glyph-name="f_f.short" horiz-adv-x="652" 
d="M249 411v-411h-180v411h-57v116h57v26c0 108 66 153 178 153c47 0 70 -6 92 -14v-101h-29c-40 0 -61 -8 -61 -43v-21h136v32c0 108 65 153 178 153c42 0 69 -6 90 -14v-101h-27c-41 0 -62 -8 -62 -45v-25h89v-116h-89v-411h-179v411h-136z" />
    <glyph glyph-name="less.cap" horiz-adv-x="444" 
d="M248 0l-219 307v85l219 308h165v-46l-208 -304v-2l208 -302v-46h-165z" />
    <glyph glyph-name="greater.cap" horiz-adv-x="444" 
d="M31 0v46l207 304v2l-207 302v46h164l219 -307v-85l-219 -308h-164z" />
    <glyph glyph-name="questiondown.cap" horiz-adv-x="464" 
d="M349 482c14 -79 -1 -122 -61 -180c-42 -39 -78 -73 -78 -118c0 -37 27 -57 67 -57c49 0 80 18 103 40h68v-123c-47 -30 -107 -53 -193 -53c-149 0 -231 66 -231 186c0 82 44 129 110 177c56 43 90 68 85 128h130zM280 707c53 0 94 -40 94 -91s-41 -91 -94 -91
c-52 0 -94 40 -94 91s42 91 94 91z" />
    <glyph glyph-name="exclamdown.cap" horiz-adv-x="301" 
d="M209 482l37 -377v-105h-191v105l36 377h118zM150 707c53 0 94 -40 94 -91s-41 -91 -94 -91c-51 0 -94 40 -94 91s43 91 94 91z" />
    <glyph glyph-name="bullet.cap" horiz-adv-x="357" 
d="M179 182c-82 0 -149 54 -149 144c0 91 67 147 149 147c83 0 148 -56 148 -147c0 -90 -65 -144 -148 -144z" />
    <glyph glyph-name="hyphen.cap" horiz-adv-x="312" 
d="M33 259v137h246v-137h-246z" />
    <glyph glyph-name="endash.cap" horiz-adv-x="439" 
d="M34 261v133h370v-133h-370z" />
    <glyph glyph-name="emdash.cap" horiz-adv-x="740" 
d="M34 261v133h671v-133h-671z" />
    <glyph glyph-name="dagger.cap" horiz-adv-x="479" 
d="M178 0l-28 259v65l38 105l-109 -35h-58v163h58l109 -37l-33 98v82h169v-82l-33 -98l109 37h58v-163h-58l-109 36l38 -104v-65l-28 -261h-123z" />
    <glyph glyph-name="daggerdbl.cap" horiz-adv-x="479" 
d="M148 370l41 76l-110 -36h-58v161h58l109 -36l-33 94v71h169v-71l-33 -93l109 35h58v-161h-58l-110 37l41 -75v-42l-41 -76l110 36h58v-161h-58l-109 36l33 -94v-71h-169v71l33 93l-109 -35h-58v161h58l110 -37l-41 75v42z" />
    <glyph glyph-name="quoteleft.cap" horiz-adv-x="533" 
d="M285 -9c-135 0 -258 88 -258 283c0 247 152 411 470 427v-122c-158 -17 -205 -73 -205 -128c0 -57 70 -62 133 -102c41 -27 82 -71 82 -160c0 -118 -91 -198 -222 -198z" />
    <glyph glyph-name="quoteright.cap" horiz-adv-x="533" 
d="M248 709c135 0 259 -88 259 -283c0 -247 -153 -411 -471 -426v121c159 18 205 74 205 128c0 58 -70 62 -132 103c-42 26 -82 71 -82 159c0 118 90 198 221 198z" />
    <glyph glyph-name="quotedblleft.cap" horiz-adv-x="1056" 
d="M285 -9c-135 0 -258 88 -258 283c0 247 152 411 470 427v-122c-158 -17 -205 -73 -205 -128c0 -57 70 -62 133 -102c41 -27 82 -71 82 -160c0 -118 -91 -198 -222 -198zM808 -9c-135 0 -258 88 -258 283c0 247 152 411 470 427v-122c-158 -17 -204 -73 -204 -128
c0 -57 69 -62 132 -102c42 -27 82 -71 82 -160c0 -118 -91 -198 -222 -198z" />
    <glyph glyph-name="quotedblright.cap" horiz-adv-x="1056" 
d="M771 709c135 0 259 -88 259 -283c0 -247 -153 -411 -471 -426v121c159 18 205 74 205 128c0 58 -70 62 -132 103c-42 26 -82 71 -82 159c0 118 90 198 221 198zM248 709c135 0 259 -88 259 -283c0 -247 -153 -411 -471 -426v121c159 18 205 74 205 128
c0 58 -70 62 -132 103c-42 26 -82 71 -82 159c0 118 90 198 221 198z" />
    <glyph glyph-name="guillemotleft.cap" horiz-adv-x="738" 
d="M707 700v-46l-208 -304v-2l208 -302v-46h-165l-219 307v85l219 308h165zM413 700v-46l-208 -304v-2l208 -302v-46h-165l-219 307v85l219 308h165z" />
    <glyph glyph-name="guillemotright.cap" horiz-adv-x="738" 
d="M31 0v46l207 304v2l-207 302v46h164l219 -307v-85l-219 -308h-164zM325 0v46l207 304v2l-207 302v46h164l219 -307v-85l-219 -308h-164z" />
    <glyph glyph-name="at.cap" horiz-adv-x="861" 
d="M432 -34c-205 0 -403 107 -403 356c0 263 225 406 424 406c207 0 379 -112 379 -314c0 -180 -117 -259 -245 -259c-78 0 -113 27 -128 63c-27 -33 -64 -61 -123 -61c-70 0 -121 48 -121 138c0 119 78 235 212 235c47 0 73 -16 95 -39c17 22 37 34 70 34h67l-50 -228
c-7 -28 -6 -50 22 -50c52 0 98 49 98 167c0 143 -106 225 -276 225c-159 0 -314 -103 -314 -317c0 -190 129 -267 293 -267c98 0 178 23 241 63h35v-84c-59 -40 -162 -68 -276 -68zM398 261c20 0 39 9 56 26l30 134c-9 3 -16 7 -35 7c-53 0 -86 -61 -86 -126
c0 -27 13 -41 35 -41z" />
    <glyph glyph-name="paragraph.cap" horiz-adv-x="590" 
d="M242 0v300h-3c-128 0 -218 59 -218 199c0 153 110 201 254 201h259v-700h-114v586h-64v-586h-114z" />
    <glyph glyph-name="grave.cap" 
d="M257 723h-105l-102 93v42h173l34 -102v-33z" />
    <glyph glyph-name="dieresis.cap" 
d="M97 723c-49 0 -85 33 -85 79s36 79 85 79s84 -33 84 -79s-35 -79 -84 -79zM301 723c-49 0 -84 33 -84 79s35 79 84 79s85 -33 85 -79s-36 -79 -85 -79z" />
    <glyph glyph-name="macron.cap" 
d="M337 842v-109h-276v109h276z" />
    <glyph glyph-name="acute.cap" 
d="M142 723v33l33 102h173v-42l-101 -93h-105z" />
    <glyph glyph-name="circumflex.cap" 
d="M48 723v38l91 100h121l89 -100v-38h-97l-56 38l-55 -38h-93z" />
    <glyph glyph-name="caron.cap" 
d="M349 861v-38l-92 -100h-121l-88 100v38h97l56 -38l55 38h93z" />
    <glyph glyph-name="breve.cap" 
d="M199 723c-83 0 -133 44 -145 99v39h103c2 -16 14 -31 42 -31s39 15 42 31h103v-39c-12 -53 -62 -99 -145 -99z" />
    <glyph glyph-name="dotaccent.cap" 
d="M199 723c-53 0 -93 35 -93 84s40 85 93 85s93 -36 93 -85s-40 -84 -93 -84z" />
    <glyph glyph-name="ring.cap" 
d="M199 723c-58 0 -107 39 -107 102c0 62 49 102 107 102s107 -40 107 -102c0 -63 -49 -102 -107 -102zM199 789c20 0 34 14 34 36s-14 36 -34 36s-33 -14 -33 -36s13 -36 33 -36z" />
    <glyph glyph-name="tilde.cap" 
d="M25 723v40c11 66 49 103 106 103c48 0 86 -24 110 -24c17 0 26 9 31 24h90v-40c-11 -66 -49 -103 -105 -103c-49 0 -86 26 -110 26c-18 0 -28 -9 -32 -26h-90z" />
    <glyph glyph-name="hungarumlaut.cap" 
d="M59 723v29l31 106h141v-42l-76 -93h-96zM238 723v29l31 106h141v-42l-75 -93h-97z" />
    </font>
</defs>
</svg>
