<?xml version="1.0" encoding="UTF-8" standalone="no"?>
<!DOCTYPE svg PUBLIC "-//W3C//DTD SVG 1.1//EN" "http://www.w3.org/Graphics/SVG/1.1/DTD/svg11.dtd">
<svg xmlns="http://www.w3.org/2000/svg">
<metadata>Generated by IcoMoon</metadata>
<defs>
<font id="icomoon" horiz-adv-x="512">
<font-face units-per-em="512" ascent="480" descent="-32"/>
<missing-glyph horiz-adv-x="512"/>
<glyph unicode=" " d="" horiz-adv-x="256"/>
<glyph unicode="" d="M0 9.777l122.246 214.223v2.328l-122.246 211.895v41.913h156.011l131.562-220.044v-73.349l-131.563-218.877h-156.011v41.912zM259.629 9.777l122.247 214.223v2.328l-122.247 211.895v41.913h156.011l131.56-220.043v-73.349l-131.561-218.879h-156.010v41.912z" horiz-adv-x="547"/>
<glyph unicode="" d="M285.137 109.404c-5.329 0-9.661-4.312-9.661-9.651 0-5.329 4.331-9.661 9.661-9.661 5.329 0 9.66 4.332 9.66 9.661 0 5.34-4.331 9.651-9.66 9.651zM258.848 376.101l-206.245-181.095v-202.981h140.654l-0.15 193.76 135.544-0.021v-193.799l140.844 0.060 0.001 195.895-210.647 188.181zM255.804 458l-253.932-222.264c0 0-6.199-19.472 3.972-29.652 10.19-10.18 29.712-3.992 29.712-3.992l223.352 195.247 222.463-194.359c0 0 16.827-3.104 26.129 6.208 9.292 9.291 1.308 23.893 1.308 23.893l-253.004 224.919z"/>
<glyph unicode="" d="M38.759 480l200.442-114.383h2.177l198.264 114.383h39.217v-145.974l-205.889-123.099h-68.629l-204.799 123.099v145.974h39.218zM38.759 237.072l200.442-114.384h2.177l198.264 114.384h39.217v-145.975l-205.889-123.097h-68.63l-204.798 123.099v145.974h39.218z" horiz-adv-x="479"/>
<glyph unicode="" d="M496.131 44.303l-121.276 103.147c-12.537 11.283-25.945 16.463-36.776 15.963 28.628 33.534 45.921 77.039 45.921 124.588 0 106.039-85.961 192-192 192-106.037 0-192-85.961-192-192 0-106.039 85.961-192 192-192 47.549 0 91.053 17.293 124.588 45.921-0.5-10.831 4.68-24.239 15.963-36.776l103.147-121.276c17.661-19.623 46.511-21.277 64.111-3.678s15.945 46.45-3.678 64.111zM192 160c-70.692 0-128 57.308-128 128s57.308 128 128 128 128-57.308 128-128-57.307-128-128-128z"/>
<glyph unicode="" d="M464 416h-416c-26.512 0-48-21.488-48-48v-288c0-26.496 21.488-48 48-48h416c26.512 0 48 21.504 48 48v288c0 26.512-21.488 48-48 48zM43.856 64.16l-11.696 11.712 131.984 131.968 11.696-11.712-131.984-131.968zM468.144 64.16l-131.984 131.968 11.696 11.712 131.984-131.968-11.696-11.712zM272 170.8v-10.8h-32v10.8l-207.952 192.8 20.352 20.352 203.6-188.768 203.6 188.768 20.352-20.352-207.952-192.8z"/>
<glyph unicode="" d="M379.392 110.131c-63.104 22.989-83.277 42.394-83.277 83.942 0 24.935 19.277 16.793 27.725 62.464 3.507 18.944 20.531 0.307 23.808 43.546 0 17.229-9.293 21.529-9.293 21.529s4.736 25.523 6.579 45.133c2.253 24.473-14.131 87.654-101.734 87.654-87.578 0-104.013-63.181-101.709-87.654 1.843-19.61 6.579-45.133 6.579-45.133s-9.319-4.275-9.319-21.529c3.251-43.238 20.275-24.601 23.782-43.546 8.474-45.671 27.75-37.529 27.75-62.464 0-41.549-20.173-60.954-83.277-83.942-63.334-23.040-104.448-46.567-104.448-62.618 0-16.026 0-53.888 0-53.888h481.28c0 0 0 37.863 0 53.888 0 16.026-41.139 39.552-104.448 62.618z"/>
<glyph unicode="" d="M316.851 110.131c-63.769 22.989-84.147 42.394-84.147 83.942 0 24.935 19.482 16.793 28.032 62.464 3.558 18.944 20.762 0.307 24.013 43.546 0 17.229-9.37 21.529-9.37 21.529s4.787 25.523 6.63 45.133c2.304 24.473-14.285 87.654-102.81 87.654s-105.114-63.181-102.809-87.654c1.869-19.635 6.656-45.133 6.656-45.133s-9.395-4.275-9.395-21.529c3.302-43.238 20.505-24.601 24.013-43.546 8.576-45.671 28.058-37.529 28.058-62.464 0-41.549-20.403-60.954-84.173-83.942-7.68-2.739-25.984-7.040-41.549-13.773v-102.759h409.6c0 0 0 37.863 0 53.888s-28.749 39.577-92.749 62.643zM435.2 249.6v76.8h-51.2v-76.8h-76.8v-51.2h76.8v-76.8h51.2v76.8h76.8v51.2h-76.8z"/>
<glyph unicode="" d="M496 288h-176v176c0 8.836-7.164 16-16 16h-96c-8.836 0-16-7.164-16-16v-176h-176c-8.836 0-16-7.164-16-16v-96c0-8.836 7.164-16 16-16h176v-176c0-8.836 7.164-16 16-16h96c8.836 0 16 7.164 16 16v176h176c8.836 0 16 7.164 16 16v96c0 8.836-7.164 16-16 16z"/>
<glyph unicode="" d="M0 272v-96c0-8.836 7.164-16 16-16h480c8.836 0 16 7.164 16 16v96c0 8.836-7.164 16-16 16h-480c-8.836 0-16-7.164-16-16z"/>
<glyph unicode="" d="M426.672 480h-341.33c-46.935 0-85.341-38.407-85.341-85.344v-341.313c0-46.969 38.407-85.343 85.341-85.343l341.329 0.001c46.938 0 85.328 38.373 85.328 85.344l0.001 341.311c0 46.937-38.391 85.344-85.328 85.344zM435.296 224h-83.296v-224h-96v224h-46.263v73.281l46.263 0.001v47.593c0 64.671 27.896 103.125 103.935 103.125h87.623v-79.285h-71.565c-21.241 0.035-23.876-11.076-23.876-31.756l-0.117-39.677h96l-12.704-73.283z"/>
<glyph unicode="" d="M512 382.791c-18.837-8.353-39.082-14.001-60.329-16.54 21.687 13 38.343 33.585 46.187 58.115-20.298-12.039-42.777-20.78-66.705-25.489-19.16 20.415-46.461 33.171-76.673 33.171-58.011 0-105.044-47.029-105.044-105.039 0-8.233 0.929-16.25 2.72-23.939-87.3 4.382-164.701 46.2-216.509 109.753-9.043-15.514-14.223-33.558-14.223-52.809 0-36.444 18.544-68.596 46.73-87.433-17.219 0.546-33.416 5.271-47.577 13.139-0.011-0.438-0.011-0.878-0.011-1.321 0-50.894 36.209-93.348 84.261-103-8.813-2.4-18.094-3.685-27.674-3.685-6.769 0-13.349 0.66-19.764 1.885 13.368-41.729 52.16-72.103 98.126-72.948-35.951-28.175-81.243-44.967-130.458-44.967-8.479 0-16.84 0.497-25.058 1.469 46.486-29.805 101.701-47.197 161.021-47.197 193.211 0 298.868 160.063 298.868 298.872 0 4.555-0.103 9.084-0.305 13.59 20.528 14.809 38.336 33.309 52.418 54.373z"/>
<glyph unicode="" d="M408.791 326.658c-15.731 0-26.291-12.81-26.291-44.271s10.562-44.269 26.291-44.269c15.729 0 26.291 12.808 26.291 44.269s-10.563 44.271-26.291 44.271zM143.185 313.401c0 9.661-4.945 15.013-15.731 15.013l-9.205-0.001v-30.25h8.98c10.786 0 15.955 5.35 15.955 15.238zM127.904 269.289h-9.653v-34.375h9.653c11.686 0 17.752 5.839 17.752 17.3 0.001 11.686-6.291 17.075-17.752 17.075zM649 479.664h-594c-30.375 0-55-23.249-55-53.625v-288.75c0-30.377 24.625-56.375 55-56.375h97.625v-112.75l114.738 112.75 381.636-0.001c30.377 0 55 25.998 55 56.375v288.75c0 30.377-24.623 53.625-55 53.625zM131.051 203.289h-66.427v156.75h65.751c41.571 0 62.353-12.422 62.353-40.286 0-19.327-11.23-27.702-29.104-32.421v-0.899c22-3.596 34.723-15.616 34.723-37.413-0.001-29.889-25.052-45.731-67.298-45.731zM324.501 203.289h-111.375v156.75h53.625v-121h57.75l0.001-35.75zM408.791 201.937c-45.841 0-80.221 28.539-80.221 80.675s35.728 81.575 80.221 81.575c44.716 0 80.447-29.438 80.447-81.575 0-52.136-34.606-80.675-80.447-80.675zM642.125 214.073c-16.5-7.866-38.582-12.136-61.728-12.136-56.853 0-80.975 29.214-80.975 79.552 0 53.484 32.871 82.699 87.476 82.699 21.347 0 35.975-3.819 49.726-10.562v-37.586h-21.779c-5.842 4.125-14.606 9.466-27.415 9.466-22.021 0-33.482-11.222-33.482-44.256 0-33.934 8.339-44.938 26.768-44.938 6.067 0 10.532 0.905 13.283 1.805v21.546h-15.125v28.875h63.25l0.001-74.467z" horiz-adv-x="704"/>
<glyph unicode="" d="M64.776 375.625c28.823 0 52.187 23.377 52.187 52.213-0.001 28.81-23.364 52.162-52.187 52.162-28.799 0-52.188-23.352-52.188-52.161 0-28.835 23.389-52.214 52.188-52.214zM205.201 336.524c-36.15 0-65.463-29.307-65.463-65.457l-0.209-30.142c26.962-2.025 48.224-24.487 48.224-51.978 0-27.675-21.553-50.236-48.751-52.014v0.031c-1.001-0.052-2.71-0.219-3.807-0.219-1.802 0-3.207 0.104-5.21 0.274v0.013c-26.051 2.678-46.833 24.905-46.833 51.926 0 27.021 20.781 49.222 46.833 51.899v59.592c0 36.137-28.971 65.457-65.12 65.457-36.124 0.001-65.133-29.319-65.133-65.456v-267.022c0-36.137 29.002-65.43 65.126-65.43 1.815 0 4.009 0.104 5.011 0.249v96.015c0 34.335 26.629 62.466 60.22 65.169 1.79 0.156 3.365 0.274 5.167 0.274 1.097 0 2.747-0.143 3.75-0.183v0.024c34.563-1.781 62.121-30.285 62.121-65.298v-96.017c1.001-0.025 1.595-0.13 2.43-0.13 36.15 0 65.432 29.306 65.432 65.456l1.685 237.507c-0.002 36.151-29.322 65.457-65.472 65.457zM205.201 346.241c28.81 0 52.187 23.378 52.187 52.187 0 28.824-23.377 52.188-52.187 52.188s-52.188-23.364-52.188-52.188c0.001-28.81 23.379-52.187 52.188-52.187z" horiz-adv-x="271"/>
<glyph unicode="" d="M81.601-32c41.617 0 75.618 31.933 75.618 71.462 0 40.933-34.003 72.831-75.618 72.831-42.322 0-75.603-31.897-75.603-72.831-0.002-39.529 33.281-71.462 75.603-71.462zM31.665 156.854h100.587l31.197 233.075-0.001 90.184h-163.698v-90.184l31.915-233.075z" horiz-adv-x="163"/>
<glyph unicode="" d="M173.321 290.546c-33.964 9.382-52.763 14.651-52.763 34.037 0 17.583 16.381 28.168 49.263 28.168 29.925 0 52.763-12.941 66.836-24.656h57.49v82.699c-27.519 15.251-58.645 25.209-96.208 28.745l0.001 40.46h-80.943v-42.805c-71.49-12.315-117.253-53.967-117.253-126.107 0-85.634 50.406-110.843 122.582-130.183 45.091-11.715 64.477-14.108 64.477-37.524 0-18.786-17.597-28.747-51.596-28.747-34.025 0-58.092 13.471-73.293 29.274l-58.057 0.001v-86.188c26.34-16.981 62.181-28.144 108.439-31.089v-58.632h81.004v61.579c79.139 13.483 121.355 60.401 121.355 129.005-0.001 76.853-33.447 104.442-141.333 131.961z" horiz-adv-x="315"/>
<glyph unicode="" d="M429.203 221.951l-171.458-190.803 58.822 133.022h-61.371l63.922 159.087h113.884l-76.709-101.305h72.912zM649.096 421.176h-43.447l-0.001 46.999c0 6.384-5.194 11.579-11.541 11.579h-66.602c-6.385 0-11.581-5.195-11.581-11.579v-46.997h-335.476v46.997c0 6.384-5.233 11.579-11.636 11.579h-66.546c-6.422 0-11.655-5.195-11.655-11.579v-46.997h-44.277c-25.501-0.002-46.335-20.778-46.335-46.392v-360.146c0-25.615 20.834-46.391 46.335-46.391h602.759c25.632 0 46.391 20.776 46.391 46.391l0.003 360.146c0 25.614-20.76 46.391-46.392 46.391z" horiz-adv-x="695"/>
<glyph unicode="" d="M361.749 290.573c12.2-19.274 19.287-42.092 19.287-66.587 0-27.569-8.954-53.031-24.106-73.647l99.041-87.257c35.514 44.011 56.828 99.956 56.828 160.904 0 54.346-16.966 104.678-45.783 146.152l-105.269-79.565zM256.4 348.637c26.75 0 51.487-8.456 71.739-22.751l85.459 100.544c-43.393 33.77-97.926 53.957-157.197 53.957-53.581 0-103.296-16.469-144.421-44.574l77.875-106.462c19.26 12.2 42.065 19.286 66.546 19.286zM131.776 223.987c0 26.75 8.429 51.487 22.764 71.768l-99.269 87.109c-34.575-43.675-55.271-98.841-55.271-158.877 0-55.553 17.717-106.933 47.742-148.917l104.732 80.13c-13.073 19.703-20.697 43.351-20.697 68.787zM360.715 63.661l38.387-52.695c-40.789-27.38-89.874-43.352-142.702-43.352-58.063 0-111.577 19.299-154.554 51.834l84.962 101.123c19.865-13.396 43.85-21.233 69.593-21.233 23.798 0 46.064 6.685 64.99 18.28l39.324-53.957z" horiz-adv-x="513"/>
<glyph unicode="" d="M295.053 479.767c-37.753-2.887-51.298-8.139-66.702-52.858-15.393-44.733 12.819-108.965 17.951-146.377 5.137-37.412 2.576-98.38-6.838-128.464-9.397-30.106 2.575-92.715 67.55-95.963 65.012-3.277 76.971 43.095 80.417 86.187 3.404 43.107 24.777 113.022 29.079 207.373 4.264 94.327-73.499 133.767-121.457 130.103zM390.199 258.849c-0.689-4.915-4.915-8.477-9.736-8.477-0.454 0-0.924 0.051-1.376 0.105-5.381 0.741-9.129 5.732-8.385 11.102 0 0.155 2.274 17.159-0.064 47.942-1.705 22.307-18.642 36.322-40.625 52.338-7.267 5.266-12.571 10.918-16.498 16.534-2.925-3.274-6.644-6.601-10.998-10.373-7.204-6.239-15.365-13.339-20.811-21.346-6.735-9.879-2.002-36.973 1.312-48.566 1.495-5.214-1.508-10.661-6.723-12.169-0.909-0.273-1.831-0.389-2.726-0.389-4.28 0-8.205 2.795-9.465 7.123-1.288 4.538-12.375 44.93 1.325 65.079 6.901 10.14 16.469 18.459 24.206 25.14 4.109 3.561 9.748 8.45 10.724 10.387 1.769 4.225 2.601 18.004 2.601 25.961 0 5.434 4.406 9.827 9.853 9.827 5.423 0 9.842-4.393 9.842-9.827 0-0.858-0.025-2.469-0.079-4.55 0.079-0.728 0.094-1.469-0.024-2.237-0.118-0.988-1.938-19.447 19.043-34.709 25.244-18.368 46.329-36.076 48.669-66.728 2.505-33.16 0.038-51.411-0.065-52.166zM225.077 82.077c-16.395 26.935-33.619 85.486-37.663 123.031-4.042 37.541 7.815 106.676-17.924 146.377-25.755 39.675-40.157 41.495-77.493 35.177-47.422-8.008-113.358-65.076-86.421-155.581 26.935-90.505 64.556-153.215 78.284-194.19 13.729-41.028 36.542-83.122 98.85-64.244 62.255 18.875 58.758 82.497 42.367 109.431zM174.987 204.094c-0.481-5.097-4.772-8.905-9.776-8.905-0.299 0-0.623 0.013-0.949 0.039-5.393 0.508-9.359 5.303-8.879 10.709 0.052 0.365 3.185 36.477-11.881 56.029-10.165 13.182-23.633 18.173-31.147 20.019-1.3-2.183-2.769-4.133-4.721-5.459-11.608-8.034-38.479-29.862-37.452-59.163 1.185-34.697 5.305-50.712 5.343-50.869 1.391-5.263-1.742-10.634-6.98-12.038-0.846-0.231-1.689-0.324-2.548-0.324-4.343 0-8.307 2.873-9.477 7.267-0.181 0.729-4.731 17.939-6.045 55.288-1.301 38.427 30.756 65.363 45.331 75.567 1.82 3.615 2.263 16.849 0.871 28.47-0.637 5.371 3.198 10.27 8.594 10.92 5.472 0.599 10.295-3.197 10.933-8.605 0.846-6.981 1.326-14.741 0.897-22.022 10.633-2.627 28.444-9.477 41.976-27.053 19.849-25.726 16.076-68.080 15.91-69.872z" horiz-adv-x="416"/>
<glyph unicode="" d="M204.527 97.119c-20.841-20.863-54.699-20.863-75.519 0-20.841 20.863-20.841 54.678 0 75.541 20.863 20.841 54.678 20.841 75.519 0 20.862-20.864 20.862-54.679 0-75.541zM166.778 301.807c-92.167 0-166.888-74.744-166.888-166.907 0-92.2 74.721-166.9 166.888-166.9s166.934 74.7 166.934 166.9c0 92.163-74.765 166.907-166.934 166.907zM102.919 354.351c0 34.893 28.331 63.234 63.235 63.234 34.839 0 63.255-28.341 63.255-63.234v-44.635c22.813-7.35 43.793-18.492 62.404-32.911v77.523c0 69.303-56.379 125.671-125.66 125.671-69.323 0-125.659-56.369-125.659-125.671v-78.471c18.599 14.656 39.623 25.928 62.425 33.45v45.043z" horiz-adv-x="334"/>
<glyph unicode="" d="M470.861 17.253c-9.124-9.255-24.015-9.359-33.271-0.235-9.241 9.125-9.344 24.028-0.205 33.271 9.111 9.241 24.015 9.329 33.271 0.203 9.24-9.109 9.327-23.996 0.205-33.238zM95.326 475.973l49.272-48.598c13.892-13.714 14.039-36.1 0.322-50.005l-38.491-39.020c-13.715-13.907-36.1-14.052-50.005-0.322l-51.576 50.901c-11.721-40.692-2.244-85.959 28.928-118.142 32.331-33.415 79.519-43.949 121.78-31.481l251.685-251.567c25.847-25.759 67.667-25.731 93.456 0.059 25.757 25.831 25.728 67.652-0.074 93.453l-257.012 256.51c6.513 37.112-4.006 76.454-31.918 105.279-30.965 31.977-75.529 42.964-116.367 32.93zM232.275 138.887l-122.779-120.707c-4.297-4.241-11.207-4.211-15.447 0.087-4.239 4.283-4.21 11.191 0.073 15.417l122.791 120.723-17.706 17.896-122.79-120.695c-4.297-4.255-11.207-4.226-15.447 0.059-4.24 4.283-4.209 11.206 0.087 15.447l122.778 120.707-20.918 21.124-132.928-130.757c-25.2-24.921-25.391-65.555-0.485-90.742 24.936-25.17 65.569-25.375 90.74-0.454l132.941 130.756-20.913 21.137zM472.577 361.705v0l47.423 78.038-33.238 33.561-78.493-46.619-19.039-49.93-82.029-80.576 33.224-33.577 82.029 80.576zM472.577 361.705v0l47.423 78.038-33.238 33.561-78.493-46.619-19.039-49.93-82.029-80.576 33.224-33.577 82.029 80.576z" horiz-adv-x="520"/>
<glyph unicode="" d="M336.637 280.121c-47.421 23.367-65.357 23.037-80.274 23.037-14.901 0-32.849 0.331-80.315-23.037-39.103-19.301-75.891-22.877-87.573-23.553 15.339 78.527 84.487 137.819 167.491 137.819 83.017 0 152.165-59.266 167.532-137.753-12.544 0.768-48.549 4.637-86.861 23.487zM296.701 57.921v66.711c0 0-0.104 20.981 13.581 37.261 20.267 24.191 45.051 23.024 45.051 23.024h66.869c-14.507-62.486-63.308-111.778-125.501-126.996zM257.065 177.805c-26.216 0-47.45 21.233-47.45 47.448 0 26.203 21.233 47.424 47.45 47.424 26.191 0 47.424-21.221 47.424-47.424 0-26.215-21.233-47.448-47.424-47.448zM218.094 57.271c-63.544 14.399-113.603 64.231-128.361 127.646h69.731c0 0 24.771 1.166 45.053-23.024 13.671-16.28 13.577-37.261 13.577-37.261l0.001-67.361zM255.967 480c-141.358 0-255.955-114.596-255.955-255.994 0-141.381 114.597-256.007 255.955-256.007 141.383 0.001 256.020 114.625 256.020 256.007 0 141.397-114.637 255.993-256.020 255.993z"/>
<glyph unicode="" d="M451.716 380.285l-71.432 71.431c-15.556 15.556-46.284 28.284-68.284 28.284h-240c-22 0-40-18-40-40v-432c0-22 18-40 40-40h368c22 0 40 18 40 40v304c0 22-12.728 52.729-28.284 68.285zM429.089 357.657c1.565-1.565 3.125-3.487 4.64-5.657h-81.729v81.728c2.17-1.515 4.092-3.075 5.657-4.64l71.432-71.431zM448 8c0-4.336-3.664-8-8-8h-368c-4.336 0-8 3.664-8 8v432c0 4.336 3.664 8 8 8h240c2.416 0 5.127-0.305 8-0.852v-127.148h127.148c0.547-2.873 0.852-5.583 0.852-8v-304z"/>
<glyph unicode="" d="M487.912 190.523c1.104 8.389 16.561 20.798 17.060 29.244 0.896 15.358-19.861 45.413-34.12 51.184-22.639 9.163-137.711 4.875-137.711 4.875-11.239 19.663 20.043 68.203 28.644 89.166 12.635 30.713 10.503 71.467-5.473 92.405-19.51 25.58-55.319 27.285-56.060 15.833-5.334-83.013-21.229-106.043-42.505-122.459-12.779-9.857-23.952-18.487-29.851-33.515-36.263-92.355-63.14-113.735-78.499-113.735h-10.243v-209.91l107.497-19.997c0 0 133.449-12.631 175.468 0 13.22 3.963 36.038 23.821 41.429 36.563 3.084 7.313-1.189 24.623 2.45 31.683 5.37 10.463 28.051 23.567 28.031 37.776-0.021 10.136-11.829 27.675-10.971 37.776 0.853 10.124 21.956 23.993 21.935 34.12-0.044 10.63-18.481 28.444-17.083 38.992zM118.686-1.272c0-11.309-9.171-20.479-20.483-20.479h-61.438c-11.31 0-20.479 9.171-20.479 20.479l0.001 194.556c0 11.31 9.171 20.479 20.479 20.479h61.438c11.313 0 20.483-9.171 20.483-20.479v-194.556z"/>
<glyph unicode="" d="M80.947 146.618c0 0-7.099 0-14.406 0-7.304 0-53.199 26.486-53.199 91.951 0 65.472 72.203 92.892 72.203 92.892s5.001 148.539 160.133 148.539c131.651 0 154.202-110.549 154.202-110.549s98.444-19.82 98.444-120.896c0-101.068-86.838-103.63-86.838-103.63h-96.257c0 0 33.637 43.125 49.289 43.836 15.657 0.711 89.209-15.656 88.297 60.409-1.067 89.028-82.957 68.038-82.957 68.038s-20.281-10.312-34.281-22.604c-10.52-9.245-28.798-11.353-35.104-3.369-21.349 27.041 2.604 39.045 2.604 39.045l47.921 27.843c0 0-14.231 70.051-110.012 70.051-90.665 0-107.087-84.635-107.087-98.502 0-9.618 0.054-39.66 0.054-39.66s-66.345-2.339-66.889-49.302c-0.524-44.837 46.111-50.881 46.111-50.881l-32.231-43.213zM262.592 313.484l-148.528-172.717h93.265l-55.271-141.623 165.809 195.16h-100.175l44.901 119.179zM314.184 102.209c0 0 5.183-32.301-22.448-59.933-27.644-27.643-8.639-74.276 22.448-74.276 31.091 0 43.188 27.644 43.188 43.187 0 15.548-28.631 27.221-43.188 91.022z"/>
<glyph unicode="" d="M77.011 265.75l39.641 16.555 180.057-2.52 119.521 46.111c8.070 3.3 15.151 5.785 21.651 7.613 6.46 1.821 9.495 2.907 17.010 3.45 7.38 0.688 18.676 1.925 27.28 0.502 8.409-1.143 18.575-3.811 23.32-8.565 4.755-4.929 9.335-12.84 4.355-20.309-5.385-7.115-4.745-9.69-35.591-22.775-31.195-13.16-79.825-31.090-148.756-55.16v0l-65.021-95.767-61.44-23.091 38.665 88.267-92.246-28.065c-33.285 9.285-61.063 18.479-84.817 27.58-23.855 9.289-47.618 19.469-56.563 27.089-8.745 7.595-1.51 15.211 4.009 18.030 5.438 2.851 6.795 3.411 28.263-1.050 21.595-4.29 54.263-12.655 99.676-25.051v0l59.977 20.064c-39.655 9.001-79.306 18.036-118.991 27.091v0z"/>
<glyph unicode="" d="M379.615 146.824h-142.568v-21.986h142.568v21.986zM478.893 268.089h-264.175c-18.21 0-32.981-14.763-32.981-32.979v-154.245c0-18.209 14.772-32.981 32.981-32.981h264.175c18.223 0 32.981 14.773 32.981 32.981l0.001 154.245c0 18.217-14.76 32.978-32.983 32.978zM489.889 70.213h-286.166v98.255h286.167l-0.001-98.255zM489.717 213.125h-285.822c0 0 0.172 16.585 0.172 16.316 0 9.019 7.3 16.319 16.321 16.319h253.528c9.016 0 16.316-7.3 16.316-16.319 0-0.073-0.515-16.316-0.515-16.316zM200.694 289.861c26.865 0 163.408-0.086 163.408-0.086l-37.199 92.912c-6.656 16.954-25.798 25.302-42.752 18.652l-263.334-102.9c-16.954-6.645-25.308-25.786-18.652-42.737l62.856-154.187c6.644-16.947 25.787-25.303 42.74-18.647l52.075 20.075c0 0-0.014 32.396-0.028 67.039l-53.303-21.443-7.901 18.205 61.196 24.853c-0.011 26.288-0.019 50.214-0.019 58.178 0.001 20.506 14.055 40.087 40.913 40.087zM83.489 201.1l-21.986 44.66 54.618 21.987 22.33-44.663-54.963-21.984z"/>
<glyph unicode="" d="M462.185 290.711h-412.373c-24.498 0-44.352-19.854-44.352-44.352v-122.195c0-24.493 19.854-44.348 44.352-44.348h412.373c24.498 0 44.353 19.853 44.353 44.348l0.001 122.194c-0.001 24.498-19.855 44.353-44.353 44.353zM115.14 133.604c-27.737 0-50.245 22.49-50.245 50.248 0 27.755 22.507 50.246 50.245 50.246 27.762 0 50.261-22.491 50.261-50.246 0-27.757-22.499-50.248-50.261-50.248zM311.105 156.029h-102.077c-5.86 0-10.616 0.721-10.616 6.586 0 5.865 4.756 4.156 10.616 4.156h102.077c5.868 0 10.616 1.709 10.616-4.156 0.001-5.863-4.747-6.586-10.616-6.586zM312.645 200.349h-103.721c-5.095 0-9.221 1.063-9.221 6.147 0 5.079 4.127 5.643 9.221 5.643h103.722c5.079 0 9.189-0.564 9.189-5.643 0-5.083-4.111-6.147-9.19-6.147zM404.623 132.193c-28.135 0-50.954 22.801-50.954 50.933 0 28.148 22.82 50.969 50.954 50.969 28.148 0 50.962-22.822 50.962-50.969-0.001-28.132-22.813-50.933-50.962-50.933zM374.667-9.355c0 0 9.891-22.645 32.559-22.645 22.644 0 35.372 22.645 35.372 22.645v65.238h-66.521l-1.411-65.238zM75.278-9.355c0 0 9.907-22.645 32.559-22.645 22.644 0 35.372 22.645 35.372 22.645v65.238l-66.522 0.001-1.409-65.238zM296.353 480h-78.685c-62.191 0-112.783-50.6-112.783-112.795v-53.618h48.173v53.618c0 35.631 28.979 64.618 64.609 64.618h78.685c35.63 0 64.625-28.988 64.625-64.618v-53.618h48.173v53.618c0.002 62.196-50.606 112.795-112.797 112.795z"/>
<glyph unicode="" d="M142.756 124.436c-2.668 0-4.837-2.158-4.837-4.832 0-2.668 2.169-4.836 4.837-4.836 2.671 0 4.84 2.168 4.84 4.836 0 2.673-2.169 4.832-4.84 4.832zM129.595 257.962l-103.26-90.667v-101.627h70.421l-0.075 97.010 67.865-0.012v-97.027l70.513 0.029v98.077l-105.463 94.217zM217.734 219.256c1.050-0.385 1.669-0.584 1.669-0.584s-18.059 12.867-20.722 37.872c-0.585 5.471 8.709 5.647 19.762-11.983 4.507-7.19 24.58-2.144 10.644 17.829-13.931 19.981 3.077 43.719 3.363 39.365 0.285-4.347 4.387-26.104 21.901-21.916 17.508 4.183 4.861 33.873 12.665 39.353 7.805 5.477 13.697-26.113 7.061-56.764-6.625-30.647 14.313-12.981 17.424-18.673 8.98-16.4-45.389-30.561-45.389-30.561s-13.987-13.373 32.235-5.157c46.217 8.216 60.672 62.951 60.672 62.951s-13.832-20.782-27.707-15.181c-13.867 5.611 7.965 23.275 13.896 47.54 5.926 24.261-19.443 63.48-19.443 63.48s0.507-26.139-10.998-33.635c-11.502-7.506-22.586 18.238-18.834 37.701 3.744 19.468 20.863 44.537 20.752 44.572-7.863 2.293-34.727-14.107-48.063-29.219-13.336-15.109-6.036-49.828-22.001-51.372-15.959-1.544-4.827 41.823-9.535 37.707-33.929-29.781-23.13-45.996-20.063-62.025 3.068-16.029-0.745-23.515-8.964-28.021-16.015-8.769-19.148 30.031-19.148 30.031s-3.673-32.895 0.2-50.084l-41.039 36.481-127.135-111.279c0 0-3.104-9.748 1.989-14.846 5.103-5.096 14.875-1.998 14.875-1.998l111.824 97.753 111.38-97.308c0 0 8.425-1.555 13.082 3.107 4.651 4.652 0.655 11.963 0.655 11.963l-37.006 32.9zM504.633 86.045c4.313 40.949-54.529 51.399-62.455 58.742-9.43 9.43-25.334 36.998-41.225 36.998-10.348 0-61.076-0.267-90.438 0s-49.736-56.925-50.004-63.34c-0.268-6.416-1.161-38.791-1.161-38.791l25.629-0.605c0 0-0.241 26.273 27.473 26.273 27.717 0 29.561-26.299 29.561-26.299l89.783-1.213c0 0 2.527 27.915 28.053 27.915 27.563 0 27.563-27.726 27.563-27.726h24.51l0.080 8.333-7.369-0.286zM350.327 144.529l-66.183 0.639c0 0 3.926 29.425 30.576 29.637 26.651 0.209 35.801 0.215 35.801 0.215l-0.195-30.491zM359 145v30c0 0 23.516 0 32.684 0 15.775 0 25.24-9.369 30.063-16.385s10.445-13.615 10.445-13.615h-73.193zM289.653 77.436c0-12.769 10.351-23.119 23.119-23.119s23.119 10.351 23.119 23.119c0 12.769-10.351 23.119-23.119 23.119-12.769 0-23.119-10.351-23.119-23.119zM436.653 77.436c0-12.769 10.351-23.119 23.119-23.119s23.119 10.351 23.119 23.119c0 12.769-10.351 23.119-23.119 23.119-12.769 0-23.119-10.351-23.119-23.119z"/>
<glyph unicode="" d="M363.809 52.818h-215.611v342.377h215.611l-0.001-342.377zM257.247-8.467c-10.988 0-19.879 8.905-19.879 19.887s8.892 19.887 19.879 19.887c10.981 0 19.881-8.905 19.881-19.887s-8.899-19.887-19.881-19.887zM234.252 442.453h45.98c2.747 0 4.973-2.227 4.973-4.985 0-2.731-2.227-4.958-4.973-4.958h-45.98c-2.745 0-4.972 2.227-4.972 4.958 0.001 2.759 2.227 4.985 4.972 4.985zM353.969 480h-195.937c-22.647 0-41.010-18.357-41.010-41.003v-429.995c0-22.647 18.364-41.003 41.010-41.003h195.937c22.652 0 41.010 18.357 41.010 41.003l0.001 429.995c0 22.647-18.358 41.003-41.010 41.003z"/>
<glyph unicode="" d="M230.875 84.955c-22.024 0-39.884-17.86-39.884-39.885 0-22.028 17.86-39.888 39.884-39.888 22.035 0 39.889 17.859 39.889 39.888 0 22.025-17.855 39.885-39.889 39.885zM362.871 84.955c-22.023 0-39.884-17.86-39.884-39.885 0-22.028 17.86-39.888 39.884-39.888 22.031 0 39.889 17.859 39.889 39.888 0 22.025-17.86 39.885-39.889 39.885zM511.892 296.72c-0.005 0.042-0.005 0.084-0.011 0.126-0.011 0.089-0.025 0.185-0.035 0.275-0.298 2.302-1.013 4.487-2.075 6.466-0.021 0.032-0.032 0.063-0.053 0.089-0.086 0.164-0.185 0.328-0.281 0.492-0.058 0.106-0.121 0.211-0.184 0.313-0.055 0.089-0.108 0.173-0.16 0.259-0.116 0.175-0.228 0.354-0.344 0.524-0.005 0.011-0.017 0.021-0.021 0.031-1.309 1.911-2.98 3.593-4.969 4.932-0.032 0.021-0.063 0.042-0.096 0.068-0.063 0.043-0.127 0.080-0.189 0.123-1.26 0.809-2.615 1.481-4.064 1.979-0.021 0.005-0.036 0.011-0.053 0.016-0.267 0.089-0.528 0.173-0.795 0.253-0.111 0.033-0.223 0.059-0.328 0.091-0.169 0.047-0.349 0.095-0.531 0.139-0.2 0.047-0.402 0.089-0.608 0.132-0.084 0.021-0.163 0.038-0.248 0.053-0.714 0.137-1.429 0.233-2.148 0.285l-84.303 7.652 0.135-0.269-239.975 21.61-0.219 0.439-42.862 3.889-17.447 54.918c-0.016 0.042-0.026 0.079-0.043 0.121-0.059 0.169-0.111 0.338-0.175 0.508-0.048 0.133-0.096 0.265-0.143 0.397-0.048 0.132-0.106 0.26-0.159 0.392-0.068 0.164-0.132 0.328-0.207 0.492-0.033 0.075-0.068 0.148-0.106 0.223-0.095 0.212-0.191 0.423-0.297 0.629 0 0.005 0 0.005-0.004 0.011-0.821 1.635-1.869 3.106-3.085 4.396-1.201 1.276-2.604 2.393-4.171 3.308-0.011 0.011-0.032 0.021-0.048 0.026-0.189 0.111-0.386 0.217-0.582 0.323-0.080 0.043-0.164 0.089-0.244 0.131-0.153 0.075-0.307 0.148-0.46 0.223-0.138 0.063-0.264 0.127-0.403 0.19-0.121 0.053-0.244 0.105-0.371 0.159-0.169 0.073-0.338 0.141-0.513 0.211-0.037 0.016-0.075 0.032-0.111 0.047l-73.543 28.183c-9.63 3.693-20.437-1.123-24.125-10.757-3.688-9.631 1.128-20.432 10.758-24.125l65.147-24.967 86.276-271.608c2.524-7.948 9.879-13.027 17.796-13.027 1.873 0 3.779 0.285 5.661 0.883 9.833 3.122 15.272 13.147 12.15 22.977l-4.937 15.050h242.958c0.069 0 0.139 0.477 0.212 0.477 0.139 0 0.271 0.249 0.406 0.249 0.245 0.005 0.493 0.137 0.736 0.153 0.165 0.009 0.329 0.084 0.498 0.098 0.307 0.027 0.613 0.089 0.921 0.131 0.074 0.011 0.159 0.035 0.233 0.046 0.412 0.063 0.825 0.151 1.227 0.235 0.060 0.017 0.112 0.029 0.165 0.041 1.757 0.401 3.417 1.055 4.947 1.911 0.031 0.021 0.069 0.040 0.105 0.062 0.345 0.195 0.678 0.401 1.012 0.619 0.043 0.026 0.084 0.055 0.121 0.080 0.327 0.216 0.645 0.443 0.952 0.683 0.106 0.079 0.207 0.159 0.307 0.244 0.224 0.173 0.435 0.354 0.646 0.534 0.127 0.111 0.265 0.228 0.392 0.345 0.223 0.207 0.439 0.419 0.651 0.635 0.128 0.127 0.25 0.26 0.376 0.392 0.169 0.184 0.343 0.38 0.508 0.575 0.139 0.16 0.275 0.319 0.402 0.483 0.18 0.229 0.359 0.46 0.529 0.693 0.084 0.116 0.159 0.228 0.244 0.345 0.223 0.322 0.444 0.655 0.645 1 0.026 0.043 0.053 0.085 0.075 0.127 0.221 0.371 0.423 0.747 0.618 1.139 0.005 0.016 0.016 0.029 0.026 0.053 0.212 0.429 0.412 0.863 0.594 1.312l55.996 138.977c0.37 0.894 0.673 1.831 0.9 2.795 0.052 0.233 0.104 0.471 0.147 0.704 0.011 0.047 0.021 0.096 0.031 0.143 0.349 1.819 0.417 3.655 0.221 5.444z"/>
<glyph unicode="" d="M63.828 480l0.172-14.155v-497.845h384v512h-384.172zM434-18h-356v484h356v-484zM415 379l-83 68h-234v-445h317v377zM345 419.567l33.582-27.567h-33.582v27.567zM402 15h-291v419h221v-55h70v-364zM155.243 295.757c27.131 27.131 54.261 54.261 81.392 81.392 5.477 5.477-3.009 13.962-8.485 8.485-27.131-27.13-54.261-54.261-81.392-81.392-5.477-5.476 3.007-13.961 8.485-8.485zM354.149 140.635c-27.131-27.13-54.262-54.261-81.392-81.392-5.477-5.476 3.009-13.961 8.484-8.484 27.131 27.13 54.262 54.261 81.392 81.392 5.478 5.474-3.008 13.96-8.484 8.484zM149.131 114.617c-1.125-1.125-2.25-2.25-3.375-3.375-5.477-5.476 3.009-13.961 8.485-8.484 30.121 30.12 60.241 60.241 90.362 90.361 36.755 36.755 73.511 73.509 110.264 110.264 1.125 1.125 2.25 2.25 3.375 3.375 5.477 5.477-3.009 13.962-8.484 8.485-30.121-30.121-60.242-60.241-90.362-90.362-36.755-36.754-73.51-73.509-110.265-110.263z"/>
<glyph unicode="" d="M310.508 243.859l-7.479-24.861h15.276l-7.586 24.861zM511.613 304.933c0.111 9.624-7.392 17.582-17.011 17.701l-289.513-0.039-86.32-45.805-0.379-45.766c-7.66 1.405-7.855 2.123-14.999 4.423-15.904 4.938-42.705 16.16-80.278 0.327-13.668-4.819-22.043-19.338-22.826-36.434-1.016-9.099 0.759-18.596 4.047-26.549 4.188-8.459 10.15-14.913 16.7-19.299 8.884-4.516 23.039-7.256 43.117 6.58 15.457 11.061 24.603 22.723 32.775 33.737 7.387 9.661 13.004 17.298 21.477 21.491l0.139-44.865 86.533-45.069 289.498 0.045c9.62-0.123 17.587 7.404 17.427 16.572l-0.385 162.951zM90.179 198.893c-7.641-10.1-16.79-21.762-31.001-31.719-12.787-9.571-24.621-11.209-33.961-6.428-10.448 6.023-16.886 20.033-16.699 35.037-0.181 0.717-0.115 1.891-0.055 3.049 0.849 14.047 7.137 24.947 18.2 29.445 34.176 14.164 58.526 4.962 73.448-0.624 2.277-1.313 3.897-1.64 5.977-2.233 2.529-0.853 3.624-2.091 6.886-2.752-10.174-5.036-15.599-13.395-22.794-23.774zM159.779 199.135c-12.112 0.008-22.126 8.855-24.021 20.43-0.737-1.023-1.706-1.663-2.779-1.663-2.293 0-4.152 2.845-4.152 6.353s1.859 6.353 4.152 6.353c1.172 0 2.227-0.75 2.982-1.946 2.361 11.006 12.14 19.256 23.851 19.248 13.47-0.009 24.381-10.935 24.372-24.403s-10.934-24.382-24.405-24.372zM245.095 187.711c-10.745 0-18.118 2.316-24.123 5.897v14.012h7.479c2.951-3.161 8.216-5.9 15.906-5.9 7.585 0 11.484 2.635 11.484 7.268 0 6.322-5.9 6.953-14.117 9.166-13.484 3.477-20.647 8.851-20.647 22.755 0 15.064 11.483 22.439 27.705 22.439 9.269 0 16.645-1.897 21.912-4.953v-13.588h-7.269c-3.37 2.528-8.005 4.529-13.904 4.529-7.164 0-10.746-2.107-10.746-6.847 0-4.847 4.108-6.216 12.114-8.112 17.382-4.001 23.598-9.585 23.598-23.387-0.001-14.747-10.113-23.279-29.391-23.279zM347.168 188.658h-19.594l-5.161 16.645h-23.491l-4.952-16.645h-16.013v4.74l23.492 69h21.912l23.807-69-0.001-4.74zM411.95 257.659l-23.387-69.001h-21.7l-23.387 69.001v4.739h19.699l15.697-50.564h0.211l15.905 50.564h16.961v-4.739zM471.57 188.658h-51.828v73.74h50.776v-14.114h-30.655v-15.697h21.595v-13.272h-21.595v-16.961h31.707v-13.696zM301.391 216h17.821l-8.962 22.664zM135.962 228.661c-0.755 1.196-1.81 1.946-2.982 1.946-2.293 0-4.152-2.844-4.152-6.353 0-3.508 1.859-6.353 4.152-6.353 1.073 0 2.042 0.64 2.779 1.663-0.212 1.297-0.351 2.617-0.351 3.974 0.003 1.757 0.199 3.469 0.554 5.121zM135.962 228.661c-0.355-1.653-0.551-3.365-0.553-5.123 0-1.356 0.137-2.677 0.351-3.974 0.837 1.161 1.373 2.824 1.373 4.69-0.001 1.715-0.449 3.264-1.171 4.407z"/>
<glyph unicode="" d="M305.941 376.508h-9.678v-69.927h9.678v69.927zM335.599 336.238h-8.743l-10.931-29.659h9.996l9.678 29.659zM386.183 345.287h-10.304l-39.962-48.394h9.985l40.281 48.394zM275.348 296.894l-49.956 49.648h-9.379l50.276-49.648h9.059zM286.577 307.198l-10.921 29.041h-9.368l10.304-29.041h9.985zM476.451 273.744h-150.529c0 0 0.394 22.479-19.353 22.479-19.13 0-18.418-22.479-18.418-22.479h-1.967c-3.499 0-6.327-2.828-6.327-6.327v-14.483c-9.613 0.169-28.264-0.244-53.828-4.509-37.983-6.339-86.537-31.657-86.537-31.657s-67.524-14.769-111.845-27.445c-9.176-2.616-15.588-7.284-20.002-12.952h8.551l10.92-20.288h-10.293l-9.293 20.13c-16.727-21.726-2.659-58.647 13.781-58.647 3.243 0 24.265 0 24.265 0s-1.829-46.075 40.568-46.075c43.662 0 39.547 46.075 39.547 46.075h230.517c0 0-4.999-45.268 39.972-45.268 44.023 0 40.269 45.268 40.269 45.268h40.345c22.49 0 35.208 12.803 35.208 30.88v91.334c-0.002 18.322-9.923 33.964-35.55 33.964zM36.176 156.083l-9.358 20.288h9.039l11.251-20.288h-10.932zM57.401 156.083l-10.921 20.288h8.742l10.623-20.288h-8.445zM76.765 156.083l-11.24 20.288h10.612l10.315-20.288h-9.687zM96.437 156.083l-10.304 20.288h8.432l11.856-20.288h-9.984zM116.417 156.083l-9.357 20.288h9.357l9.060-20.288h-9.060zM141.087 200.361c6.743 5.625 45.002 32.166 72.011 34.793 27.009 2.616 58.145 4.487 58.145 4.487s10.123-10.123 9.368-23.607c-0.755-13.505 1.499-21.373-13.133-22.5-14.62-1.128-127.519 0.457-127.519 0.457s-5.624 0.745 1.128 6.37zM136.409 156.083l-9.995 20.288h9.060l10.293-20.288h-9.357zM156.698 156.083l-9.997 20.288h8.433l10.921-20.288h-9.357zM176.37 156.083l-10.315 20.288h10.623l9.048-20.288h-9.357zM196.351 156.083l-9.996 20.288h9.996l9.676-20.288h-9.676zM216.012 156.083l-9.985 20.288h9.985l10.623-20.288h-10.623zM236.004 156.083l-9.677 20.288h9.677l10.612-20.288h-10.612zM256.292 156.083l-10.612 20.288h10.612l10.315-20.288h-10.315zM275.965 156.083l-9.677 20.288h9.677l9.995-20.288h-9.995zM459.98 246.448h25.403c3.498 0 6.339-2.829 6.339-6.328l7.455-19.129c0-3.488-2.84-6.325-6.328-6.325h-27.381c-3.488 0-6.328 2.839-6.328 6.325l-5.497 19.129c0 3.499 2.839 6.328 6.337 6.328zM323.104 246.458h105.093c3.498 0 6.327-2.828 6.327-6.327l3.923-19.109c0-3.499-2.828-6.327-6.325-6.327l-107.839 0.001c-3.498 0-6.337 2.828-6.337 6.327l-1.169 19.109c-0.001 3.499 2.827 6.327 6.327 6.327zM296.264 156.083l-9.027 18.906v1.382h8.081l10.315-20.288h-9.368zM315.617 156.083l-9.676 20.288h9.984l9.369-20.288h-9.677zM335.599 156.083l-9.357 20.288h9.049l10.612-20.288h-10.304zM356.525 156.083l-10.932 20.288h10.613l9.688-20.288h-9.369zM375.879 156.083l-10.304 20.288h10.304l10.612-20.288h-10.612zM396.487 156.083l-10.933 20.288h9.368l11.241-20.288h-9.676zM416.159 156.083l-10.612 19.672h9.985l10.303-19.672h-9.676zM436.14 156.699l-10.612 18.736h9.985l9.995-18.736h-9.368zM456.747 156.699l-10.932 19.364h10.305l9.368-19.364h-8.741zM476.729 156.083l-11.241 19.672h10.305l10.304-19.672h-9.368zM495.772 157.017l-9.984 18.737h10.293l9.996-18.737h-10.305z"/>
<glyph unicode="" d="M343.983 277.405c0.432 3.243 6.401 8.036 6.595 11.3 0.346 5.935-7.676 17.548-13.183 19.779-8.747 3.539-53.213 1.884-53.213 1.884-4.343 7.596 7.743 26.351 11.069 34.452 4.882 11.868 4.056 27.615-2.116 35.705-7.538 9.884-21.377 10.543-21.659 6.119-2.062-32.075-8.204-40.975-16.423-47.317-4.938-3.809-9.26-7.143-11.535-12.951-14.012-35.684-24.396-43.946-30.331-43.946h-3.958v-81.109l41.535-7.725c0 0 51.568-4.88 67.803 0 5.107 1.531 13.928 9.204 16.008 14.125 1.189 2.829-0.462 9.517 0.949 12.245 2.072 4.041 10.837 9.103 10.828 14.594-0.009 3.916-4.571 10.693-4.239 14.6 0.33 3.909 8.484 9.268 8.479 13.183-0.022 4.105-7.145 10.986-6.608 15.063zM201.319 203.298c0-4.369-3.542-7.912-7.912-7.912h-23.74c-4.371 0-7.915 3.543-7.915 7.912v75.175c0 4.37 3.543 7.913 7.915 7.913h23.74c4.37 0 7.912-3.543 7.912-7.913v-75.175zM270 93h86.176l-26.172 25.897 10.779 10.931 36.968-36.828h43.805c12.823 0 23.443 9.893 23.443 22.716v138.386l-175-158.803v-2.298zM482.438 304h0.031l-0.115 0.286c-2.835 3.557-5.981 6.762-9.769 9.303l-19.587 16.54v-32.62l19.98-18.159-19.98-18.191v-145.444c0-17.055-14.389-30.716-31.443-30.716h-36.055l76.852-76.989-10.779-10.721-87.647 87.709h-215.513l-87.647-87.783-10.779 10.868 76.849 76.915h-36.051c-17.055 0-31.787 13.661-31.787 30.716v144.292l-19.964 18.051 19.964 17.657v34.179l-19.211-16.085c-3.784-2.509-6.961-5.762-9.806-9.284l-0.187-0.525h0.109c-5.965-7-9.905-16.697-9.905-27.058v-265.279c0-24.409 20.157-44.664 44.581-44.664h383.181c24.423 0 44.238 20.255 44.238 44.664v265.279c0 10.361-3.597 20.058-9.562 27.058zM67 253v-137.285c0-12.822 10.961-22.715 23.787-22.715h43.807l36.967 36.692 10.779-10.658-26.173-26.034h85.833v2.298l-175 157.702zM242.735 451.834c4.491 4.491 9.931 5.397 13.703 5.397 6.673 0 13.312-2.759 18.219-7.665l17.238-14.567h34.595l-36.301 30.082c-9.203 9.203-21.581 14.115-33.749 14.115-10.665 0-21.167-3.747-29.235-11.813l-39.527-32.384h35.147l19.911 16.833zM291.894 435h-69.070l-9.13-8h87.338zM445 254.101l8 7.058v36.349l-8 7.045zM67 302.572l-8-6.857v-35.707l8-7.008zM67 403.848c0 12.823 10.961 23.152 23.787 23.152h87.445l9.447 8h-96.892c-17.055 0-31.787-14.097-31.787-31.152v-73.954l8 6.363v67.591zM421.557 427c12.823 0 23.443-10.329 23.443-23.152v-67.279l8-6.439v73.719c0 17.055-14.389 31.152-31.443 31.152h-95.068l9.332-8h85.736zM445 304.553l8-7.045v32.62l-8 6.439zM90.787 93c-12.826 0-23.787 9.893-23.787 22.716v137.284l-8 7.008v-144.292c0-17.055 14.731-30.716 31.787-30.716h36.052l7.754 8h-43.805zM213.695 427l9.13 8h-35.147l-9.447-8zM67 302.572v33.684l-8-6.361v-34.179zM301.032 427h34.788l-9.332 8h-34.594zM445 115.716c0-12.823-10.62-22.716-23.443-22.716h-43.805l7.752-8h36.055c17.053 0 31.442 13.661 31.442 30.716v145.444l-8-7.057v-138.386zM156.167 93l-7.754-8h93.587v8zM270 93v-8h93.929l-7.753 8z"/>
<glyph unicode="" d="M470.298 226.309c-1.796 1.535-5.017 1.971-7.157 0.972l-14.817-6.612c-2.142-1-4.711-0.067-5.711 2.073l-2.307 4.589c-2.779 5.129-8.121 6.838-13.891 4.274l-35.477-16.243c-5.769-2.565-10.257-7.053-7.052-13.892l2.363-5.075c1-2.14 0.067-4.709-2.072-5.709l-14.219-6.645c-2.14-1.001-3.87-3.752-3.845-6.115l0.139-13.033c0.025-2.363 0.865-6.047 1.865-8.187l11.771-25.184c1-2.141 3.569-3.073 5.711-2.073l109.395 50.813c2.141 1.001 3.073 3.57 2.073 5.711l-11.771 25.184c-0.999 2.141-3.287 5.147-5.085 6.681l-9.911 8.468zM392.989 202.842c-1 2.14-0.068 4.711 2.072 5.709l32.267 15.083c2.143 1 4.711 0.068 5.711-2.073l1.416-2.631c1.002-2.142 0.067-4.711-2.071-5.711l-32.269-15.082c-2.14-0.999-4.709-0.067-5.711 2.073l-1.416 2.632zM427.791 229.494c-1.697 4.368-7.688 8.137-9.456 15.889-3.395 14.891-8.529 27.411-14.921 38.008-0.31 0.864-0.017 1.339 0.484 1.921 0.977 1.138 1.582 5.007-4.457 13.371-4.66 6.454-9.109 6.865-11.038 5.9-0.695-0.347-1.33-0.427-1.939 0.209-15.382 16.088-37.214 27.656-58.908 34.224-31.113 9.421-36.495 10.029-36.32 16.232 0.086 3.020 1.911 5.817 7.671 11.26 8.93 8.442 11.893 14.975 13.492 17.468 2.405 3.736 19.382 18.162 16.753 30.389-4.193 19.516-26.139 36.248-41.395 38.546-7.69 1.159-17.3-6.044-23.022-11.191-5.724-5.146-31.546 11.007-35.27 6.431-2.585-3.181 13.406-13.273 17.728-18.033 2.857-3.148 2.054-6.767-0.58-8.582-1.715-1.183-10.071-4.919-14.863-7.446-5.903-3.111-2.059-7.076-1.064-8.352 0.961-1.231-0.858-4.276-2.744-6.907-0.981-1.368-3.283-3.464-3.708-4.418-1.315-2.94-0.55-6.76 0.219-8.793 1.708-4.511 21.335-15.844 12.637-27.935-2.621-3.642-15.301-6.864-28.025-6.36-20.324 0.804-38.175 2.757-57.27 14.663-0.877 0.563-0.547 1.496-0.217 2.265 0.373 0.87-0.111 3.739-6.705 11.432-4.694 5.477-8.251 6.798-10.583 5.904-1.288-0.519-1.618-0.519-2.267 0.589-3.835 6.557-7.176 14.296-9.511 23.677-0.692 2.776 0.639 8.204 1.381 10.617 2.513 8.167-0.408 25.537-11.245 23.147-9.761-2.153-23.301-11.738-25.271-14.233-3.322-4.209-2.422-8.004-0.719-12.389 1.696-4.369 7.687-8.137 9.455-15.89 3.257-14.287 7.239-25.608 12.375-35.711 0.16-0.315 0.549-1.099 0.331-1.648-0.168-0.421-0.879-0.989-0.879-0.989-1.601-1.406-2.198-4.617 3.847-12.971 4.667-6.449 9.171-8.332 10.772-6.924 0 0 0.77 0.44 1.416-0.232 16.123-16.773 30.618-26.316 58.093-34.128 4.29-1.219 6.427-1.928 7.853-2.855 2.107-1.371 3.99-4.694 1.209-11.41-7.9-19.079-9.089-51.701-1.865-72.921 2.173-6.38 2.355-9.369 0.777-12.055-1.379-2.348-3.665-3.077-14.191-6.883-67.246-24.297-112.442-75.365-126.206-93.642-2.549-3.385 5.867-6.543 3.556-8.464-4.209-3.498-9.956-4.193-18.197 2.489-6.611 5.363-10.2 13.471-14.823 12.658-8.647-1.516-6.745-17.029 1.517-27.699 17.91-23.127 30.821-19.906 30.819-25.716-0.003-4.564 0.199-7.779 10.111-13.971 3.653-2.281 13.656 6.512 21.24 17.394 1.65 2.367 4.945-5.716 8.903-1.759 42.689 42.688 100.64 85.631 161.118 74.563 53.661-9.82 77.628-75.629 98.492-128.247 1.882-4.743 8.567 2.76 11.065 1.621 2.689-0.367-0.84-16.655-7.131-24.905-4.438-5.824-16.919-0.983-14.587-13.553 0.917-4.925 29.851-8.808 37.489 0.545 16.172 19.811 11.983 27.159 20.528 27.435 3.924 0.127 10.248 14.229 10.643 18.137 0.354 3.514-7.165 10.163-7.165 10.163-1.584 2.035 6.96 2.021 5.963 6.139-5.387 22.235-20.957 87.129-75.553 140.609-34.118 33.42-45.555 49.714-41.963 80.437 1.647 14.081 6.2 28.2 18.971 34.020 10.909 4.972 30.163 4.786 50.548-9.798 0.89-0.635-0.245-1.593-0.245-1.593-1.549-1.464-0.825-5.885 6.24-12.447 5.509-5.117 9.233-6.359 11.51-5.135 0.809 0.408 1.505-0.043 1.777-0.438 4.8-6.978 8.772-15.135 11.467-24.592 0.784-2.75-0.64-8.203-1.382-10.615-2.512-8.169 0.409-25.538 11.245-23.147 9.76 2.154 23.303 11.737 25.269 14.232 3.327 4.211 2.423 8.006 0.723 12.392zM59.236 382.869c0.015 0.315 0.031 0.871 0.656 1.341l95.248 58.4c1.925 1.009 2.625 1.261 4.389 0.517 5.847-2.463 12.673-2.599 18.483 0.963 1.355 0.832 2.568 1.807 3.64 2.886l-15.353 3.683c-3.625 0.869-5.857 4.512-4.989 8.137l1.246 5.196c0.869 3.625 4.513 5.859 8.137 4.989l16.036-3.845c-0.464 1.931-1.231 3.826-2.325 5.611-5.595 9.125-17.53 11.988-26.655 6.392-5.602-3.435-8.84-9.257-9.213-15.353-0.141-2.306-1.872-4.073-2.481-4.359l-95.249-58.401c-0.742-0.281-1.294-0.063-1.628 0.086-4.913 2.168-10.767 1.983-15.691-1.035-1.184-0.726-2.154-2.454-2.616-3.496l12.104-2.903c2.859-0.686 4.618-3.559 3.934-6.416l-0.983-4.097c-0.685-2.86-3.557-4.621-6.416-3.935l-12.64 3.031c-0.159-2.109 0.6-4.597 1.034-5.472 3.675-7.416 15.313-10.473 23.285-5.584 4.968 3.048 7.793 8.249 8.044 13.665z"/>
<glyph unicode="" d="M511.529 116.769l-51.052 218.408c-0.204 0.867-0.622 1.664-1.22 2.321-29.040 31.942-61.942 48.139-97.781 48.139-51.623 0-93.166-33.418-105.527-44.502-12.349 11.084-53.901 44.502-105.525 44.502-35.84 0-68.743-16.196-97.777-48.139-0.602-0.659-1.021-1.455-1.224-2.321l-51.286-219.387c-0.5-2.163 0.408-4.406 2.285-5.597 1.867-1.188 4.291-1.065 6.035 0.303 42.191 33.147 84.847 49.95 126.777 49.95 12.478 0 24.103-1.563 34.892-4.056-41.207 5.479-94.921-4.034-157.675-53.352-2.27-1.786-2.663-5.070-0.877-7.336 1.785-2.265 5.071-2.668 7.335-0.877 87.708 68.909 155.319 57.699 194.657 38.543-40.248 16.313-105.424 20.976-190.659-46.001-2.275-1.786-2.667-5.070-0.883-7.335 1.79-2.265 5.065-2.664 7.335-0.877 84.269 66.221 146.396 60.199 183.313 44.002-7.514 2.597-15.925 4.672-25.25 5.81-46.629 5.719-98.441-13.563-154.068-57.271-2.27-1.785-2.663-5.071-0.877-7.336 1.785-2.265 5.071-2.668 7.336-0.876 58.213 45.745 113.361 63.981 159.439 52.735 34.616-8.447 52.429-30.729 52.597-30.943 1.985-2.541 6.27-2.541 8.249 0 0.22 0.285 22.226 28 65.697 33.331 43.721 5.315 92.978-13.191 146.345-55.123 0.919-0.767 2.061-1.123 3.188-1.123 1.55 0 3.081 0.684 4.111 1.995 1.785 2.269 1.388 5.555-0.877 7.335-55.635 43.711-107.449 62.988-154.068 57.271-7.815-0.959-14.947-2.591-21.496-4.616 4.468 1.785 9.243 3.423 14.364 4.795 49.608 13.237 106.735-4.061 165.188-49.99 0.954-0.761 2.096-1.117 3.224-1.117 1.552 0 3.082 0.684 4.112 1.995 1.785 2.269 1.387 5.555-0.877 7.335-85.204 66.941-150.355 62.319-190.607 46.026 39.355 19.14 106.944 30.301 194.597-38.569 0.953-0.76 2.097-1.117 3.225-1.117 1.55 0 3.080 0.685 4.111 1.995 1.785 2.271 1.388 5.555-0.877 7.335-62.738 49.303-116.447 58.825-157.659 53.357 10.779 2.495 22.404 4.056 34.87 4.056 41.933 0 84.587-16.813 126.777-49.955 0.943-0.739 2.086-1.117 3.229-1.117 0.050-0.005 0.081 0 0.103 0 2.892 0 5.224 2.337 5.224 5.224 0.001 0.771-0.173 1.505-0.469 2.169zM376.667 170.893c-64.37 0-107.903-36.576-120.722-48.869-12.824 12.293-56.367 48.869-120.723 48.869-40.452 0-81.312-14.62-121.651-43.491l47.706 204.063c26.75 29.016 56.729 43.727 89.137 43.727 50.668 0 92.309-36.085 100.333-43.492 0.271-22.343 2.495-201.432 5.198-201.432 2.704 0 4.928 179.089 5.199 201.432 8.023 7.407 49.669 43.492 100.333 43.492 32.407 0 62.387-14.711 89.136-43.727l47.707-204.063c-40.329 28.87-81.199 43.491-121.651 43.491z"/>
<glyph unicode="" d="M260.387 6.412c23.285 35.985 146.12 229.668 146.12 310.954-0.001 89.797-60.709 162.635-150.507 162.635-89.795 0-150.505-72.837-150.505-162.634 0-81.284 123.81-274.959 147.285-310.951-71.736-0.271-129.312-8.768-129.312-19.204 0-10.611 59.488-19.211 132.869-19.211 73.38 0 132.87 8.6 132.87 19.211-0.001 10.412-57.315 18.892-128.821 19.201zM194.774 313.948c2.883 33.872 32.686 58.927 66.563 56.035 33.824-2.889 58.905-32.712 56.012-66.543-2.916-33.887-32.717-58.938-66.563-56.053-33.855 2.893-58.927 32.716-56.012 66.561z"/>
<glyph unicode="" d="M179.239 233.511h51.016v25.695h-51.016v76.703h-25.694v-103.148h25.694v0.75zM140.36 169.36c-30.019 0-54.365-24.339-54.365-54.364s24.346-54.364 54.365-54.364c30.032 0 54.376 24.339 54.376 54.364s-24.343 54.364-54.376 54.364zM139.873 100.087c-9.023 0-16.346 7.317-16.346 16.353 0 9.029 7.323 16.353 16.346 16.353 9.048 0 16.372-7.323 16.372-16.353-0.001-9.036-7.324-16.353-16.372-16.353zM396.311 169.36c-30.020 0-54.364-24.339-54.364-54.364s24.345-54.364 54.364-54.364c30.032 0 54.364 24.339 54.364 54.364s-24.332 54.364-54.364 54.364zM395.823 100.087c-9.022 0-16.347 7.317-16.347 16.353 0 9.029 7.324 16.353 16.347 16.353 9.036 0 16.359-7.323 16.359-16.353 0.001-9.036-7.323-16.353-16.359-16.353zM471.846 323.356h-88.483l-0.687-143.491c6.274 1.675 12.747 2.637 19.245 2.637 30.144 0 51.753-19.297 59.589-46.184h3.536c22.184 0 46.953 17.971 46.953 40.153l0.001 108.331c0 22.178-17.972 38.555-40.154 38.555zM486.081 233.904h-76.811v63.544h76.811v-63.544zM370.953 179.084v174.828c-3.2 18.965-19.596 33.456-39.48 33.456h-291.305c-22.171 0-40.167-17.984-40.167-40.154v-170.742c0-22.183 17.997-40.153 40.167-40.153h39.229c8.324 27.756 33.769 48.107 64.225 48.107 30.469 0 55.913-20.352 64.237-48.107h120.027c7.348 19.857 23.147 35.546 43.067 42.765zM256.063 207.848h-140.936v153.725h140.936v-153.725z"/>
<glyph unicode="" d="M488 480h-464c-13.2 0-24-10.8-24-24v-464c0-13.2 10.8-24 24-24h464c13.2 0 24 10.8 24 24v464c0 13.2-10.8 24-24 24zM350 97h-182v274h75v-222h107v-52z"/>
<glyph unicode="" d="M230.485 320.628c0 2.695-2.19 4.88-4.88 4.88h-21.040c-2.699 0-4.889-2.185-4.889-4.88v-5.875l30.809-23.975v29.851zM312.664 320.628c0 2.695-2.185 4.88-4.88 4.88h-21.040c-2.689 0-4.88-2.185-4.88-4.88v-29.853l30.81 23.98v5.875l-0.010-0.001zM507.121 131.335h-17.81v62.25h16.88c1.595 0 2.089 2.149 0.66 2.851l-42.859 26.159c-3.851 1.871-8.070 2.845-12.351 2.845h-10.75v7.735h24.649c2.479 0 3.49 3.205 1.439 4.62l-4.489 3.095-111.289 86.195c-4.010 2.775-9.359 2.775-13.369 0l-81.829-63.279-81.834 63.279c-4.015 2.775-9.364 2.775-13.375 0l-111.297-86.196-4.49-3.095c-2.045-1.415-1.050-4.625 1.44-4.625h24.659v-7.735h-10.751c-4.28 0-8.51-0.975-12.35-2.851l-42.861-26.153c-1.435-0.695-0.935-2.845 0.655-2.845h16.88v-62.26h-17.8c-2.689 0-4.88-2.18-4.88-4.87v-2.739c0-2.69 2.22-4.88 4.88-4.88h330.3c0 0 169.563 0 172.447 0 2.267 0 4.375 2.189 4.375 4.88v2.744c-0.010 2.695-2.19 4.875-4.881 4.875zM351.004 256.964l28.534 22.579c0.965 0.9 2.455 0.9 3.425 0l28.531-22.579c0.609-0.565 0.199-1.596-0.631-1.596h-7.154l-22.46 16.905-22.465-16.905h-7.149c-0.835 0.001-1.24 1.031-0.63 1.596zM395.103 240.384h-9.899c-1.291 0-2.33 1.050-2.33 2.345v6.855c0 1.295 1.040 2.345 2.33 2.345h9.899c1.296 0 2.341-1.050 2.341-2.345v-6.855c-0.001-1.3-1.046-2.345-2.341-2.345zM397.443 234.334v-6.851c0-1.289-1.045-2.34-2.341-2.34h-9.899c-1.291 0-2.33 1.051-2.33 2.34v6.851c0 1.291 1.040 2.34 2.33 2.34h9.899c1.296 0 2.341-1.049 2.341-2.34zM377.133 240.384h-9.899c-1.291 0-2.345 1.050-2.345 2.345v6.855c0 1.295 1.055 2.345 2.345 2.345h9.899c1.291 0 2.34-1.050 2.34-2.345v-6.855c0-1.3-1.050-2.345-2.34-2.345zM379.473 234.334v-6.851c0-1.289-1.050-2.34-2.34-2.34h-9.899c-1.291 0-2.345 1.051-2.345 2.34v6.851c0 1.291 1.055 2.34 2.345 2.34h9.899c1.291 0 2.34-1.049 2.34-2.34zM100.507 256.964l28.53 22.579c0.965 0.9 2.46 0.9 3.42 0l28.539-22.579c0.605-0.565 0.21-1.596-0.63-1.596h-7.154l-22.465 16.905-22.46-16.905h-7.15c-0.836 0.001-1.242 1.031-0.631 1.596zM144.767 240.384h-9.895c-1.291 0-2.34 1.050-2.34 2.345v6.855c0 1.295 1.045 2.345 2.34 2.345h9.895c1.291 0 2.351-1.050 2.351-2.345v-6.855c-0.012-1.3-1.061-2.345-2.351-2.345zM147.106 234.334v-6.851c0-1.289-1.050-2.34-2.345-2.34h-9.891c-1.291 0-2.34 1.051-2.34 2.34v6.851c0 1.291 1.045 2.34 2.34 2.34h9.895c1.291 0 2.34-1.049 2.34-2.34zM126.792 240.384h-9.895c-1.29 0-2.34 1.050-2.34 2.345v6.855c0 1.295 1.050 2.345 2.34 2.345h9.895c1.291 0 2.345-1.050 2.345-2.345v-6.855c-0.005-1.3-1.055-2.345-2.345-2.345zM129.132 234.334v-6.851c0-1.289-1.050-2.34-2.345-2.34h-9.891c-1.3 0-2.35 1.051-2.35 2.34v6.851c0 1.291 1.050 2.34 2.35 2.34h9.891c1.294 0 2.345-1.049 2.345-2.34zM117.707 131.335h-72.909c0 16.409 0 32.81 0 49.22 5.795 6.18 12.78 10.489 20.24 13.029 4.51 1.539 9.18 2.414 13.891 2.635 1.555 0.069 3.105 0.069 4.66 0 4.71-0.221 9.38-1.085 13.88-2.635 7.46-2.541 14.451-6.86 20.24-13.029-0.001-16.411-0.001-32.82-0.001-49.22zM198.096 131.335h-71.799c0 16.409 0 32.81 0 49.22 5.795 6.18 12.78 10.489 20.24 13.029 4.499 1.539 9.18 2.414 13.891 2.635h-1.36c1.561 0.069 4.465 0.069 6.020 0 4.71-0.221 9.38-1.085 13.88-2.635 7-2.385 13.561-6.351 19.13-11.92v-50.329zM202.48 227.484c0-1.289-1.050-2.34-2.345-2.34h-9.891c-1.3 0-2.351 1.051-2.351 2.34v6.851c0 1.291 1.050 2.34 2.351 2.34h9.891c1.291 0 2.345-1.050 2.345-2.34v-6.851zM202.48 242.724c0-1.295-1.050-2.345-2.345-2.345h-9.891c-1.3 0-2.351 1.050-2.351 2.345v6.855c0 1.295 1.050 2.345 2.351 2.345h9.891c1.291 0 2.345-1.050 2.345-2.345v-6.855zM205.876 227.484v6.851c0 1.291 1.050 2.34 2.34 2.34h9.899c1.295 0 2.346-1.050 2.346-2.34v-6.851c0-1.289-1.051-2.34-2.346-2.34h-9.899c-1.291 0-2.34 1.040-2.34 2.34zM205.876 242.724v6.855c0 1.295 1.050 2.345 2.34 2.345h9.899c1.295 0 2.346-1.050 2.346-2.345v-6.855c0-1.295-1.051-2.345-2.346-2.345h-9.899c-1.291 0.005-2.34 1.049-2.34 2.345zM234.425 131.335h-27.255v50.81c3.405 1.935 8.205 3.195 13.625 3.235 5.429-0.040 10.229-1.295 13.631-3.235v-50.81zM233.715 255.369h-7.149l-22.46 16.905-22.465-16.905h-7.154c-0.84 0-1.24 1.030-0.63 1.596l28.539 22.579c0.96 0.9 2.455 0.9 3.42 0l28.53-22.579c0.607-0.566 0.203-1.596-0.633-1.596zM269.51 131.335h-27.025v50.81c3.375 1.92 8.14 3.17 13.51 3.229 5.38-0.060 10.135-1.305 13.515-3.229v-50.81zM304.824 131.335h-27.255v50.81c3.396 1.935 8.205 3.195 13.625 3.235 5.43-0.040 10.229-1.295 13.63-3.235v-50.81zM306.113 227.484c0-1.289-1.040-2.34-2.34-2.34h-9.895c-1.291 0-2.346 1.051-2.346 2.34v6.851c0 1.291 1.056 2.34 2.346 2.34h9.895c1.3 0 2.34-1.050 2.34-2.34v-6.851zM306.113 242.724c0-1.295-1.040-2.345-2.34-2.345h-9.895c-1.291 0-2.346 1.050-2.346 2.345v6.855c0 1.295 1.056 2.345 2.346 2.345h9.895c1.3 0 2.34-1.050 2.34-2.345v-6.855zM285.435 255.369h-7.149c-0.836 0-1.24 1.030-0.631 1.596l28.535 22.579c0.965 0.9 2.455 0.9 3.42 0l28.534-22.579c0.61-0.565 0.211-1.596-0.635-1.596h-7.149l-22.46 16.905-22.465-16.905zM324.094 249.58v-6.855c0-1.295-1.045-2.345-2.34-2.345h-9.899c-1.291 0-2.34 1.050-2.34 2.345v6.855c0 1.295 1.050 2.345 2.34 2.345h9.899c1.295-0.001 2.34-1.049 2.34-2.345zM309.515 227.484v6.851c0 1.291 1.050 2.34 2.34 2.34h9.899c1.295 0 2.34-1.050 2.34-2.34v-6.851c0-1.289-1.045-2.34-2.34-2.34h-9.899c-1.281 0-2.34 1.040-2.34 2.34zM385.703 131.335h-71.799v50.329c5.564 5.569 12.135 9.534 19.13 11.92 4.5 1.539 9.171 2.414 13.875 2.635 1.561 0.069 4.471 0.069 6.031 0h-1.365c4.716-0.221 9.38-1.085 13.89-2.635 7.461-2.541 14.44-6.86 20.24-13.029-0.001-16.411-0.001-32.82-0.001-49.22zM467.202 131.335h-72.909c0 16.409 0 32.81 0 49.22 5.789 6.18 12.78 10.489 20.235 13.029 4.505 1.539 9.175 2.414 13.885 2.635 1.556 0.069 3.11 0.069 4.66 0 4.715-0.221 9.38-1.085 13.89-2.635 7.455-2.541 14.44-6.86 20.24-13.029-0.001-16.411-0.001-32.82-0.001-49.22zM142.405 180.46h-7.629c-0.99 0-1.805-0.807-1.805-1.807v-5.289c0-0.993 0.815-1.805 1.805-1.805h7.629c1 0 1.811 0.811 1.811 1.805v5.289c-0.010 1-0.811 1.807-1.811 1.807zM158.427 180.46h-7.63c-1 0-1.811-0.807-1.811-1.807v-5.289c0-0.993 0.811-1.805 1.811-1.805h7.63c0.995 0 1.805 0.811 1.805 1.805v5.289c-0.001 1-0.81 1.807-1.805 1.807zM174.446 180.46h-7.64c-0.995 0-1.806-0.807-1.806-1.807v-5.289c0-0.993 0.811-1.805 1.806-1.805h7.64c0.99 0 1.8 0.811 1.8 1.805v5.289c-0.006 1-0.81 1.807-1.8 1.807zM182.826 171.56h7.63c0.995 0 1.8 0.811 1.8 1.805v5.289c0 1-0.805 1.807-1.8 1.807h-7.63c-1 0-1.811-0.807-1.811-1.807v-5.289c0.001-0.995 0.817-1.805 1.811-1.805zM61.083 180.46h-7.63c-0.995 0-1.805-0.807-1.805-1.807v-5.289c0-0.993 0.81-1.805 1.805-1.805h7.63c0.995 0 1.805 0.811 1.805 1.805v5.289c0 1-0.82 1.807-1.805 1.807zM77.093 180.46h-7.625c-1 0-1.811-0.807-1.811-1.807v-5.289c0-0.993 0.811-1.805 1.811-1.805h7.625c0.995 0 1.805 0.811 1.805 1.805v5.289c-0.001 1-0.809 1.807-1.805 1.807zM93.107 180.46h-7.63c-1 0-1.805-0.807-1.805-1.807v-5.289c0-0.993 0.805-1.805 1.805-1.805h7.63c0.995 0 1.811 0.811 1.811 1.805v5.289c-0.001 1-0.811 1.807-1.811 1.807zM101.497 171.56h7.629c1 0 1.811 0.811 1.811 1.805v5.289c0 1-0.805 1.807-1.811 1.807h-7.63c-0.995 0-1.805-0.807-1.805-1.807v-5.289c0-0.995 0.805-1.805 1.805-1.805zM329.004 180.46h-7.625c-0.995 0-1.815-0.807-1.815-1.807v-5.289c0-0.993 0.819-1.805 1.815-1.805h7.625c0.99 0 1.811 0.811 1.811 1.805v5.289c-0.001 1-0.821 1.807-1.811 1.807zM345.019 180.46h-7.63c-0.984 0-1.8-0.807-1.8-1.807v-5.289c0-0.993 0.805-1.805 1.8-1.805h7.63c0.995 0 1.807 0.811 1.807 1.805v5.289c-0.002 1-0.811 1.807-1.807 1.807zM361.038 180.46h-7.624c-1 0-1.811-0.807-1.811-1.807v-5.289c0-0.993 0.8-1.805 1.811-1.805h7.624c0.995 0 1.807 0.811 1.807 1.805v5.289c-0.001 1-0.812 1.807-1.807 1.807zM369.424 171.56h7.629c1 0 1.811 0.811 1.811 1.805v5.289c0 1-0.805 1.807-1.811 1.807h-7.629c-0.99 0-1.811-0.807-1.811-1.807v-5.289c0-0.995 0.811-1.805 1.811-1.805zM410.508 180.46h-7.63c-0.995 0-1.815-0.807-1.815-1.807v-5.289c0-0.993 0.811-1.805 1.815-1.805h7.63c0.995 0 1.805 0.811 1.805 1.805v5.289c0 1-0.81 1.807-1.805 1.807zM426.522 180.46h-7.63c-0.99 0-1.805-0.807-1.805-1.807v-5.289c0-0.993 0.805-1.805 1.805-1.805h7.63c0.99 0 1.81 0.811 1.81 1.805v5.289c-0.001 1-0.82 1.807-1.81 1.807zM442.537 180.46h-7.625c-1 0-1.81-0.807-1.81-1.807v-5.289c0-0.993 0.81-1.805 1.81-1.805h7.625c0.995 0 1.805 0.811 1.805 1.805v5.289c0.001 1-0.81 1.807-1.805 1.807zM450.933 171.56h7.619c0.995 0 1.811 0.811 1.811 1.805v5.289c0 1-0.811 1.807-1.811 1.807h-7.619c-1.011 0-1.815-0.807-1.815-1.807v-5.289c-0.001-0.995 0.805-1.805 1.815-1.805z"/>
<glyph unicode="" d="M114.329 318.243c10.683 4.209 15.935 16.285 11.723 26.968-4.211 10.684-16.285 15.931-26.968 11.721-10.685-4.209-15.932-16.283-11.723-26.969 4.211-10.684 16.285-15.931 26.968-11.72zM163.623 169.509c-13.925 0-26.174-7.135-33.326-17.939-4.178-6.313-6.623-13.872-6.623-22.009 0-22.058 17.883-39.945 39.949-39.945 22.067 0 39.949 17.888 39.949 39.945 0 8.921-2.959 17.131-7.904 23.781-7.28 9.794-18.903 16.167-32.045 16.167zM511.917 160.147c0 0 0.839 29.793-2.813 39.596-3.652 9.801-17.659 18.39-28.289 18.229-10.629-0.16-33.45 0-33.45 0-5.864 0-12.99 3.757-15.842 8.344l-33.334 53.623c-2.853 4.592-96.877 60.879-162.504 0l-41.623-52.382c0 0-6.305 28.915-15.934 45.717-11.621 20.283-26.043 33.604-26.043 33.604-1.25 3.591-5.175 5.486-8.763 4.235-3.589-1.25-5.486-5.176-4.237-8.765 0 0 22.053-26.509 27.748-38.492 5.659-11.905-0.647 0.007-0.647 0.007l-20.8-45.891-28.275-0.001c2.42 1.104 4.525 2.916 5.967 5.359 3.822 6.479 1.531 14.912-5.121 18.835l-25.987 15.236v47.615c0 1.345-0.196 2.641-0.556 3.872-0.553 4.213-2.525 8.267-5.885 11.384-7.653 7.093-19.609 6.637-26.701-1.015l-53.791-59.735c-3.993-4.308-5.595-9.979-4.865-15.379-0.111-0.779-0.171-1.573-0.171-2.381v-129.245c0-9.265 7.511-16.775 16.775-16.775 9.265 0 16.777 7.511 16.777 16.775v122.21l30.893 34.308v-18.016c0-0.237 0.005-0.475 0.017-0.708 0-0.014 0.002-0.026 0.004-0.040-0.125-4.864 2.387-9.703 6.965-12.404l32.681-19.161c1.009-0.596 2.060-1.035 3.129-1.36-4.13-1.469-17.177-26.797-17.177-31.42l-1.679-23.956c0 0 0.472-32.852 15.293-32.583l11.121 0.005c0 0.055-0.008 0.108-0.008 0.165 0 8.215 2.053 15.943 5.638 22.738 8.177 15.507 24.44 26.091 43.189 26.091 17.765 0 33.265-9.52 41.808-23.7 4.427-7.351 7.021-15.925 7.021-25.129 0-0.038-0.007-0.071-0.007-0.116l159.735 0.016c0 0.033-0.001 0.067-0.001 0.101 0 10.756 3.565 20.651 9.525 28.667 8.776 11.807 22.789 19.49 38.631 19.49 16.788 0 31.555-8.601 40.175-21.627 5.037-7.609 7.985-16.721 7.985-26.531 0-0.050-0.004-0.098-0.004-0.146l22.012-0.023c17.911 0.002 21.419 16.841 21.419 30.757zM175.793 217.972h-25.296l18.276 40.322 13.602-39.027c0.002-0.012 0.008-0.023 0.012-0.034-2.259-0.795-4.543-1.261-6.595-1.261zM302.034 233.884c0-10.341-5.191-15.913-19.685-15.913h-56.36c-10.477-0.574-20.407 2.262-11.532 15.657l30.216 36.54c2.413 3.073 57.361 38.579 57.361-12.833v-23.451zM402.201 217.972c-10.317 0-65.487 0-65.487 0-10.083 0-17.171 3.681-17.171 14.655v23.451c0 61.821 66.087 17.164 67.967 14.091l23.417-35.281c4.6-10.398 1.762-16.916-8.726-16.916zM420.335 169.509c-13.142 0-24.765-6.373-32.044-16.167-4.945-6.651-7.904-14.859-7.904-23.781 0-22.058 17.881-39.945 39.948-39.945 22.065 0 39.949 17.888 39.949 39.945 0 8.137-2.444 15.696-6.622 22.009-7.151 10.805-19.399 17.939-33.327 17.939z"/>
<glyph unicode="" d="M450 182.3v148.365c0 24.555-18.172 44.022-28.928 55.66-1.185 1.28-2.389 2.482-3.399 3.609l-36.132 36.116-30.981 25.928-15.091-15.083 25.984-30.969 6.546-6.493v-72.325c0-15.687 12.651-28.107 28.34-28.107h24.66v-117.67l21.391-156.99c-0.301-15.43-12.836-27.829-28.336-27.829-15.675 0-28.375 12.489-28.389 28.489l0.334 0.001v198.975l-0.172 0.192c0 23.525-19.298 42.833-42.828 42.833h-43v171.519c0 22.877-18.803 41.481-42.335 41.481h-132c-23.528 0-42.665-18.605-42.665-41.481v-470.519h217v270h43c7.84 0 14.104-6.271 14.104-14.111l-0.104 0.087v-198.975h0.22c0-31 25.521-56.94 56.889-56.94 31.371-0.005 57.059 25.487 57.059 56.858l-21.169 157.382zM421 320h-24.665c-3.925 0-7.335 3.19-7.335 7.113v50.995l7.561-7.455c1.029-1.137 2.094-2.355 3.293-3.645 8.941-9.677 21.146-22.927 21.146-36.342v-10.665zM111 438.519c0 7.186 6.833 13.481 14.671 13.481h132c7.84 0 14.33-6.295 14.33-13.481v-109.040c0-7.188-6.49-13.478-14.331-13.478h-132c-7.837 0-14.669 6.289-14.669 13.478l-0.001 109.040z"/>
<glyph unicode="" d="M405.642 323.887c17.164 19.974 43.121 24.377 43.121 24.377s0 69.961 0 93.166c0 2.231-2.637 7.358-7.271 7.358l-370.187 0.001c-7.271 0-8.055-7.591-8.055-8.952 0-24.682 0-91.933 0-91.933s23.379 0.449 42.817-23.451c15.296-18.829 15.484-52.536 15.484-52.536l0.463-42.483 267.358-2.781c0.002-0.001-7.413 69.685 16.269 97.236zM379.293 211.369h-247.050c-5.577 0-10.109-4.534-10.109-10.125v-53.651c0-5.591 4.534-10.109 10.109-10.109h247.051c5.591 0 10.109 4.519 10.109 10.109v53.651c0 5.591-4.519 10.125-10.11 10.125zM379.293 123.056h-247.050c-5.577 0-10.109-4.519-10.109-10.109v-73.352c0-5.576 4.534-10.109 10.109-10.109h247.051c5.591 0 10.109 4.533 10.109 10.109v73.352c0 5.589-4.519 10.109-10.11 10.109zM52.447 332.49c-38.355 0-52.927-37.139-52.435-48.799 0.493-11.647 13.109-31.548 17.469-35.922 4.375-4.36 33.996-37.863 33.996-54.853 0-16.991 0-179.625 0-179.625s-2.419-13.601 6.793-13.601c9.227 0 17.961-0.479 17.961-0.479h20.395c0 0 9.705 0.971 10.689 12.139 0.956 11.168 0 276.715 0 276.715s-16.512 44.425-54.867 44.425zM494.52 247.77c4.36 4.374 16.99 24.276 17.468 35.922 0.493 11.66-14.079 48.799-52.42 48.799-38.355 0-54.867-44.425-54.867-44.425s-0.971-265.547 0-276.715 10.689-12.139 10.689-12.139h20.38c0 0 8.735 0.479 17.961 0.479s6.808 13.601 6.808 13.601 0 162.634 0 179.625c0 16.989 29.608 50.492 33.981 54.853z"/>
<glyph unicode="" d="M464.636 334.849h-103.931l-0.803-157.632c7.224 2.074 14.807 3.252 22.693 3.252 35.575 0 65.755-22.764 76.989-54.492h5.051c26.166 0 47.364 21.213 47.364 47.379l0.001 114.128c0.001 26.166-21.197 47.365-47.363 47.365zM482.485 241.766h-93.082v64.717h93.082v-64.717zM127.73 155.492c-35.423 0-64.149-28.713-64.149-64.135 0-35.409 28.725-64.135 64.149-64.135 35.423 0 64.121 28.725 64.121 64.135 0.001 35.423-28.697 64.135-64.121 64.135zM127.149 73.769c-10.655 0-19.289 8.635-19.289 19.289 0 10.668 8.635 19.303 19.289 19.303s19.289-8.635 19.289-19.303c0-10.654-8.633-19.289-19.289-19.289zM383.536 155.492c-35.409 0-64.135-28.713-64.135-64.135 0-35.409 28.726-64.135 64.135-64.135 35.423 0 64.149 28.725 64.149 64.135 0.001 35.423-28.726 64.135-64.149 64.135zM382.969 73.769c-10.654 0-19.289 8.635-19.289 19.289 0 10.668 8.635 19.303 19.289 19.303 10.655 0 19.303-8.635 19.303-19.303-0.001-10.654-8.648-19.289-19.303-19.289zM350.798 175.404v169.753h160.87v28.243c0 26.166-23.136 47.377-49.301 47.377h-415.003c-26.152 0-47.364-21.212-47.364-47.377v-200.043c0-26.166 21.212-47.379 47.364-47.379h4.788c9.769 32.822 40.141 56.76 76.132 56.76 35.99 0 66.363-23.938 76.131-56.76h98.382c8.329 22.486 25.819 40.488 48.001 49.427zM123.745 259.935h-20.438v74.913h20.438v-74.913zM180.505 259.935h-20.424v76.048h20.424v-76.048zM237.265 258.8h-19.289v77.183h19.289v-77.183z"/>
<glyph unicode="" d="M425.505 432.68v-417.364c0-26.375-20.95-47.315-47.324-47.315h-244.365c-26.375 0-47.321 20.94-47.321 47.315v417.364c0 26.373 20.945 47.32 47.321 47.32h244.364c26.375 0 47.325-20.943 47.325-47.32zM371.975 394.669h-231.954v-65.167h231.954l0.001 65.167zM182.694 235.636c0 11.633-10.091 20.945-20.951 20.945-11.632 0-20.945-9.307-20.945-20.945 0-10.865 9.308-20.945 20.945-20.945 10.861 0 20.951 10.085 20.951 20.945zM182.694 172.801c0 11.631-10.091 20.94-20.951 20.94-11.632 0-20.945-9.305-20.945-20.94 0-11.64 9.308-20.949 20.945-20.949 10.861 0.004 20.951 9.313 20.951 20.949zM182.694 109.966c0 11.636-10.091 20.945-20.951 20.945-11.632 0-20.945-9.31-20.945-20.945 0-11.641 9.308-20.944 20.945-20.944 10.861-0.001 20.951 9.303 20.951 20.944zM182.694 46.352c0 11.635-10.091 20.943-20.951 20.943-11.632 0-20.945-9.304-20.945-20.943 0-10.86 9.308-20.951 20.945-20.951 10.861-0.001 20.951 10.091 20.951 20.951zM245.523 235.636c0 11.633-9.31 20.945-20.945 20.945-11.64 0-20.945-9.307-20.945-20.945 0-10.865 9.305-20.945 20.945-20.945 11.635 0 20.945 10.085 20.945 20.945zM245.523 172.801c0 11.631-9.31 20.94-20.945 20.94-11.64 0-20.945-9.305-20.945-20.94 0-11.64 9.305-20.949 20.945-20.949 11.635 0.004 20.945 9.313 20.945 20.949zM245.523 109.966c0 11.636-9.31 20.945-20.945 20.945-11.64 0-20.945-9.31-20.945-20.945 0-11.641 9.305-20.944 20.945-20.944 11.635-0.001 20.945 9.303 20.945 20.944zM245.523 46.352c0 11.635-9.31 20.943-20.945 20.943-11.64 0-20.945-9.304-20.945-20.943 0-10.86 9.305-20.951 20.945-20.951 11.635-0.001 20.945 10.091 20.945 20.951zM308.364 235.636c0 11.633-9.311 20.945-20.95 20.945-11.636 0-20.951-9.307-20.951-20.945 0-10.865 9.312-20.945 20.951-20.945s20.95 10.085 20.95 20.945zM308.364 172.801c0 11.631-9.311 20.94-20.95 20.94-11.636 0-20.951-9.305-20.951-20.94 0-11.64 9.312-20.949 20.951-20.949 11.64 0.004 20.95 9.313 20.95 20.949zM308.364 109.966c0 11.636-9.311 20.945-20.95 20.945-11.636 0-20.951-9.31-20.951-20.945 0-11.641 9.312-20.944 20.951-20.944s20.95 9.303 20.95 20.944zM308.364 46.352c0 11.635-9.311 20.943-20.95 20.943-11.636 0-20.951-9.304-20.951-20.943 0-10.86 9.312-20.951 20.951-20.951s20.95 10.091 20.95 20.951zM371.975 235.636c0 11.633-10.091 20.945-20.95 20.945-11.63 0-20.94-9.307-20.94-20.945 0-10.865 9.305-20.945 20.94-20.945 10.87 0 20.95 10.085 20.95 20.945zM371.975 172.801c0 11.631-10.091 20.94-20.95 20.94-11.63 0-20.94-9.305-20.94-20.94 0-11.64 9.305-20.949 20.94-20.949 10.87 0.004 20.95 9.313 20.95 20.949zM371.975 109.966c0 11.636-10.091 20.945-20.95 20.945-11.63 0-20.94-9.31-20.94-20.945 0-11.641 9.305-20.944 20.94-20.944 10.87-0.001 20.95 9.303 20.95 20.944zM371.975 46.352c0 11.635-10.091 20.943-20.95 20.943-11.63 0-20.94-9.304-20.94-20.943 0-10.86 9.305-20.951 20.94-20.951 10.87-0.001 20.95 10.091 20.95 20.951z"/>
<glyph unicode="" d="M469.345 147.589v-79.55h42v118.931h-469.673v172.059c0 11.51-9.228 20.93-20.87 20.93v0c-11.514 0-20.802-9.42-20.802-20.93v-290.99h41.672v79.55h427.673zM105.785 275.16c20.867 0 37.745 16.875 37.745 37.811 0 20.803-16.877 37.678-37.745 37.678-20.87 0-37.751-16.875-37.751-37.678 0.001-20.931 16.875-37.811 37.751-37.811zM512 218.24l-0.13 51.951c-0.13 16.485-13.995 27.865-30.089 29.825l-296.51 29.575c-0.589 0.128-1.115 0.395-1.635 0.395-10.275 0-18.577-8.375-18.577-18.575v-56.005l-77.526-0.001c-10.405 0-18.71-8.375-18.71-18.58 0-10.335 8.311-18.585 18.71-18.585h424.468z"/>
<glyph unicode="" d="M457.065 79.97c-2.592 2.649-3.642 3.030-7.129 3.030h-393.545c-3.516 0-6.696-0.381-9.362-3.030-2.598-2.579-4.029-4.704-4.029-8.19v-78.717c0-3.511 1.431-9.025 4.029-11.651 2.667-2.649 5.847-6.411 9.362-6.411h393.545c3.487 0 4.537 3.762 7.129 6.411 2.627 2.626 1.935 8.141 1.935 11.651v78.717c0 3.486 0.692 5.611-1.935 8.19zM252.618 140.312l134.873 156.688h-82.491v160.293c0 3.522-2.011 8.86-4.639 11.521-2.601 2.592-6.334 6.186-9.821 6.186h-78.715c-3.51 0-7.413-3.594-10.039-6.187-2.639-2.66-4.786-7.998-4.786-11.52v-160.293h-83.231l138.849-156.688z"/>
<glyph unicode="" d="M134.938 311.609c46.484 0 84.196 37.712 84.196 84.189 0 46.494-37.713 84.202-84.196 84.202-46.489 0-84.194-37.709-84.194-84.202 0-46.476 37.706-84.189 84.194-84.189zM133.907 280.45c-49.19 0-133.001-34.837-133.907-101.183v-173.651c0 0 113.884-84.245 267.815-0.584v174.235c-0.111 66.034-84.71 101.183-133.908 101.183zM133.722 29.877l-38.608 43.762c0 0 30.495 122.876 30.495 124.268 0 0.030-0.063 0.154-0.094 0.249h0.032l-10.931 21.75h37.962l-10.334-22.013h-0.075c2.303-10.7 28.185-124.254 28.185-124.254l-36.631-43.762z" horiz-adv-x="268"/>
<glyph unicode="" d="M0 480l512-512h-512z"/>
</font>
</defs>
</svg>
